<svg width="27" height="24" viewBox="0 0 27 24" fill="none" xmlns="http://www.w3.org/2000/svg">
<g filter="url(#filter0_d_120_22269)">
<rect x="3" width="21.3333" height="18" rx="1.33333" fill="#1151B1" fill-opacity="0.36" shape-rendering="crispEdges"/>
</g>
<path d="M14.0007 3.3335L9.33398 5.3335L14.0007 7.3335L18.6673 5.3335L14.0007 3.3335Z" stroke="#1151B1" stroke-width="0.666667" stroke-linejoin="round"/>
<path fill-rule="evenodd" clip-rule="evenodd" d="M11.1067 7.54443L9.20203 8.36073C9.07947 8.41326 9 8.53377 9 8.66712C9 8.80046 9.07947 8.92097 9.20203 8.9735L13.8687 10.9735C13.9525 11.0094 14.0475 11.0094 14.1313 10.9735L18.798 8.9735C18.9205 8.92097 19 8.80046 19 8.66712C19 8.53377 18.9205 8.41326 18.798 8.36073L16.8933 7.54443L16.0471 7.90709L17.8205 8.66712L14 10.3045L10.1795 8.66712L11.9529 7.90709L11.1067 7.54443Z" fill="#1151B1"/>
<path fill-rule="evenodd" clip-rule="evenodd" d="M11.1067 10.8774L9.20203 11.6937C9.07947 11.7463 9 11.8668 9 12.0001C9 12.1335 9.07947 12.254 9.20203 12.3065L13.8687 14.3065C13.9525 14.3424 14.0475 14.3424 14.1313 14.3065L18.798 12.3065C18.9205 12.254 19 12.1335 19 12.0001C19 11.8668 18.9205 11.7463 18.798 11.6937L16.8933 10.8774L16.0471 11.2401L17.8205 12.0001L14 13.6375L10.1795 12.0001L11.9529 11.2401L11.1067 10.8774Z" fill="#1151B1"/>
<defs>
<filter id="filter0_d_120_22269" x="0.333333" y="0" width="26.6673" height="23.3333" filterUnits="userSpaceOnUse" color-interpolation-filters="sRGB">
<feFlood flood-opacity="0" result="BackgroundImageFix"/>
<feColorMatrix in="SourceAlpha" type="matrix" values="0 0 0 0 0 0 0 0 0 0 0 0 0 0 0 0 0 0 127 0" result="hardAlpha"/>
<feOffset dy="2.66667"/>
<feGaussianBlur stdDeviation="1.33333"/>
<feComposite in2="hardAlpha" operator="out"/>
<feColorMatrix type="matrix" values="0 0 0 0 0 0 0 0 0 0 0 0 0 0 0 0 0 0 0.25 0"/>
<feBlend mode="normal" in2="BackgroundImageFix" result="effect1_dropShadow_120_22269"/>
<feBlend mode="normal" in="SourceGraphic" in2="effect1_dropShadow_120_22269" result="shape"/>
</filter>
</defs>
</svg>
