<svg width="19" height="20" viewBox="0 0 19 20" fill="none" xmlns="http://www.w3.org/2000/svg">
<path d="M18.4743 10.5635C18.4743 12.713 18.4743 14.8626 18.4743 17.0121C18.4743 17.2578 18.413 17.3192 18.1675 17.3192C15.7738 17.3192 13.3801 17.3192 10.9864 17.3192C10.833 17.3192 10.7716 17.3499 10.8023 17.5034C10.8023 17.8105 10.8023 17.8105 11.1398 17.8105C11.2933 17.8105 11.4774 17.8105 11.6309 17.8105C11.7536 17.8105 11.815 17.8719 11.815 17.9947C11.815 18.3018 11.815 18.6089 11.815 18.916C11.815 19.0695 11.7229 19.1002 11.5695 19.1002C10.7102 19.1002 9.82025 19.1002 8.96097 19.1002C6.10697 19.1002 3.28365 19.1002 0.429639 19.1002C0.368262 19.1002 0.276194 19.1002 0.214817 19.1002C0.0920639 19.1002 0 19.0388 0 18.8853C0 18.6089 0 18.3018 0 18.0255C0 17.8719 0.0613756 17.8105 0.214817 17.8105C0.429635 17.8105 0.613765 17.7798 0.828582 17.8105C1.01271 17.8412 1.0434 17.7491 1.0434 17.5955C1.0434 17.442 1.0434 17.2885 1.0434 17.1349C1.0434 16.9507 1.10478 16.8893 1.28891 16.8893C1.44235 16.8893 1.5651 16.8893 1.71855 16.8893C1.8413 16.8893 1.87199 16.8279 1.87199 16.7357C1.8413 16.5515 1.81061 16.3672 1.81061 16.183C1.74923 15.0775 1.68785 13.972 1.74923 12.8666C1.77992 12.4059 1.77992 11.9453 1.87199 11.4847C1.90267 11.3619 1.8413 11.3005 1.71855 11.3312C1.59579 11.3312 1.47304 11.3312 1.3196 11.3312C1.10478 11.3312 1.07409 11.2697 1.07409 11.0548C1.07409 10.9013 1.07409 10.7477 1.07409 10.5942C1.07409 10.4713 1.0434 10.4099 0.920648 10.4099C0.70583 10.4099 0.521701 10.4099 0.306883 10.4099C0.18413 10.4099 0.0920639 10.3792 0.0613756 10.2564C0.0306873 10.1336 0.122752 10.0721 0.214817 10.0107C0.828582 9.64224 1.47304 9.30445 2.05611 8.93596C2.57781 8.59817 3.13021 8.2911 3.65191 7.98402C4.2043 7.64623 4.75669 7.30845 5.33976 7.00137C5.46252 6.93995 5.58526 6.84783 5.73871 6.78642C5.83077 6.75571 5.80009 6.66358 5.80009 6.60217C5.80009 4.54475 5.80009 2.48733 5.80009 0.429908C5.80009 0.368492 5.80009 0.307077 5.80009 0.214953C5.80009 0.0614146 5.86146 0 6.0149 0C6.10696 0 6.19904 0 6.2911 0C9.02236 0 11.7229 0 14.4542 0C14.6076 0 14.6997 0.0614155 14.8224 0.153539C15.2521 0.583448 15.6817 1.01336 16.0807 1.44326C16.541 1.90388 17.0013 2.3645 17.4616 2.82511C17.7992 3.13219 18.1061 3.46998 18.4436 3.77705C18.5357 3.86918 18.5664 3.9613 18.5664 4.08413C18.4743 6.26438 18.4743 8.41393 18.4743 10.5635ZM18.0754 10.5635C18.0754 8.50605 18.0754 6.47934 18.0754 4.42192C18.0754 4.26838 18.014 4.20696 17.8913 4.20696C17.4003 4.14555 16.8786 4.08413 16.3875 3.99201C15.9886 3.93059 15.6203 3.86918 15.2214 3.83847C14.9759 3.80776 14.9145 3.74635 14.8838 3.53139C14.8224 3.10148 14.7304 2.67157 14.6383 2.24167C14.5156 1.68893 14.4235 1.1669 14.3314 0.614155C14.3007 0.491324 14.27 0.460616 14.1473 0.460616C11.5388 0.460616 8.93028 0.460616 6.32178 0.460616C6.13765 0.460616 6.10697 0.522031 6.10697 0.67557C6.10697 2.64087 6.10697 4.60616 6.10697 6.57146C6.10697 6.725 6.13766 6.84783 6.2911 6.93995C6.78211 7.21632 7.24243 7.49269 7.73344 7.76906C8.04033 7.95331 8.31652 8.10685 8.6234 8.2911C9.11441 8.56747 9.57474 8.84383 10.0658 9.1202C10.6181 9.42728 11.1705 9.79578 11.7229 10.0721C11.815 10.1029 11.8457 10.2257 11.815 10.3178C11.7843 10.4406 11.7229 10.4713 11.6002 10.4713C11.3854 10.4713 11.1705 10.4713 10.9557 10.4713C10.833 10.4713 10.8023 10.5021 10.8023 10.6249C10.8023 10.7784 10.8023 10.9013 10.8023 11.0548C10.8023 11.3312 10.7409 11.3926 10.4647 11.3926C10.3419 11.3926 10.2192 11.3926 10.0658 11.3926C9.97369 11.3926 9.97369 11.3926 9.97369 11.4847C10.0351 12.0374 10.0964 12.6209 10.0964 13.1736C10.1271 14.3712 10.0964 15.5688 9.97369 16.7357C9.94301 16.92 10.0044 16.92 10.1578 16.92C12.7356 16.92 15.2828 16.92 17.8606 16.92C18.014 16.92 18.0447 16.8893 18.0447 16.7357C18.0754 14.6476 18.0754 12.5902 18.0754 10.5635ZM10.7716 10.0107C10.7716 9.98002 10.7716 9.94932 10.7409 9.94932C10.0658 9.55012 9.39061 9.15091 8.71547 8.75171C7.79482 8.22968 6.90487 7.67694 5.98422 7.15491C5.92284 7.1242 5.86146 7.1242 5.80009 7.15491C5.61596 7.24703 5.43182 7.36986 5.24769 7.49269C4.63393 7.86119 3.98948 8.19897 3.37571 8.56747C2.70057 8.96667 2.02543 9.33516 1.38097 9.76507C1.25822 9.82648 1.10478 9.8879 0.982024 10.0107C4.29636 10.0107 7.54931 10.0107 10.7716 10.0107ZM8.19377 14.1256C8.16308 13.235 8.22445 12.3138 8.31652 11.4233C8.31652 11.3312 8.28584 11.3312 8.22446 11.3312C7.76413 11.3312 7.30381 11.3312 6.84349 11.3312C6.75142 11.3312 6.75142 11.3619 6.72073 11.454C6.72073 11.6075 6.72074 11.7611 6.75142 11.9146C6.84349 12.4059 6.8128 12.8973 6.84349 13.3886C6.87417 14.2177 6.84348 15.0775 6.8128 15.9066C6.8128 16.183 6.72073 16.4901 6.72073 16.7664C6.72073 16.8279 6.72073 16.8893 6.8128 16.8893C7.27312 16.8893 7.73344 16.8893 8.19377 16.8893C8.22446 16.8893 8.28584 16.8893 8.28584 16.8279C8.25515 16.6743 8.28584 16.5515 8.25515 16.3979C8.19377 15.661 8.22446 14.8933 8.19377 14.1256ZM4.26567 16.8893C4.51118 16.8893 4.72599 16.8893 4.9715 16.8893C5.03288 16.8893 5.09425 16.8893 5.09425 16.7971C5.00219 16.2137 5.00219 15.661 4.9715 15.0775C4.87943 13.8799 4.9715 12.6823 5.12494 11.4847C5.12494 11.3926 5.12494 11.3312 5.00219 11.3312C4.57255 11.3312 4.14291 11.3312 3.71328 11.3312C3.49846 11.3312 3.49847 11.3312 3.52916 11.5461C3.59053 12.0374 3.59053 12.5288 3.62122 13.0201C3.68259 13.9106 3.6519 14.8011 3.59053 15.6917C3.55984 16.0295 3.55984 16.3672 3.49847 16.7357C3.46778 16.8586 3.49847 16.92 3.65191 16.92C3.86673 16.8893 4.08154 16.8893 4.26567 16.8893ZM9.75887 14.1256C9.75887 13.2658 9.6975 12.4059 9.60543 11.5461C9.57474 11.3926 9.54406 11.3005 9.35993 11.3312C9.23717 11.3312 9.08373 11.3619 8.96097 11.3312C8.77684 11.3005 8.71547 11.3926 8.71547 11.5768C8.68478 11.9146 8.68478 12.2217 8.65409 12.5595C8.56203 13.3579 8.59272 14.187 8.59272 14.9854C8.59272 15.5074 8.6541 16.0295 8.71547 16.5515C8.74616 16.92 8.77685 16.92 9.14511 16.92C9.60543 16.92 9.60543 16.92 9.63612 16.4594C9.6975 15.661 9.75887 14.8933 9.75887 14.1256ZM5.30907 14.187C5.33976 15.0161 5.37045 15.9066 5.4932 16.8279C5.4932 16.92 5.52389 16.92 5.58526 16.92C5.76939 16.92 5.98421 16.92 6.16834 16.92C6.29109 16.92 6.32178 16.8586 6.35247 16.7664C6.38316 16.3979 6.41385 16.0602 6.44454 15.6917C6.53661 14.3098 6.50591 12.8973 6.35247 11.5154C6.35247 11.4233 6.32178 11.3619 6.19903 11.3926C6.0149 11.3926 5.80008 11.3926 5.61595 11.3926C5.52389 11.3926 5.52389 11.4233 5.4932 11.5154C5.43183 11.7918 5.43182 12.0989 5.43182 12.4059C5.37045 12.8973 5.33976 13.4807 5.30907 14.187ZM2.0868 14.0027C2.11749 14.9854 2.11749 15.9066 2.24024 16.7971C2.24024 16.8586 2.27093 16.8893 2.33231 16.8893C2.54712 16.8893 2.76195 16.8893 3.00745 16.8893C3.06883 16.8893 3.09951 16.8586 3.09951 16.7971C3.09951 16.4594 3.19158 16.1216 3.19158 15.7838C3.22227 14.4941 3.28364 13.1736 3.1302 11.8839C3.09951 11.6997 3.1609 11.4847 3.03814 11.3619C2.94608 11.239 2.70057 11.3312 2.51644 11.3312C2.27093 11.3312 2.27093 11.3312 2.24024 11.5768C2.0868 12.4059 2.11749 13.235 2.0868 14.0027ZM5.92284 18.179C4.20429 18.179 2.45506 18.179 0.736521 18.179C0.39895 18.179 0.429637 18.179 0.398948 18.5168C0.398948 18.6703 0.429639 18.701 0.58308 18.701C4.08154 18.701 7.58 18.701 11.0785 18.701C11.416 18.701 11.416 18.701 11.416 18.3632C11.416 18.2097 11.3853 18.179 11.2319 18.179C9.45199 18.179 7.70276 18.179 5.92284 18.179ZM5.95353 17.2885C4.54187 17.2885 3.16089 17.2885 1.74923 17.2885C1.44235 17.2885 1.44235 17.2885 1.44235 17.5955C1.44235 17.7491 1.47304 17.8105 1.65717 17.8105C4.48049 17.8105 7.27312 17.8105 10.0964 17.8105C10.4033 17.8105 10.4033 17.8105 10.434 17.5034C10.434 17.3499 10.3726 17.3192 10.2499 17.3192C8.77685 17.2885 7.36519 17.2885 5.95353 17.2885ZM5.89215 10.4406C4.4498 10.4406 3.03814 10.4406 1.59579 10.4406C1.53441 10.4406 1.47304 10.4099 1.44235 10.4713C1.41166 10.5942 1.41166 10.7477 1.44235 10.8705C1.47304 10.9627 1.59579 10.932 1.65717 10.932C4.48049 10.932 7.27312 10.932 10.0964 10.932C10.4033 10.932 10.3726 10.932 10.4033 10.6249C10.4033 10.4713 10.3726 10.4406 10.2192 10.4406C8.77685 10.4406 7.3345 10.4406 5.89215 10.4406ZM17.6764 3.71564C16.7251 2.7637 15.7738 1.81176 14.8224 0.859816C14.8224 1.04406 14.8531 1.1976 14.9145 1.35114C15.0679 2.02671 15.16 2.70228 15.3135 3.34715C15.3135 3.40856 15.3441 3.40856 15.4055 3.40856C16.0807 3.50068 16.7558 3.59281 17.4309 3.68493C17.4923 3.71564 17.5537 3.77705 17.6764 3.71564Z" fill="#1151B1"/>
<path d="M12.3367 7.30843C11.1092 7.30843 9.91236 7.30843 8.68483 7.30843C8.59277 7.30843 8.53139 7.30843 8.47001 7.24702C8.37795 7.12419 8.43933 6.97065 8.59277 6.93994C8.65415 6.93994 8.71552 6.93994 8.7769 6.93994C11.1706 6.93994 13.5643 6.93994 15.958 6.93994C16.0193 6.93994 16.0807 6.93994 16.1421 6.93994C16.2648 6.93994 16.2955 7.00136 16.2955 7.12419C16.2955 7.24702 16.2648 7.30843 16.1421 7.30843C16.0807 7.30843 16.0193 7.30843 15.958 7.30843C14.7304 7.30843 13.5336 7.30843 12.3367 7.30843Z" fill="#1151B1"/>
<path d="M9.14472 4.45283C9.14472 4.20716 8.96059 3.99221 8.6537 3.90009C8.4082 3.80796 8.1627 3.77726 7.97857 3.5623C7.54893 3.10168 7.70237 2.42611 8.31613 2.18045C8.4082 2.14974 8.43889 2.11904 8.4082 2.02691C8.37751 1.87337 8.46958 1.81196 8.59233 1.78125C8.71509 1.78125 8.80715 1.87337 8.80715 1.99621C8.80715 2.11904 8.83783 2.14974 8.96059 2.14974C9.14472 2.18045 9.29816 2.30328 9.42091 2.45682C9.48229 2.51824 9.48229 2.64107 9.42091 2.73319C9.35953 2.79461 9.26747 2.85602 9.14472 2.73319C8.99128 2.57965 8.83783 2.51824 8.62301 2.51824C8.37751 2.51824 8.1627 2.70248 8.13201 2.88673C8.10132 3.10169 8.25476 3.31664 8.50026 3.40876C8.83783 3.53159 9.1754 3.65443 9.39022 3.9615C9.6971 4.3607 9.51298 5.06698 9.02197 5.25123C8.86853 5.31264 8.77646 5.34335 8.77646 5.5276C8.77646 5.65043 8.6844 5.68114 8.56164 5.65043C8.43889 5.65043 8.37751 5.55831 8.37751 5.49689C8.4082 5.31264 8.28544 5.28194 8.16269 5.25123C7.94787 5.18981 7.79444 5.03627 7.67169 4.85203C7.61031 4.7292 7.6103 4.63707 7.70237 4.57566C7.82512 4.48354 7.91718 4.54495 8.00925 4.63707C8.22407 4.91344 8.43888 4.97486 8.77646 4.88274C9.05265 4.85203 9.14472 4.63707 9.14472 4.45283Z" fill="#1151B1"/>
<path d="M13.5032 5.68094C12.6746 5.68094 11.8153 5.68094 10.9867 5.68094C10.8026 5.68094 10.7412 5.61953 10.7412 5.49669C10.7412 5.37386 10.864 5.28174 10.9867 5.28174C12.6439 5.28174 14.3317 5.28174 15.9889 5.28174C16.1117 5.28174 16.2037 5.31245 16.2344 5.46598C16.2651 5.65023 16.2037 5.68094 16.0196 5.68094C15.8968 5.68094 15.7741 5.68094 15.6206 5.68094C14.9148 5.68094 14.209 5.68094 13.5032 5.68094Z" fill="#1151B1"/>
<path d="M13.718 12.1912C12.9508 12.1912 12.2142 12.1912 11.447 12.1912C11.355 12.1912 11.2629 12.1912 11.2322 12.0684C11.2015 11.9455 11.2322 11.8841 11.3243 11.8227C11.355 11.792 11.4163 11.792 11.447 11.792C12.9508 11.792 14.4852 11.792 15.9889 11.792C16.1423 11.792 16.2344 11.8227 16.2344 12.0069C16.2344 12.1912 16.1116 12.1912 15.9889 12.1912C15.2217 12.1912 14.4545 12.1912 13.718 12.1912Z" fill="#1151B1"/>
<path d="M13.7176 8.56787C14.4848 8.56787 15.2213 8.56787 15.9885 8.56787C16.2034 8.56787 16.234 8.59858 16.234 8.78282C16.234 8.90566 16.142 8.93636 16.0499 8.96707C16.0192 8.96707 15.9885 8.96707 15.9579 8.96707C14.4848 8.96707 12.9811 8.96707 11.5081 8.96707C11.2932 8.96707 11.2012 8.90566 11.2012 8.72141C11.2012 8.62929 11.2319 8.56787 11.3546 8.56787C11.4467 8.56787 11.5081 8.56787 11.6001 8.56787C12.3059 8.56787 13.0118 8.56787 13.7176 8.56787Z" fill="#1151B1"/>
<path d="M14.3931 10.5945C13.902 10.5945 13.411 10.5945 12.92 10.5945C12.8893 10.5945 12.8586 10.5945 12.828 10.5945C12.6438 10.5945 12.5518 10.5023 12.5518 10.3795C12.5518 10.2567 12.6745 10.1646 12.828 10.1646C13.8714 10.1646 14.9148 10.1646 15.9582 10.1646C16.0809 10.1646 16.2037 10.1646 16.2037 10.3488C16.2037 10.533 16.1423 10.5638 15.9582 10.5638C15.4671 10.5945 14.9454 10.5945 14.3931 10.5945Z" fill="#1151B1"/>
<path d="M12.5513 13.8186C12.091 13.8186 11.6 13.8186 11.1396 13.8186C10.9862 13.8186 10.9248 13.7879 10.9248 13.6036C10.9248 13.4501 11.0169 13.3887 11.1396 13.3887C12.091 13.3887 13.0423 13.3887 13.963 13.3887C14.1164 13.3887 14.2085 13.4501 14.2085 13.6036C14.2085 13.7572 14.1164 13.7879 13.963 13.7879C13.5026 13.8186 13.0423 13.8186 12.5513 13.8186Z" fill="#1151B1"/>
<path d="M12.1214 4.0535C11.7532 4.0535 11.4156 4.0535 11.0474 4.0535C11.0167 4.0535 10.9553 4.0535 10.9246 4.0535C10.8325 4.0535 10.7712 3.99208 10.7405 3.89996C10.7098 3.80783 10.8018 3.74642 10.8632 3.685C10.9246 3.6543 10.986 3.6543 11.0474 3.6543C11.7839 3.6543 12.5204 3.6543 13.2569 3.6543C13.2876 3.6543 13.349 3.6543 13.3797 3.685C13.4717 3.71571 13.5638 3.77713 13.5638 3.89996C13.5638 4.02279 13.4717 4.0842 13.349 4.0842C13.1648 4.0842 12.95 4.0842 12.7659 4.0842C12.5511 4.0535 12.3363 4.0535 12.1214 4.0535Z" fill="#1151B1"/>
</svg>
