<svg width="18" height="14" viewBox="0 0 18 14" fill="none" xmlns="http://www.w3.org/2000/svg">
<path d="M17.8946 8.94776C17.8266 8.90241 17.8266 8.83439 17.8266 8.81172C17.804 8.63032 17.7586 8.44892 17.6453 8.24485C17.2828 7.51925 16.6483 6.97506 15.7192 6.54424C15.334 6.36284 14.9487 6.27214 14.4502 6.15877L14.2236 6.11342L14.4729 5.93202C15.198 5.38783 15.6059 4.63956 15.6286 3.7099C15.6512 3.18838 15.5153 2.71221 15.2433 2.21337C14.7221 1.32905 13.929 0.830205 12.8867 0.762181C12.5241 0.739506 12.1389 0.80753 11.731 0.943578C11.5724 0.988928 11.4591 0.988929 11.3458 0.875555C11.2325 0.784856 11.0965 0.671482 10.9379 0.558108C10.2581 0.127288 9.48761 -0.0541102 8.67183 0.013914C7.85606 0.0819383 7.19891 0.354036 6.60974 0.875555C6.49644 0.966254 6.38314 0.988928 6.24718 0.943578C5.77131 0.76218 5.27278 0.716831 4.72893 0.784856C3.52793 0.966254 2.53088 1.96394 2.3496 3.14303C2.19097 4.25409 2.55354 5.18376 3.41463 5.90935C3.52793 5.97737 3.50527 6.06807 3.48261 6.11342L3.45995 6.15877L3.34665 6.18145C2.75748 6.34017 2.10033 6.54424 1.4885 6.92971C0.740711 7.42855 0.287503 7.97275 0.10622 8.67567C-0.00708147 9.06114 -0.0297417 9.51463 0.0382394 10.0135C0.10622 10.671 0.514107 11.0112 1.21658 11.0338H1.39786C1.6018 11.0338 1.82841 11.0338 2.03235 11.0112C2.12299 11.0112 2.19097 11.0112 2.25895 11.0792C2.32693 11.1472 2.32693 11.2379 2.32693 11.3059C2.32693 11.51 2.32693 11.7141 2.32693 11.9182V12.1222C2.32693 12.8251 2.78014 13.2786 3.48261 13.2786H12.5014C12.7054 13.2786 12.9093 13.2786 13.0906 13.2786C13.6118 13.2786 14.1556 13.2786 14.6995 13.256C15.266 13.2333 15.6512 12.8025 15.6512 12.2129V12.1449C15.6512 11.8501 15.6512 11.5554 15.6512 11.2606C15.6512 11.2152 15.6512 11.1245 15.7192 11.0792C15.7645 11.0338 15.8552 11.0112 15.9005 11.0112C16.0818 11.0112 16.2631 11.0112 16.4443 11.0112H16.7163C17.1241 11.0112 17.4187 10.8978 17.668 10.6257C17.7586 10.5123 17.804 10.3989 17.8493 10.2629C17.8719 10.2175 17.8946 10.1495 17.9173 10.1042L17.8946 8.94776ZM12.0256 1.44242C12.0709 1.35172 12.1615 1.35172 12.3201 1.32905H12.3428C12.9773 1.23835 13.5211 1.32905 13.9744 1.6465C14.7221 2.14534 15.13 2.80291 15.1074 3.50582C15.0847 4.16339 14.9034 4.70759 14.5862 5.13841C14.2689 5.54655 13.8384 5.84132 13.2719 5.97737C13.1133 6.02272 12.9773 6.02272 12.8187 6.02272C12.5921 6.02272 12.3881 6.00005 12.1615 5.9547C12.1389 5.9547 12.0482 5.93202 12.0029 5.864C11.9576 5.79597 12.0029 5.70527 12.0482 5.65992C12.3881 5.09306 12.5921 4.52619 12.6147 3.91397C12.6601 3.14303 12.5014 2.44011 12.0935 1.78254C12.0256 1.60115 11.9802 1.53312 12.0256 1.44242ZM8.98908 0.512758C9.80485 0.512758 10.6206 0.85288 11.2098 1.4651C11.799 2.05464 12.1162 2.84826 12.1162 3.68722C12.1162 4.52619 11.7083 5.4105 11.0285 6.00005C10.4393 6.52157 9.71421 6.77099 8.98908 6.70296C8.89844 6.70296 8.8078 6.72564 8.71715 6.72564C8.10532 6.72564 7.44817 6.47622 6.92699 6.00005C6.24718 5.38783 5.86195 4.52619 5.86195 3.6192C5.88461 1.91859 7.28955 0.512758 8.98908 0.512758ZM2.89344 3.89129C2.8028 3.21105 3.05207 2.53081 3.55059 2.00929C4.04912 1.48777 4.75159 1.21567 5.45406 1.2837C5.52204 1.2837 5.59003 1.30638 5.63535 1.30638C5.68067 1.30638 5.74865 1.32905 5.79397 1.32905C5.83929 1.32905 5.95259 1.35172 5.99791 1.44242C6.04323 1.53312 5.97525 1.62382 5.95259 1.6465C5.68067 2.05464 5.47672 2.53081 5.40874 3.05233C5.27278 3.95932 5.4314 4.79828 5.90727 5.56923C5.95259 5.65992 6.02057 5.72795 5.97525 5.81865C5.92993 5.90935 5.83929 5.93202 5.74865 5.93202C5.56736 5.9547 5.40874 5.97737 5.27278 5.97737C5.25012 5.97737 5.25012 5.97737 5.22746 5.97737C4.04912 6.00005 3.02941 5.07038 2.89344 3.89129ZM2.44024 10.3082C2.39492 10.5123 2.25895 10.5123 2.19097 10.5123H1.73777C1.55648 10.5123 1.3752 10.5123 1.17126 10.5123C0.854012 10.5123 0.672729 10.3536 0.627408 10.0135C0.491446 8.83439 0.876672 7.97275 1.85107 7.36053C2.6895 6.83901 3.61858 6.58959 4.66095 6.54424C5.15948 6.52157 5.77131 6.49889 6.31516 6.29482C6.36048 6.27214 6.45112 6.24947 6.54176 6.31749C6.65506 6.40819 6.76836 6.52156 6.90433 6.61226L7.24423 6.88436L7.01763 6.90704C6.42846 6.99774 5.86195 7.15646 5.22746 7.42856C4.20774 7.85938 3.43729 8.44892 2.9161 9.19718C2.66684 9.60533 2.50822 9.94545 2.44024 10.3082ZM15.1074 12.1676C15.1074 12.5984 14.9261 12.7571 14.4955 12.7571H3.50527C3.07473 12.7571 2.87078 12.5757 2.87078 12.1449V12.0089C2.87078 11.578 2.84812 11.1245 2.89344 10.671C2.93876 10.2402 3.09739 9.83208 3.45995 9.37858C4.0038 8.67567 4.72893 8.17682 5.74865 7.81403C6.38314 7.58728 7.08561 7.42856 7.81074 7.36053C8.44523 7.31518 9.12504 7.29251 9.87283 7.33786C11.4817 7.42856 12.7734 7.85937 13.8384 8.65299C14.4729 9.12916 14.8581 9.67335 15.0394 10.3082C15.1074 10.603 15.13 10.8978 15.13 11.1926C15.13 11.51 15.1074 11.8275 15.1074 12.1676ZM17.3281 10.1268C17.3054 10.3536 17.1241 10.4896 16.8522 10.4896C16.7163 10.4896 16.5803 10.4896 16.4217 10.4896H15.7645C15.6512 10.4896 15.5606 10.4216 15.5379 10.3082C15.2887 9.31056 14.6542 8.53962 13.5438 7.85937C12.8413 7.42855 12.0256 7.13378 11.1418 6.95238C11.0965 6.95238 11.0512 6.92971 11.0058 6.90704L10.6886 6.81634L10.8925 6.68029C11.0965 6.54424 11.2551 6.43087 11.3911 6.31749C11.4817 6.24947 11.5497 6.24947 11.6177 6.27214C12.1842 6.47622 12.7734 6.52157 13.2945 6.52157C14.2689 6.54424 15.1527 6.77099 15.9458 7.22448C16.7163 7.6553 17.1468 8.15415 17.3054 8.83439C17.4187 9.33323 17.3734 9.78673 17.3281 10.1268Z" fill="#1151B1"/>
</svg>
