<svg width="20" height="22" viewBox="0 0 20 22" fill="none" xmlns="http://www.w3.org/2000/svg">
<path d="M9.85573 12.4197C8.88404 12.4197 7.94705 12.4197 6.97536 12.4197C6.80184 12.4197 6.59362 12.4544 6.45481 12.3155C6.21188 12.1419 6.07307 11.8988 6.10777 11.5863C6.14248 11.3432 6.07307 11.3432 5.86485 11.3432C4.16439 11.3432 2.49864 11.3432 0.798175 11.3432C0.312329 11.3432 0 11.0306 0 10.5445C0 9.71108 0.173516 8.9124 0.242922 8.11372C0.277626 7.69702 0.277626 7.28031 0.555252 6.93306C1.0758 6.23856 1.70046 5.7524 2.56804 5.47459C3.2274 5.26624 3.88677 5.23152 4.54613 5.33569C5.48312 5.50932 6.28129 5.99548 6.87125 6.75943C6.97536 6.89834 7.07947 7.03723 7.11417 7.17613C7.18358 7.38448 7.28769 7.31504 7.3918 7.24559C7.94705 6.79416 8.57171 6.51636 9.26577 6.41218C9.75162 6.34273 10.2028 6.34272 10.6886 6.4469C11.3133 6.5858 11.8685 6.82888 12.3544 7.24559C12.4932 7.38449 12.5626 7.28031 12.632 7.17613C13.0484 6.37745 13.7425 5.85658 14.5407 5.54405C15.1306 5.30097 15.7553 5.26624 16.4146 5.33569C17.4557 5.43987 18.2886 5.96075 18.9827 6.68998C19.2603 7.00251 19.3991 7.38449 19.4338 7.80119C19.5032 8.6346 19.6073 9.468 19.6768 10.3014C19.7462 10.857 19.642 11.1001 19.2256 11.2737C19.0868 11.3432 18.9827 11.3432 18.8439 11.3432C17.1781 11.3432 15.5124 11.3432 13.8813 11.3432C13.7078 11.3432 13.6037 11.3432 13.6384 11.5863C13.6731 12.1419 13.3608 12.4197 12.7708 12.4197C11.8338 12.4544 10.8274 12.4197 9.85573 12.4197ZM9.89043 11.8293C10.758 11.8293 11.6256 11.8293 12.4932 11.8293C13.1178 11.8293 13.1178 11.8293 13.0137 11.1695C12.9096 10.4403 12.8402 9.71108 12.7708 8.94712C12.7361 8.73877 12.7014 8.53042 12.5626 8.35679C12.0767 7.66228 11.4174 7.24559 10.6192 7.07196C9.95984 6.93306 9.30048 6.96778 8.67582 7.21086C8.12057 7.41921 7.66942 7.76646 7.28769 8.25262C6.97536 8.66932 6.97536 9.15548 6.90595 9.64163C6.83654 10.2667 6.80184 10.8917 6.69773 11.4821C6.66303 11.7599 6.69773 11.8293 6.97536 11.8293C7.98175 11.8293 8.91874 11.8293 9.89043 11.8293ZM3.40092 10.7181C4.2685 10.7181 5.10138 10.7181 5.96896 10.7181C6.10778 10.7181 6.21188 10.7181 6.21188 10.5098C6.24659 10.232 6.28129 9.98888 6.316 9.7458C6.3854 9.22492 6.3507 8.66932 6.62832 8.18316C6.73243 7.97481 6.73243 7.76646 6.62832 7.55811C6.31599 6.86361 5.72604 6.4469 5.06668 6.1691C4.40731 5.8913 3.71325 5.85657 2.98448 6.0302C2.29042 6.20383 1.73516 6.58581 1.28402 7.07196C0.902285 7.45394 0.902285 8.00954 0.867582 8.53042C0.798175 9.1902 0.763472 9.84998 0.694065 10.475C0.659362 10.6834 0.728768 10.7528 0.902285 10.7528C1.70046 10.7181 2.56804 10.7181 3.40092 10.7181ZM16.3452 10.7181C17.1781 10.7181 18.0457 10.7181 18.8786 10.7181C19.1215 10.7181 19.1562 10.6487 19.1562 10.4056C19.0868 9.60691 18.948 8.84295 18.9133 8.04426C18.9133 7.80119 18.8786 7.55811 18.7398 7.34976C18.2539 6.68998 17.664 6.20383 16.8311 5.99547C15.5818 5.68295 14.5407 6.0302 13.6384 6.86361C13.3955 7.10668 13.2219 7.38448 13.1178 7.69701C13.0484 7.94009 13.1872 8.14844 13.2914 8.35679C13.2914 8.39152 13.3261 8.39152 13.3261 8.42624C13.4996 9.08603 13.4996 9.78053 13.569 10.475C13.6037 10.6487 13.6384 10.7181 13.8119 10.7181C14.6448 10.7181 15.4777 10.7181 16.3452 10.7181Z" fill="#F68B0E"/>
<path d="M14.9918 17.4545C14.5753 17.4545 14.1936 17.4545 13.7771 17.4545C13.5689 17.4545 13.4995 17.5587 13.4648 17.7323C13.3607 18.9477 12.7707 19.8853 11.7643 20.5451C10.7927 21.2049 9.75156 21.4132 8.60635 21.1007C7.39174 20.7882 6.55886 20.0589 6.00361 18.9477C5.79539 18.531 5.69128 18.1143 5.65657 17.6629C5.65657 17.4893 5.55246 17.4545 5.41365 17.4893C4.61548 17.4893 3.7826 17.4545 2.98442 17.4893C2.56798 17.524 2.08214 16.9684 2.11684 16.5864C2.15154 16.2044 2.11684 15.7877 2.11684 15.4057C2.11684 15.1974 2.04743 15.1627 1.87392 15.1627C1.56159 15.1627 1.28396 15.1627 0.971633 15.1627C0.52049 15.1627 0.346974 14.8501 0.555193 14.4682C0.72871 14.1556 0.902226 13.8431 1.07574 13.5653C1.42278 13.0097 1.73511 12.4194 2.08214 11.8638C2.29036 11.5165 2.63739 11.5165 2.84561 11.8638C3.29675 12.6277 3.71319 13.3917 4.12963 14.1556C4.23374 14.3293 4.33785 14.4682 4.40726 14.6418C4.51137 14.9543 4.33785 15.1974 4.02552 15.1974C3.67849 15.1974 3.33145 15.1974 2.98442 15.1974C2.7762 15.1974 2.7068 15.2321 2.7068 15.4405C2.7415 15.8225 2.7415 16.1697 2.7068 16.5517C2.7068 16.8295 2.84561 16.9337 3.05383 16.9337C3.852 16.9337 4.65018 16.9337 5.44835 16.9337C5.51776 16.9337 5.58717 16.9337 5.62187 16.7948C5.76068 15.753 6.24653 14.9196 7.07941 14.2598C7.80818 13.7042 8.60635 13.3917 9.57804 13.4264C11.105 13.4611 12.2155 14.1556 12.979 15.4057C13.2219 15.8225 13.3954 16.2739 13.4301 16.76C13.4301 16.8989 13.5342 16.8989 13.6383 16.8989C14.4365 16.8989 15.2347 16.8989 15.9981 16.8989C16.3105 16.8989 16.3799 16.8295 16.3799 16.517C16.3799 16.135 16.3799 15.7183 16.3799 15.3363C16.3799 15.1974 16.3105 15.1627 16.1717 15.1627C15.7899 15.1627 15.4429 15.1627 15.0612 15.1627C14.7488 15.1627 14.5753 14.8501 14.7141 14.5723C15.2694 13.6348 15.7899 12.6972 16.3452 11.7943C16.5187 11.5165 16.8657 11.4818 17.0392 11.7943C17.5945 12.7319 18.1497 13.6695 18.6703 14.6418C18.8091 14.8849 18.6009 15.1627 18.3233 15.1974C17.9762 15.1974 17.6292 15.1974 17.2822 15.1974C17.1087 15.1974 17.0392 15.2321 17.0392 15.4405C17.0392 15.8225 17.0392 16.1697 17.0392 16.5517C17.0045 16.9684 16.831 17.2809 16.4493 17.4893C16.3452 17.524 16.2411 17.524 16.137 17.524C15.7899 17.4545 15.3735 17.4545 14.9918 17.4545ZM12.8749 17.3156C12.8402 15.4405 11.4173 13.982 9.50864 14.0167C7.73877 14.0167 6.24653 15.4405 6.24653 17.3504C6.24653 19.1908 7.73877 20.6493 9.54334 20.6493C11.452 20.6145 12.8749 19.1561 12.8749 17.3156ZM16.7269 12.3499C16.6922 12.4194 16.6922 12.4541 16.6922 12.4888C16.3452 13.0792 16.0329 13.7042 15.6511 14.2945C15.4776 14.5376 15.6164 14.5376 15.7899 14.5376C16.4146 14.5376 17.0392 14.5376 17.6986 14.5376C17.768 14.5376 17.8721 14.5723 17.9415 14.5029C17.5598 13.7737 17.1781 13.1139 16.7269 12.3499ZM2.49858 14.5029C2.81091 14.5029 3.15794 14.5029 3.47027 14.5029C3.60908 14.5029 3.74789 14.5029 3.60908 14.2945C3.50497 14.1209 3.40086 13.9126 3.29675 13.7389C3.08853 13.3569 2.88031 12.975 2.63739 12.6277C2.56798 12.5235 2.53328 12.3846 2.35976 12.6277C2.01273 13.1833 1.73511 13.7389 1.38807 14.2945C1.28396 14.4334 1.28396 14.5376 1.52688 14.5376C1.83921 14.5029 2.18625 14.5029 2.49858 14.5029Z" fill="#F68B0E"/>
<path d="M3.88664 0.0228442C5.30948 -0.0118811 6.28117 1.13406 6.24646 2.38417C6.21176 3.70373 5.24007 4.67604 3.88664 4.67604C2.60262 4.67604 1.56152 3.669 1.56152 2.31472C1.56152 0.995155 2.63733 -0.0118811 3.88664 0.0228442ZM2.18618 2.31472C2.22089 3.3912 3.01906 4.05098 3.88664 4.05098C4.92774 4.01626 5.62181 3.32175 5.62181 2.34944C5.62181 1.34241 4.89304 0.613179 3.88664 0.613179C2.94965 0.613179 2.18618 1.37713 2.18618 2.31472Z" fill="#F68B0E"/>
<path d="M9.85539 5.75237C8.64078 5.7871 7.53027 4.71062 7.53027 3.39105C7.56498 2.03677 8.60607 1.06445 9.85539 1.06445C11.07 1.06445 12.1805 2.10622 12.1805 3.46051C12.1805 4.71062 11.1394 5.7871 9.85539 5.75237ZM9.9248 1.72424C8.8837 1.75897 8.15493 2.4882 8.15493 3.42578C8.15493 4.43281 8.8837 5.12732 9.8901 5.12732C10.9312 5.12732 11.6253 4.32864 11.5906 3.39105C11.5906 2.4882 10.8965 1.75897 9.9248 1.72424Z" fill="#F68B0E"/>
<path d="M18.2539 2.31424C18.2886 3.59908 17.2128 4.64084 15.9635 4.67557C14.6795 4.67557 13.6731 3.70325 13.6037 2.52259C13.4996 0.994679 14.5754 0.161268 15.5471 0.0223663C17.2822 -0.185986 18.3233 1.09885 18.2539 2.31424ZM17.664 2.34897C17.6293 1.34193 16.9005 0.577975 15.8941 0.612701C14.8877 0.647426 14.1936 1.37666 14.1936 2.31424C14.1936 3.356 14.853 4.01578 15.8941 4.0505C16.9005 4.08523 17.6293 3.356 17.664 2.34897Z" fill="#F68B0E"/>
<path d="M9.92481 15.1628C9.85541 15.3711 9.95952 15.4406 10.133 15.4753C10.2371 15.4753 10.3065 15.5101 10.4107 15.5448C10.5148 15.5795 10.6536 15.6142 10.6883 15.7184C10.6883 15.8226 10.6189 15.9268 10.5495 16.0309C10.4801 16.1351 10.4107 16.0657 10.376 16.0309C10.0983 15.8573 9.786 15.892 9.47367 15.9268C9.30015 15.9615 9.16134 16.1004 9.12664 16.274C9.09193 16.5518 9.19604 16.7602 9.43897 16.8991C9.71659 17.0727 10.0636 17.1769 10.3413 17.3505C10.7577 17.5936 10.8618 17.9408 10.8271 18.3923C10.7924 18.7395 10.6189 19.0173 10.3065 19.1562C9.99422 19.2951 9.8207 19.434 9.89011 19.816C9.92481 19.9202 9.89011 19.9896 9.7513 19.9896C9.64719 19.9896 9.47367 20.0243 9.50837 19.816C9.57778 19.4687 9.43897 19.2951 9.09193 19.2951C8.98783 19.2951 8.91842 19.2257 8.81431 19.1909C8.60609 19.1215 8.50198 18.8437 8.6755 18.7048C8.7449 18.6353 8.84901 18.7395 8.91842 18.7742C9.23075 18.9131 9.57778 19.0173 9.92481 18.8784C10.1677 18.7742 10.3065 18.6353 10.3413 18.3923C10.376 18.1839 10.2718 18.0103 10.0983 17.8367C9.92481 17.663 9.68189 17.5936 9.47367 17.4894C9.09193 17.3158 8.7449 17.1421 8.64079 16.656C8.53668 16.1351 8.84901 15.6837 9.30015 15.5795C9.61248 15.5101 9.57778 15.3364 9.57778 15.1628C9.57778 14.9544 9.61248 14.8503 9.85541 14.885C10.0289 14.8503 9.89011 15.0586 9.92481 15.1628Z" fill="#F68B0E"/>
</svg>
