<svg width="19" height="18" viewBox="0 0 19 18" fill="none" xmlns="http://www.w3.org/2000/svg">
<path d="M18.9079 8.64151L17.1134 2.82069C16.941 2.25233 16.7654 1.68398 16.5802 1.11882C16.2992 0.269487 15.4403 -0.180725 14.5782 0.0683283C14.0737 0.215206 13.5724 0.371663 13.0679 0.528119L12.573 0.681383C8.76373 1.8564 4.95769 3.03462 1.15164 4.21283C0.315077 4.47146 -0.167065 5.32718 0.0532515 6.16375C0.145848 6.52136 0.260796 6.87579 0.369358 7.22063C0.430024 7.40902 0.487498 7.5974 0.544972 7.78579L0.583288 7.91032C0.669499 8.19449 0.752517 8.4627 0.752517 8.75646C0.742938 10.6691 0.746131 12.5785 0.746131 14.4911V15.9503V15.9982C0.746131 16.1131 0.746131 16.2313 0.778061 16.3558C0.995184 17.1764 1.60505 17.6457 2.4448 17.6457H7.39713H9.37998H11.4969C12.0749 17.6457 12.6528 17.6457 13.2307 17.6457C14.278 17.6457 15.3221 17.6457 16.3694 17.6457C17.3178 17.6457 18.033 16.9305 18.033 15.9822V10.7425C18.033 10.7201 18.033 10.685 18.0585 10.6627C18.8472 10.2635 19.1729 9.48765 18.9111 8.63832L18.9079 8.64151ZM18.033 9.8772C18.033 9.31204 18.033 8.74688 18.033 8.18172C18.033 8.15618 18.033 8.12744 18.033 8.10189C18.1096 8.34775 18.1862 8.59362 18.2629 8.84267C18.3906 9.25137 18.3076 9.62495 18.0362 9.88039L18.033 9.8772ZM17.3497 10.2444C17.2858 10.2444 17.2252 10.2444 17.1613 10.2444H7.45461C5.4526 10.2444 3.4474 10.2444 1.4454 10.2508C1.43262 10.2508 1.42624 10.2508 1.41985 10.2508C1.41985 10.2412 1.41985 10.2316 1.41985 10.2188C1.42943 9.692 1.42943 9.2833 1.41985 8.90014C1.41985 8.8746 1.41985 8.85863 1.41985 8.85225C1.43262 8.85225 1.45817 8.85225 1.4901 8.84905C4.5394 8.85544 7.58552 8.85544 10.6348 8.85544H17.2156H17.2826C17.305 8.85544 17.3305 8.85544 17.3561 8.85544C17.3561 9.31204 17.3561 9.77183 17.3561 10.2444H17.3497ZM17.1677 8.17853H9.37998H8.03254C5.83895 8.17853 3.64217 8.17853 1.44859 8.18172C1.43582 8.18172 1.42624 8.18172 1.41985 8.18172C1.41985 8.17533 1.41985 8.16256 1.41985 8.14979C1.43901 7.52716 1.83494 7.1408 2.45757 7.1408H16.3439C16.644 7.1408 16.8995 7.24298 17.0847 7.43456C17.2571 7.61656 17.3529 7.86881 17.3497 8.17853C17.289 8.17853 17.2284 8.17853 17.1677 8.17853ZM1.41666 10.9245C1.41666 10.9245 1.43262 10.9245 1.43901 10.9245H17.2475C17.2826 10.9245 17.3178 10.9245 17.3465 10.9245C17.3465 10.9532 17.3465 10.9947 17.3465 11.0299V12.5114V15.9726C17.3465 16.5633 16.9506 16.9624 16.3599 16.9624C11.7109 16.9624 7.06506 16.9624 2.41606 16.9624C1.82536 16.9624 1.42624 16.5761 1.42624 16.0014C1.42304 15.1329 1.41985 14.2644 1.41985 13.3959C1.41985 12.5753 1.41985 11.7515 1.41666 10.9309V10.9245ZM7.36201 6.46708H5.79106C4.70544 6.46708 3.61982 6.46708 2.53101 6.46708H2.52143C1.98182 6.46708 1.5795 6.61077 1.25382 6.9141C1.18038 6.98435 1.11652 7.05779 1.05585 7.144L1.01115 7.00031C0.908973 6.66505 0.806798 6.34575 0.717394 6.02326C0.580095 5.53792 0.848306 5.03662 1.32726 4.88336C2.25642 4.5896 3.18558 4.30223 4.11474 4.01487L4.86828 3.78178C8.14429 2.7696 11.4203 1.75742 14.6963 0.745242C15.2806 0.566435 15.7755 0.825067 15.9543 1.40619C16.5514 3.32837 17.1453 5.25375 17.7424 7.17912C17.6881 7.09929 17.6243 7.02266 17.5572 6.95242C17.2443 6.6395 16.8196 6.47666 16.3247 6.47347C13.6075 6.47347 10.8935 6.47347 8.17622 6.47028H7.36201V6.46708Z" fill="#B11811"/>
<path d="M3.20776 16.2982C3.68671 16.3046 4.17843 16.3078 4.67334 16.3078C5.11078 16.3078 5.55142 16.3078 5.99524 16.2982C6.53486 16.2918 6.91482 15.9086 6.92121 15.3658C6.93079 14.7017 6.93079 14.0471 6.92121 13.4277C6.91482 12.8913 6.5157 12.5017 5.97289 12.4985C5.65359 12.4985 5.3311 12.4985 5.0118 12.4985H4.11138C3.82082 12.4985 3.53345 12.4985 3.24288 12.4985C2.70008 12.4985 2.30414 12.8913 2.29776 13.4277C2.29137 14.1302 2.29137 14.7624 2.29776 15.3658C2.30414 15.9055 2.67772 16.2886 3.20457 16.295L3.20776 16.2982ZM3.27481 15.2413C3.39934 15.2413 3.53025 15.2413 3.54622 15.2413C3.56218 15.2732 3.56218 15.4042 3.56218 15.5319C3.56218 15.5638 3.56218 15.5989 3.56218 15.6245C3.53664 15.6245 3.50152 15.6245 3.46959 15.6245H3.39295C3.34506 15.6245 3.30036 15.6245 3.25566 15.6245C3.15667 15.6213 3.06727 15.567 3.0098 15.484C2.9619 15.4105 2.94274 15.3243 2.9619 15.2413H3.27801H3.27481ZM2.97787 14.2483C3.17264 14.2547 3.36741 14.2515 3.56218 14.2483C3.56218 14.2547 3.56218 14.2611 3.56218 14.2675C3.56218 14.3952 3.56538 14.5261 3.56538 14.5421C3.53345 14.558 3.40573 14.558 3.27801 14.5548C3.14709 14.5548 3.0098 14.5548 2.99064 14.5516C2.97467 14.5197 2.97787 14.3856 2.97787 14.2451V14.2483ZM3.57176 13.4373C3.56538 13.4788 3.56218 13.5235 3.55899 13.565H3.16625C3.0992 13.5458 3.03215 13.5586 2.98106 13.5682C2.97148 13.4213 2.99702 13.3032 3.04811 13.2393C3.07366 13.2074 3.10878 13.1914 3.15667 13.1882C3.20138 13.185 3.24927 13.1786 3.30036 13.1723C3.35145 13.1659 3.43766 13.1531 3.49832 13.1531C3.53025 13.1531 3.5558 13.1531 3.56538 13.1659C3.6005 13.2074 3.58453 13.3351 3.57495 13.4405L3.57176 13.4373ZM4.21994 15.7873L4.1944 15.6277C4.1944 15.6277 4.21994 15.6404 4.22952 15.6468L4.21994 15.7905V15.7873ZM4.24229 13.1786C4.45622 13.1786 4.67334 13.1786 4.88727 13.1786H5.40135C5.59612 13.1786 5.79089 13.1754 5.98566 13.1786C6.07507 13.1786 6.16128 13.2329 6.21875 13.3223C6.26665 13.399 6.28261 13.4884 6.26665 13.5618H6.25387C6.05591 13.5618 5.85794 13.5618 5.65998 13.5618H5.42689C5.08524 13.5618 4.98626 13.6608 4.98626 14.0088V14.3058C4.98626 14.7368 4.98306 15.1679 4.98626 15.5957C4.98626 15.6053 4.98626 15.6149 4.98626 15.6245C4.97987 15.6245 4.97668 15.6245 4.97029 15.6245C4.85215 15.6181 4.7372 15.6181 4.61906 15.6181C4.49454 15.6181 4.36682 15.6181 4.24548 15.6213C4.24548 14.8135 4.24868 14.0056 4.24548 13.1754L4.24229 13.1786ZM6.2411 14.2451V14.2611V14.2706C6.2411 14.3952 6.2411 14.5261 6.2411 14.5421C6.20917 14.558 6.07826 14.5548 5.95373 14.558C5.82282 14.558 5.68552 14.558 5.66636 14.5548C5.6504 14.5229 5.6504 14.392 5.6504 14.2483C5.85794 14.2547 6.05591 14.2547 6.2411 14.2451ZM5.85156 15.2413H6.00163C6.02079 15.2381 6.04314 15.2381 6.04952 15.2413C6.11019 15.2541 6.17086 15.2445 6.21556 15.2413C6.22514 15.2413 6.2411 15.2381 6.25068 15.2381C6.27942 15.3435 6.20917 15.5351 6.13573 15.5798C6.02398 15.65 5.88987 15.6404 5.73661 15.6309C5.70787 15.6309 5.68233 15.6309 5.65359 15.6277V15.5287C5.65359 15.4361 5.65359 15.3435 5.64721 15.2477C5.71426 15.2477 5.77812 15.2477 5.84198 15.2477L5.85156 15.2413Z" fill="#B11811"/>
<path d="M12.6018 14.4115C12.6273 14.4115 12.6561 14.4147 12.6912 14.4147C12.7071 14.4147 12.7263 14.4147 12.7487 14.4147H14.4952H15.9959C16.2705 14.4147 16.3695 14.2422 16.3695 14.0826C16.3695 13.9581 16.3184 13.8814 16.2769 13.8399C16.229 13.7952 16.1396 13.7441 15.9991 13.7441H13.3106C13.0839 13.7441 12.854 13.7441 12.6273 13.7441C12.4294 13.7441 12.2984 13.8719 12.2921 14.0698C12.2889 14.2582 12.407 14.3891 12.605 14.4115H12.6018Z" fill="#B11811"/>
<path d="M15.958 14.7529C15.4375 14.7529 14.9171 14.7529 14.3934 14.7529C14.3423 14.7529 14.1859 14.7529 14.0805 14.8583C14.039 14.8998 13.9911 14.9796 13.9943 15.1042C13.9975 15.2287 14.0613 15.4298 14.4062 15.4362C14.5882 15.4362 14.7702 15.4362 14.9522 15.4362H15.016H15.4056C15.5844 15.4362 15.7664 15.4362 15.9484 15.4362H15.9612C16.0634 15.4362 16.1847 15.4235 16.2741 15.3341C16.3156 15.2925 16.3667 15.2159 16.3635 15.0882C16.3635 14.986 16.3188 14.7529 15.9548 14.7529H15.958Z" fill="#B11811"/>
<path d="M14.6867 2.33523C14.0768 1.9361 13.3201 1.9808 12.8028 2.44698C12.64 2.59386 12.557 2.61621 12.4133 2.55873C12.3366 2.5268 12.26 2.53 12.2025 2.53C12.1866 2.53 12.1706 2.53 12.1578 2.53H12.1515C11.4777 2.5268 10.8838 2.91316 10.6412 3.53898C10.4017 4.15523 10.5741 4.87685 11.0595 5.29832C11.366 5.56334 11.7428 5.70064 12.1195 5.70064C12.3813 5.70064 12.6464 5.63359 12.889 5.49948C12.9848 5.4452 13.0615 5.37176 13.1317 5.30471C13.1956 5.24404 13.2562 5.18337 13.3073 5.16422C13.3488 5.14825 13.4382 5.17379 13.5212 5.19615C13.6107 5.22169 13.716 5.25043 13.8246 5.25043C14.5207 5.24085 15.1433 4.77148 15.3381 4.11053C15.536 3.43361 15.2774 2.71838 14.6899 2.33523H14.6867ZM12.1163 3.19733C12.6112 3.20372 13.0263 3.622 13.0295 4.11053C13.0295 4.3532 12.9369 4.5799 12.7677 4.74913C12.5953 4.92155 12.359 5.01734 12.1068 5.01734C11.8673 5.01734 11.6438 4.92155 11.4745 4.75232C11.3021 4.5799 11.2095 4.35 11.2095 4.10734C11.2095 3.86786 11.3117 3.63158 11.4905 3.45916C11.6629 3.28993 11.8896 3.20053 12.1195 3.20053L12.1163 3.19733ZM13.2275 2.98979C13.2275 2.98979 13.2179 2.98021 13.2115 2.97382C13.2179 2.96744 13.2275 2.96105 13.2371 2.95467C13.5564 2.69923 13.9874 2.68326 14.3323 2.91635C14.6484 3.13028 14.7953 3.55175 14.6835 3.92214C14.5654 4.3053 14.2109 4.57032 13.8118 4.57032H13.7543C13.7352 4.57032 13.6873 4.56713 13.6522 4.56393C13.6585 4.52881 13.6649 4.4873 13.6713 4.46814C13.7895 3.8966 13.6362 3.38891 13.2307 2.99298L13.2275 2.98979Z" fill="#B11811"/>
<path d="M5.88372 8.92262C5.69214 8.92262 5.50375 8.92262 5.31217 8.92262H5.0727H4.78852C4.60013 8.92262 4.41175 8.92262 4.22655 8.92262C3.86894 8.91304 3.83382 9.17168 3.83062 9.24831C3.82424 9.37603 3.87532 9.45585 3.91683 9.50055C3.98389 9.5708 4.08606 9.60592 4.21697 9.60592H4.22017C4.77255 9.60592 5.32494 9.60592 5.87733 9.60592C5.92842 9.60592 6.08168 9.60592 6.18386 9.50375C6.24452 9.43989 6.27645 9.35687 6.27326 9.2515C6.27326 9.15252 6.23175 8.93539 5.88052 8.92262H5.88372Z" fill="#B11811"/>
<path d="M3.22051 8.92597C3.07044 8.91958 2.93314 8.91639 2.79584 8.92597C2.60107 8.94193 2.47335 9.08562 2.48293 9.2772C2.49251 9.4592 2.62022 9.58692 2.80861 9.60288C2.82138 9.60288 2.83416 9.60288 2.84373 9.60288C2.87886 9.60288 2.91079 9.60288 2.94591 9.60288H3.06405C3.0864 9.60288 3.10556 9.60288 3.12791 9.60288C3.15665 9.60288 3.18538 9.60288 3.21412 9.60288C3.41847 9.5933 3.55258 9.456 3.54939 9.25485C3.54939 9.06327 3.41528 8.92916 3.22051 8.92277V8.92597Z" fill="#B11811"/>
</svg>
