<svg width="25" height="24" viewBox="0 0 25 24" fill="none" xmlns="http://www.w3.org/2000/svg">
<g id="c5xakg_00000102540597698843730940000005627709813081672856_">
<g id="Group">
<path id="Vector" d="M10.3827 23.1596C7.67766 23.1596 5.01237 23.1596 2.30728 23.1596C1.94926 23.1596 1.55144 23.1994 1.19342 23.0402C0.676271 22.8014 0.278469 22.4033 0.0795661 21.8858C4.85485e-06 21.6868 0 21.448 0 21.249C0 18.0247 0 14.8004 0 11.6159C0 10.4616 0.994516 9.62564 1.98903 9.62564C6.40468 9.62564 10.7805 9.62564 15.1962 9.62564C16.3498 9.62564 17.5035 9.66544 18.6571 9.62564C19.9301 9.58583 20.8848 10.5014 20.8848 11.8548C20.8451 14.9994 20.8848 18.1441 20.845 21.249C20.845 22.2043 20.3677 22.7218 19.5721 23.1198C19.2936 23.2791 18.9754 23.1994 18.6571 23.1994C15.9122 23.1596 13.1674 23.1596 10.3827 23.1596ZM10.4225 22.3237C13.2072 22.3237 15.9918 22.3237 18.7367 22.3237C19.4129 22.3237 20.0096 21.8062 19.9699 21.0897C19.9699 20.7315 19.9699 20.3732 19.9699 19.9752C19.9699 17.1888 19.9699 14.3625 19.9699 11.5761C19.9699 10.979 19.6914 10.6208 19.0549 10.5014C18.6173 10.4217 18.1797 10.4616 17.7422 10.4616C12.5309 10.4616 7.27986 10.4616 2.0686 10.4616C1.59123 10.4616 1.2332 10.6606 0.994516 11.0586C0.875174 11.2975 0.914962 11.5363 0.914962 11.7752C0.914962 13.6062 0.914962 15.4373 0.914962 17.2684C0.914962 18.6616 0.875171 20.015 0.954733 21.4082C0.954733 21.5276 0.99452 21.6868 1.07408 21.7664C1.35255 22.0451 1.63101 22.2839 2.10838 22.2839C4.85324 22.3237 7.63787 22.3237 10.4225 22.3237Z" fill="black"/>
<path id="Vector_2" d="M11.6559 6.08279C11.6559 5.40609 11.6559 4.72939 11.6559 4.01289C11.6559 3.57502 11.7753 3.4158 12.2526 3.4158C12.4117 3.4158 12.5311 3.4158 12.6902 3.4158C12.73 3.4158 12.8493 3.4556 12.8493 3.37599C12.8891 3.29638 12.8096 3.25658 12.7698 3.21677C12.2924 2.69929 11.815 2.14201 11.3377 1.62453C11.1786 1.46531 11.0592 1.26627 10.9001 1.10705C10.8205 1.02744 10.8205 1.02744 10.741 1.10705C10.4625 1.30608 10.3034 1.58473 10.0647 1.82356C9.66689 2.22162 9.34864 2.61968 8.99061 3.05755C8.95083 3.13716 8.87126 3.17697 8.83148 3.25658C8.75192 3.376 8.75192 3.4158 8.91104 3.4158C9.10995 3.4158 9.26908 3.4158 9.46798 3.4158C9.82601 3.4158 9.94535 3.53521 9.98513 3.89346C9.98513 4.01288 9.98513 4.1721 9.98513 4.29152C9.98513 5.56531 9.98513 6.79929 9.98513 8.07308C9.98513 8.23231 9.98512 8.43134 9.82599 8.55076C9.66687 8.67018 9.50775 8.70999 9.30885 8.63037C9.10995 8.55076 9.07018 8.35173 9.07018 8.1527C9.07018 7.43619 9.07018 6.71969 9.07018 6.00318C9.07018 5.52551 9.07018 5.04784 9.07018 4.53036C9.07018 4.33133 9.03038 4.25172 8.83148 4.29152C8.63257 4.29152 8.43367 4.29152 8.23477 4.29152C7.87674 4.33133 7.71764 4.0925 7.55852 3.85367C7.43918 3.61483 7.51872 3.37599 7.71763 3.21677C8.19499 2.69929 8.63258 2.18182 9.10995 1.66434C9.42819 1.30609 9.826 0.94783 10.1045 0.549771C10.2238 0.390547 10.4227 0.231331 10.5421 0.0721076C10.6216 -0.0473101 11.1785 -0.00751389 11.2979 0.111904C11.5366 0.430351 11.815 0.669191 12.0537 0.987638C12.5709 1.54492 13.0482 2.142 13.5654 2.69929C13.7643 2.89832 13.9632 3.09735 14.1223 3.37599C14.361 3.73425 14.0825 4.29152 13.6449 4.33133C13.4063 4.33133 13.1676 4.33133 12.9289 4.33133C12.73 4.33133 12.6902 4.41095 12.6902 4.60998C12.6902 5.80415 12.6902 6.99833 12.6902 8.19251C12.6902 8.35173 12.73 8.55075 12.5709 8.67017C12.4117 8.78959 12.2526 8.78959 12.0537 8.70998C11.8548 8.63037 11.7753 8.47114 11.7753 8.27211C11.6559 7.5158 11.6559 6.79929 11.6559 6.08279Z" fill="black"/>
<path id="Vector_3" d="M19.7708 5.32667C19.4924 5.32667 19.2537 5.32667 19.0548 5.32667C18.7365 5.32667 18.5774 5.16746 18.5774 4.84901C18.5774 3.416 18.5774 1.94317 18.5774 0.510156C18.5774 0.112097 18.8559 -0.0869225 19.2537 0.0723011C19.3332 0.112107 19.4128 0.151913 19.4128 0.271331C19.4128 0.430554 19.4526 0.58977 19.4526 0.748994C19.4526 1.90336 19.4526 3.05774 19.4526 4.21211C19.4526 4.41114 19.4924 4.49076 19.6913 4.45095C19.8902 4.45095 20.0891 4.45095 20.288 4.45095C20.6062 4.41114 20.8051 4.61016 20.9642 4.8888C21.0836 5.12764 20.9643 5.36648 20.8051 5.56551C20.3676 6.04318 19.93 6.52085 19.5322 6.99852C19.2139 7.35678 18.8957 7.71502 18.5774 8.07328C18.4183 8.31211 18.2194 8.55095 17.9409 8.67036C17.6625 8.78978 17.384 8.71017 17.1851 8.51114C16.7873 8.03347 16.3895 7.5558 15.9519 7.11794C15.753 6.8791 15.5541 6.68008 15.3154 6.44124C15.037 6.1228 14.7187 5.80434 14.48 5.48589C14.3209 5.32667 14.2811 5.08783 14.4004 4.8888C14.5198 4.68977 14.7187 4.49075 14.9972 4.49075C15.2358 4.49075 15.4347 4.49075 15.6734 4.49075C15.8723 4.49075 15.9121 4.41114 15.9121 4.25192C15.9121 3.09755 15.9121 1.90336 15.9121 0.748994C15.9121 0.669382 15.9121 0.629576 15.9121 0.549964C15.9519 0.191711 16.0315 0.0722914 16.3497 0.112097C16.6282 0.151903 16.7873 0.271326 16.7873 0.589773C16.7873 0.828608 16.7873 1.06744 16.7873 1.34608C16.7873 2.50045 16.7873 3.65483 16.7873 4.8092C16.7873 5.24706 16.6282 5.40629 16.2304 5.40629C16.0712 5.40629 15.9121 5.40629 15.753 5.40629C15.7132 5.40629 15.6336 5.36649 15.5939 5.4461C15.5939 5.52571 15.6336 5.56551 15.6734 5.56551C16.3099 6.24221 16.9066 6.91891 17.5431 7.63542C17.6625 7.75484 17.7022 7.75484 17.7818 7.63542C18.1398 7.23736 18.4979 6.8393 18.8957 6.44124C19.1344 6.04319 19.4526 5.68492 19.7708 5.32667Z" fill="black"/>
<path id="Vector_4" d="M24.544 12.7307C24.544 14.323 24.544 15.9152 24.544 17.5074C24.544 18.2638 24.1462 18.821 23.5495 19.2191C23.1119 19.4977 22.5948 19.5773 22.1174 19.4977C21.9185 19.4579 21.7594 19.3385 21.7594 19.0997C21.7594 18.8608 21.8787 18.7016 22.1174 18.6618C22.2765 18.622 22.4357 18.622 22.5948 18.622C23.2711 18.622 23.7086 18.0647 23.7086 17.4676C23.7086 14.323 23.7086 11.2181 23.7086 8.07344C23.7086 7.67538 23.5495 7.35693 23.2711 7.07829C23.1119 6.91907 22.8733 6.87926 22.6744 6.87926C22.4357 6.87926 22.1572 6.87926 21.9185 6.87926C21.64 6.87926 21.4014 6.64043 21.4014 6.4016C21.4014 6.12296 21.6003 6.00354 21.9185 6.00354C22.3163 6.00354 22.7539 6.00353 23.1517 6.08314C23.5893 6.20256 23.9473 6.48121 24.186 6.79966C24.544 7.27733 24.6236 7.87441 24.5838 8.4715C24.5043 9.8647 24.544 11.2977 24.544 12.7307Z" fill="black"/>
<path id="Vector_5" d="M6.56339 6.83913C6.32471 6.83913 5.92689 6.79931 5.52908 6.87892C5.17106 6.95853 4.81304 7.3566 4.81304 7.75466C4.81304 7.91388 4.81304 8.11291 4.81304 8.27213C4.81304 8.55077 4.61413 8.71 4.33566 8.71C4.0572 8.71 3.93786 8.55077 3.93786 8.27213C3.93786 7.91388 3.8583 7.51582 4.01742 7.15757C4.37545 6.40126 4.93238 5.92358 5.80755 5.92358C6.40426 5.92358 6.9612 5.92358 7.55791 5.92358C7.91593 5.92358 8.07505 6.08281 8.07505 6.36145C8.07505 6.64009 7.83636 6.83913 7.51811 6.83913C7.23965 6.83913 6.9612 6.83913 6.56339 6.83913Z" fill="black"/>
<path id="Vector_6" d="M4.65364 12.4521C4.97189 12.4521 5.32991 12.492 5.64816 12.4521C6.32443 12.3725 6.76204 13.0094 6.76204 13.5269C6.76204 13.8852 6.76204 14.2832 6.76204 14.6415C6.76204 15.2386 6.28465 15.6764 5.72773 15.7162C5.01167 15.756 4.29564 15.7162 3.57959 15.7162C3.142 15.7162 2.7044 15.3978 2.62484 14.9599C2.5055 14.323 2.46572 13.6861 2.66462 13.0492C2.78397 12.7308 3.18176 12.4124 3.53979 12.4124C3.89782 12.4522 4.29562 12.4521 4.65364 12.4521ZM4.69344 13.3279C4.37519 13.3279 4.05694 13.3279 3.73869 13.3279C3.57957 13.3279 3.50002 13.3677 3.50002 13.5667C3.50002 13.925 3.50002 14.2832 3.50002 14.6415C3.50002 14.8405 3.57957 14.8803 3.73869 14.8803C4.3354 14.8803 4.97191 14.8803 5.56862 14.8803C5.8073 14.8803 5.92663 14.8007 5.92663 14.5619C5.92663 14.2434 5.92663 13.8852 5.92663 13.5667C5.92663 13.4075 5.84708 13.3279 5.68795 13.3279C5.32993 13.3279 5.01168 13.3279 4.69344 13.3279Z" fill="black"/>
<path id="Vector_7" d="M5.52986 20.4531C4.73425 20.4531 3.89886 20.4531 3.10325 20.4531C2.66566 20.4531 2.46676 20.0949 2.66566 19.7366C2.785 19.5376 2.98391 19.5376 3.18282 19.5376C3.93865 19.5376 4.73426 19.5376 5.49009 19.5376C6.2857 19.5376 7.08131 19.5376 7.87692 19.5376C7.91671 19.5376 7.95648 19.5376 7.99626 19.5376C8.27473 19.5376 8.51341 19.7366 8.51341 19.9755C8.51341 20.2143 8.27473 20.4531 7.99626 20.4531C7.16087 20.4531 6.32547 20.4531 5.52986 20.4531Z" fill="black"/>
<path id="Vector_8" d="M10.6212 14.1241C10.6212 14.8406 10.3428 15.4775 9.8654 15.995C9.74606 16.1144 9.66649 16.194 9.50737 16.2338C9.34825 16.2338 9.18912 16.2338 9.10956 16.0746C8.99022 15.8358 8.99023 15.6367 9.14936 15.4377C9.70629 14.8008 9.94497 14.0843 9.54716 13.2484C9.4676 13.0494 9.34825 12.8901 9.18913 12.7309C9.06979 12.6115 8.95044 12.4523 8.99022 12.293C8.99022 12.1338 9.06978 12.0144 9.2289 11.9348C9.46758 11.8552 9.66649 11.9348 9.82561 12.094C10.2234 12.4921 10.4223 12.9697 10.5417 13.4872C10.5815 13.7261 10.6212 13.9251 10.6212 14.1241Z" fill="black"/>
<path id="Vector_9" d="M11.4567 20.4531C11.0588 20.4531 10.661 20.4531 10.2632 20.4531C9.98477 20.4531 9.74609 20.2541 9.74609 20.0153C9.74609 19.7366 9.9052 19.5376 10.2234 19.5376C11.0191 19.5376 11.8147 19.5376 12.6501 19.5376C12.9285 19.5376 13.1274 19.7764 13.1274 19.9755C13.1274 20.2143 12.8887 20.4133 12.6103 20.4133C12.2125 20.4531 11.8147 20.4531 11.4567 20.4531Z" fill="black"/>
<path id="Vector_10" d="M16.7485 18.5422C16.4303 18.5422 16.112 18.5422 15.7938 18.5422C15.5153 18.5422 15.3164 18.3432 15.3164 18.1044C15.3164 17.8655 15.5551 17.6665 15.754 17.6665C16.4303 17.6665 17.1065 17.6665 17.7828 17.6665C18.0215 17.6665 18.2602 17.9053 18.2602 18.1442C18.2602 18.383 18.0613 18.5422 17.8226 18.5422C17.4646 18.5422 17.1065 18.5422 16.7485 18.5422Z" fill="black"/>
<path id="Vector_11" d="M4.0173 18.5422C3.69905 18.5422 3.38081 18.5422 3.02278 18.5422C2.74432 18.5422 2.54541 18.383 2.54541 18.1044C2.54541 17.8257 2.70454 17.6665 3.02278 17.6665C3.69905 17.6665 4.33554 17.6665 5.01181 17.6665C5.29028 17.6665 5.48919 17.9053 5.48919 18.1442C5.48919 18.383 5.29028 18.5422 5.01181 18.5422C4.69357 18.5422 4.37532 18.5422 4.0173 18.5422Z" fill="black"/>
<path id="Vector_12" d="M8.31442 18.5422C7.99617 18.5422 7.63815 18.5422 7.3199 18.5422C7.04144 18.5422 6.88232 18.383 6.88232 18.1044C6.88232 17.8655 7.04144 17.6665 7.3199 17.6665C7.99617 17.6665 8.67246 17.6665 9.34873 17.6665C9.58741 17.6665 9.82608 17.9053 9.82608 18.1442C9.82608 18.3432 9.58741 18.5422 9.34873 18.5422C8.95092 18.5422 8.63266 18.5422 8.31442 18.5422Z" fill="black"/>
<path id="Vector_13" d="M12.5303 18.5422C12.212 18.5422 11.854 18.5422 11.5357 18.5422C11.2573 18.5422 11.0981 18.383 11.0981 18.1442C11.0981 17.9053 11.2573 17.7063 11.5357 17.6665C12.212 17.6665 12.8883 17.6665 13.5645 17.6665C13.8032 17.6665 14.0021 17.8655 14.0021 18.1044C14.0021 18.383 13.843 18.5024 13.5248 18.5422C13.2065 18.5422 12.8883 18.5422 12.5303 18.5422Z" fill="black"/>
<path id="Vector_14" d="M7.83557 14.8005C7.79579 14.6412 7.91514 14.5218 7.9947 14.4024C8.23339 14.1636 8.19362 13.9247 7.95493 13.7257C7.79581 13.5665 7.79579 13.4073 7.83557 13.2082C7.87535 13.0092 8.03448 12.9296 8.23338 12.8898C8.43228 12.8898 8.55164 12.9694 8.67098 13.1286C8.79032 13.3276 8.90965 13.4869 9.02899 13.6859C9.26767 14.2034 8.86989 14.8801 8.55164 15.1189C8.39252 15.2383 8.23339 15.2383 8.07427 15.1587C7.91515 15.0791 7.75601 14.9995 7.83557 14.8005Z" fill="black"/>
</g>
</g>
</svg>
