<svg width="26" height="18" viewBox="0 0 26 18" fill="none" xmlns="http://www.w3.org/2000/svg">
<path d="M13.3203 3.50725C10.8217 3.50725 8.32308 3.50725 5.82444 3.50725C5.54681 3.50725 5.47741 3.5767 5.47741 3.85451C5.51211 4.37539 5.47741 4.86154 5.47741 5.38242C5.47741 5.69495 5.3386 5.86858 5.09567 5.86858C4.85275 5.86858 4.67923 5.69495 4.67923 5.38242C4.67923 4.23649 4.67923 3.09055 4.67923 1.97934C4.67923 1.73626 4.67923 1.52791 4.71394 1.28484C4.85275 0.555604 5.47741 0 6.20618 0C10.8911 0 15.6108 0 20.2957 0C21.198 0 21.8574 0.694503 21.8574 1.59736C21.8574 4.30594 21.8574 7.01451 21.8574 9.72309C21.8574 10.6607 21.1633 11.3552 20.2263 11.3552C15.7843 11.3552 11.3423 11.3552 6.86554 11.3552C6.55321 11.3552 6.24088 11.3899 5.92855 11.3204C5.13038 11.1468 4.64453 10.5565 4.64453 9.75781C4.64453 9.30638 4.64453 8.82023 4.64453 8.3688C4.64453 8.05627 4.78334 7.88264 5.06097 7.88264C5.30389 7.88264 5.44271 8.05627 5.44271 8.3688C5.44271 8.82023 5.44271 9.27166 5.44271 9.72309C5.44271 10.2092 5.75503 10.5565 6.27558 10.5565C10.9605 10.5565 15.6108 10.5565 20.2957 10.5565C20.7469 10.5565 21.0939 10.244 21.0939 9.79254C21.0939 7.77847 21.0939 5.72968 21.0939 3.71561C21.0939 3.47253 20.9551 3.50725 20.8163 3.50725C18.3523 3.50725 15.819 3.50725 13.3203 3.50725ZM13.3203 2.7433C14.7085 2.7433 16.0966 2.7433 17.5194 2.7433C18.63 2.7433 19.7752 2.7433 20.8857 2.7433C21.0245 2.7433 21.1633 2.7433 21.1286 2.53495C21.0939 2.22242 21.1286 1.94462 21.1286 1.63209C21.1286 1.11121 20.8163 0.798683 20.2957 0.798683C15.6455 0.798683 10.9605 0.798683 6.31029 0.798683C5.82444 0.798683 5.51211 1.11121 5.47741 1.63209C5.47741 1.90989 5.47741 2.22242 5.47741 2.50022C5.47741 2.70857 5.51212 2.7433 5.72033 2.7433C8.25367 2.7433 10.787 2.7433 13.3203 2.7433Z" fill="#B11811"/>
<path d="M16.4433 17.7792C14.1529 17.7792 11.8278 17.7792 9.53738 17.7792C8.49628 17.7792 7.83691 17.1194 7.83691 16.0776C7.83691 14.8622 7.83691 13.6468 7.83691 12.4315C7.83691 12.1537 7.97573 11.98 8.21865 11.98C8.46158 11.98 8.63509 12.1537 8.63509 12.4315C8.63509 12.4662 8.63509 12.5356 8.63509 12.5704C8.63509 13.7857 8.63509 15.0011 8.63509 16.2165C8.63509 16.5985 8.84331 16.8763 9.22504 16.9805C9.29445 17.0152 9.39856 17.0152 9.50267 17.0152C14.1529 17.0152 18.8031 17.0152 23.4534 17.0152C23.9739 17.0152 24.2863 16.7027 24.2863 16.1818C24.2863 13.4732 24.2863 10.7994 24.2863 8.09079C24.2863 7.56991 23.9739 7.25738 23.4534 7.25738C23.2799 7.25738 23.1064 7.25738 22.9328 7.25738C22.7246 7.22266 22.5858 7.11848 22.5858 6.87541C22.5858 6.66705 22.7246 6.49342 22.8981 6.49342C23.2452 6.4587 23.6269 6.4587 23.9739 6.56287C24.6333 6.77123 25.0497 7.36156 25.0497 8.05606C25.0497 10.7646 25.0497 13.4732 25.0497 16.1818C25.0497 17.1541 24.3557 17.8139 23.384 17.8139C21.0589 17.7792 18.7684 17.7792 16.4433 17.7792Z" fill="#B11811"/>
<path d="M10.3705 6.38937C10.1275 6.1463 9.8846 5.90322 9.64168 5.66014C9.57227 5.59069 9.50287 5.52124 9.46816 5.45179C9.36405 5.27816 9.39876 5.10454 9.57227 4.96564C9.71109 4.86146 9.91931 4.82674 10.0581 4.96564C10.6134 5.48652 11.1339 6.04212 11.6892 6.59773C11.828 6.77135 11.828 6.9797 11.6545 7.11861C11.1339 7.63949 10.6134 8.16037 10.0928 8.68124C9.91931 8.85487 9.67639 8.82015 9.53757 8.68124C9.39876 8.50762 9.36406 8.29926 9.53757 8.12564C9.74579 7.91729 9.98871 7.67421 10.1969 7.46586C10.2663 7.39641 10.3357 7.36168 10.3357 7.2575C10.2663 7.18805 10.1969 7.22278 10.1275 7.22278C7.6636 7.22278 5.19966 7.22278 2.73573 7.22278C1.65993 7.22278 0.792349 8.09091 0.792349 9.1674C0.792349 9.47992 0.792349 9.79245 0.792349 10.105C0.792349 10.3481 0.68824 10.487 0.445317 10.5217C0.237097 10.5564 0.0288759 10.4175 0.0288759 10.1744C-0.0405306 9.1674 -0.04053 8.16036 0.688239 7.32695C1.24349 6.7019 1.93756 6.38937 2.73573 6.38937C5.23437 6.38937 7.6983 6.38937 10.1969 6.38937C10.2663 6.4241 10.301 6.45882 10.3705 6.38937Z" fill="#B11811"/>
<path d="M17.7966 9.37597C17.3454 9.37597 16.8943 9.37597 16.4779 9.37597C15.992 9.37597 15.6797 9.06344 15.6797 8.57728C15.6797 8.12586 15.6797 7.67443 15.6797 7.223C15.6797 6.77157 16.0267 6.45904 16.4779 6.42432C17.3801 6.42432 18.2824 6.42432 19.15 6.42432C19.6012 6.42432 19.9135 6.73684 19.9482 7.18827C19.9482 7.67443 19.9482 8.16058 19.9482 8.61201C19.9482 9.02872 19.6359 9.34124 19.1847 9.34124C18.7336 9.37597 18.2824 9.37597 17.7966 9.37597ZM17.7966 7.223C17.4148 7.223 16.9984 7.223 16.6167 7.223C16.4779 7.223 16.4085 7.25772 16.4085 7.43135C16.4085 7.74388 16.4085 8.0564 16.4085 8.40366C16.4085 8.57728 16.4779 8.61201 16.6167 8.61201C17.3801 8.61201 18.1436 8.61201 18.9418 8.61201C19.1153 8.61201 19.15 8.54256 19.15 8.40366C19.15 8.12586 19.1153 7.84805 19.15 7.53553C19.15 7.29245 19.1153 7.223 18.8724 7.223C18.5254 7.25772 18.1783 7.223 17.7966 7.223Z" fill="#B11811"/>
<path d="M12.7307 15.8346C12.5919 15.8346 12.4531 15.8346 12.349 15.8346C12.1407 15.8346 12.0019 15.6957 11.9672 15.4873C11.9325 15.279 12.0713 15.1054 12.2796 15.0706C12.5919 15.0012 12.9389 15.0012 13.2512 15.0706C13.4595 15.1054 13.5289 15.279 13.5289 15.4873C13.4942 15.6957 13.3901 15.7999 13.1818 15.7999C13.0083 15.8346 12.8695 15.8346 12.7307 15.8346Z" fill="#B11811"/>
<path d="M10.5442 15.8349C10.4054 15.8349 10.2666 15.8349 10.1625 15.8349C9.95424 15.8002 9.81543 15.696 9.81543 15.4877C9.81543 15.2793 9.91954 15.1057 10.1625 15.071C10.4401 15.0362 10.7177 15.0362 10.9953 15.071C11.2383 15.071 11.3771 15.2446 11.3771 15.4877C11.3771 15.696 11.2036 15.8349 10.9606 15.8696C10.8218 15.8349 10.683 15.8349 10.5442 15.8349Z" fill="#B11811"/>
<path d="M14.8475 15.8349C14.7086 15.8349 14.5698 15.8349 14.4657 15.8349C14.2228 15.8349 14.1187 15.6613 14.084 15.4529C14.084 15.2446 14.1881 15.1057 14.3963 15.071C14.7086 15.0362 15.021 15.0362 15.3333 15.071C15.5415 15.1057 15.6456 15.2793 15.6456 15.4877C15.6456 15.696 15.5068 15.8349 15.2639 15.8349C15.1598 15.8349 15.021 15.8349 14.8475 15.8349Z" fill="#B11811"/>
</svg>
