<svg width="25" height="18" viewBox="0 0 25 18" fill="none" xmlns="http://www.w3.org/2000/svg">
<path d="M23.4941 17.7446C22.7653 17.1196 22.106 16.4251 21.4466 15.7306C21.3425 15.6264 21.2731 15.6264 21.169 15.7306C20.3708 16.2862 19.4685 16.564 18.4621 16.4598C17.1434 16.2862 16.2064 15.5917 15.5471 14.4457C15.4777 14.3068 15.3735 14.2374 15.2 14.2374C14.853 14.2721 14.506 14.2374 14.1589 14.2374C10.2028 14.2374 6.24658 14.2374 2.29041 14.2374C1.1799 14.2374 0.347026 13.5776 0.0694002 12.5011C-6.35539e-06 12.2928 0 12.0844 0 11.8761C0 8.6466 0 5.41715 0 2.1877C0 1.07649 0.832879 0.173629 1.90868 0.0347274C2.1169 2.11895e-06 2.32511 0 2.49863 0C7.70412 0 12.9443 0 18.1498 0C18.8439 0 19.4685 0.173627 19.9197 0.694506C20.3361 1.11121 20.5443 1.63209 20.5443 2.22242C20.5443 4.41011 20.5443 6.59781 20.5443 8.75078C20.5443 8.99385 20.6137 9.09803 20.822 9.23693C21.9325 9.89672 22.5571 10.869 22.7306 12.1191C22.8695 13.1262 22.6265 14.0638 22.0019 14.8624C21.8978 15.0013 21.9672 15.0361 22.0366 15.1055C22.6265 15.6958 23.1818 16.2514 23.7717 16.8418C23.8064 16.8765 23.8758 16.946 23.9106 17.0154C24.0841 17.2585 24.0841 17.4668 23.8064 17.6405C23.7717 17.6752 23.737 17.7099 23.7023 17.7446C23.6676 17.7446 23.5635 17.7446 23.4941 17.7446ZM8.537 13.2998C10.6192 13.2998 12.7361 13.2998 14.8183 13.2998C15.0612 13.2998 15.0959 13.2998 15.0612 13.0567C14.9918 12.6747 14.9918 12.3275 15.0959 11.9455C15.4083 10.4523 16.2758 9.41056 17.7334 8.88968C18.3233 8.68133 18.9133 8.6466 19.5379 8.75078C19.6073 8.75078 19.6767 8.7855 19.6767 8.6466C19.6767 7.88264 19.6767 7.11869 19.6767 6.35473C19.6767 6.25056 19.642 6.21583 19.5379 6.21583C19.1909 6.21583 18.8439 6.21583 18.4968 6.21583C13.3955 6.21583 8.29408 6.21583 3.19269 6.21583C2.49863 6.21583 1.80456 6.21583 1.07579 6.21583C0.93698 6.21583 0.902277 6.25055 0.902277 6.38946C0.902277 8.2299 0.902277 10.1051 0.902277 11.9455C0.902277 12.7442 1.45754 13.2998 2.25571 13.2998C4.33791 13.2998 6.4201 13.2998 8.537 13.2998ZM10.2375 3.57671C7.18358 3.57671 4.12969 3.57671 1.0411 3.57671C0.902285 3.57671 0.832876 3.61143 0.832876 3.75033C0.832876 4.13231 0.832876 4.51429 0.832876 4.89627C0.832876 5.31297 0.83287 5.31297 1.24931 5.31297C7.18357 5.31297 13.1178 5.31297 19.0521 5.31297C19.1909 5.31297 19.3297 5.31297 19.4338 5.31297C19.5726 5.31297 19.5726 5.27825 19.5726 5.13935C19.5726 4.68792 19.5726 4.27121 19.5726 3.81978C19.5726 3.61143 19.5379 3.57671 19.3297 3.57671C16.3452 3.57671 13.2914 3.57671 10.2375 3.57671ZM10.2375 2.63913C13.1872 2.63913 16.1717 2.63913 19.1215 2.63913C19.2603 2.63913 19.4685 2.67385 19.5726 2.6044C19.6768 2.50022 19.6073 2.29187 19.6073 2.15297C19.5726 1.49319 18.9827 0.937582 18.3233 0.937582C12.9443 0.937582 7.5306 0.937582 2.1516 0.937582C2.08219 0.937582 1.97809 0.937584 1.90868 0.97231C1.17991 1.14594 0.832876 1.59736 0.832876 2.43077C0.832876 2.67385 0.83287 2.67385 1.07579 2.67385C4.16438 2.63912 7.21828 2.63913 10.2375 2.63913ZM18.8786 15.5222C20.5096 15.5222 21.7937 14.2374 21.8284 12.5706C21.8631 10.8343 20.3361 9.68836 19.0868 9.61891C17.1434 9.51473 15.9635 11.0427 15.9288 12.4317C15.8941 14.3416 17.421 15.5222 18.8786 15.5222Z" fill="#B11811"/>
<path d="M5.72616 11.5631C4.92799 11.5631 4.09511 11.5631 3.29694 11.5631C3.05401 11.5631 2.81108 11.5631 2.67227 11.32C2.49875 11.0422 2.67227 10.6949 2.9846 10.6602C3.12341 10.6255 3.29693 10.6255 3.43575 10.6255C4.99739 10.6255 6.55904 10.6255 8.08598 10.6255C8.19009 10.6255 8.2942 10.6255 8.43302 10.6602C8.67594 10.6949 8.84946 10.8686 8.84946 11.1116C8.84946 11.32 8.67594 11.5283 8.43302 11.5631C8.32891 11.5631 8.2248 11.5978 8.12069 11.5978C7.35722 11.5631 6.55904 11.5631 5.72616 11.5631Z" fill="#B11811"/>
<path d="M4.4419 8.88968C3.99075 8.88968 3.57432 8.88968 3.12318 8.88968C2.77614 8.88968 2.56791 8.6466 2.63732 8.33407C2.67202 8.16044 2.77614 8.05627 2.94966 8.02154C3.01907 7.98682 3.12317 7.98682 3.22728 7.98682C4.06016 7.98682 4.89304 7.98682 5.72592 7.98682C5.93414 7.98682 6.10765 8.05627 6.21176 8.26462C6.31587 8.43825 6.28117 8.57715 6.14235 8.75077C6.03824 8.88967 5.89943 8.9244 5.76062 8.9244C5.30947 8.88967 4.85834 8.88968 4.4419 8.88968Z" fill="#B11811"/>
<path d="M18.9134 13.8551C18.4622 13.8551 18.0458 13.8551 17.5946 13.8551C17.3864 13.8551 17.2129 13.7857 17.1088 13.612C16.9353 13.3342 17.1088 12.987 17.4211 12.9175C17.5252 12.8828 17.664 12.8828 17.7682 12.8828C18.5663 12.8828 19.3645 12.8828 20.1627 12.8828C20.2668 12.8828 20.3709 12.8828 20.475 12.9175C20.6832 12.9523 20.822 13.1259 20.8567 13.369C20.8567 13.612 20.7526 13.7509 20.5097 13.8204C20.3709 13.8551 20.1974 13.8551 20.0586 13.8551C19.6421 13.8551 19.2604 13.8551 18.9134 13.8551Z" fill="#B11811"/>
<path d="M18.8784 12.2578C18.4272 12.2578 17.9414 12.2578 17.4902 12.2578C17.2126 12.2578 17.0391 12.0842 17.0044 11.8411C16.9697 11.5981 17.1432 11.3897 17.4208 11.355C17.4902 11.355 17.5596 11.355 17.6291 11.355C18.4619 11.355 19.2948 11.355 20.1624 11.355C20.2665 11.355 20.3706 11.355 20.44 11.3897C20.6829 11.4592 20.8218 11.6328 20.8218 11.8759C20.8218 12.0842 20.6482 12.2578 20.4053 12.2926C19.8848 12.2578 19.3642 12.2578 18.8784 12.2578Z" fill="#B11811"/>
</svg>
