<svg width="35" height="24" viewBox="0 0 35 24" fill="none" xmlns="http://www.w3.org/2000/svg">
<path d="M17.4617 21.9325C12.4562 21.9325 7.45078 21.9325 2.48354 21.9325C2.10144 21.9325 1.98682 21.7414 1.98682 21.4357C1.98682 17.1181 1.98682 12.8386 1.98682 8.5209C1.98682 6.534 1.98682 4.5471 1.98682 2.5602C1.98682 2.1399 2.06323 2.06348 2.48354 2.06348C12.4562 2.06348 22.4672 2.06348 32.4399 2.06348C32.8984 2.06348 33.013 2.21631 33.013 2.63662C33.013 8.90299 33.013 15.1694 33.013 21.3975C33.013 21.856 32.9748 21.9325 32.4781 21.9325C27.4726 21.9325 22.4672 21.9325 17.4617 21.9325ZM17.4999 2.67483C12.6473 2.67483 7.75646 2.67483 2.90384 2.67483C2.63638 2.67483 2.59816 2.75125 2.59816 2.98051C2.59816 4.81457 2.59816 6.64863 2.59816 8.48269C2.59816 12.6475 2.59816 16.8506 2.59816 21.0154C2.59816 21.2447 2.63638 21.3211 2.90384 21.3211C12.6473 21.3211 22.3525 21.3211 32.096 21.3211C32.3252 21.3211 32.4016 21.2447 32.4016 21.0154C32.4016 14.9783 32.4016 8.97941 32.4016 2.9423C32.4016 2.71304 32.3634 2.67483 32.1342 2.67483C27.2434 2.67483 22.3907 2.67483 17.4999 2.67483Z" fill="#303030"/>
<path d="M31.7521 0.0375977C32.6692 0.0375977 33.5862 0.0375977 34.5414 0.0375977C34.9235 0.0375977 35 0.114017 35 0.534322C35 2.21554 35 3.93498 35 5.6162C35 5.69262 35 5.76904 34.9617 5.84546C34.9235 5.99829 34.8471 6.07471 34.6561 6.07471C34.465 6.07471 34.4268 5.92188 34.3886 5.80725C34.3504 5.73083 34.3886 5.6162 34.3886 5.53978C34.3886 4.01139 34.3886 2.52122 34.3886 0.992839C34.3886 0.763581 34.3504 0.687161 34.0829 0.687161C32.3635 0.687161 30.6441 0.687161 28.9246 0.687161C28.8482 0.687161 28.7336 0.725371 28.6572 0.648952C28.5425 0.572533 28.4661 0.457903 28.5043 0.305065C28.5425 0.152227 28.6189 0.0758081 28.7718 0.0758081C28.8482 0.0758081 28.9246 0.0758081 29.001 0.0758081C29.9181 0.0375985 30.8351 0.0375977 31.7521 0.0375977Z" fill="#303030"/>
<path d="M3.09498 0.038209C3.93559 0.038209 4.8144 0.038209 5.65502 0.038209C5.9989 0.038209 6.15175 0.114628 6.15175 0.343885C6.11354 0.611353 5.92248 0.649563 5.69323 0.649563C4.08842 0.649563 2.52183 0.649563 0.917028 0.649563C0.68777 0.649563 0.611356 0.725981 0.611356 0.955238C0.611356 2.48362 0.611356 4.05022 0.611356 5.5786C0.611356 5.69323 0.649563 5.76965 0.573144 5.88428C0.496725 5.9607 0.45851 6.07533 0.305672 6.03712C0.191043 6.03712 0.114631 5.9607 0.0382119 5.84607C2.33156e-06 5.73144 0 5.65502 0 5.54039C0 3.85917 0 2.17795 0 0.496724C0 0.114628 0.0764239 0 0.45852 0C1.33734 0.0382096 2.21616 0.038209 3.09498 0.038209Z" fill="#303030"/>
<path d="M3.09498 23.9572C2.21616 23.9572 1.33733 23.9572 0.49672 23.9572C0.114624 23.9572 0 23.8808 0 23.4987C0 21.8175 0 20.098 0 18.4168C0 18.264 -2.33441e-06 18.0729 0.152836 17.9965C0.420303 17.8819 0.611356 18.0347 0.611356 18.3022C0.611356 19.0282 0.611356 19.7159 0.611356 20.4419C0.611356 21.3207 0.611356 22.1614 0.611356 23.0402C0.611356 23.2694 0.687768 23.3076 0.878816 23.3076C2.48362 23.3076 4.05021 23.3076 5.65501 23.3076C5.80785 23.3076 5.99891 23.2694 6.11353 23.4605C6.22816 23.6897 6.11354 23.919 5.80786 23.919C5.23472 23.919 4.69978 23.919 4.12663 23.919C3.74454 23.9572 3.43887 23.9572 3.09498 23.9572Z" fill="#303030"/>
<path d="M31.9052 23.9575C31.0263 23.9575 30.1093 23.9575 29.2305 23.9575C29.0394 23.9575 28.8866 23.9193 28.8484 23.6901C28.8484 23.5372 28.8484 23.4226 29.0394 23.3844C29.1541 23.3462 29.2687 23.3462 29.3833 23.3462C30.9499 23.3462 32.4783 23.3462 34.0449 23.3462C34.3124 23.3462 34.3888 23.2698 34.3888 23.0023C34.3888 21.4739 34.3888 19.9455 34.3888 18.4171C34.3888 18.3407 34.3888 18.2643 34.3888 18.1497C34.427 17.9968 34.5034 17.9204 34.6563 17.9204C34.7709 17.9204 34.9237 17.9586 34.9619 18.1115C35.0001 18.2261 35.0001 18.3407 35.0001 18.4553C35.0001 20.1366 35.0001 21.7796 35.0001 23.4608C35.0001 23.8429 34.9237 23.9575 34.5416 23.9575C33.6628 23.9575 32.784 23.9575 31.9052 23.9575Z" fill="#303030"/>
<path d="M11.998 18.3024C7.986 18.3406 5.42596 15.5895 5.1967 12.6092C4.85282 8.48255 8.13884 5.65504 11.4631 5.69325C14.9784 5.69325 17.462 8.40614 17.7677 11.3483C17.9587 13.1823 17.4238 14.8253 16.1629 16.2391C14.9019 17.6146 13.3736 18.2642 11.998 18.3024ZM10.9664 13.1823C9.32334 12.6474 8.7502 11.3483 9.01766 10.0491C9.24692 9.0557 10.1639 8.13867 11.4631 8.13867C12.5712 8.13867 13.7174 8.86465 13.9849 10.202C14.0995 10.7751 14.0231 11.3865 13.7174 11.8832C13.3353 12.5328 12.8004 12.9531 12.0362 13.1441C12.0362 13.2205 12.1126 13.2205 12.1126 13.2205C12.6476 13.297 13.1825 13.4116 13.641 13.6409C14.5198 14.0229 15.2458 14.5961 15.819 15.3985C15.8954 15.5131 15.9718 15.5131 16.01 15.3985C16.545 14.6725 16.8888 13.9083 17.0417 13.0295C17.1945 12.1889 17.1945 11.3101 16.927 10.4695C16.736 9.8581 16.5067 9.32316 16.1629 8.78823C15.6661 8.06225 15.0548 7.4891 14.2906 7.03059C13.6028 6.61028 12.8768 6.38103 12.1126 6.30461C10.9664 6.18998 9.85828 6.38103 8.82662 6.91596C8.13884 7.25985 7.5657 7.75657 7.06897 8.32972C6.3812 9.13212 5.9609 10.0874 5.80806 11.119C5.73164 11.8068 5.73163 12.4564 5.84626 13.1059C5.9991 13.9083 6.34299 14.6343 6.83971 15.3221C6.95434 15.4749 6.99256 15.5131 7.10718 15.3221C7.75675 14.4433 8.59736 13.8319 9.62902 13.4498C10.0493 13.3734 10.5078 13.297 10.9664 13.1823ZM11.5013 17.6911C11.8834 17.6911 12.3037 17.6911 12.6858 17.5764C13.6792 17.3472 14.5963 16.8887 15.3605 16.2009C15.5133 16.0481 15.5133 15.9334 15.3987 15.8188C15.2076 15.6277 15.0548 15.3985 14.8637 15.2074C13.9467 14.3286 12.8386 13.8701 11.5777 13.8319C10.6989 13.7937 9.85827 14.0612 9.09408 14.4815C8.48272 14.8253 7.986 15.2839 7.6039 15.857C7.52749 15.9716 7.48928 16.0481 7.64212 16.1627C8.71199 17.1561 9.9729 17.6911 11.5013 17.6911ZM11.4631 12.6092C12.6476 12.5328 13.4118 11.7686 13.4118 10.6605C13.4118 9.62884 12.724 8.75002 11.5013 8.75002C10.355 8.75002 9.59081 9.51421 9.5526 10.6605C9.5526 11.7304 10.2786 12.5328 11.4631 12.6092Z" fill="#303030"/>
<path d="M25.1039 9.97266C26.594 9.97266 28.0842 9.97266 29.5744 9.97266C29.8418 9.97266 30.0329 10.0873 29.9947 10.2783C29.9565 10.5076 29.8036 10.584 29.5744 10.584C26.594 10.584 23.5755 10.584 20.5951 10.584C20.2894 10.584 20.1748 10.4694 20.1748 10.2783C20.1748 10.0109 20.3659 9.97266 20.5951 9.97266C22.1235 9.97266 23.6137 9.97266 25.1039 9.97266Z" fill="#303030"/>
<path d="M25.1037 14.0234C23.6135 14.0234 22.1233 14.0234 20.6332 14.0234C20.5185 14.0234 20.4039 14.0234 20.3275 13.9469C20.2511 13.8705 20.2129 13.7559 20.2511 13.6413C20.2893 13.4884 20.4039 13.4502 20.5185 13.412C20.595 13.3738 20.6332 13.412 20.7096 13.412C23.6517 13.412 26.6321 13.412 29.5742 13.412C29.6506 13.412 29.7653 13.412 29.8417 13.412C29.9945 13.4884 30.1091 13.5648 30.1091 13.7559C30.0709 13.9469 29.9181 14.0234 29.727 14.0234C28.1222 14.0234 26.5939 14.0234 25.1037 14.0234Z" fill="#303030"/>
<path d="M25.1038 7.14511C23.6519 7.14511 22.1617 7.14511 20.7097 7.14511C20.5951 7.14511 20.4805 7.14511 20.3658 7.1069C20.213 7.03048 20.1748 6.91585 20.213 6.80122C20.213 6.64838 20.2894 6.57196 20.4805 6.53376C20.5569 6.53376 20.6333 6.53376 20.7097 6.53376C23.6519 6.53376 26.594 6.53376 29.4979 6.53376C29.7272 6.53376 29.9947 6.49554 30.0329 6.80122C30.0711 7.03048 29.88 7.14511 29.4979 7.14511C28.0078 7.14511 26.5558 7.14511 25.1038 7.14511Z" fill="#303030"/>
<path d="M25.0655 17.4618C23.5753 17.4618 22.0851 17.4618 20.5949 17.4618C20.4803 17.4618 20.3275 17.5 20.2511 17.3854C20.1746 17.2708 20.1746 17.1561 20.2128 17.0797C20.2893 16.9651 20.4039 16.8887 20.5185 16.8887C20.6714 16.8887 20.786 16.8887 20.9388 16.8887C23.8045 16.8887 26.6321 16.8887 29.4978 16.8887C29.6506 16.8887 29.7652 16.8887 29.8799 17.0033C29.9945 17.0797 30.0327 17.1943 29.9945 17.309C29.9563 17.4236 29.8799 17.5382 29.727 17.5382C29.6506 17.5382 29.5742 17.5382 29.4596 17.5382C28.0076 17.4618 26.5556 17.4618 25.0655 17.4618Z" fill="#303030"/>
</svg>
