<svg width="20" height="20" viewBox="0 0 20 20" fill="none" xmlns="http://www.w3.org/2000/svg">
<g id="Chield_check_light">
<path id="Vector 4" d="M10.6442 3.08877L15.6314 4.4187C15.9962 4.51597 16.25 4.84635 16.25 5.22389V10.2411C16.25 11.9128 15.4145 13.474 14.0235 14.4013L10.4623 16.7755C10.1823 16.9621 9.81767 16.9621 9.53775 16.7755L5.9765 14.4013C4.58551 13.474 3.75 11.9128 3.75 10.2411V5.22389C3.75 4.84635 4.00382 4.51597 4.36862 4.41869L9.35584 3.08877C9.77791 2.97622 10.2221 2.97622 10.6442 3.08877Z" stroke="white" stroke-width="0.833333" stroke-linecap="round"/>
<path id="Line 1" d="M7.91667 9.58301L9.43602 11.1024C9.51738 11.1837 9.64929 11.1837 9.73065 11.1024L12.5 8.33301" stroke="white" stroke-width="0.833333" stroke-linecap="round"/>
</g>
</svg>
