<svg width="34" height="34" viewBox="0 0 34 34" fill="none" xmlns="http://www.w3.org/2000/svg">
<path d="M10.6067 23.3341C9.77101 22.4983 9.10808 21.5062 8.65579 20.4143C8.20349 19.3223 7.9707 18.152 7.9707 16.9701C7.9707 15.7882 8.2035 14.6179 8.65579 13.526C9.10808 12.434 9.77102 11.4419 10.6067 10.6061C11.4425 9.77042 12.4346 9.10749 13.5266 8.65519C14.6185 8.2029 15.7888 7.97011 16.9707 7.97011C18.1526 7.97011 19.3229 8.2029 20.4149 8.65519C21.5068 9.10749 22.4989 9.77042 23.3347 10.6061C24.1704 11.4419 24.8333 12.434 25.2856 13.526C25.7379 14.6179 25.9707 15.7882 25.9707 16.9701C25.9707 18.152 25.7379 19.3223 25.2856 20.4143C24.8333 21.5062 24.1704 22.4983 23.3347 23.3341C22.4989 24.1698 21.5068 24.8327 20.4149 25.285C19.3229 25.7373 18.1526 25.9701 16.9707 25.9701C15.7888 25.9701 14.6185 25.7373 13.5265 25.285C12.4346 24.8327 11.4425 24.1698 10.6067 23.3341L10.6067 23.3341Z" stroke="white" stroke-linecap="round"/>
<path d="M16.9707 12.7285V21.2138" stroke="white" stroke-linecap="round"/>
<path d="M21.2134 16.9707H12.7281" stroke="white" stroke-linecap="round"/>
</svg>
