<svg width="21" height="19" viewBox="0 0 21 19" fill="none" xmlns="http://www.w3.org/2000/svg">
<path d="M20.0027 3.94461C19.621 3.21538 19.2392 2.48614 18.8228 1.75691C18.684 1.47911 18.5452 1.23604 18.4063 0.99296C18.2675 0.715157 18.1287 0.472076 17.9899 0.228999C17.8511 -0.0140786 17.7123 -0.0488039 17.4694 0.0553721C16.9141 0.333175 16.3589 0.610975 15.8383 0.888777C15.6648 0.992953 15.5954 1.09713 15.6301 1.23603C15.6301 1.27076 15.6301 1.34021 15.5954 1.37494C15.5607 1.40967 15.4913 1.44438 15.4566 1.44438C15.4219 1.44438 15.3872 1.44439 15.3178 1.47911C15.1442 1.51384 14.9707 1.51384 14.7972 1.51384C14.0684 1.40966 13.2009 1.30549 12.2986 1.37494C11.6392 1.44439 11.0492 1.72219 10.5287 2.17362C9.69582 2.93758 8.93235 3.80571 8.16888 4.81274C7.96066 5.09055 7.75244 5.26417 7.33601 5.22944C6.71135 5.19472 6.08669 5.19472 5.46203 5.22944C5.21911 5.22944 4.94148 5.22944 4.69855 5.22944H1.81819C1.50586 5.22944 1.40174 5.33362 1.40174 5.61142V12.869C1.40174 12.9385 1.40175 13.0079 1.43645 13.0426C1.47115 13.0774 1.47116 13.1468 1.47116 13.1815C1.47116 13.251 1.40174 13.251 1.36704 13.2857C1.19352 13.3552 1.02001 13.4593 0.84649 13.5288C0.672974 13.5983 0.499457 13.7024 0.325941 13.8066C0.152424 13.876 0.0483168 13.9802 0.0136135 14.0844C-0.0210898 14.1886 0.0136177 14.3275 0.0830243 14.5011C0.187134 14.7442 0.325947 14.9525 0.430057 15.1609C0.77709 15.7859 1.12412 16.4457 1.43645 17.1055C1.57526 17.418 1.74878 17.7306 1.92229 18.0084L2.0264 18.182C2.16521 18.3903 2.30403 18.4598 2.47755 18.3903C2.58166 18.3209 2.72047 18.2862 2.82458 18.2167C3.20632 18.0084 3.58805 17.8347 3.96978 17.6264C4.00449 17.6264 4.0392 17.5917 4.0739 17.5569C4.21271 17.4875 4.35152 17.418 4.35152 17.2444C4.35152 17.1402 4.38623 17.0708 4.42093 17.0013C4.49034 16.9319 4.62915 16.9319 4.73326 16.9319C4.83737 16.9319 4.97619 16.9319 5.115 16.9666C5.53144 17.0013 5.94788 17.0013 6.32961 17.0708C6.85016 17.175 7.40541 17.1402 8.09947 17.0013C8.62002 16.8972 9.07117 16.6194 9.59172 16.1332C10.4593 15.2651 11.2575 14.3622 11.9168 13.4593C12.0556 13.2857 12.1945 13.2163 12.4027 13.2163C13.999 13.2163 15.5954 13.2163 17.157 13.2163H18.094C18.4411 13.2163 18.5799 13.1121 18.5799 12.7648C18.5799 10.4035 18.5799 8.0422 18.5799 5.68088C18.5799 5.64615 18.5799 5.64615 18.5799 5.61142C18.5799 5.54197 18.5799 5.50725 18.5452 5.4378C18.4757 5.36834 18.4758 5.29889 18.4758 5.26417C18.5105 5.19472 18.5799 5.16 18.6493 5.12527C18.9616 4.98637 19.3086 4.81274 19.6904 4.56966C19.8292 4.50021 19.8986 4.43077 19.9333 4.32659C20.1068 4.18769 20.0721 4.08351 20.0027 3.94461ZM8.79354 5.09054C8.86294 5.02109 8.89765 4.95164 8.96705 4.88219C9.07116 4.74329 9.17528 4.60439 9.27939 4.46549L9.3835 4.36131C9.97345 3.6668 10.5634 2.9723 11.2575 2.4167C11.6045 2.1389 12.0209 1.99999 12.5068 1.96526C13.3397 1.93054 13.999 1.96526 14.6584 2.10416C14.9707 2.17361 15.3872 2.20835 15.8036 2.03472C15.9424 1.96527 16.0812 1.99999 16.1506 2.17362C16.4977 2.90285 16.8794 3.63209 17.2611 4.32659L17.2958 4.36131C17.3652 4.46548 17.3653 4.53494 17.2611 4.63912C16.81 5.05582 16.4977 5.5767 16.3589 6.16703C16.1159 7.10461 15.5607 7.83385 14.6237 8.32C14.1378 8.56308 13.6867 8.7367 13.2356 8.8756C13.1662 8.91033 13.062 8.91033 12.9926 8.91033C12.8885 8.91033 12.8191 8.91033 12.7497 8.8756C12.6109 8.80615 12.5068 8.7367 12.4721 8.5978C12.4374 8.49362 12.5068 8.35472 12.6109 8.25055C12.9579 7.93802 13.3397 7.59077 13.6867 7.20879C13.8949 7.00044 14.1031 6.79208 14.242 6.47956C14.4502 5.9934 14.4155 5.5767 14.1725 5.19472C13.8602 4.7433 13.5826 4.39603 13.1314 4.18768C12.5415 3.90988 11.9862 3.97933 11.3269 4.39604C11.1187 4.53494 10.9104 4.74329 10.7369 4.91692L10.7022 4.95164C10.5981 5.05582 10.4593 5.12527 10.3205 5.12527C10.0082 5.12527 9.69582 5.12527 9.34879 5.12527H8.82824L8.79354 5.09054ZM13.2009 5.16H11.431L11.5698 5.05581C12.1945 4.60439 12.4374 4.60439 13.062 5.05581L13.2009 5.16ZM3.58805 17.0708L3.41453 17.1402C3.20631 17.2444 2.99809 17.3486 2.78988 17.4528C2.72047 17.4875 2.68577 17.4875 2.65106 17.4875C2.61636 17.4875 2.61636 17.4875 2.58165 17.4875C2.51225 17.4528 2.44284 17.3833 2.40814 17.3139L2.13052 16.7582C2.02641 16.5152 1.88759 16.3068 1.78348 16.0637C1.50586 15.5081 1.19353 14.9525 0.915901 14.3969C0.881197 14.3622 0.881195 14.2928 0.881195 14.2233C0.915899 14.1539 0.9506 14.1191 1.02001 14.0844C1.22823 13.9802 1.43645 13.876 1.64467 13.7719C1.71408 13.7371 1.81818 13.6677 1.92229 13.633L1.957 13.5982L1.9917 13.633C2.09581 13.8413 2.19992 14.015 2.30403 14.2233C2.54695 14.6747 2.78988 15.1609 3.0328 15.647C3.10221 15.7859 3.17161 15.8901 3.24101 16.029C3.34512 16.2721 3.48394 16.5499 3.65746 16.7582C3.69216 16.793 3.69216 16.8624 3.69216 16.8971C3.65746 17.036 3.62275 17.036 3.58805 17.0708ZM11.2575 13.3552C11.1534 13.4941 11.0145 13.633 10.9104 13.7719C10.6675 14.0844 10.3899 14.3969 10.147 14.6747C9.86935 14.9873 9.55701 15.3345 9.24469 15.647C8.89765 15.9596 8.4118 16.3415 7.75244 16.3415C7.64833 16.3415 7.54422 16.3415 7.40541 16.3763C7.3707 16.3763 7.3013 16.3763 7.26659 16.3763C6.88486 16.3763 6.50313 16.3415 6.12139 16.3068C5.67025 16.2721 5.1844 16.2374 4.73326 16.2374C4.69856 16.2374 4.69855 16.2374 4.66385 16.2374C4.62915 16.2374 4.55974 16.2374 4.52504 16.2374C4.1086 16.3068 4.10859 16.3068 3.93508 15.9596V15.9248C3.65745 15.404 3.37983 14.8484 3.1022 14.3275L2.96339 14.0844C2.85928 13.9108 2.82457 13.7371 3.0675 13.5635C3.44923 13.251 3.72687 12.7996 3.86568 12.244C4.1086 11.2717 4.66385 10.5424 5.60084 10.0215C5.94787 9.81319 6.3296 9.67429 6.71134 9.53539C6.85015 9.50066 6.98897 9.4312 7.09308 9.39648C7.3013 9.32703 7.61363 9.39648 7.78714 9.57011C7.89125 9.70901 7.89125 9.84791 7.75244 9.98681C7.68303 10.0563 7.61363 10.1257 7.54423 10.1952C7.3013 10.4382 7.02367 10.6813 6.78075 10.9244C6.43372 11.2717 6.19079 11.5842 6.05198 11.9662C5.91317 12.3481 5.94787 12.6954 6.19079 13.0774C6.39901 13.3899 6.67664 13.7024 7.05837 13.9455C7.61363 14.3275 8.27299 14.3275 8.86295 13.9802C9.17528 13.8066 9.4182 13.5635 9.62642 13.3204C9.73053 13.2163 9.83463 13.1468 10.0082 13.1468C10.1123 13.1468 10.2164 13.1468 10.2858 13.1468C10.5981 13.1468 10.9451 13.1468 11.2575 13.1121C11.2922 13.1121 11.3269 13.1121 11.3616 13.1468C11.3269 13.2163 11.3269 13.2857 11.2575 13.3552ZM7.09308 13.1815H7.19719C7.40541 13.1815 7.61363 13.1815 7.78714 13.1815C8.03007 13.1815 8.27299 13.1815 8.51591 13.1468H8.65473L8.58533 13.251C8.41181 13.4941 8.13418 13.5982 7.82185 13.5982H7.78714C7.50952 13.5982 7.3013 13.4593 7.12778 13.2857L7.09308 13.1815ZM17.9205 12.4176C17.8511 12.487 17.7817 12.487 17.6776 12.487C16.2894 12.487 14.8666 12.487 13.4785 12.487H12.1598H6.78075C6.60723 12.487 6.53783 12.487 6.50313 12.4176C6.46843 12.3481 6.50312 12.2787 6.57253 12.1398C6.78075 11.6884 7.12778 11.3758 7.47482 11.0633C7.54422 10.9938 7.61363 10.9591 7.64833 10.8897C7.82185 10.716 8.03007 10.5424 8.20359 10.3341C8.51592 9.98681 8.48121 9.43121 8.13418 9.08395C7.71774 8.66725 7.2666 8.56308 6.67665 8.77143L6.60723 8.80616C6.01728 9.01451 5.42732 9.25758 4.87207 9.60483C4.17801 10.091 3.72686 10.6119 3.44924 11.2369C3.31042 11.5495 3.17161 11.8967 3.13691 12.244C3.1022 12.3829 3.0328 12.4176 2.92869 12.4523C2.89398 12.4523 2.89399 12.4523 2.85929 12.4523H2.82458C2.68577 12.4523 2.58166 12.4523 2.51225 12.4523C2.37344 12.4523 2.26932 12.4523 2.19992 12.3829C2.09581 12.2787 2.09581 12.1051 2.09581 11.7925V10.2299C2.09581 8.87561 2.09581 7.48659 2.09581 6.09757C2.09581 5.9934 2.09581 5.92395 2.16522 5.8545C2.23463 5.78505 2.33873 5.78505 2.40814 5.78505C4.1086 5.81977 5.87847 5.81978 7.54423 5.81978C8.20359 5.81978 8.82825 5.81978 9.45291 5.81978C10.2511 5.81978 11.084 5.81978 11.8821 5.81978H13.0967H13.1662H13.2009C13.2356 5.81978 13.2703 5.81978 13.305 5.81978C13.4091 5.81978 13.5132 5.78506 13.5826 5.88923C13.6867 6.06286 13.5479 6.27121 13.4785 6.34066C13.1314 6.86154 12.6803 7.27824 12.2639 7.59077L12.2292 7.6255C12.0209 7.79912 11.8127 7.97275 11.7433 8.25055C11.6045 8.66725 11.7433 9.08396 12.1251 9.36176C12.6456 9.74374 13.1661 9.63956 13.652 9.43121C14.0684 9.2923 14.5196 9.08396 14.9707 8.84088C15.9077 8.28528 16.4977 7.59077 16.81 6.72264C16.81 6.68791 16.8447 6.61846 16.8447 6.58374C16.9141 6.41011 16.9835 6.20176 16.9835 6.02813C16.9835 5.88923 17.0529 5.81978 17.157 5.81978H17.1917C17.4 5.81978 17.5735 5.81978 17.7817 5.81978C17.8164 5.81978 17.8511 5.8545 17.8858 5.8545C17.9205 5.88923 17.9205 5.95868 17.9205 5.9934V8.07692C17.9205 9.43121 17.9205 10.8202 17.9205 12.1745C17.9899 12.3134 17.9899 12.3829 17.9205 12.4176ZM19.1351 4.11824C19.1351 4.15296 19.1351 4.15296 19.1351 4.11824C18.9963 4.18769 18.8575 4.25714 18.7534 4.32659C18.6146 4.39604 18.441 4.46549 18.3369 4.56966C18.3022 4.60439 18.2675 4.60439 18.2328 4.60439H18.1981C18.1287 4.60439 18.1287 4.53494 18.094 4.50022L17.9899 4.29186C17.8858 4.08351 17.747 3.87516 17.6429 3.63209C17.5388 3.38901 17.3999 3.18066 17.2958 2.93758C17.0529 2.48615 16.81 2 16.5671 1.54857C16.5324 1.44439 16.4977 1.37494 16.4977 1.30549C16.5324 1.23603 16.5671 1.20131 16.7059 1.16659C16.8794 1.09714 17.0182 0.992956 17.1917 0.923505C17.2611 0.88878 17.3305 0.854059 17.3652 0.819333C17.4347 0.784608 17.4694 0.74988 17.5388 0.784606C17.5735 0.784606 17.6082 0.819327 17.6429 0.888777C18.0593 1.68746 18.4758 2.52087 18.9616 3.42373C18.9963 3.49318 19.031 3.52791 19.0657 3.59736C19.1351 3.73626 19.2045 3.84044 19.2392 3.97934C19.2739 4.08351 19.1698 4.11824 19.1351 4.11824Z" fill="#F68B0E"/>
</svg>
