<svg width="20" height="20" viewBox="0 0 20 20" fill="none" xmlns="http://www.w3.org/2000/svg">
<path d="M15.2967 6.56308C15.2273 6.70198 15.0537 6.73671 14.9149 6.70198C14.8108 6.66725 14.7414 6.5978 14.672 6.52835C14.6373 6.52835 14.6373 6.49363 14.6026 6.45891C14.3944 6.28528 14.2209 6.11166 14.0474 5.93803C13.9779 5.86858 13.9432 5.7644 13.9432 5.66022V4.72264C13.9432 3.75034 13.9432 2.77803 13.9432 1.80572C13.9432 1.73627 13.9432 1.70154 13.9085 1.63209C13.8738 1.59737 13.8044 1.59737 13.735 1.59737C13.3533 1.59737 12.9715 1.59737 12.5898 1.59737H12.4163C12.3122 1.59737 12.2775 1.59737 12.2428 1.63209C12.2081 1.66682 12.2081 1.70154 12.2081 1.80572V2.29187V3.4378C12.2081 3.61143 12.1387 3.71561 11.9652 3.78506C11.861 3.85451 11.6875 3.78506 11.5487 3.68088C11.3405 3.47253 11.0976 3.26417 10.8894 3.05582C10.7852 2.95165 10.6464 2.84747 10.5423 2.70857C10.2994 2.50022 10.0912 2.29187 9.84825 2.04879L9.32771 1.56264C9.11949 1.35429 8.91126 1.14594 8.66834 0.937588C8.63364 0.902862 8.56423 0.833412 8.46012 0.937588C8.2519 1.14594 8.04368 1.31956 7.83546 1.52791C7.59254 1.77099 7.31492 2.01407 7.07199 2.22242L7.03729 2.25714C6.75966 2.53495 6.44733 2.77802 6.16971 3.05582C6.03089 3.19472 5.89208 3.33363 5.71856 3.47253C5.54505 3.64616 5.37153 3.81978 5.19801 3.99341C4.98979 4.20176 4.74687 4.41011 4.53865 4.61846C4.39984 4.72264 4.26102 4.86154 4.15692 4.96571C4.0181 5.10462 3.87929 5.24352 3.74048 5.38242C3.49755 5.6255 3.25463 5.83385 2.97701 6.07693C2.8729 6.14638 2.76879 6.25055 2.69938 6.35473C2.56057 6.4589 2.45645 6.5978 2.31764 6.70198C2.14412 6.87561 1.97061 7.04924 1.79709 7.18814C1.72769 7.25759 1.62358 7.36176 1.51947 7.43121C1.38066 7.57012 1.20714 7.70902 1.03362 7.88265L0.686589 8.19518H1.51947C1.93591 8.19518 2.35235 8.19518 2.76878 8.19518C2.87289 8.19518 3.01171 8.2299 3.08112 8.29935C3.15052 8.3688 3.21993 8.47297 3.18522 8.61187C3.18522 9.30638 3.18522 10.0009 3.18522 10.6954V11.8413C3.18522 12.7789 3.18522 13.6818 3.18522 14.6194C3.18522 14.9319 3.28933 15.175 3.53226 15.3486C3.67107 15.4528 3.80989 15.5222 3.9487 15.5222C4.39984 15.5222 4.88569 15.5222 5.33683 15.5222C5.61446 15.5222 5.89208 15.5222 6.16971 15.5222C6.44733 15.5222 6.72496 15.5222 7.03729 15.5222C7.38432 15.5222 7.73135 15.5222 8.07839 15.5222C8.77245 15.5222 9.43181 15.5222 10.0912 15.5222C10.2994 15.5222 10.4382 15.6264 10.5076 15.7653C10.5423 15.8695 10.5423 15.9736 10.4729 16.0778C10.4035 16.182 10.3341 16.2167 10.1953 16.2514C10.0218 16.2862 9.84825 16.2862 9.67474 16.2514C9.60533 16.2514 9.53592 16.2514 9.43181 16.2514H8.56423C7.10669 16.2514 5.61446 16.2514 4.12222 16.2514C3.53226 16.2514 3.04641 16.0084 2.73408 15.5917C2.56057 15.3486 2.45646 15.0361 2.45646 14.7235V13.8207C2.45646 12.258 2.45646 10.6954 2.45646 9.09803C2.45646 9.06331 2.45646 8.99385 2.42175 8.95913C2.38705 8.9244 2.31764 8.92441 2.24824 8.92441C1.72769 8.92441 1.24184 8.92441 0.7907 8.92441C0.513074 8.92441 0.304853 8.82023 0.16604 8.6466C0.0272268 8.43825 -0.0421776 8.2299 0.0272289 7.98682C0.0619322 7.74374 0.235445 7.60484 0.408962 7.43121L0.443667 7.39649C0.547777 7.29231 0.651887 7.18814 0.7907 7.08396C0.964216 6.91033 1.13773 6.77144 1.31125 6.59781C1.51947 6.38946 1.76239 6.18111 1.97061 5.97276C2.10942 5.83386 2.24824 5.72968 2.38705 5.59078C2.66468 5.3477 2.9423 5.06989 3.21993 4.82682L4.0181 4.09758L4.78158 3.36836C4.95509 3.22946 5.09391 3.09055 5.23272 2.95165C5.44094 2.7433 5.64916 2.53494 5.85738 2.36132C6.1003 2.15296 6.34322 1.94462 6.55144 1.70154C6.72496 1.52791 6.89847 1.35429 7.10669 1.21539C7.45373 0.902858 7.80076 0.555609 8.14779 0.243081C8.2172 0.173631 8.32131 0.0694506 8.46012 0H8.63364C8.77245 0.0694506 8.87656 0.173622 8.98067 0.277798C9.15419 0.451425 9.32771 0.590334 9.50122 0.763961C9.60533 0.833412 9.67473 0.937583 9.77884 1.04176C10.2994 1.49319 10.7852 1.97934 11.3058 2.4655C11.3058 2.4655 11.3405 2.50023 11.4099 2.50023C11.4793 2.4655 11.4793 2.43077 11.4793 2.36132V1.77099V1.21539C11.4793 1.00703 11.6528 0.868133 11.8263 0.868133H12.5204C13.0757 0.868133 13.6656 0.868133 14.2556 0.868133C14.325 0.868133 14.4291 0.902854 14.5332 0.972304C14.6026 1.04175 14.672 1.14594 14.672 1.25011C14.672 1.97934 14.672 2.70857 14.672 3.4378C14.672 4.09758 14.672 4.72264 14.672 5.38242C14.672 5.52132 14.7414 5.6255 14.8108 5.69495C14.9496 5.83385 15.0884 5.97275 15.2273 6.11166C15.3314 6.25056 15.3661 6.45891 15.2967 6.56308Z" fill="#9010F4"/>
<path d="M18.1072 12.2579C18.4542 12.2579 18.8012 12.2579 19.1483 12.2579C19.3565 12.2579 19.4953 12.2232 19.53 12.0149C19.53 11.9801 19.5647 11.9801 19.5647 11.9801V11.876C19.53 11.8412 19.53 11.8065 19.4953 11.7718C19.4953 11.7371 19.4953 11.7371 19.4606 11.7371C19.3912 11.6676 19.3218 11.5982 19.2524 11.5287C19.2177 11.494 19.1483 11.4245 19.1136 11.3898C18.8706 11.1467 18.6277 10.9037 18.4195 10.6606L17.9337 10.2092C17.656 9.93135 17.3784 9.65355 17.1008 9.37575L16.6149 8.8896C16.4761 8.75069 16.3026 8.57706 16.1638 8.43816C15.9903 8.29926 15.8167 8.29926 15.6432 8.43816C14.6368 9.47992 13.5957 10.487 12.5893 11.494L12.5546 11.5287C12.4852 11.5982 12.4158 11.6676 12.3464 11.7718C12.2423 11.9107 12.3117 12.0496 12.4158 12.1885C12.4852 12.258 12.5546 12.2927 12.6935 12.2927H12.9017C13.1793 12.2927 13.4916 12.2927 13.7693 12.2927C13.804 12.2927 13.8734 12.2927 13.9081 12.3274C13.9428 12.3621 13.9428 12.4316 13.9428 12.4663C13.9428 13.4039 13.9428 14.3762 13.9428 15.4874C13.9428 15.5221 13.9428 15.5916 13.9081 15.6263C13.8734 15.661 13.8387 15.661 13.7693 15.661C13.5957 15.661 13.4569 15.661 13.3181 15.661C13.1446 15.661 12.9711 15.661 12.7976 15.661H12.7629C12.7282 15.661 12.6935 15.661 12.6241 15.661C12.4852 15.6958 12.3811 15.7652 12.3117 15.9388C12.277 16.043 12.3117 16.1472 12.4158 16.2514C12.7629 16.6333 13.1446 16.9806 13.4916 17.3626L13.9428 17.814C14.1857 18.0571 14.4633 18.3349 14.7062 18.578C14.8104 18.7169 14.9492 18.821 15.0533 18.9252C15.2615 19.1336 15.4697 19.3419 15.6779 19.5503C15.782 19.6544 15.8862 19.6892 16.025 19.6197C16.1291 19.585 16.2332 19.5155 16.3026 19.4114C16.3373 19.3766 16.372 19.3419 16.4067 19.3072C16.6496 19.0988 16.8578 18.8558 17.0661 18.6474C17.2743 18.4391 17.4825 18.2307 17.6907 18.0223C17.9684 17.7793 18.2113 17.5015 18.4542 17.2584C18.5583 17.1542 18.6971 17.0153 18.8012 16.9111C18.9053 16.807 18.9748 16.7375 19.0789 16.6333C19.1136 16.5986 19.1483 16.5639 19.183 16.5292C19.3218 16.3903 19.4606 16.2514 19.53 16.1125V15.9736C19.4953 15.9388 19.4606 15.9041 19.4606 15.8694V15.8347C19.3565 15.7305 19.2524 15.661 19.0789 15.661H18.7665C18.5236 15.661 18.2807 15.661 18.0378 15.661C18.0031 15.661 17.9684 15.661 17.9337 15.6263C17.8989 15.5916 17.8989 15.5569 17.8989 15.5221C17.8989 14.5151 17.8989 13.4733 17.8989 12.4663C17.8989 12.4316 17.8989 12.3969 17.9337 12.3621C18.0378 12.258 18.0725 12.2579 18.1072 12.2579ZM17.5519 16.3555C17.6907 16.3555 17.8295 16.3555 17.9684 16.3555H18.1419C18.1766 16.3555 18.2113 16.3555 18.246 16.3903C18.246 16.425 18.246 16.4597 18.2113 16.4944L17.7948 16.9111C17.2049 17.5015 16.6496 18.0571 16.0597 18.6474C16.025 18.6821 15.9903 18.7169 15.9209 18.7169C15.8862 18.7169 15.8167 18.6821 15.8167 18.6474C15.5391 18.3696 15.2962 18.1265 15.0533 17.8834C14.9145 17.7445 14.7757 17.6056 14.6715 17.5015C14.498 17.3278 14.3245 17.1542 14.151 16.9806C14.0816 16.9111 14.0122 16.8417 13.9428 16.7722C13.8734 16.7028 13.804 16.6333 13.7346 16.5292C13.7346 16.5292 13.6652 16.4944 13.6999 16.425C13.6999 16.3903 13.7346 16.3555 13.804 16.3555C13.8734 16.3555 13.9081 16.3555 13.9428 16.3555C14.0469 16.3555 14.151 16.3555 14.2551 16.3555C14.3592 16.3555 14.4633 16.3208 14.5674 16.2514C14.6715 16.1819 14.7062 16.043 14.7062 15.9041C14.7062 14.9318 14.7062 13.9942 14.7062 13.0566V11.9454C14.7062 11.7371 14.5327 11.5634 14.3245 11.5634H13.804C13.7693 11.5634 13.6999 11.5634 13.6652 11.494C13.6652 11.4245 13.6999 11.3898 13.6999 11.3898C13.7693 11.3204 13.8734 11.2162 13.9775 11.1467C14.151 10.9731 14.3592 10.7995 14.5327 10.5911C14.6715 10.4522 14.8451 10.2786 14.9839 10.1397C15.1574 9.96608 15.3309 9.79246 15.5044 9.61883C15.5391 9.5841 15.5738 9.54937 15.6085 9.51465C15.6779 9.4452 15.782 9.37575 15.8515 9.27158C15.8862 9.23685 15.9209 9.20212 15.9556 9.20212C15.9903 9.20212 16.025 9.20213 16.0944 9.27158C16.2332 9.41048 16.372 9.54937 16.5108 9.68827L17.2743 10.4522C17.3784 10.5564 17.5172 10.6953 17.6213 10.7995L17.7254 10.9037C17.8989 11.0773 18.0725 11.2509 18.246 11.3898C18.2807 11.3898 18.3154 11.4593 18.2807 11.5287C18.246 11.5982 18.1766 11.5982 18.1766 11.5634C18.0378 11.5634 17.8989 11.5634 17.7601 11.5634H17.656C17.4478 11.5634 17.2743 11.7371 17.2743 11.9454V16.0083C17.2049 16.1472 17.3784 16.3555 17.5519 16.3555Z" fill="#9010F4"/>
</svg>
