<svg width="16" height="16" viewBox="0 0 16 16" fill="none" xmlns="http://www.w3.org/2000/svg">
<path d="M4.02512 9.50316L4.02499 9.50303L4.02133 9.50694C4.01526 9.51301 4.00922 9.51903 4.00322 9.52502C3.89491 9.6331 3.79903 9.72878 3.73145 9.84813C3.66387 9.96749 3.63116 10.0989 3.5942 10.2474C3.59173 10.2574 3.58924 10.2674 3.58672 10.2774L3.14437 12.0469C3.14289 12.0528 3.14141 12.0587 3.13992 12.0646C3.11375 12.1691 3.08581 12.2807 3.07665 12.3744C3.06656 12.4775 3.06891 12.6516 3.20852 12.7912C3.34812 12.9308 3.52216 12.9331 3.62531 12.923C3.719 12.9139 3.83056 12.8859 3.93502 12.8598C3.94098 12.8583 3.94691 12.8568 3.95282 12.8553L5.72223 12.413C5.73232 12.4104 5.74232 12.4079 5.75225 12.4055C5.90074 12.3685 6.03219 12.3358 6.15154 12.2682C6.27089 12.2006 6.36657 12.1048 6.47466 11.9965C6.48189 11.9892 6.48917 11.9819 6.49652 11.9746L11.2926 7.17851L11.3081 7.16301C11.517 6.95407 11.6971 6.77404 11.8219 6.61049C11.9556 6.43521 12.0569 6.24026 12.0569 6C12.0569 5.75974 11.9556 5.56479 11.8219 5.38952C11.6971 5.22596 11.517 5.04594 11.3081 4.837L11.2926 4.82149L11.1782 4.70711L10.9425 4.94281L11.1782 4.70711L11.1627 4.69159C10.9537 4.48263 10.7737 4.30259 10.6102 4.1778C10.4349 4.04407 10.2399 3.94281 9.99967 3.94281C9.75942 3.94281 9.56447 4.04407 9.38919 4.1778C9.22564 4.30259 9.04562 4.48263 8.83668 4.69159L8.82116 4.70711L4.02512 9.50316Z" stroke="#1151B1" stroke-width="0.666667"/>
<path d="M8.33301 5.0013L10.333 3.66797L12.333 5.66797L10.9997 7.66797L8.33301 5.0013Z" fill="#1151B1"/>
</svg>
