<svg width="26" height="19" viewBox="0 0 26 19" fill="none" xmlns="http://www.w3.org/2000/svg">
<g id="WLcDK7.tif">
<g id="Group">
<g id="Group_2">
<path id="Vector" d="M24.9433 7.8715C24.6648 6.5181 24.1477 5.24431 23.3521 4.16955C22.1189 2.49771 20.4481 1.26372 18.4591 0.587024C17.5839 0.268577 16.6689 0.109344 15.6744 0.029732C14.6401 -0.0498798 13.6456 0.0297344 12.6511 0.26857C11.0201 0.626823 9.58797 1.34333 8.39455 2.33848C7.51938 3.09479 6.84312 3.81129 6.32597 4.64722C5.60992 5.76178 5.17233 6.99576 4.97343 8.38897C4.85409 9.18509 4.89386 10.021 5.0132 11.0162C5.0132 11.0162 5.0132 11.056 5.05298 11.056C5.33145 11.056 5.57013 11.056 5.8486 11.056H5.88838C5.72926 10.2997 5.68948 9.54334 5.76904 8.82684C5.80882 8.15014 5.96794 7.47343 6.16685 6.79673C6.24641 6.5579 6.36574 6.47829 6.60442 6.47829C7.32048 6.47829 8.07631 6.47829 8.79236 6.47829H9.50842C9.66754 6.47829 9.78688 6.47829 9.86644 6.5977C9.946 6.71712 9.946 6.83655 9.90622 6.95597C9.82666 7.35403 9.7471 7.79188 9.7471 8.18994C9.66754 9.2647 9.66754 10.1802 9.7471 11.056H9.78688C10.0653 11.056 10.3438 11.056 10.6223 11.056C10.6223 10.9764 10.6223 10.8569 10.5825 10.7773C10.4631 9.46373 10.5427 8.15014 10.7416 6.83654C10.7814 6.59771 10.9007 6.5181 11.1394 6.5181C12.2135 6.5181 13.208 6.5181 14.123 6.5181C14.2423 6.5181 14.3219 6.51809 14.4014 6.5977C14.481 6.67732 14.481 6.83654 14.481 6.87635C14.481 7.75208 14.481 8.62781 14.481 9.50354V11.3346C14.481 11.4142 14.481 11.4142 14.5208 11.454C14.8788 11.6929 15.1573 11.9317 15.3562 12.2501C15.3562 12.2103 15.3562 12.2103 15.3562 12.1705C15.3562 11.4938 15.3562 10.8569 15.3562 10.1404V9.46373C15.3562 9.10548 15.3562 8.78703 15.3562 8.42878C15.3562 7.9113 15.3562 7.35402 15.3164 6.83654C15.3164 6.71712 15.3164 6.63751 15.3959 6.5977C15.4755 6.51809 15.5949 6.5181 15.6744 6.5181C16.7087 6.5181 17.743 6.5181 18.7773 6.5181C18.9762 6.5181 19.0955 6.5977 19.1353 6.79673C19.2149 7.19479 19.2547 7.59286 19.2945 7.95111C19.3342 8.70743 19.374 9.42393 19.3342 10.1006C19.2944 10.7773 19.2547 11.454 19.0956 12.29C19.0558 12.4492 18.9762 12.5288 18.7375 12.5288H16.4302C16.1916 12.5288 15.9529 12.5288 15.7142 12.5288C15.6346 12.5288 15.5551 12.5288 15.4755 12.4492C15.5949 12.688 15.6744 13.0065 15.7142 13.2851H15.754C16.2711 13.2851 16.7883 13.2851 17.3452 13.2851H18.4988C18.5784 13.2851 18.6977 13.2851 18.7773 13.4045C18.8569 13.5239 18.8171 13.6434 18.8171 13.6832C18.6977 14.121 18.5386 14.5191 18.3795 14.8375C18.0612 15.554 17.7828 16.2307 17.2656 16.8278C16.8678 17.3055 16.3905 17.7832 15.754 18.022C15.754 18.3404 15.6744 18.6191 15.5948 18.9375C15.9927 18.9375 16.3905 18.8977 16.7087 18.8181C17.9419 18.6191 19.1353 18.1812 20.289 17.5443C21.1244 17.0667 21.92 16.4298 22.636 15.6336C23.1532 15.0764 23.5112 14.5987 23.7897 14.121C24.4262 13.0065 24.8637 11.8123 25.0229 10.5385C25.1024 9.66277 25.1024 8.74723 24.9433 7.8715ZM10.4234 4.60741C10.3836 4.68702 10.3836 4.76664 10.3438 4.84625C10.2643 5.04528 10.2245 5.24431 10.1847 5.44334C10.1847 5.52295 10.1051 5.68217 9.86644 5.68217H9.38907C8.63324 5.68217 7.87741 5.68217 7.12158 5.68217C7.12158 5.68217 7.08179 5.68217 7.04201 5.68217C6.96245 5.68217 6.84312 5.68218 6.76356 5.56276C6.72378 5.48315 6.64421 5.36372 6.80333 5.2045C7.95697 3.45304 9.3493 2.21906 11.1394 1.46275C11.2985 1.42294 11.4179 1.34333 11.577 1.30353C11.6168 1.30353 11.6566 1.26372 11.7361 1.26372L12.2533 1.18411L11.8157 1.821C11.6963 1.98022 11.577 2.13945 11.4577 2.29867C11.0599 2.97537 10.7018 3.73168 10.4234 4.60741ZM14.5208 1.34333V1.38314C14.5208 1.86081 14.5208 2.33848 14.5208 2.85595V3.8511C14.5208 4.32877 14.5208 4.84625 14.5208 5.32392C14.5208 5.40353 14.5208 5.52295 14.4412 5.60256C14.3617 5.68217 14.2423 5.72198 14.1627 5.68217C13.566 5.68217 12.9693 5.68217 12.3726 5.68217H12.2533C11.9748 5.68217 11.6566 5.68217 11.3781 5.68217H11.3383C11.2588 5.68217 11.1394 5.68218 11.0599 5.56276C11.0201 5.48315 10.9803 5.40353 11.0201 5.28411C11.3781 4.16955 11.8157 3.2142 12.3726 2.41809C12.6909 1.98022 13.1682 1.38313 13.8445 1.02488L13.8843 0.985083C13.9638 0.945277 14.123 0.825855 14.3219 0.905467C14.5606 1.06469 14.5208 1.26372 14.5208 1.34333ZM18.7773 5.60256C18.6977 5.72197 18.5784 5.72198 18.4988 5.72198H16.9076H16.7087C16.3905 5.72198 16.0722 5.72198 15.754 5.72198C15.6744 5.72198 15.5551 5.72198 15.4755 5.64237C15.396 5.56275 15.3959 5.44334 15.3959 5.36373C15.3959 4.88606 15.3959 4.36858 15.3959 3.89091C15.3959 3.05498 15.3959 2.17926 15.3959 1.30353C15.3959 1.22391 15.396 1.0647 15.5153 0.985083C15.6346 0.905471 15.7938 0.985073 15.8733 1.02488C16.47 1.30352 16.9474 1.74139 17.385 2.33848C17.9817 3.1346 18.4193 4.08994 18.8171 5.36373C18.8171 5.36373 18.8569 5.48314 18.7773 5.60256ZM18.0215 1.821C17.9817 1.74139 17.9021 1.66178 17.9021 1.50256V1.38314L18.0215 1.34333C18.1806 1.30353 18.2999 1.34334 18.3795 1.38314H18.4193C19.6525 1.90062 20.8061 2.61712 21.7608 3.57247C22.2382 4.05014 22.6758 4.60741 23.0338 5.2045C23.1134 5.32392 23.1929 5.44334 23.1134 5.56276C23.0338 5.68218 22.9543 5.68217 22.8349 5.68217H22.7554C21.7608 5.68217 20.8857 5.68217 20.0503 5.68217C19.8514 5.68217 19.6923 5.60256 19.6525 5.40353C19.2945 3.93071 18.7773 2.77634 18.0215 1.821ZM23.1532 13.5637C22.0791 15.4744 20.4083 16.8278 18.101 17.6638L17.8226 17.823L17.9021 17.5045C17.9419 17.3453 18.0215 17.2259 18.1408 17.1065C18.1806 17.0667 18.1806 17.0667 18.2204 17.0269C18.6977 16.39 19.0558 15.6735 19.4138 14.6783C19.5729 14.2803 19.6525 13.922 19.732 13.6035C19.732 13.5239 19.8116 13.3249 20.0503 13.3249C20.4481 13.3249 20.8061 13.3249 21.2039 13.3249C21.6017 13.3249 21.9597 13.3249 22.3576 13.3249H23.3521L23.1532 13.5637ZM23.7499 12.2501C23.6703 12.4492 23.551 12.5288 23.3521 12.5288C22.3576 12.5288 21.3233 12.5288 20.3287 12.5288C20.2492 12.5288 20.1298 12.5288 20.0901 12.4492C20.0105 12.3696 20.0105 12.2103 20.0503 12.1705C20.2094 11.1356 20.289 10.1006 20.289 9.06567C20.2492 8.30936 20.2094 7.55305 20.0503 6.83654C20.0503 6.79674 20.0105 6.67732 20.0901 6.5977C20.1696 6.51809 20.289 6.5181 20.3287 6.5181H22.3178C22.6758 6.5181 23.0338 6.5181 23.4316 6.5181C23.6305 6.5181 23.7499 6.5977 23.8294 6.79673C24.0681 7.51324 24.1875 8.18995 24.267 8.94626C24.267 10.021 24.1477 11.0958 23.7499 12.2501Z" fill="black"/>
</g>
<g id="Group_3">
<path id="Vector_2" d="M14.1619 15.753C14.1619 14.9966 14.1619 14.2403 14.1619 13.484C14.1619 13.2452 14.0823 13.0462 13.8834 12.8471C13.6845 12.6083 13.4061 12.5287 12.9685 12.5287C11.2977 12.5287 9.58713 12.5287 7.91634 12.5287H4.53499C4.21674 12.5287 3.85872 12.5287 3.54047 12.5287C3.14267 12.5287 2.78464 12.5287 2.38684 12.5287C2.38684 12.8073 2.38684 13.0462 2.38684 13.285H2.78464C2.94377 13.285 3.10288 13.285 3.262 13.285C3.34157 13.285 3.46091 13.285 3.54047 13.3646C3.62003 13.4442 3.62003 13.5636 3.62003 13.6034C3.62003 13.9219 3.62003 14.1607 3.62003 14.3996C3.62003 14.4792 3.62003 14.5986 3.54047 14.6782C3.46091 14.7578 3.34157 14.7578 3.262 14.7578H2.30727C1.94925 14.7578 1.59123 14.7578 1.19342 14.7578C1.19342 15.0364 1.19342 15.2753 1.19342 15.5539C1.51166 15.5539 1.86969 15.5539 2.18793 15.5539C2.54596 15.5539 2.8642 15.5539 3.22222 15.5539C3.34156 15.5539 3.42113 15.5539 3.50069 15.6335C3.58025 15.7132 3.58026 15.8724 3.58026 15.9122C3.58026 16.151 3.58026 16.3899 3.58026 16.6685C3.58026 16.7481 3.58025 16.8675 3.50069 16.9471C3.42113 17.0267 3.30178 17.0267 3.22222 17.0267C2.42661 17.0267 1.631 17.0267 0.835383 17.0267H0V17.584C0.0397806 17.6636 0 17.7433 0 17.7831C0.437587 17.7831 0.835386 17.7831 1.27297 17.7831C1.90946 17.7831 2.58573 17.7831 3.22222 17.7831C3.50069 17.7831 3.58025 17.9821 3.62003 18.1015C3.69959 18.4598 3.93828 18.7384 4.2963 18.8578C4.33608 18.8578 4.33609 18.8578 4.37587 18.8578C4.41565 18.8578 4.49521 18.8578 4.57477 18.8976C4.61455 18.8976 4.65433 18.9374 4.69411 18.9772H13.1276C13.2072 18.8976 13.3265 18.8976 13.3663 18.8976C13.8039 18.818 14.1221 18.4598 14.1619 18.0617C14.1619 17.7433 14.1619 17.4646 14.1619 17.186C14.1619 16.7481 14.1619 16.2704 14.1619 15.753ZM13.3265 17.8627C13.3265 17.9423 13.3265 18.0617 13.2469 18.1413C13.1674 18.2209 13.048 18.2209 12.9685 18.2209C11.059 18.2209 9.14954 18.2209 7.24007 18.2209H4.85323C4.73389 18.2209 4.61455 18.2209 4.53499 18.1413C4.45543 18.0617 4.45542 17.9821 4.45542 17.9025C4.45542 17.8627 4.45542 17.8627 4.45542 17.8229C4.45542 17.584 4.45542 17.3452 4.41564 17.1064C4.37586 16.7481 4.37587 16.35 4.37587 15.952C4.37587 15.753 4.45543 15.5539 4.77367 15.5937C4.9328 15.5937 5.09192 15.5937 5.29082 15.5937C5.41016 15.5937 5.48972 15.5937 5.60906 15.5937C5.60906 15.3151 5.60906 15.0763 5.60906 14.8374C5.44994 14.8374 5.29082 14.8374 5.17148 14.8374C5.01236 14.8374 4.89301 14.8374 4.73389 14.8374C4.65433 14.8374 4.53498 14.8374 4.45542 14.7578C4.37586 14.6782 4.37587 14.5588 4.37587 14.519C4.37587 14.2005 4.37587 13.9617 4.37587 13.7627C4.37587 13.7229 4.33608 13.5636 4.45542 13.484C4.53498 13.4044 4.65433 13.3646 4.73389 13.3646C5.76819 13.3646 6.84226 13.3646 7.87656 13.3646H9.66669C10.7408 13.3646 11.8148 13.3646 12.8889 13.3646C12.9685 13.3646 13.0878 13.3646 13.1674 13.4442C13.2469 13.5238 13.2469 13.6433 13.2469 13.7229C13.2867 15.0763 13.2867 16.4695 13.3265 17.8627Z" fill="black"/>
</g>
</g>
</g>
</svg>
