<svg width="17" height="15" viewBox="0 0 17 15" fill="none" xmlns="http://www.w3.org/2000/svg">
<path fill-rule="evenodd" clip-rule="evenodd" d="M7.4175 14.3775C4.5525 13.395 0 9.9075 0 4.755C0 2.13 2.1225 0 4.7325 0C6 0 7.185 0.495 8.0625 1.38C8.94 0.495 10.125 0 11.3925 0C14.0025 0 16.125 2.1375 16.125 4.755C16.125 9.915 11.5725 13.395 8.7075 14.3775C8.52 14.445 8.295 14.475 8.0625 14.475C7.83 14.475 7.605 14.445 7.4175 14.3775ZM1.125 4.755C1.125 9.8775 6.0525 12.7275 7.785 13.32C7.92 13.365 8.2125 13.365 8.3475 13.32C10.0725 12.7275 15.0075 9.885 15.0075 4.755C15.0075 2.7525 13.3875 1.125 11.4 1.125C10.26 1.125 9.2025 1.6575 8.52 2.58C8.31 2.865 7.83 2.865 7.62 2.58C6.9225 1.65 5.8725 1.125 4.7325 1.125C2.745 1.125 1.125 2.7525 1.125 4.755Z" fill="#EF0006"/>
</svg>
