<svg width="25" height="25" viewBox="0 0 25 25" fill="none" xmlns="http://www.w3.org/2000/svg">
<path fill-rule="evenodd" clip-rule="evenodd" d="M11.2623 21.9125C7.42901 20.5979 1.33789 15.9317 1.33789 9.03784C1.33789 5.52566 4.17774 2.67578 7.66984 2.67578C9.36572 2.67578 10.9512 3.33808 12.1253 4.52218C13.2994 3.33808 14.8849 2.67578 16.5807 2.67578C20.0728 2.67578 22.9127 5.5357 22.9127 9.03784C22.9127 15.9418 16.8216 20.5979 12.9883 21.9125C12.7374 22.0028 12.4364 22.0429 12.1253 22.0429C11.8142 22.0429 11.5132 22.0028 11.2623 21.9125ZM2.84311 9.03784C2.84311 15.8916 9.43597 19.7048 11.754 20.4976C11.9346 20.5578 12.326 20.5578 12.5066 20.4976C14.8146 19.7048 21.4175 15.9016 21.4175 9.03784C21.4175 6.35855 19.25 4.181 16.5908 4.181C15.0655 4.181 13.6506 4.89347 12.7374 6.12775C12.4564 6.50907 11.8142 6.50907 11.5332 6.12775C10.6 4.88344 9.19513 4.181 7.66984 4.181C5.01062 4.181 2.84311 6.35855 2.84311 9.03784Z" fill="#EF0006"/>
<path opacity="0.01" fill-rule="evenodd" clip-rule="evenodd" d="M24.0835 0V24.0835H0V0H24.0835Z" fill="#EF0006"/>
<path d="M16.0555 3.34473L12.666 5.57468L11.9524 4.83136L9.32105 4.01371L5.53013 4.08804L2.67578 6.02067V9.3656L3.30017 13.3795L6.02071 18.0624L10.659 21.4074L12.666 21.4073L17.3489 19.4004L20.5154 15.3865L22.0764 11.3726V8.02763L20.5154 4.77868L16.0555 3.34473Z" fill="#EF0006"/>
</svg>
