<svg width="18" height="22" viewBox="0 0 18 22" fill="none" xmlns="http://www.w3.org/2000/svg">
<path d="M3.35611 16.3029C3.53917 15.3565 4.14938 15.0207 5.00366 15.4481C5.97998 15.9366 6.98682 16.4556 7.96315 16.944C8.1157 17.0356 8.23773 17.0356 8.39029 16.883C8.78692 16.5472 9.21406 16.2113 9.61069 15.8755C9.76324 15.7534 9.88528 15.6923 10.0989 15.6923C11.1057 15.6923 12.1125 15.6923 13.0888 15.6923C13.3634 15.6923 13.4245 15.6007 13.3939 15.3565C13.3634 15.2039 13.3939 15.0207 13.3939 14.868C13.3939 14.6849 13.4855 14.5933 13.699 14.5933C14.8889 14.5933 16.0788 14.5933 17.2687 14.5933C17.5128 14.5933 17.5738 14.7459 17.6043 14.9596C17.6043 15.2039 17.6043 15.4786 17.6043 15.7229C17.6043 17.5546 17.6043 19.4169 17.6043 21.2487C17.6043 21.7677 17.5433 21.8288 17.0246 21.8288C15.9568 21.8288 14.9195 21.8288 13.8516 21.8288C13.516 21.8288 13.455 21.7677 13.4245 21.4014C13.4245 21.3708 13.4245 21.3403 13.4245 21.3098C13.4245 20.6686 13.4245 20.6992 12.7837 20.7602C11.5633 20.8823 10.3429 21.0961 9.12253 21.0961C7.81059 21.0961 6.46815 20.9739 5.15621 20.8824C4.2104 20.8213 3.26458 20.7908 2.34928 20.7297C1.89163 20.6992 1.43398 20.6992 1.00684 20.6686C0.427143 20.6381 0 20.1191 0 19.5696C0 18.9895 0.488162 18.5316 1.06785 18.5011C1.70857 18.4705 2.34928 18.4095 3.05101 18.3789C2.68489 18.1347 2.34928 17.921 2.04418 17.7378C1.67806 17.4936 1.55602 17.1272 1.61704 16.7303C1.70857 16.3029 1.98316 16.0892 2.37979 15.9671C2.56285 15.906 2.74591 15.9671 2.92897 16.0282C3.0205 16.1503 3.17305 16.2113 3.35611 16.3029ZM13.3634 18.2873C13.3634 17.7073 13.3634 17.1272 13.3634 16.5472C13.3634 16.3029 13.3024 16.2419 13.0583 16.2419C12.1125 16.2419 11.1362 16.2419 10.1904 16.2419C10.0378 16.2419 9.9463 16.2724 9.85477 16.364C9.30558 16.8219 8.72589 17.2799 8.17671 17.7683C8.02416 17.921 7.8411 17.9515 7.65804 17.9515C7.16988 17.9515 6.71223 17.9515 6.22406 17.9515C5.82743 17.9515 5.55285 18.1652 5.52234 18.4705C5.46131 18.8979 5.7359 19.2338 6.22406 19.2338C7.26141 19.2338 8.26824 19.2338 9.30559 19.2338C9.48865 19.2338 9.67171 19.2337 9.70222 19.478C9.70222 19.7222 9.51916 19.7528 9.3361 19.7528C8.29876 19.7528 7.26141 19.7528 6.22406 19.7528C5.70539 19.7528 5.30876 19.5391 5.09519 19.0506C5.03417 18.8979 4.94264 18.8674 4.79009 18.8979C3.93581 18.959 3.08152 18.9895 2.19673 19.0506C1.8001 19.0811 1.37295 19.0811 0.976323 19.1422C0.671222 19.1727 0.457654 19.4169 0.488164 19.6917C0.488164 19.9665 0.732241 20.2412 1.03734 20.2412C2.19673 20.3023 3.35611 20.3633 4.48499 20.4244C5.46131 20.4855 6.46815 20.5465 7.44447 20.5771C8.1462 20.6076 8.87845 20.6992 9.58018 20.6381C10.7701 20.5465 11.96 20.3939 13.1499 20.3023C13.3329 20.2718 13.3939 20.2107 13.3939 20.0275C13.3634 19.4475 13.3634 18.8674 13.3634 18.2873ZM13.8821 18.2568C13.8821 19.2032 13.8821 20.1496 13.8821 21.0655C13.8821 21.2792 13.9431 21.3403 14.1567 21.3403C15.011 21.3403 15.8653 21.3403 16.7195 21.3403C16.9636 21.3403 17.0246 21.2792 17.0246 21.035C17.0246 19.1727 17.0246 17.2799 17.0246 15.4176C17.0246 15.2039 16.9636 15.1428 16.7806 15.1428C15.8958 15.1428 15.0415 15.1428 14.1567 15.1428C13.9126 15.1428 13.8821 15.2344 13.8821 15.4481C13.8821 16.3945 13.8821 17.3104 13.8821 18.2568ZM4.02734 18.3789C4.30193 18.3789 4.54601 18.3484 4.8206 18.3484C5.06468 18.3484 5.03417 18.1042 5.1257 17.9515C5.18672 17.8294 5.03417 17.7989 4.97315 17.7683C4.27142 17.3104 3.50867 16.9746 2.77642 16.5777C2.50183 16.425 2.25775 16.5166 2.13571 16.7303C2.01367 16.9746 2.07469 17.1883 2.31877 17.3715C2.80693 17.6768 3.26458 17.982 3.75275 18.2873C3.84428 18.3484 3.9053 18.4095 4.02734 18.3789ZM7.50549 17.402C7.50549 17.3715 7.50549 17.3409 7.50549 17.3409C6.52917 16.8524 5.55284 16.364 4.57652 15.845C4.30193 15.7229 4.08836 15.7839 3.9358 15.9976C3.81376 16.2419 3.84428 16.425 4.11887 16.6082C4.42397 16.8219 4.75958 17.0051 5.06468 17.2188C5.33927 17.402 5.58335 17.4936 5.91896 17.402C6.25457 17.3104 6.65121 17.3715 6.98682 17.3715C7.20039 17.402 7.35294 17.402 7.50549 17.402Z" fill="#AEB111"/>
<path d="M8.02403 1.25171C8.02403 1.55701 8.02403 1.89283 8.02403 2.19813C8.02403 2.35078 8.05454 2.41183 8.2376 2.44236C9.82413 2.59501 11.075 3.32772 12.0209 4.64049C12.1429 4.79314 12.2344 4.73208 12.326 4.67102C12.8141 4.39625 13.3023 4.12149 13.7905 3.84672C13.8515 3.81619 13.9125 3.75513 14.004 3.7246C14.1566 3.66354 14.3091 3.66354 14.3701 3.84672C14.4312 3.99937 14.3701 4.12149 14.2481 4.18255C13.7294 4.48784 13.2108 4.79314 12.6616 5.09843C12.4785 5.19002 12.4175 5.2816 12.509 5.49531C13.1497 6.9302 13.1497 8.3651 12.4785 9.79998C12.4175 9.95263 12.448 10.0137 12.57 10.0747C13.0582 10.3495 13.5769 10.6548 14.065 10.9296C14.1261 10.9601 14.1566 10.9906 14.2176 11.0212C14.3701 11.1128 14.4617 11.2349 14.3701 11.3875C14.2786 11.5402 14.1261 11.5707 13.9735 11.4791C13.5159 11.2043 13.0582 10.9601 12.6005 10.6853C12.509 10.6243 12.4175 10.5937 12.3565 10.5327C12.2039 10.4106 12.1124 10.4716 12.0209 10.6243C11.1056 11.876 9.85464 12.6087 8.29863 12.7613C8.08506 12.7919 8.05454 12.8529 8.05454 13.0361C8.05454 13.6467 8.05454 14.2268 8.05454 14.8374C8.05454 15.0205 8.02403 15.1732 7.81046 15.1732C7.56638 15.1732 7.53587 15.0205 7.53587 14.8374C7.53587 14.2268 7.53587 13.6162 7.53587 13.0056C7.53587 12.8224 7.50536 12.7613 7.3223 12.7613C5.76628 12.6087 4.54588 11.876 3.60006 10.6243C3.47802 10.4716 3.38649 10.4411 3.23394 10.5327C2.74578 10.838 2.22711 11.1127 1.70844 11.418C1.55589 11.5096 1.37283 11.6012 1.25079 11.3875C1.12875 11.1738 1.25078 11.0517 1.43384 10.9601C1.95252 10.6548 2.47119 10.3495 2.98986 10.0747C3.17292 9.98315 3.17292 9.89156 3.1119 9.70838C2.47119 8.27349 2.5017 6.83862 3.1119 5.43426C3.17292 5.25108 3.17292 5.19002 3.02037 5.09843C2.5017 4.82367 2.01354 4.51837 1.52538 4.24361C1.34231 4.15202 1.12874 4.06043 1.28129 3.78567C1.40333 3.57196 1.61691 3.69408 1.76946 3.78567C2.25762 4.06043 2.74578 4.33519 3.23394 4.64049C3.417 4.73208 3.50853 4.7626 3.63057 4.57943C4.54588 3.32772 5.76628 2.59501 7.3223 2.44236C7.53587 2.41183 7.56638 2.35077 7.56638 2.1676C7.56638 1.58754 7.56638 1.00748 7.56638 0.427421C7.56638 0.213714 7.59689 0.0305295 7.81046 0C8.05454 0 8.08505 0.183183 8.08505 0.396889C8.02403 0.671655 8.02403 0.976946 8.02403 1.25171ZM7.74944 2.93083C5.18659 2.93083 3.05088 5.03738 3.08139 7.60185C3.1119 10.2274 5.15608 12.2729 7.74944 12.2729C10.3428 12.2729 12.4175 10.1969 12.4175 7.57131C12.448 5.00684 10.3428 2.93083 7.74944 2.93083Z" fill="#AEB111"/>
</svg>
