<svg width="28" height="35" viewBox="0 0 28 35" fill="none" xmlns="http://www.w3.org/2000/svg">
<path d="M14.4425 34.9995C14.4143 34.9761 14.3862 34.9526 14.3533 34.9385C13.9874 34.7227 13.917 34.3379 14.2032 34.0236C15.029 33.1274 15.8173 32.1983 16.4836 31.1754C17.666 29.3689 18.5059 27.417 18.9986 25.3102C19.3505 23.8134 19.496 22.2979 19.4772 20.7635C19.4678 20.0832 19.4866 19.4075 19.4725 18.7271C19.4303 16.3717 18.0883 14.415 15.9018 13.608C13.9827 12.8995 12.1621 13.2044 10.5621 14.4995C9.20605 15.5974 8.54445 17.0426 8.54445 18.7928C8.54445 19.7125 8.58668 20.6321 8.5163 21.5518C8.43184 22.6451 8.12216 23.668 7.54033 24.6111C6.86466 25.6997 5.93092 26.5677 5.09571 27.5249C4.87049 27.7877 4.52796 27.7971 4.29335 27.5906C4.03998 27.3701 4.02121 27.0369 4.26989 26.7554C4.72503 26.2393 5.17548 25.7278 5.64939 25.2305C6.40952 24.4281 6.96319 23.5178 7.22596 22.4339C7.34795 21.9225 7.40426 21.4016 7.40426 20.8761C7.40426 20.0878 7.3808 19.2996 7.39957 18.5113C7.43241 17.2209 7.83594 16.0385 8.56791 14.9828C9.58611 13.5094 10.9891 12.5757 12.7346 12.2472C14.9774 11.8249 16.9622 12.4349 18.6138 14.0209C19.6555 15.0203 20.2655 16.259 20.5142 17.6761C20.5798 18.0561 20.608 18.4409 20.608 18.8303C20.6033 20.0785 20.6455 21.3266 20.5611 22.5747C20.4672 23.973 20.2045 25.3384 19.8056 26.6803C18.9188 29.6692 17.3657 32.2734 15.2496 34.5491C15.0994 34.7086 14.9493 34.8588 14.7803 34.9995C14.6771 34.9995 14.5598 34.9995 14.4425 34.9995Z" fill="#181818"/>
<path d="M11.158 34.9996C11.0172 34.887 10.8624 34.7744 10.8202 34.5914C10.7685 34.3662 10.8295 34.1691 10.9938 33.9908C11.7633 33.1509 12.5516 32.3298 13.2789 31.457C14.2924 30.2371 15.1323 28.9045 15.7657 27.4405C16.2349 26.3566 16.5681 25.2305 16.798 24.0762C16.9857 23.119 17.0513 22.1431 17.0654 21.1671C17.0748 20.4023 17.0748 19.6328 17.0654 18.8679C17.056 17.9061 16.7417 17.0662 15.9956 16.428C14.2079 14.8984 11.5991 15.8603 11.0642 17.9952C10.9938 18.272 10.975 18.5536 10.975 18.8351C10.9703 19.8251 11.0172 20.8199 10.9375 21.8099C10.8436 22.9407 10.5527 24.0199 10.0553 25.0475C9.58612 26.0235 8.96676 26.8915 8.23947 27.6845C7.74679 28.2194 7.25881 28.7684 6.77082 29.308C6.61129 29.4863 6.41891 29.5848 6.17023 29.5238C5.9497 29.4722 5.81362 29.3315 5.75262 29.1203C5.68224 28.8904 5.78547 28.7121 5.93093 28.5432C6.53622 27.8722 7.1462 27.2012 7.73741 26.5209C8.75561 25.3478 9.43128 24.0012 9.70342 22.4715C9.79727 21.9413 9.84419 21.4017 9.8395 20.8621C9.8395 20.0973 9.82542 19.3278 9.8395 18.563C9.86296 17.4697 10.2853 16.5359 11.0548 15.7711C11.9791 14.8515 13.1146 14.4198 14.4097 14.5558C15.8361 14.7013 16.9106 15.438 17.6426 16.6767C18.0273 17.3289 18.1822 18.0421 18.1915 18.7835C18.2056 19.9659 18.2244 21.1483 18.154 22.3308C18.0555 23.9496 17.7036 25.5214 17.1405 27.0417C16.3898 29.0687 15.2683 30.8658 13.856 32.494C13.246 33.1978 12.6126 33.8782 11.9932 34.5773C11.8571 34.7321 11.7117 34.8682 11.5521 34.9902C11.4208 34.9996 11.2894 34.9996 11.158 34.9996Z" fill="#181818"/>
<path d="M0.164307 17.6585C0.25815 17.269 0.262842 16.8702 0.328532 16.476C0.666368 14.4678 1.39365 12.6144 2.55262 10.9393C4.45763 8.18498 7.01956 6.3175 10.2384 5.37907C11.8009 4.92393 13.3962 4.79255 15.0103 4.8817C15.3341 4.90047 15.6625 4.92862 15.9863 4.99901C16.3382 5.07877 16.5212 5.34623 16.4555 5.68875C16.3992 5.97028 16.0989 6.15328 15.7845 6.11105C14.4895 5.95151 13.1991 5.94213 11.9088 6.17205C8.45536 6.78672 5.71044 8.52751 3.65058 11.3522C2.54323 12.8725 1.83941 14.5804 1.49219 16.4291C1.38896 16.9734 1.32327 17.5224 1.3045 18.0761C1.29512 18.3857 1.14028 18.611 0.872823 18.6907C0.633523 18.7611 0.384838 18.6391 0.225305 18.3717C0.211228 18.3482 0.183075 18.3341 0.164307 18.3201C0.164307 18.0995 0.164307 17.879 0.164307 17.6585Z" fill="#181818"/>
<path d="M15.7656 20.3346C15.7656 21.0994 15.7844 21.8689 15.7093 22.6291C15.5686 24.0695 15.2026 25.4537 14.6395 26.7863C14.4096 27.3353 14.1187 27.8608 13.8512 28.391C13.1849 29.7142 12.1855 30.77 11.2095 31.8492C10.6934 32.4169 10.1773 32.98 9.66582 33.5524C9.49221 33.7448 9.28575 33.8292 9.04176 33.7682C8.83061 33.7166 8.68985 33.5618 8.63824 33.3459C8.58662 33.1348 8.66639 32.9612 8.80715 32.8063C9.60951 31.9195 10.4119 31.0327 11.2142 30.1459C12.2418 29.0104 13.0911 27.7576 13.6307 26.3265C14.1187 25.0408 14.4987 23.7129 14.5832 22.3241C14.6536 21.1369 14.6207 19.9451 14.6254 18.758C14.6254 18.3545 14.3439 18.0823 13.9732 18.0917C13.6448 18.1011 13.3914 18.3967 13.3914 18.7815C13.3914 19.5322 13.3914 20.283 13.3914 21.0384C13.382 23.5534 12.6125 25.8291 11.1861 27.889C10.501 28.8743 9.64236 29.7142 8.85408 30.6104C8.52562 30.9858 8.19248 31.3471 7.85934 31.7178C7.7045 31.8867 7.53089 32.0134 7.28689 31.9618C6.82237 31.8632 6.66753 31.3612 6.99129 30.9952C7.76549 30.1224 8.54908 29.2591 9.33268 28.3957C10.501 27.1101 11.3503 25.6367 11.843 23.971C12.1151 23.056 12.2512 22.1129 12.2559 21.1557C12.2606 20.3674 12.2653 19.5791 12.2559 18.7909C12.2418 17.7867 12.9879 17.0688 13.8278 16.9656C14.7287 16.853 15.5686 17.5146 15.7469 18.4483C15.775 18.5891 15.7656 18.7392 15.7656 18.8847C15.7656 19.3727 15.7656 19.8513 15.7656 20.3346Z" fill="#181818"/>
<path d="M24.3289 19.801C24.343 19.1628 24.3383 18.3699 24.2492 17.5769C24.0709 16.0097 23.5735 14.5458 22.7148 13.2132C21.326 11.0595 19.4069 9.60022 16.9575 8.84479C15.8455 8.50226 14.7006 8.37088 13.5323 8.4178C13.1428 8.43657 12.8848 8.22542 12.866 7.88758C12.8472 7.53567 13.0959 7.29168 13.4853 7.2776C15.3951 7.19314 17.225 7.55444 18.9376 8.38965C21.4245 9.60492 23.2544 11.4771 24.4181 13.9968C24.9342 15.1135 25.2486 16.2866 25.3753 17.5065C25.502 18.7359 25.4504 19.9699 25.4504 21.1992C25.4504 21.5512 25.1923 21.7952 24.8732 21.7905C24.5495 21.7858 24.3289 21.5465 24.3242 21.1805C24.3242 20.777 24.3289 20.3687 24.3289 19.801Z" fill="#181818"/>
<path d="M14.0296 2.41406C16.8167 2.44222 19.435 3.12727 21.8796 4.46923C23.3107 5.25282 24.5776 6.24756 25.7178 7.41121C25.9712 7.66928 25.9758 8.00243 25.7319 8.25111C25.5066 8.47634 25.1923 8.48103 24.9342 8.22765C24.3007 7.60829 23.6485 7.02177 22.9353 6.49624C21.1617 5.19651 19.1957 4.31908 17.042 3.87802C15.4091 3.54487 13.7621 3.47449 12.1058 3.69502C11.5897 3.7654 11.0688 3.84517 10.5621 3.97186C10.2524 4.05163 9.94742 3.86863 9.86296 3.56833C9.7785 3.27273 9.9568 2.94428 10.2712 2.87389C11.0125 2.70498 11.7633 2.55952 12.5234 2.50791C13.0208 2.47506 13.5275 2.44691 14.0296 2.41406Z" fill="#181818"/>
<path d="M1.98495 23.5289C1.73157 23.5429 1.56735 23.421 1.46412 23.2145C1.35151 22.9987 1.38904 22.7875 1.54389 22.6045C1.75972 22.3558 1.97556 22.1118 2.20079 21.8725C2.45416 21.5957 2.58085 21.2766 2.57616 20.9013C2.57147 20.1411 2.57147 19.381 2.57616 18.6256C2.58085 16.7722 3.04068 15.0314 3.89466 13.3938C4.36387 12.4976 4.95039 11.6859 5.63545 10.9398C5.79498 10.7662 5.98267 10.6489 6.23605 10.7287C6.69119 10.8647 6.82257 11.3152 6.51288 11.6718C6.21259 12.0143 5.91229 12.3475 5.64953 12.7181C4.7064 14.0413 4.10111 15.5053 3.83835 17.11C3.64128 18.3065 3.71636 19.5124 3.72105 20.7089C3.72574 21.5206 3.49582 22.2104 2.914 22.7828C2.74039 22.9517 2.59493 23.1441 2.42601 23.3177C2.30402 23.4491 2.16794 23.557 1.98495 23.5289Z" fill="#181818"/>
<path d="M5.59302 2.33786C5.62586 2.14548 5.70094 1.96249 5.90739 1.86395C7.29158 1.20705 8.72269 0.695603 10.2289 0.395305C10.9702 0.245156 11.7163 0.127852 12.467 0.0668537C13.2741 0.00116348 14.0858 -0.0222973 14.8929 0.0246243C16.0284 0.0856224 17.1498 0.245156 18.2572 0.493841C18.6888 0.592376 18.8953 0.88329 18.7827 1.23989C18.6982 1.51204 18.4448 1.68096 18.1633 1.63404C17.5393 1.52612 16.9293 1.37127 16.3005 1.30089C15.3011 1.18359 14.297 1.1179 13.2882 1.1742C12.5468 1.21643 11.8054 1.28212 11.0735 1.40412C9.52505 1.66219 8.04233 2.14079 6.61591 2.79769C6.40007 2.89623 6.18423 3.01822 5.93085 2.88684C5.71501 2.77423 5.61179 2.59593 5.59302 2.33786Z" fill="#181818"/>
<path d="M21.8891 20.22C21.8891 19.5913 21.9125 18.9625 21.8844 18.3385C21.814 16.8886 21.3776 15.556 20.5706 14.3455C20.214 13.8105 19.7964 13.3226 19.3224 12.8862C19.0362 12.6234 19.0081 12.2856 19.2474 12.0416C19.482 11.8023 19.8245 11.8164 20.1013 12.0744C21.5184 13.3836 22.4287 14.9883 22.8369 16.8698C22.9542 17.4094 23.0293 17.9584 23.0293 18.5121C23.0293 19.5866 23.0339 20.6564 23.0293 21.7309C23.0293 22.5427 22.9354 23.345 22.8463 24.1474C22.8134 24.4477 22.5272 24.6729 22.241 24.6494C21.8797 24.6213 21.6967 24.4289 21.7201 24.0629C21.753 23.5749 21.8046 23.0916 21.8515 22.6083C21.9266 21.8107 21.8797 21.0177 21.8891 20.22Z" fill="#181818"/>
<path d="M4.98793 18.458C5.07708 16.37 5.79029 14.4837 7.17917 12.8603C8.61497 11.1852 10.4308 10.1857 12.5986 9.81035C12.8567 9.76343 13.0819 9.7822 13.2555 9.98865C13.5558 10.3359 13.3634 10.8332 12.8942 10.913C12.0496 11.0585 11.2379 11.2931 10.4778 11.6872C8.43666 12.7476 7.09471 14.3852 6.4378 16.5811C6.23135 17.2662 6.1375 17.97 6.12812 18.6879C6.12343 19.0633 5.90759 19.3026 5.56975 19.3073C5.24599 19.312 5.002 19.0586 4.98793 18.6973C4.98323 18.6316 4.98793 18.5659 4.98793 18.458Z" fill="#181818"/>
<path d="M8.58669 4.23857C8.5773 4.46379 8.43654 4.6374 8.20193 4.73594C7.19781 5.15823 6.24999 5.67906 5.35848 6.30312C4.19952 7.11486 3.16724 8.06268 2.27573 9.16534C2.21004 9.24511 2.14904 9.32956 2.08335 9.40464C1.87221 9.65332 1.55314 9.69086 1.29976 9.51256C1.05577 9.33895 0.994771 9.00581 1.17307 8.73366C1.38422 8.41929 1.6376 8.13306 1.89097 7.85623C3.42062 6.16236 5.2271 4.84386 7.29634 3.88666C7.47934 3.8022 7.66703 3.71305 7.8594 3.65205C8.23478 3.53475 8.59138 3.81158 8.58669 4.23857Z" fill="#181818"/>
<path d="M23.2402 9.75203C23.2449 9.49866 23.3763 9.30159 23.5828 9.21713C23.8174 9.12328 24.0426 9.1749 24.235 9.37666C24.5728 9.73326 24.8778 10.1133 25.164 10.5075C26.0086 11.6524 26.6561 12.9005 27.1253 14.2424C27.252 14.6084 27.1253 14.9087 26.7781 15.0401C26.4919 15.148 26.1916 14.9885 26.0696 14.6366C25.7177 13.6371 25.2626 12.6893 24.6854 11.7978C24.3101 11.216 23.8831 10.6717 23.4185 10.1556C23.3153 10.0383 23.2262 9.90687 23.2402 9.75203Z" fill="#181818"/>
<path d="M6.12328 21.1793C6.06228 22.3288 5.66814 23.3517 4.88455 24.201C4.42472 24.6984 3.9602 25.1864 3.50506 25.6931C3.25637 25.9653 2.91854 25.9887 2.67454 25.7682C2.42586 25.543 2.41647 25.2098 2.66985 24.933C3.16722 24.384 3.69743 23.8632 4.16665 23.286C4.70156 22.6291 4.96901 21.8784 4.98309 21.0385C4.98778 20.7663 5.10039 20.5646 5.35846 20.4567C5.57899 20.3675 5.77606 20.4238 5.94498 20.574C6.13267 20.7335 6.13736 20.954 6.12328 21.1793Z" fill="#181818"/>
<path d="M18.2903 5.57031C18.3607 5.575 18.4311 5.5797 18.5014 5.60785C19.8434 6.07707 21.0915 6.71989 22.227 7.57387C22.5273 7.79909 22.593 8.12285 22.3959 8.3903C22.2458 8.59676 21.8845 8.74221 21.5467 8.48884C20.5285 7.71932 19.4117 7.13749 18.2152 6.70582C17.7976 6.55567 17.6334 6.26475 17.7695 5.92692C17.8586 5.697 18.051 5.57031 18.2903 5.57031Z" fill="#181818"/>
<path d="M11.6414 8.21051C11.6414 8.52019 11.4912 8.72196 11.1909 8.80642C10.2853 9.06449 9.43136 9.44924 8.629 9.94192C8.50701 10.017 8.38501 10.0968 8.26301 10.1812C7.89702 10.4299 7.56388 10.4018 7.36681 10.0968C7.16036 9.78708 7.26358 9.48209 7.63426 9.2381C8.64777 8.56712 9.73635 8.05098 10.9047 7.71783C11.1862 7.63807 11.4537 7.7413 11.5944 7.99467C11.6273 8.07444 11.6508 8.15421 11.6414 8.21051Z" fill="#181818"/>
<path d="M22.3348 26.6097C22.3208 26.8536 22.2175 27.1117 22.1378 27.3745C21.9641 27.9657 21.7624 28.5522 21.5325 29.1247C21.3917 29.4719 21.0773 29.6455 20.7911 29.5188C20.5283 29.4015 20.3172 29.1153 20.472 28.7211C20.7723 27.9704 21.0069 27.2009 21.2275 26.4267C21.3072 26.1358 21.5888 25.9481 21.8515 25.9903C22.1425 26.0325 22.3348 26.2718 22.3348 26.6097Z" fill="#181818"/>
<path d="M15.2449 9.7819C16.0332 9.89451 16.7887 10.101 17.5113 10.4153C17.6098 10.4576 17.713 10.4951 17.8116 10.542C18.14 10.6828 18.2714 11.0019 18.1353 11.3115C18.0086 11.6025 17.6802 11.7291 17.3658 11.5884C16.7652 11.3256 16.1505 11.1051 15.5077 10.9878C15.3716 10.9643 15.2356 10.9409 15.0995 10.9127C14.8086 10.8517 14.6021 10.5655 14.6397 10.2887C14.6866 9.98366 14.9493 9.76782 15.2449 9.7819Z" fill="#181818"/>
<path d="M23.0291 2.67584C23.0291 3.10282 22.5975 3.38905 22.2174 3.19198C21.6543 2.90106 21.0772 2.64299 20.4954 2.39431C20.2185 2.277 20.0965 2.05647 20.1341 1.76556C20.1622 1.52157 20.3405 1.35265 20.6127 1.29634C20.73 1.27288 20.8285 1.31042 20.927 1.34796C21.5183 1.59195 22.1048 1.84532 22.6725 2.14562C22.8931 2.25824 23.0291 2.41777 23.0291 2.67584Z" fill="#181818"/>
</svg>
