<svg width="21" height="21" viewBox="0 0 21 21" fill="none" xmlns="http://www.w3.org/2000/svg">
<path d="M11.3616 20.9569C12.6044 20.8792 13.8385 20.547 15.0208 19.9732C17.2345 18.8989 18.9044 17.2293 19.9788 15.0074C20.3845 14.1704 20.6736 13.2515 20.8462 12.2808C20.9972 11.4265 21.036 10.555 20.967 9.68355C20.8893 8.66968 20.6563 7.66876 20.2809 6.70667C19.5473 4.83857 18.3564 3.27678 16.7339 2.06446C15.4868 1.13257 14.0585 0.506993 12.4922 0.196362C11.5385 0.0108461 10.5892 -0.0452399 9.67442 0.0367322C8.0951 0.17479 6.61934 0.632108 5.28598 1.39574C3.87063 2.20683 2.69261 3.30698 1.78213 4.66168C1.03562 5.77046 0.51781 6.99572 0.23733 8.29865C0.125137 8.81205 0.056096 9.33408 0.0258904 9.8518C0.0215754 9.89926 0.0129452 9.93809 0.00431502 9.96829C0.00431502 9.9726 0.00431509 9.97692 0 9.97692V11.0684C0.0388358 11.172 0.0388358 11.2712 0.0431509 11.3575C0.0431509 11.3834 0.0431508 11.4093 0.0474659 11.4308C0.0949318 12.0392 0.207124 12.6604 0.392673 13.3248C0.74651 14.5889 1.32042 15.7538 2.09282 16.7806C3.32693 18.42 4.92351 19.6194 6.84804 20.3399C7.47373 20.5729 8.12531 20.7498 8.85024 20.8706C9.04442 20.9051 9.24723 20.9223 9.44572 20.9439C9.54497 20.9525 9.64422 20.9655 9.74346 20.9741C9.78661 20.9784 9.82545 20.9914 9.85134 21H11.1157C11.202 20.9612 11.2839 20.9569 11.3573 20.9525L11.3616 20.9569ZM9.77367 1.10668C9.77798 1.10237 9.78661 1.09374 9.79093 1.08943C9.8384 1.04197 9.95922 0.916852 10.1189 0.990196C10.2829 1.06354 10.2742 1.24474 10.2699 1.30946C10.2699 1.31808 10.2699 1.32671 10.2699 1.33534C10.2699 1.866 10.2699 2.39235 10.2699 2.92301V4.13102C10.2699 4.54088 10.2699 4.95074 10.2699 5.3606C10.2699 5.4814 10.2699 5.58063 10.1836 5.6626C10.1232 5.723 10.0455 5.73163 9.97216 5.73163C9.94627 5.73163 9.91607 5.73163 9.89018 5.72732C9.10915 5.68417 8.34538 5.54611 7.62476 5.32177C7.53845 5.29588 7.45647 5.27 7.37017 5.2398C7.30113 5.21823 7.23208 5.19666 7.16736 5.17508C7.13284 5.16645 7.03359 5.13194 6.98612 5.0284C6.93866 4.92485 6.98612 4.82562 7.00338 4.79111C7.70674 3.3415 8.6388 2.09898 9.77367 1.10668ZM10.2785 9.9424C10.2785 10.0114 10.2699 10.115 10.1922 10.1926C10.1146 10.2703 10.0153 10.2789 9.94627 10.2789H9.94196C9.4673 10.2746 8.98401 10.2746 8.51366 10.2746C8.35401 10.2746 8.19003 10.2746 8.03037 10.2746C7.86209 10.2746 7.6938 10.2746 7.52551 10.2746C7.07243 10.2746 6.60208 10.2746 6.14468 10.2789C6.0929 10.2789 5.96776 10.2789 5.87715 10.1883C5.79084 10.0977 5.79516 9.9726 5.79516 9.92946C5.82537 9.23054 5.89441 8.60928 5.99797 8.02253C6.13174 7.27616 6.33023 6.53841 6.58482 5.82223C6.60208 5.77477 6.64092 5.67123 6.74448 5.62377C6.83941 5.58063 6.93003 5.60651 6.99044 5.62809C7.55572 5.83949 8.17709 5.99912 8.88045 6.11561C9.2386 6.17169 9.60538 6.21052 9.97216 6.22346C10.1663 6.23209 10.2785 6.34858 10.2785 6.54704C10.2742 7.55659 10.2742 8.75165 10.2785 9.9424ZM3.98282 2.91438C5.20399 1.85737 6.64523 1.12825 8.25907 0.74428C8.47914 0.692508 8.74236 0.636422 9.0099 0.606222L9.12641 0.593279L9.31196 0.878024L9.19545 0.990196C9.12209 1.05922 9.04873 1.12825 8.97106 1.19728C8.81572 1.33966 8.65606 1.49066 8.51366 1.64597C7.74126 2.48295 7.094 3.44936 6.58914 4.51499C6.52872 4.64011 6.48557 4.73502 6.37338 4.77385C6.34318 4.78248 6.31729 4.7868 6.28708 4.7868C6.20941 4.7868 6.13174 4.74797 6.03681 4.70482C5.31619 4.35105 4.62577 3.89373 3.98282 3.34581C3.94399 3.3113 3.86632 3.24658 3.862 3.1301C3.86632 3.01361 3.9483 2.94027 3.98282 2.91438ZM0.50055 9.91652L0.504865 9.882C0.530756 9.54549 0.569591 9.10111 0.655893 8.65674C1.02699 6.75412 1.87706 5.07585 3.18022 3.67802C3.31399 3.53133 3.46933 3.52701 3.62036 3.65644C4.32372 4.27771 5.10906 4.79542 5.96776 5.20528C6.14037 5.28726 6.19646 5.42963 6.13174 5.61083C5.86852 6.31838 5.66571 7.0777 5.51899 7.86722C5.44564 8.26845 5.38954 8.7042 5.35071 9.19603C5.33776 9.32546 5.33345 9.46351 5.32913 9.59294C5.32482 9.71806 5.31619 9.8518 5.30756 9.98123C5.29893 10.115 5.2342 10.2746 4.98824 10.2746C4.98824 10.2746 4.98824 10.2746 4.98392 10.2746C4.45317 10.2703 3.9181 10.2703 3.39597 10.2746H2.71419H0.845757C0.733565 10.2746 0.634318 10.2746 0.556646 10.1926C0.487605 10.115 0.49192 10.0201 0.50055 9.91652ZM3.3744 17.4019C3.30536 17.4019 3.22768 17.3717 3.1457 17.2854C2.19206 16.2542 1.47576 15.0506 1.01405 13.7088C0.768085 12.9926 0.608427 12.2592 0.539386 11.5387L0.535071 11.4869C0.522125 11.3618 0.513495 11.2324 0.496235 11.1116C0.49192 11.0684 0.474659 10.9433 0.556646 10.8484C0.642948 10.7492 0.768085 10.7535 0.811236 10.7535C1.33336 10.7578 1.86412 10.7578 2.37761 10.7578C2.55022 10.7578 2.72282 10.7578 2.89542 10.7578H3.40029C3.90515 10.7578 4.42728 10.7578 4.94077 10.7578C4.94077 10.7578 4.94077 10.7578 4.94509 10.7578C5.1781 10.7578 5.30324 10.87 5.30756 11.0943C5.3205 11.5301 5.35934 11.9874 5.42838 12.449C5.54489 13.2213 5.7218 13.9677 5.95913 14.6709C6.01954 14.8564 6.0929 15.0678 6.1792 15.2706C6.28708 15.5338 6.11879 15.6589 6.01091 15.7106C5.48016 15.9522 4.96235 16.2542 4.42728 16.6339C4.12954 16.8453 3.84474 17.0697 3.57721 17.3113C3.53837 17.3544 3.4607 17.4019 3.3744 17.4019ZM9.27744 20.4262L9.16524 20.4176C8.60428 20.3658 8.02606 20.232 7.33996 20.0034C6.10585 19.5935 4.96235 18.9421 3.94399 18.0663C3.91378 18.0404 3.82748 17.967 3.82748 17.8505C3.82748 17.7384 3.90947 17.6693 3.9483 17.6348C4.6344 17.0438 5.39386 16.5476 6.20941 16.155C6.39064 16.0687 6.5503 16.1205 6.64092 16.306C7.04222 17.1257 7.52119 17.9066 8.07353 18.6228C8.41873 19.0715 8.73805 19.4468 9.05737 19.7704C9.11346 19.8265 9.17819 19.8783 9.24723 19.93C9.28175 19.9559 9.31627 19.9861 9.35079 20.012L9.48887 20.1285L9.27744 20.4262ZM10.2742 17.074V17.7729V19.5331C10.2742 19.5374 10.2742 19.5418 10.2742 19.5504C10.2742 19.5676 10.2742 19.5935 10.2742 19.6194C10.2742 19.628 10.2742 19.6367 10.2742 19.6453C10.2785 19.7057 10.2828 19.861 10.1318 19.93C10.1016 19.943 10.0671 19.9516 10.0283 19.9516C9.95922 19.9516 9.87723 19.9214 9.79525 19.8179C9.79093 19.8136 9.78661 19.8049 9.7823 19.8006C8.70784 18.7522 7.80599 17.5227 7.11126 16.1378C7.08969 16.0946 7.0379 15.9911 7.08537 15.8832C7.13284 15.771 7.2364 15.7365 7.28386 15.7236C8.06058 15.469 8.79415 15.3137 9.53634 15.2447C9.58812 15.2404 9.64422 15.2361 9.70031 15.2318C9.77367 15.2274 9.84703 15.2231 9.91607 15.2145C9.9549 15.2102 10.08 15.1929 10.1793 15.2792C10.2785 15.3655 10.2785 15.4949 10.2785 15.5467C10.2742 16.0558 10.2742 16.5735 10.2742 17.074ZM10.2785 14.3775C10.2785 14.5889 10.1577 14.7184 9.94627 14.7227C9.12641 14.7486 8.2936 14.8952 7.39606 15.1714C7.28818 15.2059 7.17167 15.2404 7.05948 15.2878C7.03791 15.2965 6.98612 15.318 6.9214 15.318C6.89119 15.318 6.85667 15.3137 6.81784 15.2965C6.70996 15.249 6.67112 15.1455 6.65818 15.1153C6.45537 14.5932 6.28277 14.0539 6.14468 13.5103C6.01523 13.0013 5.9203 12.462 5.85126 11.8623C5.834 11.707 5.82537 11.5516 5.81242 11.4006C5.80379 11.2971 5.79948 11.1892 5.79084 11.0857C5.78653 11.0469 5.7779 10.9304 5.85989 10.8398C5.94619 10.7492 6.06701 10.7492 6.11016 10.7492C6.58914 10.7535 7.07674 10.7535 7.5514 10.7535H8.21592C8.31517 10.7535 8.41442 10.7535 8.51366 10.7535C8.97106 10.7535 9.44141 10.7535 9.90744 10.7492C9.98511 10.7492 10.093 10.7578 10.1793 10.8398C10.2613 10.9218 10.2742 11.0339 10.2742 11.1116C10.2742 12.1945 10.2742 13.2903 10.2785 14.3775ZM20.4967 11.1547C20.4535 11.6077 20.3974 12.0952 20.2938 12.5828C20.0608 13.67 19.6466 14.7097 19.0684 15.6718C18.7232 16.2456 18.3089 16.7892 17.8386 17.2983C17.7738 17.3673 17.7005 17.4062 17.6271 17.4062C17.5624 17.4062 17.4977 17.3803 17.4329 17.3199C16.6735 16.6555 15.8493 16.1119 14.9863 15.7106C14.8223 15.633 14.7705 15.4992 14.8353 15.3353C15.1287 14.5889 15.3574 13.821 15.5041 13.053C15.6379 12.3671 15.7112 11.7415 15.7242 11.1418V11.1375C15.7328 10.8441 15.8191 10.7578 16.1168 10.7578C16.6045 10.7578 17.0877 10.7578 17.571 10.7578H18.1147C18.7879 10.7578 19.461 10.7578 20.1342 10.7578C20.2507 10.7578 20.3586 10.7578 20.4362 10.8484C20.5182 10.9304 20.5096 11.0339 20.4967 11.1547ZM14.7619 14.0022C14.6583 14.3603 14.5289 14.7097 14.4081 15.0506L14.3908 15.0937C14.3736 15.1368 14.3347 15.249 14.2225 15.3008C14.1837 15.318 14.1449 15.3267 14.1103 15.3267C14.0456 15.3267 13.9895 15.3051 13.9636 15.2965C13.5407 15.1325 13.079 15.0074 12.5137 14.8952C12.0175 14.8003 11.5558 14.7442 11.1027 14.7227H11.0984C10.805 14.7097 10.7273 14.6278 10.7316 14.3301V13.5794C10.7316 12.7597 10.7316 11.9399 10.7316 11.1159C10.7316 11.0037 10.7316 10.9045 10.8136 10.8268C10.8913 10.7492 10.9905 10.7492 11.1027 10.7492C11.5644 10.7492 12.0261 10.7492 12.4835 10.7492H12.9927C13.6314 10.7492 14.27 10.7492 14.9043 10.7492C15.0036 10.7492 15.1071 10.7492 15.1848 10.8312C15.2625 10.9131 15.2581 11.008 15.2538 11.1159V11.1332C15.2366 11.4826 15.2064 11.8364 15.1589 12.1858C15.0683 12.7812 14.9388 13.3939 14.7619 14.0022ZM17.8084 3.6737C18.9821 4.9378 19.7933 6.41329 20.2119 8.06568C20.3456 8.60065 20.4406 9.19603 20.5053 9.93378C20.5096 9.97692 20.5182 10.0977 20.4362 10.1883C20.3499 10.2789 20.2291 10.2789 20.186 10.2789C19.6682 10.2746 19.146 10.2746 18.6369 10.2746C18.4686 10.2746 18.296 10.2746 18.1277 10.2746C17.9508 10.2746 17.7738 10.2746 17.5969 10.2746C17.1007 10.2746 16.5872 10.2746 16.0823 10.2789C16.078 10.2789 16.0737 10.2789 16.0694 10.2789C16.0176 10.2789 15.9054 10.2746 15.8191 10.1883C15.7285 10.0977 15.7285 9.9726 15.7328 9.91652C15.7414 9.41606 15.681 8.91991 15.6206 8.45828C15.5473 7.88879 15.4264 7.30636 15.2711 6.73255C15.1805 6.39604 15.064 6.00343 14.9129 5.61514C14.8396 5.42531 14.9 5.27431 15.0812 5.18371C15.9184 4.77817 16.6951 4.26476 17.3941 3.65213C17.5279 3.53133 17.6832 3.53996 17.8084 3.6737ZM12.0434 0.636422C13.8601 0.90391 15.5084 1.64597 16.941 2.84967L16.9799 2.87987C17.0662 2.95321 17.1438 3.01361 17.1438 3.1301C17.1438 3.24227 17.0618 3.30267 17.0058 3.34581C16.9885 3.35876 16.9669 3.37601 16.9453 3.39327C16.3197 3.91962 15.6379 4.36831 14.9173 4.71777C14.8827 4.73502 14.818 4.76522 14.7446 4.76522C14.7188 4.76522 14.6886 4.76091 14.6583 4.75228C14.5591 4.71777 14.5073 4.63148 14.4814 4.57108C14.0283 3.59173 13.4285 2.67278 12.7036 1.8358C12.5267 1.62872 12.3325 1.43026 12.1427 1.24043C12.065 1.16277 11.9873 1.0808 11.9096 1.00314C11.901 0.99451 11.8881 0.981568 11.8794 0.972939L11.8708 0.96431L11.5126 0.563079L12.0434 0.636422ZM10.7273 1.41731C10.7273 1.37417 10.7273 1.33534 10.7273 1.2922V1.27494C10.7273 1.21023 10.7273 1.05491 10.8697 0.977253C10.9819 0.916853 11.0941 0.947053 11.2063 1.05923C11.2106 1.06354 11.2149 1.06785 11.2192 1.07217C12.0563 1.79266 12.7813 2.64258 13.3768 3.60036C13.5925 3.94982 13.7996 4.32085 14.0025 4.73934C14.0327 4.79542 14.0844 4.90328 14.037 5.01977C13.9938 5.12763 13.8946 5.17077 13.8212 5.19234C13.0618 5.44689 12.3541 5.61083 11.6464 5.68849C11.599 5.6928 11.5558 5.69712 11.5083 5.70575C11.3746 5.723 11.2365 5.74026 11.0941 5.74026C11.0855 5.74026 11.0725 5.74026 11.0639 5.74026C10.9646 5.74026 10.8783 5.73595 10.805 5.6626C10.7273 5.58494 10.7273 5.48571 10.723 5.36923C10.723 4.8774 10.723 4.38556 10.723 3.89373V3.54427L10.7187 3.35013L10.7273 1.41731ZM10.7273 6.81452C10.7273 6.71961 10.7273 6.62469 10.7273 6.52978C10.7273 6.34858 10.8352 6.23209 11.0207 6.22346C12.0391 6.18032 13.0445 5.97755 14.0068 5.62809C14.0801 5.6022 14.1837 5.572 14.2916 5.62377C14.3951 5.67123 14.4383 5.76615 14.4728 5.85243C14.7662 6.67647 14.982 7.54364 15.1157 8.42377C15.1934 8.93285 15.2236 9.44626 15.2538 9.96829C15.2581 10.0589 15.2366 10.1365 15.1805 10.1926C15.1028 10.2746 15.0079 10.2746 14.9431 10.2746C14.9388 10.2746 14.9388 10.2746 14.9345 10.2746C14.4296 10.2746 13.9334 10.2746 13.4329 10.2746H12.7942H12.4361H11.1416C10.9948 10.2746 10.8913 10.2746 10.805 10.1926C10.7187 10.1063 10.7187 10.0028 10.7187 9.86043L10.7273 6.81452ZM11.1761 19.874C11.1416 19.9085 11.0811 19.9732 10.9733 19.9904L10.8093 20.0163L10.7575 19.861C10.7144 19.7359 10.7187 19.6194 10.723 19.5159C10.723 19.49 10.7273 19.4598 10.723 19.4339C10.7187 18.2992 10.7187 17.1516 10.7187 16.0342V15.564C10.7187 15.4432 10.7187 15.3439 10.8007 15.2663C10.8826 15.1886 10.9819 15.1972 11.0898 15.2016H11.107C11.9226 15.2533 12.7338 15.4043 13.5148 15.6502C13.5623 15.6632 13.6055 15.6804 13.6486 15.6977C13.6918 15.7106 13.7306 15.7279 13.7694 15.7408C13.8557 15.7667 13.9162 15.8185 13.9464 15.8875C13.9895 15.9954 13.942 16.0903 13.9248 16.1291C13.2171 17.5356 12.2937 18.7911 11.1847 19.861C11.1847 19.8653 11.1804 19.8696 11.1761 19.874ZM11.6896 20.0854C11.7586 20.012 11.8276 19.9387 11.8924 19.8696C12.0305 19.7273 12.1599 19.5892 12.285 19.4512C13.1092 18.5322 13.8083 17.5011 14.3649 16.3837C14.503 16.1076 14.6195 16.0687 14.8957 16.2025C15.681 16.5908 16.4016 17.0653 17.036 17.6219C17.0748 17.6564 17.1611 17.7297 17.1611 17.8505C17.1611 17.967 17.0791 18.0404 17.0316 18.0792C15.8666 19.0844 14.5073 19.7963 12.9927 20.1932C12.5612 20.3054 12.2117 20.3744 11.8535 20.4089L11.3357 20.4607L11.6896 20.0854Z" fill="black"/>
</svg>
