<svg width="26" height="33" viewBox="0 0 26 33" fill="none" xmlns="http://www.w3.org/2000/svg">
<path d="M25.8941 10.991C25.7309 9.88996 25.4047 8.74817 24.8746 7.60639C24.5076 6.79083 24.0183 6.01604 23.4066 5.1597C22.958 4.54803 22.3871 3.93636 21.7347 3.32469C21.2454 2.87613 20.7152 2.50913 20.1851 2.14213C19.3696 1.61202 18.6356 1.20424 17.8608 0.91879C16.8821 0.551788 15.9034 0.307116 14.884 0.144004C13.4975 -0.0598862 12.1111 -0.0598875 10.6023 0.225559C9.4605 0.429449 8.27794 0.796455 7.13616 1.40813C6.07593 1.97902 5.09725 2.63147 4.28169 3.36547C3.75158 3.85481 3.22147 4.38492 2.77291 4.99659C2.2428 5.68982 1.83502 6.30149 1.50879 6.87238C1.01946 7.7695 0.652446 8.78895 0.367 9.8084C0.0407755 10.991 0 12.1735 0 13.3561C0 13.6415 0.0407805 13.8862 0.0407805 14.1309C0.0407805 14.294 0.0815611 14.4571 0.0815611 14.6202C0.163117 15.762 0.489341 16.8222 0.897122 17.8009C1.06023 18.2495 1.26412 18.6572 1.46801 19.0242C1.75346 19.5951 2.0389 20.0437 2.28357 20.4107C2.69135 20.9816 3.09914 21.5117 3.54769 21.9603C4.07781 22.4904 4.6487 23.0205 5.34193 23.5506C5.99437 24.0399 6.68761 24.4477 7.46239 24.7739L7.54394 24.8147C7.95172 25.0186 8.40028 25.1817 8.84884 25.3041C8.88962 25.3041 8.97117 25.3448 9.01195 25.3448C9.29739 25.4264 9.58284 25.4672 9.74595 25.8342L9.94984 26.2827C10.3576 27.1798 10.7654 28.1585 11.214 29.0556C11.6217 29.8712 12.1519 30.9722 12.6412 32.0324C12.7227 32.1955 12.8451 32.2771 13.0082 32.3179C13.2121 32.3179 13.3344 32.1955 13.3752 32.0732C13.416 31.9917 13.416 31.9509 13.4568 31.8693C13.4975 31.7878 13.5383 31.7062 13.5383 31.6246C13.7014 31.2984 13.8238 31.013 13.9869 30.6868C14.2723 30.1159 14.5578 29.545 14.8024 28.9741C15.1694 28.1993 15.4957 27.4245 15.8627 26.6905C15.985 26.3643 16.1481 26.0788 16.2704 25.7526C16.3112 25.6303 16.3928 25.5487 16.5151 25.5079C16.7598 25.4264 17.0044 25.3041 17.2899 25.2225C17.5753 25.1409 17.8608 25.0186 18.1462 24.8963C18.2686 24.8555 18.3501 24.7739 18.4725 24.7332C18.5948 24.6516 18.7171 24.6108 18.8395 24.5293C19.5327 24.2438 20.1851 23.7953 20.756 23.3875C21.3677 22.9389 21.857 22.5311 22.2648 22.0826C22.9173 21.4301 23.4474 20.7369 23.8959 20.0437C24.3853 19.3097 24.7523 18.6165 25.0377 17.9232C25.0785 17.8009 25.1193 17.7193 25.1601 17.597C25.3232 17.1892 25.4863 16.7814 25.6086 16.3737L25.6494 16.0882C25.8125 15.395 25.9756 14.661 25.9756 13.927C26.0164 13.1522 26.0164 12.092 25.8941 10.991ZM25.2416 14.5387C25.0785 15.7212 24.793 16.7407 24.426 17.6378C24.0183 18.6165 23.4882 19.5543 22.8765 20.4107C22.3871 21.0631 21.7755 21.7156 21.0007 22.4088C20.3075 23.0205 19.5735 23.5098 18.6763 23.9992C17.9016 24.4069 17.086 24.7332 16.2297 24.937C16.0258 24.9778 15.8627 25.1002 15.7811 25.3448L15.6588 25.6303C15.2102 26.609 14.7209 27.6284 14.2723 28.6479C14.1092 29.0149 13.9461 29.3411 13.783 29.7081C13.6606 29.9528 13.5383 30.2382 13.416 30.4829C13.3752 30.5644 13.3344 30.646 13.3344 30.7275C13.3344 30.7683 13.2936 30.8499 13.2936 30.8906C13.2529 30.9722 13.2121 31.0538 13.1305 31.0538C13.0082 31.0538 12.9674 30.9314 12.9266 30.8906C12.7635 30.5236 12.6004 30.1566 12.4373 29.8304C12.1111 29.1372 11.8256 28.444 11.4994 27.71C11.214 27.0983 10.8877 26.4458 10.5615 25.8342C10.5207 25.7526 10.5207 25.6711 10.48 25.6303C10.48 25.5895 10.48 25.5487 10.4392 25.5079C10.3168 25.1409 10.0314 24.9778 9.54206 24.8963C9.13428 24.8147 8.80806 24.6924 8.44106 24.5293C8.3595 24.4885 8.27794 24.4477 8.19639 24.4069C7.34005 24.0399 6.56526 23.5914 5.87203 23.102C5.13803 22.5719 4.48558 21.9195 3.87391 21.2262C3.38458 20.6961 2.9768 20.1252 2.65057 19.5951C2.16124 18.7796 1.75346 17.9232 1.46801 17.0261C1.22334 16.2513 1.06024 15.4358 0.937902 14.661V14.5794C0.693234 13.193 0.897122 11.8473 1.10101 10.6647C1.26412 9.84918 1.50879 9.03361 1.87579 8.17728C2.20202 7.44327 2.6098 6.75005 3.13991 6.01604C3.87392 4.99659 4.68948 4.18103 5.62738 3.44703C6.52449 2.7538 7.4216 2.22368 8.31872 1.85668C8.40027 1.8159 8.52261 1.77513 8.60417 1.73435C8.80806 1.65279 8.97117 1.57124 9.17506 1.48968C10.6838 1.00034 11.948 0.796451 13.2121 0.837229C14.15 0.796451 15.0879 0.959565 15.9442 1.16345C17.086 1.40812 18.2278 1.85668 19.3288 2.50913C20.6745 3.28391 21.8162 4.26258 22.8357 5.5267C23.5289 6.38304 24.059 7.28016 24.426 8.1365C25.2008 10.2977 25.527 12.459 25.2416 14.5387Z" fill="#303030"/>
<path d="M20.7968 11.3578C20.1444 10.7461 19.4919 10.1752 18.8395 9.60433C18.3909 9.19655 17.9423 8.82955 17.4938 8.42176C16.8413 7.85087 16.1889 7.27998 15.5364 6.66831C15.3326 6.46442 15.0879 6.26053 14.8432 6.05664C14.3539 5.64886 13.8645 5.2003 13.416 4.75174C13.2936 4.62941 13.1305 4.54785 13.0082 4.54785C12.8859 4.54785 12.7635 4.62941 12.6412 4.71096C12.4373 4.91485 12.2334 5.07797 12.0295 5.28186C11.948 5.36341 11.8664 5.40419 11.7849 5.48575C11.1732 6.05664 10.5208 6.58675 9.90908 7.15764C9.54208 7.48387 9.13429 7.81009 8.76729 8.17709C8.52262 8.38098 8.27796 8.62566 8.03329 8.82955C7.78862 9.03344 7.54394 9.27811 7.29928 9.482C7.05461 9.68589 6.85072 9.88978 6.60606 10.0937C6.40217 10.2568 6.19828 10.4199 5.99439 10.6238C5.62738 10.95 5.34193 11.2354 5.05648 11.4801C4.85259 11.684 4.89338 11.8063 4.97494 11.9287C5.26038 12.2549 5.54583 12.5811 5.83128 12.9073L6.03517 13.1112C6.1575 13.2336 6.32061 13.3151 6.44295 13.1928C6.48372 13.152 6.56528 13.1112 6.64684 13.0705C6.72839 12.9889 6.85072 12.9481 6.93228 12.8258V12.785C6.97305 12.7035 7.05461 12.6219 7.17695 12.6219C7.21772 12.6219 7.21773 12.6219 7.25851 12.6219C7.38084 12.6627 7.34006 12.8258 7.34006 12.9073C7.34006 12.9481 7.34006 12.9481 7.34006 12.9889C7.34006 14.8239 7.34006 16.6182 7.34006 18.4532V19.6765C7.34006 20.2066 7.38084 20.2474 7.87018 20.2474H18.0647C18.554 20.2474 18.6356 20.1658 18.6356 19.6765V18.0046C18.6356 16.3327 18.6356 14.7016 18.6356 13.0297C18.6356 12.9889 18.6356 12.9889 18.6356 12.9481C18.6356 12.8666 18.5948 12.7442 18.7171 12.6627C18.8395 12.5811 18.921 12.7035 19.0026 12.7442C19.0434 12.785 19.0434 12.785 19.0841 12.8258L19.1249 12.8666C19.3696 13.1112 19.5327 13.2336 19.655 13.2336C19.7774 13.2336 19.9405 13.1112 20.1444 12.8666C20.3075 12.6627 20.5114 12.4588 20.6745 12.2957C20.9191 12.0102 21.0007 11.8879 21.0007 11.7656C21.0415 11.6025 20.9599 11.5209 20.7968 11.3578ZM17.82 19.4318C17.7385 19.5134 17.6161 19.5134 17.5346 19.5134C16.352 19.5134 15.1694 19.5134 14.0277 19.5134H11.8664C10.7654 19.5134 9.62362 19.5134 8.52262 19.5134C8.3595 19.5134 8.27796 19.4726 8.23718 19.4318C8.1964 19.3503 8.15562 19.2687 8.15562 19.1056V17.9638C8.15562 16.1696 8.19639 14.3346 8.15562 12.4996C8.15562 11.8879 8.40029 11.5617 8.80807 11.1947C9.66441 10.4607 10.5207 9.68588 11.3771 8.95188L11.7849 8.58487C12.1926 8.21787 12.6004 7.85087 12.9267 7.52465C13.0898 7.40232 13.1713 7.48387 13.2529 7.56542L14.1092 8.34021C14.5985 8.78877 15.0879 9.23733 15.618 9.64511C16.0258 10.0121 16.3928 10.3383 16.8006 10.6646C17.1268 10.95 17.453 11.2762 17.7792 11.5617C17.9016 11.684 17.9831 11.8063 17.9831 12.0102C17.9831 14.2938 17.9831 16.6997 17.9831 19.1872C17.9016 19.2687 17.9016 19.3503 17.82 19.4318ZM19.9812 11.9287C19.8997 11.9695 19.8589 12.0102 19.8181 12.1326C19.7774 12.2141 19.7366 12.2141 19.6958 12.2549C19.6143 12.2549 19.5735 12.2549 19.4919 12.1733C19.4104 12.0918 19.3288 12.0102 19.2472 11.9695C19.0841 11.8471 18.921 11.684 18.7987 11.5617C18.3909 11.1539 17.9423 10.7461 17.4938 10.3791C17.2899 10.216 17.086 10.0121 16.8821 9.849L15.618 8.70721C14.9248 8.09554 14.2315 7.48387 13.5383 6.8722C13.4975 6.83142 13.4568 6.79064 13.416 6.79064C13.3752 6.74987 13.2936 6.70909 13.2529 6.66831C13.0898 6.5052 12.9674 6.5052 12.8043 6.66831L12.4373 6.99453C12.0295 7.36154 11.581 7.72854 11.1732 8.13632C10.6839 8.58488 10.1537 9.03344 9.66441 9.482C9.37896 9.72666 9.05273 9.97133 8.76729 10.2568C8.31873 10.6646 7.8294 11.0723 7.38084 11.4801C7.13617 11.7248 6.85072 11.9287 6.60606 12.1733C6.56528 12.2141 6.52449 12.2141 6.48371 12.2549C6.44294 12.2549 6.44294 12.2957 6.40217 12.2957L6.36139 12.3365L6.32061 12.2549C6.27983 12.1733 6.19827 12.0918 6.11671 12.0102C6.03516 11.9287 5.99438 11.8879 5.95361 11.8063C5.91283 11.7656 5.91283 11.7248 5.95361 11.684C5.95361 11.6025 6.03516 11.5617 6.11671 11.5617C6.15749 11.5617 6.1575 11.5209 6.19828 11.5209C6.56528 11.1539 6.97305 10.8277 7.34006 10.5014C7.54395 10.3383 7.74783 10.1752 7.91095 10.0121C8.31873 9.68588 8.68574 9.31888 9.09352 8.95188C9.66441 8.42177 10.2353 7.93243 10.847 7.40231C11.0916 7.19842 11.3363 6.95375 11.6217 6.74986C12.0295 6.38286 12.4781 6.01586 12.8859 5.64886C13.049 5.48575 13.1713 5.52652 13.3344 5.64886C14.15 6.38286 15.0063 7.11687 15.8219 7.85087L17.0045 8.87033C17.9016 9.68589 18.8395 10.5014 19.7366 11.2762C19.7774 11.317 19.8181 11.3578 19.8589 11.3986C19.9405 11.4801 19.9813 11.5617 20.0628 11.6025C20.1444 11.6432 20.1851 11.7248 20.1851 11.7656C20.1036 11.8063 20.1036 11.8879 19.9812 11.9287Z" fill="#303030"/>
<path d="M15.8218 12.9068C15.8218 12.6214 15.6587 12.4583 15.4141 12.4583C13.7014 12.4583 12.111 12.4583 10.6022 12.4583C10.3168 12.4583 10.1537 12.6214 10.1537 12.9068C10.1537 14.4972 10.1537 15.8021 10.1537 16.9438C10.1537 17.3108 10.2352 17.4332 10.643 17.4332C11.1731 17.4332 11.744 17.4332 12.2741 17.4332H13.0081H13.6606C14.2315 17.4332 14.8024 17.4332 15.3733 17.4332C15.7811 17.4332 15.8626 17.3516 15.8626 16.9438C15.8218 15.5982 15.8218 14.2525 15.8218 12.9068ZM15.0878 16.4137C15.0878 16.4953 15.0878 16.6176 15.0063 16.6992C14.9655 16.7399 14.8839 16.7807 14.7616 16.7807C13.4159 16.7807 12.3149 16.7807 11.2547 16.7807C11.1324 16.7807 11.0508 16.7807 11.01 16.6992C10.9285 16.6176 10.9285 16.5361 10.9285 16.4137C10.9285 15.2719 10.9285 14.3748 10.9285 13.5593C10.9285 13.4369 10.9285 13.3146 11.01 13.2738C11.0916 13.1923 11.2139 13.1923 11.2955 13.1923C11.7033 13.1923 12.111 13.1923 12.478 13.1923H13.3752C13.8237 13.1923 14.2723 13.1923 14.7616 13.1923C14.8432 13.1923 14.9247 13.1923 15.0063 13.2738C15.0471 13.3146 15.0878 13.3961 15.0878 13.5185C15.0471 14.4972 15.0471 15.4758 15.0878 16.4137Z" fill="#303030"/>
</svg>
