<svg width="18" height="18" viewBox="0 0 18 18" fill="none" xmlns="http://www.w3.org/2000/svg">
<path d="M2.88025 5.76086L2.62569 5.5063L2.37113 5.76086L2.62569 6.01542L2.88025 5.76086ZM14.0402 7.20086C14.0402 7.39968 14.2014 7.56086 14.4002 7.56086C14.5991 7.56086 14.7602 7.39968 14.7602 7.20086H14.0402ZM5.50569 2.6263L2.62569 5.5063L3.13481 6.01542L6.01481 3.13542L5.50569 2.6263ZM2.62569 6.01542L5.50569 8.89542L6.01481 8.3863L3.13481 5.5063L2.62569 6.01542ZM2.88025 6.12086H12.9602V5.40086H2.88025V6.12086ZM12.9602 6.12086C13.5567 6.12086 14.0402 6.60439 14.0402 7.20086H14.7602C14.7602 6.20675 13.9544 5.40086 12.9602 5.40086V6.12086Z" fill="white"/>
<path d="M14.4003 11.5206L14.6548 11.2661L14.9094 11.5206L14.6548 11.7752L14.4003 11.5206ZM3.60027 11.5206L3.60027 11.1606L3.60027 11.1606L3.60027 11.5206ZM1.80027 10.0806C1.80027 9.8818 1.96145 9.72063 2.16027 9.72063C2.35909 9.72063 2.52027 9.8818 2.52027 10.0806L1.80027 10.0806ZM11.7748 8.38607L14.6548 11.2661L14.1457 11.7752L11.2657 8.89518L11.7748 8.38607ZM14.6548 11.7752L11.7748 14.6552L11.2657 14.1461L14.1457 11.2661L14.6548 11.7752ZM14.4003 11.8806L3.60027 11.8806L3.60027 11.1606L14.4003 11.1606L14.4003 11.8806ZM3.60027 11.8806C2.60616 11.8806 1.80027 11.0747 1.80027 10.0806L2.52027 10.0806C2.52027 10.6771 3.0038 11.1606 3.60027 11.1606L3.60027 11.8806Z" fill="white"/>
</svg>
