<svg width="25" height="19" viewBox="0 0 25 19" fill="none" xmlns="http://www.w3.org/2000/svg">
<path d="M24.1535 6.59921C24.1535 6.66866 24.1188 6.73812 24.0841 6.80757C24.0147 6.91174 23.9453 6.98119 23.8759 7.08536C21.8978 9.06471 19.885 11.0788 17.9069 13.0581C17.664 13.3012 17.5599 13.3012 17.4557 13.2665C17.2475 13.2318 17.074 13.1276 17.074 12.6761V12.3636C17.074 11.7733 17.074 11.1135 17.074 10.4885C17.074 10.2454 17.0046 10.037 16.8658 9.89812C16.6576 9.68976 16.3799 9.68976 16.2758 9.68976C16.137 9.68976 15.9982 9.68976 15.8594 9.68976H11.0703C9.68221 9.68976 8.25938 9.68976 6.87125 9.68976C6.45481 9.68976 6.316 9.51614 6.28129 9.09944V6.70339L5.3096 7.64097C5.20549 7.74515 5.13608 7.8146 5.03197 7.88405L3.50503 9.41197C2.84567 10.0717 2.18631 10.7315 1.49224 11.426C1.42283 11.4955 1.21461 11.7038 1.21461 12.0164C1.21461 12.3289 1.42283 12.5025 1.49224 12.572C2.74156 13.7874 3.99088 15.0027 5.13608 16.2181C5.17079 16.2876 5.24019 16.3223 5.3096 16.3918L6.24659 17.2599V15.732C6.24659 15.4194 6.24659 15.1416 6.24659 14.8638C6.24659 14.7597 6.28129 14.6208 6.31599 14.5166C6.3507 14.4471 6.3854 14.3777 6.45481 14.343C6.55892 14.2735 6.69773 14.2388 6.94065 14.2388H8.57171C10.0292 14.2388 11.5215 14.2388 12.979 14.2388C13.0831 14.2388 13.1525 14.2388 13.2566 14.2388C13.4649 14.2388 13.6731 14.2388 13.8466 14.2735C13.9507 14.3082 14.2977 14.3777 14.2977 14.6902C14.2977 14.8986 14.0895 15.0722 13.7772 15.1069C13.7078 15.1069 13.6731 15.1069 13.6037 15.1069H7.87764C7.66942 15.1069 7.4265 15.1069 7.25298 15.2805C7.07947 15.4542 7.07947 15.6973 7.07947 15.9056C7.11417 16.8085 7.11417 17.503 7.07947 18.1627C7.07947 18.3711 7.01006 18.51 6.83654 18.6142C6.69773 18.6836 6.62832 18.6836 6.52422 18.6142C6.24659 18.4058 6.00366 18.128 5.72604 17.8502L5.37901 17.503C3.67855 15.8361 1.97809 14.0999 0.277626 12.4331C0.10411 12.2594 0 12.1205 0 12.0164C0 11.9122 0.0694063 11.7733 0.277626 11.5997C2.0822 9.79394 3.88677 7.98823 5.69134 6.18252L6.24659 5.62691C6.48951 5.38383 6.59362 5.38383 6.66303 5.38383C6.69773 5.38383 6.73243 5.38383 6.76714 5.41855C6.94065 5.48801 7.04476 5.59218 7.04476 5.76581C7.07947 6.35614 7.07947 6.98119 7.07947 7.60624C7.07947 7.84932 7.07947 8.05767 7.07947 8.30075C7.07947 8.3702 7.07947 8.648 7.25298 8.82163C7.4265 8.99526 7.66942 8.99526 7.77353 8.99526C9.5434 8.99526 11.2786 8.99526 13.0484 8.99526H17.0046C17.1087 8.99526 17.2128 8.99526 17.3169 8.99526C17.6987 8.99526 17.8722 9.16889 17.8722 9.55086C17.8722 9.82867 17.8722 10.1065 17.8722 10.3843L17.8375 12.3636L20.3014 9.58559C20.822 9.06471 21.3425 8.54383 21.8631 8.02295L22.6612 7.22427C22.7306 7.15482 22.9042 6.98119 22.9042 6.73811C22.9042 6.56449 22.8348 6.39086 22.6959 6.25196C22.453 6.00888 22.2101 5.7658 21.9672 5.52273L21.759 5.31438C21.3425 4.89768 20.8914 4.44625 20.4749 4.02954L17.8722 1.14735L17.9069 3.05724V3.26558C17.9069 3.47393 17.9069 3.68229 17.9069 3.89064C17.9069 4.2379 17.7681 4.34207 17.5946 4.41152C17.5252 4.44625 17.421 4.44625 17.2475 4.44625H15.9982C14.1589 4.44625 12.285 4.44625 10.4457 4.44625C10.2375 4.44625 10.0292 4.34207 9.95984 4.20317C9.92513 4.13372 9.85573 4.02954 9.92514 3.85592C9.99454 3.71701 10.0639 3.57812 10.4804 3.57812C11.4868 3.57812 12.5279 3.57812 13.5343 3.57812H16.2411C16.2758 3.57812 16.3452 3.57812 16.3799 3.57812C16.5188 3.57812 16.727 3.57812 16.9352 3.40449C17.1087 3.23086 17.1087 3.02251 17.1087 2.81416V2.70998C17.1087 2.50163 17.1087 2.29327 17.1087 2.08492V2.05019C17.1087 1.49459 17.074 0.938991 17.1087 0.418112C17.1434 0.20976 17.2128 0.105582 17.3516 0.0361311C17.4904 -0.0333195 17.6293 0.00141003 17.7334 0.105586C18.1151 0.487564 18.4968 0.869539 18.8786 1.25152L19.5379 1.9113C20.9955 3.36976 22.453 4.7935 23.8759 6.25196C23.9453 6.32141 24.0147 6.39086 24.0494 6.42559C24.1188 6.46031 24.1535 6.52976 24.1535 6.59921Z" fill="#9010F4"/>
</svg>
