<svg width="22" height="17" viewBox="0 0 22 17" fill="none" xmlns="http://www.w3.org/2000/svg">
<path d="M21.7593 6.86693C21.5164 5.68627 21.0652 4.57507 20.3712 3.63748C19.2954 2.17902 17.8378 1.10254 16.1027 0.512206C15.3392 0.234404 14.541 0.0954943 13.6734 0.0260437C12.7711 -0.043407 11.9036 0.0260458 11.036 0.234398C9.61315 0.546925 8.36383 1.17199 7.32273 2.04012C6.55926 2.6999 5.96931 3.32495 5.51816 4.05418C4.89351 5.02649 4.51177 6.10297 4.33825 7.31836C4.23415 8.01287 4.26884 8.7421 4.37295 9.61023C4.37295 9.61023 4.37295 9.64496 4.40766 9.64496C4.65058 9.64496 4.8588 9.64496 5.10172 9.64496H5.13643C4.99761 8.98518 4.96291 8.3254 5.03232 7.70034C5.06702 7.11001 5.20584 6.51968 5.37935 5.92935C5.44876 5.72099 5.55286 5.65155 5.76108 5.65155C6.38574 5.65155 7.0451 5.65155 7.66976 5.65155H8.29443C8.43324 5.65155 8.53735 5.65154 8.60675 5.75572C8.67616 5.8599 8.67616 5.96408 8.64146 6.06826C8.57205 6.41551 8.50265 6.79748 8.50265 7.14473C8.43324 8.08232 8.43324 8.881 8.50265 9.64496H8.53734C8.78026 9.64496 9.02319 9.64496 9.26611 9.64496C9.26611 9.57551 9.26611 9.47133 9.23141 9.40188C9.1273 8.25594 9.19671 7.11001 9.37023 5.96407C9.40493 5.75572 9.50904 5.68628 9.71726 5.68628C10.6542 5.68628 11.5218 5.68628 12.32 5.68628C12.4241 5.68628 12.4935 5.68627 12.5629 5.75572C12.6323 5.82517 12.6323 5.96408 12.6323 5.9988C12.6323 6.76276 12.6323 7.52672 12.6323 8.29067V9.88804C12.6323 9.95749 12.6323 9.95749 12.667 9.99221C12.9794 10.2006 13.2223 10.4089 13.3958 10.6867C13.3958 10.652 13.3958 10.652 13.3958 10.6173C13.3958 10.0269 13.3958 9.47134 13.3958 8.84628V8.25595C13.3958 7.94342 13.3958 7.66561 13.3958 7.35309C13.3958 6.90166 13.3958 6.4155 13.3611 5.96407C13.3611 5.8599 13.3611 5.79045 13.4305 5.75572C13.4999 5.68627 13.604 5.68628 13.6734 5.68628C14.5757 5.68628 15.478 5.68628 16.3803 5.68628C16.5538 5.68628 16.6579 5.75572 16.6926 5.92935C16.762 6.2766 16.7967 6.62386 16.8314 6.93639C16.8661 7.59617 16.9008 8.22122 16.8661 8.81155C16.8314 9.40188 16.7967 9.99221 16.6579 10.7214C16.6232 10.8603 16.5538 10.9298 16.3456 10.9298H14.3328C14.1246 10.9298 13.9164 10.9298 13.7081 10.9298C13.6387 10.9298 13.5693 10.9298 13.4999 10.8603C13.604 11.0687 13.6734 11.3465 13.7081 11.5896H13.7428C14.194 11.5896 14.6451 11.5896 15.131 11.5896H16.1374C16.2068 11.5896 16.3109 11.5896 16.3803 11.6938C16.4497 11.7979 16.415 11.9021 16.415 11.9368C16.3109 12.3188 16.1721 12.6661 16.0332 12.9439C15.7556 13.5689 15.5127 14.1593 15.0616 14.6801C14.7145 15.0968 14.2981 15.5135 13.7428 15.7219C13.7428 15.9997 13.6734 16.2428 13.604 16.5206C13.9511 16.5206 14.2981 16.4858 14.5757 16.4164C15.6515 16.2428 16.6926 15.8608 17.699 15.3052C18.4278 14.8885 19.1218 14.3329 19.7465 13.6384C20.1976 13.1522 20.51 12.7355 20.7529 12.3188C21.3081 11.3465 21.6899 10.3047 21.8287 9.19353C21.8981 8.42958 21.8981 7.63089 21.7593 6.86693ZM9.0926 4.01945C9.05789 4.0889 9.0579 4.15836 9.0232 4.22781C8.95379 4.40143 8.91908 4.57506 8.88437 4.74869C8.88437 4.81814 8.81497 4.95704 8.60675 4.95704H8.19031C7.53095 4.95704 6.87159 4.95704 6.21223 4.95704C6.21223 4.95704 6.17752 4.95704 6.14282 4.95704C6.07341 4.95704 5.96931 4.95705 5.8999 4.85287C5.8652 4.78342 5.79578 4.67924 5.9346 4.54033C6.94099 3.01242 8.15561 1.93594 9.71726 1.27616C9.85607 1.24143 9.96018 1.17198 10.099 1.13726C10.1337 1.13726 10.1684 1.10253 10.2378 1.10253L10.6889 1.03309L10.3072 1.58868C10.2031 1.72758 10.099 1.86649 9.99488 2.00539C9.64785 2.59572 9.33552 3.2555 9.0926 4.01945ZM12.667 1.17199V1.20671C12.667 1.62342 12.667 2.04011 12.667 2.49154V3.35968C12.667 3.77638 12.667 4.22781 12.667 4.64452C12.667 4.71397 12.667 4.81814 12.5976 4.88759C12.5282 4.95704 12.4241 4.99177 12.3547 4.95704C11.8342 4.95704 11.3136 4.95704 10.7931 4.95704H10.6889C10.446 4.95704 10.1684 4.95704 9.92547 4.95704H9.89078C9.82137 4.95704 9.71726 4.95705 9.64785 4.85287C9.61315 4.78342 9.57844 4.71396 9.61315 4.60979C9.92547 3.63748 10.3072 2.80407 10.7931 2.10956C11.0707 1.72758 11.4871 1.2067 12.0771 0.894176L12.1118 0.85946C12.1812 0.824734 12.32 0.720554 12.4935 0.790005C12.7017 0.928906 12.667 1.10253 12.667 1.17199ZM16.3803 4.88759C16.3109 4.99176 16.2068 4.99177 16.1374 4.99177H14.7492H14.5757C14.2981 4.99177 14.0205 4.99177 13.7428 4.99177C13.6734 4.99177 13.5693 4.99177 13.4999 4.92231C13.4305 4.85286 13.4305 4.74869 13.4305 4.67924C13.4305 4.26254 13.4305 3.81111 13.4305 3.3944C13.4305 2.66517 13.4305 1.90121 13.4305 1.13726C13.4305 1.06781 13.4305 0.92891 13.5346 0.85946C13.6387 0.790009 13.7775 0.859451 13.8469 0.894176C14.3675 1.13725 14.7839 1.51924 15.1657 2.04012C15.6862 2.73462 16.068 3.56803 16.415 4.67924C16.415 4.67924 16.4497 4.78341 16.3803 4.88759ZM15.7209 1.58868C15.6862 1.51923 15.6168 1.44979 15.6168 1.31088V1.20671L15.7209 1.17199C15.8597 1.13726 15.9638 1.17199 16.0332 1.20671H16.068C17.1438 1.65814 18.1501 2.2832 18.983 3.1166C19.3995 3.53331 19.7812 4.01945 20.0935 4.54033C20.1629 4.64451 20.2323 4.74869 20.1629 4.85287C20.0935 4.95705 20.0241 4.95704 19.92 4.95704H19.8506C18.983 4.95704 18.2196 4.95704 17.4908 4.95704C17.3173 4.95704 17.1785 4.88759 17.1438 4.71396C16.8314 3.42912 16.3803 2.42209 15.7209 1.58868ZM20.1976 11.8327C19.2607 13.4995 17.8031 14.6801 15.7903 15.4094L15.5474 15.5483L15.6168 15.2705C15.6515 15.1316 15.7209 15.0274 15.825 14.9232C15.8597 14.8885 15.8597 14.8885 15.8944 14.8538C16.3109 14.2982 16.6232 13.6731 16.9355 12.805C17.0743 12.4577 17.1438 12.1452 17.2132 11.8674C17.2132 11.7979 17.2826 11.6243 17.4908 11.6243C17.8378 11.6243 18.1502 11.6243 18.4972 11.6243C18.8442 11.6243 19.1565 11.6243 19.5036 11.6243H20.3712L20.1976 11.8327ZM20.7182 10.6867C20.6488 10.8603 20.5447 10.9298 20.3712 10.9298C19.5036 10.9298 18.6013 10.9298 17.7337 10.9298C17.6643 10.9298 17.5602 10.9298 17.5255 10.8603C17.4561 10.7909 17.4561 10.652 17.4908 10.6173C17.6296 9.71441 17.699 8.81155 17.699 7.90869C17.6643 7.24891 17.6296 6.58913 17.4908 5.96407C17.4908 5.92935 17.4561 5.82517 17.5255 5.75572C17.5949 5.68627 17.699 5.68628 17.7337 5.68628H19.4689C19.7812 5.68628 20.0935 5.68628 20.4406 5.68628C20.6141 5.68628 20.7182 5.75572 20.7876 5.92935C20.9958 6.5544 21.0999 7.14474 21.1693 7.80452C21.1693 8.74211 21.0652 9.67968 20.7182 10.6867Z" fill="#9010F4"/>
<path d="M12.3544 13.7424C12.3544 13.0826 12.3544 12.4229 12.3544 11.7631C12.3544 11.5547 12.285 11.3811 12.1114 11.2075C11.9379 10.9991 11.695 10.9297 11.3133 10.9297C9.85572 10.9297 8.36349 10.9297 6.90595 10.9297H3.95617C3.67854 10.9297 3.36621 10.9297 3.08859 10.9297C2.74156 10.9297 2.42923 10.9297 2.0822 10.9297C2.0822 11.1728 2.0822 11.3811 2.0822 11.5895H2.42923C2.56804 11.5895 2.70685 11.5895 2.84566 11.5895C2.91507 11.5895 3.01918 11.5895 3.08859 11.6589C3.158 11.7284 3.15799 11.8325 3.15799 11.8673C3.15799 12.1451 3.15799 12.3534 3.15799 12.5618C3.15799 12.6312 3.158 12.7354 3.08859 12.8049C3.01918 12.8743 2.91507 12.8743 2.84566 12.8743H2.01279C1.70046 12.8743 1.38813 12.8743 1.0411 12.8743C1.0411 13.1174 1.0411 13.3257 1.0411 13.5688C1.31872 13.5688 1.63105 13.5688 1.90868 13.5688C2.22101 13.5688 2.49863 13.5688 2.81096 13.5688C2.91507 13.5688 2.98448 13.5688 3.05388 13.6383C3.12329 13.7077 3.12329 13.8466 3.12329 13.8813C3.12329 14.0897 3.12329 14.298 3.12329 14.5411C3.12329 14.6106 3.12329 14.7147 3.05388 14.7842C2.98448 14.8536 2.88036 14.8536 2.81096 14.8536C2.11689 14.8536 1.42283 14.8536 0.72876 14.8536H0V15.3398C0.0347033 15.4092 0 15.4787 0 15.5134C0.381736 15.5134 0.728762 15.5134 1.1105 15.5134C1.66575 15.5134 2.2557 15.5134 2.81096 15.5134C3.05388 15.5134 3.12329 15.6871 3.15799 15.7912C3.2274 16.1038 3.43562 16.3468 3.74795 16.451C3.78265 16.451 3.78266 16.451 3.81736 16.451C3.85206 16.451 3.92147 16.451 3.99088 16.4857C4.02558 16.4857 4.06028 16.5205 4.09498 16.5552H11.4521C11.5215 16.4857 11.6256 16.4857 11.6603 16.4857C12.042 16.4163 12.3197 16.1038 12.3544 15.7565C12.3544 15.4787 12.3544 15.2356 12.3544 14.9925C12.3544 14.6106 12.3544 14.1939 12.3544 13.7424ZM11.6256 15.5829C11.6256 15.6523 11.6256 15.7565 11.5562 15.8259C11.4868 15.8954 11.3827 15.8954 11.3133 15.8954C9.6475 15.8954 7.98175 15.8954 6.31599 15.8954H4.23379C4.12968 15.8954 4.02558 15.8954 3.95617 15.8259C3.88676 15.7565 3.88676 15.6871 3.88676 15.6176C3.88676 15.5829 3.88676 15.5829 3.88676 15.5481C3.88676 15.3398 3.88676 15.1315 3.85205 14.9231C3.81735 14.6106 3.81736 14.2633 3.81736 13.9161C3.81736 13.7424 3.88677 13.5688 4.16439 13.6035C4.30321 13.6035 4.44201 13.6035 4.61553 13.6035C4.71964 13.6035 4.78904 13.6035 4.89315 13.6035C4.89315 13.3605 4.89315 13.1521 4.89315 12.9438C4.75434 12.9438 4.61553 12.9438 4.51142 12.9438C4.37261 12.9438 4.2685 12.9438 4.12969 12.9438C4.06028 12.9438 3.95617 12.9437 3.88676 12.8743C3.81735 12.8048 3.81736 12.7007 3.81736 12.666C3.81736 12.3882 3.81736 12.1798 3.81736 12.0062C3.81736 11.9714 3.78265 11.8325 3.88676 11.7631C3.95617 11.6936 4.06028 11.6589 4.12969 11.6589C5.03197 11.6589 5.96896 11.6589 6.87124 11.6589H8.43289C9.36988 11.6589 10.3069 11.6589 11.2439 11.6589C11.3133 11.6589 11.4174 11.6589 11.4868 11.7284C11.5562 11.7978 11.5562 11.902 11.5562 11.9714C11.5909 13.1521 11.5909 14.3675 11.6256 15.5829Z" fill="#9010F4"/>
</svg>
