<svg width="31" height="17" viewBox="0 0 31 17" fill="none" xmlns="http://www.w3.org/2000/svg">
<path d="M2.4277 0.756999V14H0.698701V0.756999H2.4277ZM15.7183 16.508L13.0773 13.867C12.4313 14.0443 11.7726 14.133 11.1013 14.133C9.87261 14.133 8.75161 13.848 7.73828 13.278C6.72495 12.6953 5.92061 11.891 5.32528 10.865C4.74261 9.82633 4.45128 8.661 4.45128 7.369C4.45128 6.077 4.74261 4.918 5.32528 3.892C5.92061 2.85333 6.72495 2.049 7.73828 1.479C8.75161 0.896333 9.87261 0.604999 11.1013 0.604999C12.3426 0.604999 13.4699 0.896333 14.4833 1.479C15.4966 2.049 16.2946 2.847 16.8773 3.873C17.4599 4.899 17.7513 6.06433 17.7513 7.369C17.7513 8.63567 17.4726 9.77567 16.9153 10.789C16.3579 11.8023 15.5916 12.6003 14.6163 13.183L17.9603 16.508H15.7183ZM6.21828 7.369C6.21828 8.42033 6.42728 9.345 6.84528 10.143C7.27595 10.941 7.85861 11.5553 8.59328 11.986C9.34061 12.4167 10.1766 12.632 11.1013 12.632C12.0259 12.632 12.8556 12.4167 13.5903 11.986C14.3376 11.5553 14.9203 10.941 15.3383 10.143C15.7689 9.345 15.9843 8.42033 15.9843 7.369C15.9843 6.305 15.7689 5.38033 15.3383 4.595C14.9203 3.797 14.3439 3.18267 13.6093 2.752C12.8746 2.32133 12.0386 2.106 11.1013 2.106C10.1639 2.106 9.32795 2.32133 8.59328 2.752C7.85861 3.18267 7.27595 3.797 6.84528 4.595C6.42728 5.38033 6.21828 6.305 6.21828 7.369ZM23.9167 0.756999C25.3607 0.756999 26.6084 1.02933 27.6597 1.574C28.7237 2.106 29.5344 2.87233 30.0917 3.873C30.6617 4.87367 30.9467 6.05167 30.9467 7.407C30.9467 8.76233 30.6617 9.94033 30.0917 10.941C29.5344 11.929 28.7237 12.689 27.6597 13.221C26.6084 13.7403 25.3607 14 23.9167 14H19.7937V0.756999H23.9167ZM23.9167 12.575C25.6267 12.575 26.9314 12.1253 27.8307 11.226C28.73 10.314 29.1797 9.041 29.1797 7.407C29.1797 5.76033 28.7237 4.47467 27.8117 3.55C26.9124 2.62533 25.614 2.163 23.9167 2.163H21.5227V12.575H23.9167Z" fill="white"/>
</svg>
