<svg width="18" height="18" viewBox="0 0 18 18" fill="none" xmlns="http://www.w3.org/2000/svg">
<path d="M3.77179 10.6648C4.05894 11.7365 4.69169 12.6835 5.5719 13.3589C6.4521 14.0343 7.53058 14.4004 8.64005 14.4004C9.74953 14.4004 10.828 14.0343 11.7082 13.3589C12.5884 12.6835 13.2212 11.7365 13.5083 10.6648" stroke="white" stroke-width="0.72"/>
<path d="M8.64004 9.35938L8.41515 9.64049L8.64004 9.8204L8.86493 9.64049L8.64004 9.35938ZM9.00004 2.87937C9.00004 2.68055 8.83886 2.51937 8.64004 2.51937C8.44122 2.51937 8.28004 2.68055 8.28004 2.87937L9.00004 2.87937ZM4.81515 6.76049L8.41515 9.64049L8.86493 9.07826L5.26493 6.19826L4.81515 6.76049ZM8.86493 9.64049L12.4649 6.76049L12.0151 6.19826L8.41515 9.07826L8.86493 9.64049ZM9.00004 9.35938L9.00004 2.87937L8.28004 2.87937L8.28004 9.35938L9.00004 9.35938Z" fill="white"/>
</svg>
