<svg width="23" height="23" viewBox="0 0 23 23" fill="none" xmlns="http://www.w3.org/2000/svg">
<g id="FEWxhg.tif">
<g id="Group">
<g id="Group_2">
<path id="Vector" d="M17.5347 7.52331C17.4551 7.68253 17.2562 7.72234 17.0971 7.68253C16.9778 7.64273 16.8982 7.56311 16.8186 7.4835C16.7789 7.4835 16.7788 7.4437 16.7391 7.4039C16.5004 7.20487 16.3015 7.00584 16.1026 6.80681C16.023 6.7272 15.9832 6.60777 15.9832 6.48836V5.4136C15.9832 4.29904 15.9832 3.18448 15.9832 2.06991C15.9832 1.9903 15.9832 1.95049 15.9435 1.87088C15.9037 1.83108 15.8241 1.83107 15.7446 1.83107C15.307 1.83107 14.8694 1.83107 14.4318 1.83107H14.2329C14.1136 1.83107 14.0738 1.83108 14.034 1.87088C13.9942 1.91069 13.9942 1.95049 13.9942 2.06991V2.62719V3.94078C13.9942 4.13981 13.9147 4.25923 13.7157 4.33884C13.5964 4.41845 13.3975 4.33884 13.2384 4.21943C12.9997 3.98059 12.7212 3.74175 12.4825 3.50291C12.3632 3.3835 12.2041 3.26408 12.0847 3.10485C11.8063 2.86602 11.5676 2.62719 11.2891 2.34855L10.6924 1.79127C10.4537 1.55243 10.215 1.3136 9.93659 1.07476C9.8968 1.03496 9.81725 0.955346 9.69791 1.07476C9.45922 1.3136 9.22054 1.51262 8.98185 1.75146C8.70339 2.0301 8.38515 2.30874 8.10668 2.54757L8.0669 2.58738C7.74865 2.90583 7.39063 3.18447 7.07238 3.50291C6.91326 3.66214 6.75414 3.82137 6.55523 3.98059C6.35633 4.17962 6.15743 4.37865 5.95852 4.57768C5.71984 4.81651 5.44138 5.05534 5.20269 5.29418C5.04357 5.4136 4.88445 5.57282 4.7651 5.69224C4.60598 5.85146 4.44686 6.01069 4.28774 6.16991C4.00927 6.44855 3.73081 6.68739 3.41257 6.96603C3.29322 7.04564 3.17388 7.16506 3.09432 7.28447C2.9352 7.40389 2.81585 7.56311 2.65673 7.68253C2.45783 7.88156 2.25892 8.0806 2.06002 8.23982C1.98046 8.31944 1.86112 8.43885 1.74178 8.51846C1.58266 8.67768 1.38375 8.83691 1.18485 9.03594L0.787042 9.39419H1.74178C2.21915 9.39419 2.69651 9.39419 3.17388 9.39419C3.29322 9.39419 3.45235 9.43399 3.53191 9.51361C3.61147 9.59322 3.69103 9.71263 3.65125 9.87186C3.65125 10.668 3.65125 11.4641 3.65125 12.2602V13.5738C3.65125 14.6486 3.65125 15.6835 3.65125 16.7583C3.65125 17.1165 3.77059 17.3952 4.04905 17.5942C4.20817 17.7136 4.3673 17.7932 4.52642 17.7932C5.04357 17.7932 5.6005 17.7932 6.11765 17.7932C6.43589 17.7932 6.75414 17.7932 7.07238 17.7932C7.39063 17.7932 7.70887 17.7932 8.0669 17.7932C8.4647 17.7932 8.86251 17.7932 9.26032 17.7932C10.0559 17.7932 10.8118 17.7932 11.5676 17.7932C11.8063 17.7932 11.9654 17.9126 12.045 18.0719C12.0847 18.1913 12.0847 18.3107 12.0052 18.4301C11.9256 18.5495 11.8461 18.5893 11.6869 18.6292C11.488 18.669 11.2891 18.669 11.0902 18.6292C11.0107 18.6292 10.9311 18.6292 10.8118 18.6292H9.81724C8.14646 18.6292 6.43589 18.6292 4.72533 18.6292C4.04906 18.6292 3.49213 18.3505 3.1341 17.8728C2.9352 17.5942 2.81586 17.2359 2.81586 16.8777V15.8427C2.81586 14.0515 2.81586 12.2602 2.81586 10.4291C2.81586 10.3893 2.81585 10.3097 2.77607 10.2699C2.73629 10.2301 2.65673 10.2301 2.57717 10.2301C1.98046 10.2301 1.42353 10.2301 0.906385 10.2301C0.58814 10.2301 0.349455 10.1107 0.190333 9.91166C0.0312103 9.67283 -0.0483486 9.434 0.0312127 9.15535C0.0709933 8.87671 0.269893 8.71749 0.468796 8.51846L0.508579 8.47865C0.627921 8.35923 0.747263 8.23982 0.906385 8.1204C1.10529 7.92137 1.30419 7.76215 1.50309 7.56312C1.74178 7.32428 2.02024 7.08545 2.25892 6.84662C2.41805 6.68739 2.57717 6.56797 2.7363 6.40875C3.05454 6.13011 3.37278 5.81166 3.69103 5.53302L4.60598 4.69709L5.48116 3.86118C5.68006 3.70195 5.83918 3.54272 5.99831 3.3835C6.23699 3.14467 6.47568 2.90583 6.71436 2.7068C6.99282 2.46796 7.27129 2.22913 7.50997 1.95049C7.70887 1.75146 7.90777 1.55243 8.14646 1.39321C8.54426 1.03495 8.94207 0.636899 9.33988 0.278646C9.41944 0.199034 9.53878 0.0796118 9.69791 0H9.89681C10.0559 0.0796118 10.1753 0.199025 10.2946 0.318442C10.4935 0.517472 10.6924 0.676705 10.8913 0.875734C11.0107 0.955346 11.0902 1.07476 11.2096 1.19418C11.8063 1.71165 12.3632 2.26894 12.9599 2.82622C12.9599 2.82622 12.9997 2.86603 13.0793 2.86603C13.1588 2.82622 13.1588 2.78641 13.1588 2.7068V2.0301V1.39321C13.1588 1.15437 13.3577 0.995147 13.5566 0.995147H14.3522C14.9887 0.995147 15.665 0.995147 16.3413 0.995147C16.4208 0.995147 16.5402 1.03495 16.6595 1.11456C16.7391 1.19417 16.8186 1.3136 16.8186 1.43301C16.8186 2.26894 16.8186 3.10486 16.8186 3.94078C16.8186 4.69709 16.8186 5.4136 16.8186 6.16991C16.8186 6.32914 16.8982 6.44855 16.9778 6.52816C17.1369 6.68739 17.296 6.84662 17.4551 7.00584C17.5745 7.16506 17.6142 7.40389 17.5347 7.52331Z" fill="black"/>
</g>
<g id="Group_3">
<path id="Vector_2" d="M20.7564 14.0514C21.1542 14.0514 21.552 14.0514 21.9498 14.0514C22.1885 14.0514 22.3476 14.0116 22.3874 13.7728C22.3874 13.733 22.4272 13.733 22.4272 13.733V13.6136C22.3874 13.5737 22.3874 13.5339 22.3476 13.4941C22.3476 13.4543 22.3476 13.4543 22.3078 13.4543C22.2283 13.3747 22.1487 13.2951 22.0691 13.2155C22.0294 13.1757 21.9498 13.0961 21.91 13.0563C21.6315 12.7776 21.3531 12.499 21.1144 12.2203L20.5575 11.7029C20.2392 11.3844 19.921 11.066 19.6027 10.7475L19.0458 10.1902C18.8867 10.031 18.6878 9.83199 18.5287 9.67276C18.3298 9.51354 18.1308 9.51354 17.9319 9.67276C16.7783 10.8669 15.5849 12.0213 14.4313 13.1757L14.3915 13.2155C14.3119 13.2951 14.2323 13.3747 14.1528 13.4941C14.0334 13.6534 14.113 13.8126 14.2324 13.9718C14.3119 14.0514 14.3915 14.0912 14.5506 14.0912H14.7893C15.1075 14.0912 15.4655 14.0912 15.7838 14.0912C15.8236 14.0912 15.9031 14.0912 15.9429 14.131C15.9827 14.1708 15.9827 14.2504 15.9827 14.2902C15.9827 15.365 15.9827 16.4796 15.9827 17.7534C15.9827 17.7932 15.9827 17.8728 15.9429 17.9126C15.9031 17.9524 15.8634 17.9524 15.7838 17.9524C15.5849 17.9524 15.4258 17.9524 15.2666 17.9524C15.0677 17.9524 14.8688 17.9524 14.6699 17.9524H14.6302C14.5904 17.9524 14.5506 17.9524 14.471 17.9524C14.3119 17.9922 14.1926 18.0718 14.113 18.2708C14.0732 18.3903 14.113 18.5097 14.2324 18.6291C14.6302 19.067 15.0677 19.465 15.4656 19.9029L15.9827 20.4204C16.2612 20.699 16.5794 21.0174 16.8579 21.2961C16.9772 21.4553 17.1363 21.5747 17.2557 21.6941C17.4944 21.933 17.733 22.1718 17.9717 22.4106C18.0911 22.5301 18.2104 22.5699 18.3695 22.4903C18.4889 22.4505 18.6082 22.3708 18.6878 22.2514C18.7276 22.2116 18.7673 22.1718 18.8071 22.132C19.0856 21.8932 19.3243 21.6145 19.563 21.3757C19.8016 21.1369 20.0403 20.898 20.279 20.6592C20.5973 20.3805 20.8757 20.0621 21.1542 19.7835C21.2735 19.6641 21.4326 19.5048 21.552 19.3854C21.6713 19.266 21.7509 19.1864 21.8702 19.067C21.91 19.0271 21.9498 18.9873 21.9896 18.9475C22.1487 18.7883 22.3078 18.6291 22.3874 18.4699V18.3106C22.3476 18.2708 22.3078 18.231 22.3078 18.1912V18.1514C22.1885 18.032 22.0691 17.9524 21.8702 17.9524H21.5122C21.2337 17.9524 20.9553 17.9524 20.6768 17.9524C20.637 17.9524 20.5972 17.9524 20.5575 17.9126C20.5177 17.8728 20.5177 17.833 20.5177 17.7932C20.5177 16.6388 20.5177 15.4446 20.5177 14.2902C20.5177 14.2504 20.5177 14.2106 20.5575 14.1708C20.6768 14.0514 20.7166 14.0514 20.7564 14.0514ZM20.1199 18.7485C20.279 18.7485 20.4381 18.7485 20.5973 18.7485H20.7962C20.8359 18.7485 20.8757 18.7485 20.9155 18.7883C20.9155 18.8281 20.9155 18.8679 20.8757 18.9077L20.3983 19.3854C19.7221 20.0621 19.0856 20.699 18.4093 21.3757C18.3695 21.4155 18.3298 21.4553 18.2502 21.4553C18.2104 21.4553 18.1308 21.4155 18.1308 21.3757C17.8126 21.0573 17.5341 20.7786 17.2557 20.5C17.0966 20.3407 16.9374 20.1815 16.8181 20.0621C16.6192 19.8631 16.4203 19.664 16.2214 19.465C16.1418 19.3854 16.0623 19.3058 15.9827 19.2262C15.9031 19.1466 15.8236 19.067 15.744 18.9475C15.744 18.9475 15.6645 18.9077 15.7042 18.8281C15.7042 18.7883 15.744 18.7485 15.8236 18.7485C15.9031 18.7485 15.9429 18.7485 15.9827 18.7485C16.102 18.7485 16.2214 18.7485 16.3407 18.7485C16.4601 18.7485 16.5794 18.7087 16.6988 18.6291C16.8181 18.5495 16.8579 18.3903 16.8579 18.231C16.8579 17.1165 16.8579 16.0417 16.8579 14.967V13.6932C16.8579 13.4543 16.659 13.2553 16.4203 13.2553H15.8236C15.7838 13.2553 15.7042 13.2553 15.6645 13.1757C15.6645 13.0961 15.7042 13.0563 15.7042 13.0563C15.7838 12.9767 15.9031 12.8572 16.0225 12.7776C16.2214 12.5786 16.4601 12.3796 16.659 12.1407C16.8181 11.9815 17.017 11.7825 17.1761 11.6233C17.375 11.4242 17.5739 11.2252 17.7728 11.0262C17.8126 10.9864 17.8524 10.9466 17.8922 10.9067C17.9717 10.8271 18.0911 10.7475 18.1706 10.6281C18.2104 10.5883 18.2502 10.5485 18.29 10.5485C18.3298 10.5485 18.3695 10.5485 18.4491 10.6281C18.6082 10.7873 18.7673 10.9466 18.9265 11.1058L19.8016 11.9815C19.921 12.1009 20.0801 12.2602 20.1994 12.3796L20.3188 12.499C20.5177 12.698 20.7166 12.897 20.9155 13.0563C20.9553 13.0563 20.9951 13.1359 20.9553 13.2155C20.9155 13.2951 20.8359 13.2951 20.8359 13.2553C20.6768 13.2553 20.5177 13.2553 20.3586 13.2553H20.2392C20.0005 13.2553 19.8016 13.4543 19.8016 13.6932V18.3505C19.7221 18.5097 19.921 18.7485 20.1199 18.7485Z" fill="black"/>
</g>
</g>
</g>
</svg>
