<svg width="31" height="30" viewBox="0 0 31 30" fill="none" xmlns="http://www.w3.org/2000/svg">
<path d="M29.844 10.1525C29.5043 9.47315 28.922 9.13346 28.1941 9.13346C26.6412 9.13346 25.1369 9.13346 24.0208 9.13346C23.7782 9.13346 23.6811 9.03641 23.6811 8.79378C23.6811 8.21146 23.6326 7.48355 23.4385 6.75564C22.9532 4.66899 21.8371 2.97055 20.1386 1.70886C18.4887 0.495685 16.5962 -0.0866373 14.5581 0.0104164C13.4419 0.0589432 12.4714 0.301574 11.5979 0.689789C8.24956 2.29118 6.5026 4.96015 6.40554 8.69672C6.40554 8.93935 6.35702 9.08493 6.01733 9.08493C4.65858 9.08493 3.34835 9.08493 1.9896 9.08493C0.970536 9.08493 0.388213 9.5702 0.0970522 10.5407C0.0970522 10.5893 0.0485268 10.6378 0 10.6863V28.3986C0.0485268 28.4471 0.0970522 28.4957 0.0970522 28.5442C0.194106 29.1265 0.533793 29.5147 1.11612 29.8059C1.16464 29.8544 1.2617 29.8544 1.35875 29.8544C1.40728 29.8544 1.55286 29.8544 1.60138 29.9515C1.60138 29.9515 1.60138 29.9515 1.60138 30H28.5823C28.6308 29.9029 28.7279 29.903 28.7764 29.903C29.6014 29.6603 30.0866 28.9809 30.0866 28.156C30.0866 22.9151 30.0866 17.6742 30.0866 12.4333V10.9775C30.0381 10.6863 29.9896 10.3952 29.844 10.1525ZM12.714 1.22359C13.7331 0.8839 14.8007 0.835373 16.0139 0.980953C17.6152 1.17506 19.071 1.80591 20.2842 2.92203C21.5944 4.08667 22.3709 5.54247 22.662 7.24091C23.0502 9.37609 22.6135 11.3657 21.4003 13.1612C21.3518 13.2097 21.3033 13.3068 21.2548 13.3553C21.2062 13.4038 21.1577 13.5009 21.1092 13.5494C21.0606 13.5979 21.0121 13.695 20.8665 13.695C20.721 13.695 20.6724 13.5494 20.6239 13.5009C20.3813 13.0156 19.9931 12.5789 19.4593 12.0936C18.4887 11.1716 17.3241 10.5893 16.0139 10.3952C14.2669 10.1525 12.5684 10.5407 11.0641 11.6083C10.3847 12.0936 9.80242 12.7244 9.36568 13.5009C9.31715 13.5979 9.26863 13.7435 9.12304 13.7435C9.02599 13.7435 8.92894 13.6465 8.88041 13.5494C8.00693 12.4333 7.47313 11.1716 7.32755 9.81283C7.27903 9.47314 7.2305 9.08493 7.2305 8.69672C7.2305 5.20279 9.41421 2.24265 12.714 1.22359ZM19.9931 14.6655C18.8769 15.539 17.6638 16.1213 16.305 16.3154C15.9168 16.364 15.5771 16.4125 15.2374 16.4125C15.0918 16.4125 14.8977 16.4125 14.7522 16.4125C13.2964 16.4125 11.9376 15.9757 10.5788 15.0537C10.4818 15.0052 10.3847 14.9082 10.2877 14.8111C10.1906 14.7626 10.1421 14.6655 10.0451 14.617C9.80242 14.4229 9.89948 14.2288 9.948 14.1317C10.87 12.5303 12.2288 11.5113 13.9272 11.2201C15.8683 10.8319 17.6152 11.3657 19.071 12.8215C19.4593 13.2097 19.799 13.6465 20.0901 14.1317C20.2357 14.3258 20.1872 14.5199 19.9931 14.6655ZM29.2132 28.2045C29.2132 28.3986 29.1646 28.6413 29.0191 28.8839C28.8249 29.1265 28.5823 29.2236 28.2426 29.2236C24.6516 29.2236 21.0606 29.2236 17.4697 29.2236H1.94107C1.2617 29.2236 0.873481 28.8354 0.873481 28.156V11.026C0.873481 10.3952 1.2617 10.0069 1.89255 10.0069H3.15424C4.17331 10.0069 5.19237 10.0069 6.16291 10.0069C6.30849 10.0069 6.5026 10.0555 6.55112 10.2981C6.93934 12.3362 7.9584 14.0347 9.55979 15.3449C10.7244 16.3154 12.1317 16.9463 13.7331 17.1889C14.9948 17.4316 16.3535 17.286 17.8094 16.8007C19.1681 16.3154 20.3813 15.4905 21.4974 14.2773C22.4679 13.2097 23.0988 11.8995 23.4385 10.3466C23.487 10.104 23.6326 10.0069 23.8267 10.0069C24.8943 10.0069 25.9133 10.0069 26.9809 10.0069H28.1456C28.7764 10.0069 29.1646 10.3952 29.1646 11.026V28.2045H29.2132Z" fill="#303030"/>
<path d="M27.1268 19.761C26.7386 19.3728 26.2533 19.1787 25.671 19.1787C23.1476 19.1787 20.5757 19.1787 18.0523 19.1787H4.41624C4.07655 19.1787 3.78539 19.2272 3.54275 19.3243C2.81485 19.664 2.42664 20.2463 2.42664 21.0713C2.42664 22.0418 2.42664 23.0609 2.42664 24.0314V25.6328C2.42664 25.8269 2.42664 25.9725 2.47516 26.118C2.62074 26.8945 3.30012 27.5253 4.07655 27.6224C4.51329 27.6709 4.95003 27.6709 5.38677 27.6709C5.58088 27.6709 5.77499 27.6709 5.96909 27.6709C10.8703 27.6709 15.7715 27.6709 20.6727 27.6709H25.5739C25.8166 27.6709 26.0592 27.6709 26.2533 27.6224C27.1268 27.3797 27.7091 26.6518 27.7091 25.7298V21.2168C27.7091 20.683 27.4665 20.1492 27.1268 19.761ZM26.8356 25.8269C26.8356 26.4092 26.4474 26.7974 25.9136 26.8459C25.3798 26.8459 24.7975 26.8945 24.2152 26.8945C23.8755 26.8945 23.4873 26.8945 23.1476 26.8945C22.7109 26.8945 22.2741 26.8945 21.8859 26.8945C20.2845 26.8945 18.6831 26.8945 17.1303 26.8945H4.51329C3.78539 26.8945 3.4457 26.6518 3.30012 26.0695C3.25159 25.9725 3.25159 25.8754 3.25159 25.7784V21.1683C3.25159 20.5375 3.6398 20.1007 4.27065 20.1007C4.46476 20.1007 4.61034 20.1007 4.80445 20.1007C4.90151 20.1007 4.99856 20.1007 5.09561 20.1007H25.4769H25.671C26.3018 20.1007 26.7871 20.586 26.7871 21.2168C26.8356 22.7697 26.8356 24.274 26.8356 25.8269Z" fill="#303030"/>
<path d="M17.3729 3.5052C16.7906 2.87436 15.9656 2.53467 15.0921 2.53467H15.0436C14.1701 2.53467 13.3452 2.87437 12.7143 3.45669C12.0835 4.08754 11.7438 4.91249 11.7438 5.78597C11.7438 7.53294 13.1996 9.03727 14.9465 9.08579C15.82 9.13432 16.6935 8.7461 17.3729 8.11526C18.0037 7.48441 18.3434 6.70799 18.2949 5.88303C18.3434 5.00955 18.0037 4.13605 17.3729 3.5052ZM16.7906 7.48441C16.3053 7.96968 15.723 8.21232 15.0921 8.26084C14.4613 8.26084 13.8304 7.96968 13.3452 7.48441C12.8599 6.99914 12.6658 6.36829 12.6658 5.73744C12.7143 4.5728 13.6363 3.40816 15.0921 3.40816C15.723 3.40816 16.3053 3.60226 16.742 4.039C17.2273 4.47574 17.5185 5.1066 17.5185 5.78597C17.4699 6.41682 17.2273 6.99914 16.7906 7.48441Z" fill="#303030"/>
<path d="M10.8699 23.4482C10.8699 23.5938 10.7243 23.7879 10.5302 23.8364C10.4817 23.8364 10.4332 23.8849 10.3361 23.8849L10.0935 23.982L10.1905 24.1276C10.4332 24.4673 10.4817 24.6128 10.2876 24.8555C10.142 25.0011 10.045 25.0496 9.51116 24.7584L9.36558 24.6614V24.8555C9.36558 24.904 9.36558 24.9525 9.36558 24.9525C9.36558 25.0981 9.36558 25.1952 9.26853 25.2437C9.17148 25.3408 9.07442 25.4378 8.88031 25.3893C8.63768 25.3893 8.54063 25.1952 8.4921 24.8555V24.6614L8.24947 24.807C8.20094 24.8555 8.15241 24.8555 8.10388 24.904C7.90978 25.0011 7.71567 25.0011 7.57009 24.807C7.42451 24.6614 7.42451 24.4673 7.57009 24.2732C7.61862 24.1761 7.66714 24.1276 7.66714 24.0305C7.61862 23.9335 7.52156 23.8849 7.42451 23.8849C7.13335 23.8364 6.98777 23.6908 7.0363 23.4482C7.0363 23.2541 7.18188 23.1085 7.52156 23.06C7.57009 23.06 7.57009 23.06 7.61862 23.0115L7.7642 22.9629L7.66714 22.8174C7.37598 22.3321 7.42451 22.1865 7.57009 22.0895C7.71567 21.9439 7.86125 21.9439 8.34652 22.1865L8.4921 22.2836L8.54063 22.0409C8.58915 21.8954 8.58915 21.7983 8.63768 21.7012C8.73473 21.6042 8.83179 21.5557 8.97737 21.5557C9.17148 21.5557 9.26853 21.6042 9.41411 22.138V22.235H9.51116C9.60822 22.235 9.65675 22.1865 9.70527 22.138C9.70527 22.138 9.70527 22.138 9.7538 22.0895C9.94791 21.9439 10.142 21.9439 10.2876 22.138C10.4332 22.2836 10.4332 22.4777 10.3361 22.6718C10.2391 22.7688 10.1905 22.8659 10.2391 22.9629C10.2876 23.06 10.4332 23.06 10.5302 23.1085C10.7243 23.06 10.8699 23.2541 10.8699 23.4482Z" fill="#303030"/>
<path d="M23.0988 23.4485C23.0988 23.5941 22.9532 23.7882 22.7591 23.8367C22.7106 23.8367 22.662 23.8853 22.565 23.8853L22.2738 23.9823L22.3709 24.1279C22.662 24.5161 22.565 24.7102 22.4679 24.8073C22.3223 25.0014 22.2253 25.0499 21.6915 24.7102L21.4974 24.6132V24.8073C21.4974 25.0014 21.4974 25.1955 21.3518 25.2925C21.2547 25.3411 21.1577 25.3896 21.0606 25.3896C20.8665 25.3896 20.7209 25.2925 20.6239 24.8073L20.5754 24.6132L20.3327 24.7587C20.2842 24.8073 20.2357 24.8073 20.1872 24.8558C19.993 24.9528 19.7989 24.9529 19.6534 24.7587C19.5078 24.6132 19.5078 24.4191 19.6534 24.225L19.7019 24.1764C19.7504 24.1279 19.7989 24.0308 19.7989 23.9338C19.7504 23.8367 19.6534 23.7882 19.5563 23.7882C19.2651 23.7397 19.1681 23.5941 19.1681 23.3515C19.1681 23.2059 19.2166 23.0118 19.6048 22.9633C19.6534 22.9633 19.7504 22.9147 19.7989 22.8662C19.8475 22.8177 19.7989 22.6721 19.7504 22.6236C19.5563 22.2839 19.6048 22.1383 19.7504 21.9927C19.7989 21.9442 19.993 21.7501 20.3813 22.0412L20.6239 22.1868L20.6724 21.9442C20.7209 21.7501 20.7209 21.6045 20.8665 21.5074C20.9636 21.4589 21.0121 21.4104 21.1092 21.4104C21.3033 21.4104 21.4489 21.5074 21.5459 21.9927V22.0898H21.643C21.7885 22.0898 21.8371 22.0412 21.8856 21.9927V21.9442C22.0797 21.7986 22.2738 21.7986 22.4679 21.9927C22.6135 22.1383 22.6135 22.3809 22.4679 22.5265C22.3709 22.6236 22.3223 22.7206 22.3709 22.8177C22.4194 22.9147 22.5164 22.9147 22.662 22.9147C22.9532 23.0603 23.0988 23.2544 23.0988 23.4485Z" fill="#303030"/>
<path d="M16.9845 23.3997C16.9845 23.5938 16.8875 23.7879 16.6448 23.8364C16.5963 23.8364 16.5478 23.8364 16.4992 23.8364L16.1595 23.8849L16.3051 24.0305C16.5963 24.4188 16.6448 24.6129 16.4022 24.807C16.2081 25.0011 16.014 24.9525 15.7228 24.6614L15.5772 24.5158L15.5287 24.7584C15.4316 25.3408 15.2375 25.3893 15.092 25.3893C14.9464 25.3893 14.7037 25.3408 14.6552 24.7584L14.6067 24.5158L14.3641 24.7099C14.1699 24.904 14.0244 24.9525 13.8788 24.9525C13.7817 24.9525 13.6847 24.904 13.6362 24.807C13.442 24.5643 13.5391 24.3702 13.7332 24.0791L13.8788 23.8849H13.6362C13.2965 23.8849 13.1024 23.7394 13.0538 23.4967C13.0538 23.3026 13.1024 23.1085 13.6362 23.0115H13.7332V22.9144C13.7817 22.7688 13.6847 22.7203 13.6362 22.6718C13.4906 22.4777 13.4906 22.235 13.6847 22.0895C13.8303 21.9439 14.0244 21.9439 14.2185 22.138C14.267 22.1865 14.3641 22.2836 14.4611 22.235C14.5582 22.1865 14.5582 22.0895 14.6067 21.9924C14.6552 21.7012 14.8008 21.5557 15.092 21.5557C15.2861 21.5557 15.4316 21.7983 15.4802 22.0409V22.0895L15.5287 22.235H15.6258C15.7228 22.235 15.8199 22.138 15.8684 22.0895C15.8684 22.0895 15.9169 22.0895 15.9169 22.0409C16.0625 21.9439 16.3051 21.9439 16.4507 22.0895C16.5963 22.235 16.6448 22.4292 16.4992 22.6233C16.4022 22.7688 16.3537 22.8174 16.4022 22.9144C16.4507 23.0115 16.5478 23.0115 16.6933 23.06C16.8389 23.06 16.936 23.2541 16.9845 23.3997Z" fill="#303030"/>
</svg>
