<svg width="19" height="19" viewBox="0 0 19 19" fill="none" xmlns="http://www.w3.org/2000/svg">
<path d="M0.10411 12.4287C0.10411 10.866 0.10411 9.33815 0.10411 7.77551C0.10411 6.6643 0.0694064 5.58781 0.138813 4.4766C0.208219 2.94869 1.38813 1.83747 2.91507 1.83747C3.1927 1.83747 3.47033 1.83747 3.74795 1.83747C4.37261 1.83747 4.2685 1.90692 4.2685 1.31659C4.2685 0.899883 4.44202 0.552642 4.78905 0.309565C5.20549 0.0317627 5.62193 -0.0376964 6.07307 0.170655C6.52421 0.379007 6.76714 0.760977 6.80184 1.24713C6.83654 1.80274 6.83654 1.80275 7.4265 1.80275C8.64111 1.80275 9.85573 1.80275 11.0703 1.80275C11.348 1.80275 11.4174 1.69857 11.3827 1.4555C11.3827 0.726265 11.7644 0.170647 12.3544 0.0317458C13.1872 -0.141881 13.8813 0.413737 13.916 1.28187C13.9507 1.76802 13.9507 1.76801 14.4366 1.76801C15.0959 1.76801 15.7553 1.73329 16.3799 2.01109C17.3169 2.4278 17.8722 3.12232 18.011 4.12935C18.1498 5.44891 18.0804 6.76847 18.0457 8.12276C18.0457 9.02562 18.0457 9.92847 18.0804 10.8313C18.0804 12.1509 18.1151 13.5052 18.1151 14.8247C18.1151 15.3456 18.0457 15.8665 17.8722 16.3874C17.4557 17.4986 16.5882 18.0195 15.443 18.1236C14.6101 18.1931 13.8119 18.1584 12.979 18.1236C10.2722 18.1236 7.60002 18.1236 4.89316 18.1236C4.16439 18.1236 3.43562 18.1236 2.70686 18.1236C1.14521 18.0889 0.10411 16.8388 0 15.5887C0.0347033 14.5122 0.0694063 13.4704 0.10411 12.4287ZM9.12696 5.58779C6.45481 5.58779 3.78266 5.58779 1.1105 5.58779C0.867581 5.58779 0.832878 5.65726 0.832878 5.86561C0.832878 8.81727 0.832878 11.7689 0.832878 14.6858C0.832878 14.9984 0.832878 15.3109 0.867582 15.6234C1.00639 16.3874 1.42283 16.943 2.1516 17.2208C2.63745 17.3944 3.158 17.3597 3.64384 17.3597C5.24019 17.3597 6.87125 17.3597 8.4676 17.3597C10.7927 17.3597 13.1178 17.3944 15.443 17.325C16.4841 17.2902 17.2128 16.561 17.3516 15.5192C17.421 14.8247 17.3863 14.1302 17.3863 13.4357C17.3863 10.9355 17.3863 8.40055 17.3863 5.90033C17.3863 5.55308 17.3863 5.55308 17.0393 5.55308C14.4366 5.5878 11.7644 5.58779 9.12696 5.58779ZM9.12696 4.82386C11.7991 4.82386 14.4366 4.82386 17.1087 4.82386C17.2822 4.82386 17.421 4.82385 17.421 4.58077C17.421 3.67792 16.8311 2.91395 15.9635 2.7056C15.4777 2.5667 14.9571 2.60143 14.4713 2.60143C14.0201 2.60143 14.0201 2.60142 13.9854 3.05285C13.9507 3.95571 13.2219 4.54604 12.3891 4.37241C11.7991 4.23351 11.4174 3.6779 11.4174 2.9834C11.4174 2.63614 11.4174 2.60143 11.0703 2.60143C9.85573 2.60143 8.64111 2.60143 7.4265 2.60143C7.25298 2.60143 7.01006 2.53197 6.90595 2.63614C6.73243 2.74032 6.83654 2.9834 6.83654 3.15702C6.76714 3.71263 6.52421 4.12934 5.93426 4.33769C5.41371 4.51132 4.96257 4.37243 4.58083 3.95572C4.30321 3.64319 4.2338 3.2612 4.2685 2.87923C4.2685 2.67087 4.2338 2.60143 4.02558 2.60143C3.71325 2.60143 3.36622 2.60143 3.05389 2.60143C1.80457 2.60143 1.0758 3.22649 0.867582 4.4766C0.798175 4.82386 0.832878 4.85857 1.17991 4.85857C3.81736 4.82385 6.45481 4.82386 9.12696 4.82386ZM6.10778 2.18472C6.10778 1.90692 6.10778 1.62913 6.10778 1.35132C6.10778 1.00407 5.89956 0.760977 5.58723 0.726252C5.3096 0.726252 5.06668 0.969342 5.03197 1.28187C5.03197 1.8722 5.03197 2.46252 5.03197 3.05285C5.03197 3.4001 5.24019 3.60847 5.58723 3.60847C5.89956 3.60847 6.10778 3.4001 6.10778 3.05285C6.10778 2.77505 6.10778 2.46252 6.10778 2.18472ZM12.1808 2.18472C12.1808 2.49725 12.1808 2.80978 12.1808 3.12231C12.1808 3.40011 12.3891 3.60847 12.6667 3.60847C12.979 3.60847 13.1872 3.43483 13.2219 3.12231C13.2219 2.49725 13.2219 1.83747 13.2219 1.21241C13.2219 0.899887 12.979 0.691535 12.7014 0.691535C12.3891 0.691535 12.1808 0.899887 12.1808 1.21241C12.1808 1.55967 12.1808 1.87219 12.1808 2.18472Z" fill="#14B111"/>
<path d="M7.3227 12.1858C6.62863 12.1858 6.62863 12.1858 6.62863 11.4913C6.62863 11.2829 6.52452 10.9704 6.69804 10.8315C6.83685 10.6926 7.11448 10.7968 7.3227 10.7968C8.01676 10.762 8.01676 10.762 8.01676 11.4913C8.01676 12.1858 8.01676 12.1858 7.3227 12.1858Z" fill="#14B111"/>
<path d="M7.28782 15.0335C6.59375 15.0335 6.59375 15.0335 6.59375 14.3737C6.59375 13.6792 6.59375 13.6792 7.32252 13.6792C8.01658 13.6792 8.01658 13.6792 8.01658 14.3737C8.01658 14.5821 8.12069 14.8946 7.94718 15.0335C7.84307 15.1029 7.56544 15.0335 7.28782 15.0335C7.32252 15.0335 7.32252 15.0335 7.28782 15.0335Z" fill="#14B111"/>
<path d="M14.159 13.6792C14.8531 13.6792 14.8531 13.6792 14.8531 14.339C14.8531 14.5473 14.9572 14.8599 14.8184 14.9988C14.6795 15.1377 14.4019 15.0335 14.159 15.0335C13.4649 15.0335 13.4649 15.0335 13.4649 14.339C13.4302 13.6792 13.4302 13.6792 14.159 13.6792Z" fill="#14B111"/>
<path d="M14.1589 12.1858C13.4648 12.1858 13.4648 12.1858 13.4648 11.4913C13.4648 10.8315 13.4648 10.8315 14.1242 10.8315C14.853 10.8315 14.853 10.8315 14.853 11.5608C14.853 12.1858 14.853 12.1858 14.1589 12.1858Z" fill="#14B111"/>
<path d="M4.75468 11.5607C4.71997 11.7343 4.85879 12.0121 4.71997 12.1857C4.58116 12.3246 4.30353 12.2205 4.09531 12.2205C3.8871 12.2205 3.57477 12.3246 3.43595 12.1857C3.29714 12.0468 3.40125 11.769 3.40125 11.526C3.40125 10.8314 3.40125 10.8314 4.06061 10.8314H4.09531C4.75468 10.7967 4.75468 10.7967 4.75468 11.5607Z" fill="#14B111"/>
<path d="M7.32252 9.12974C7.21841 9.12974 7.149 9.12974 7.04489 9.12974C6.62845 9.12974 6.62845 9.12973 6.59375 8.71303C6.59375 8.43522 6.62845 8.19215 6.62845 7.91435C6.62845 7.77545 6.69786 7.74072 6.80197 7.74072C7.149 7.74072 7.49604 7.74072 7.84307 7.74072C7.94718 7.74072 8.01658 7.77546 7.98188 7.87963C7.94718 8.22689 7.94718 8.57414 7.98188 8.92139C7.98188 9.06029 7.94718 9.12974 7.77366 9.12974C7.66955 9.12974 7.49604 9.16446 7.32252 9.12974Z" fill="#14B111"/>
<path d="M10.0987 11.4914C10.0987 10.7969 10.0987 10.7969 10.8275 10.7969C10.8969 10.7969 10.9663 10.7969 11.001 10.7969C11.4868 10.7969 11.4868 10.7969 11.4868 11.283C11.4868 11.5261 11.4868 11.7345 11.4868 11.9775C11.4868 12.1164 11.4521 12.1859 11.2786 12.1859C10.9316 12.1859 10.6192 12.1859 10.2722 12.1859C10.1334 12.1859 10.064 12.1512 10.0987 12.0123C10.1334 11.8386 10.0987 11.665 10.0987 11.4914Z" fill="#14B111"/>
<path d="M14.1245 9.12989C13.4304 9.16461 13.4304 9.16463 13.4304 8.47012C13.4304 7.60199 13.3957 7.77561 14.1245 7.77561C14.3327 7.77561 14.5756 7.70615 14.7492 7.81033C14.888 7.94923 14.7839 8.1923 14.8186 8.36593C14.8533 8.57428 14.8533 8.74791 14.8533 8.95626C14.8533 9.06044 14.8186 9.1299 14.6798 9.09517C14.5062 9.1299 14.3327 9.12989 14.1245 9.12989Z" fill="#14B111"/>
<path d="M10.7927 9.13015C10.0986 9.16488 10.0986 9.16489 10.0986 8.47039C10.0986 7.77588 10.0986 7.77588 10.7927 7.77588C11.4868 7.77588 11.4868 7.77588 11.4868 8.47039C11.4868 8.67874 11.5909 8.99126 11.4174 9.09544C11.2785 9.19961 11.0009 9.13015 10.7927 9.13015Z" fill="#14B111"/>
<path d="M11.4866 14.339C11.4866 15.0335 11.4866 15.0335 10.7926 15.0335C10.5844 15.0335 10.272 15.1377 10.1332 14.9988C9.9944 14.8599 10.0985 14.582 10.0985 14.339C10.0985 13.6792 10.0985 13.6792 10.7926 13.6792H10.8273C11.4866 13.6792 11.4866 13.6792 11.4866 14.339Z" fill="#14B111"/>
<path d="M4.06054 9.16475C3.36647 9.16475 3.36647 9.16475 3.36647 8.47025C3.36647 8.2619 3.29707 7.98408 3.43588 7.84517C3.57469 7.70627 3.85232 7.81046 4.02584 7.81046C4.7546 7.77573 4.7546 7.77574 4.7199 8.47025C4.7199 8.6786 4.82401 8.99111 4.6852 9.13002C4.58109 9.19947 4.26876 9.13003 4.06054 9.16475Z" fill="#14B111"/>
<path d="M4.02545 15.0334C3.85194 14.9987 3.53961 15.1376 3.4008 14.9987C3.26198 14.8598 3.36609 14.582 3.36609 14.3389C3.36609 13.6791 3.36609 13.6444 4.06016 13.6791C4.26838 13.6791 4.58071 13.5749 4.71952 13.7138C4.85833 13.8527 4.75422 14.1305 4.75422 14.3736C4.75422 15.0334 4.75422 15.0334 4.02545 15.0334Z" fill="#14B111"/>
</svg>
