<svg width="15" height="18" viewBox="0 0 15 18" fill="none" xmlns="http://www.w3.org/2000/svg">
<path d="M0 8.88967C0 6.52835 0 4.16704 0 1.80572C0 0.833412 0.65936 0.208343 1.35343 0.0347168C1.49224 -8.47838e-06 1.66576 0 1.80457 0C5.51782 0 9.23106 0 12.9443 0C13.9854 0 14.7142 0.868124 14.7142 1.77098C14.7142 6.52835 14.7142 11.251 14.7142 16.0084C14.7142 17.0154 13.9507 17.7794 12.9443 17.7794C9.23106 17.7794 5.55252 17.7794 1.83927 17.7794C0.832874 17.7794 0 16.9807 0 15.9389C0 13.5776 0 11.2163 0 8.88967ZM0.624655 8.85495C0.624655 11.2163 0.624655 13.6123 0.624655 15.9736C0.624655 16.564 1.04109 17.1196 1.76986 17.1196C5.48311 17.1196 9.16166 17.1196 12.8749 17.1196C13.569 17.1196 14.0548 16.6334 14.0548 15.9389C14.0548 11.2163 14.0548 6.49362 14.0548 1.77098C14.0548 1.1112 13.6037 0.625051 12.9443 0.625051C9.19636 0.625051 5.44841 0.625051 1.73516 0.625051C1.1105 0.625051 0.65936 1.07649 0.65936 1.70155C0.624657 4.13232 0.624655 6.49363 0.624655 8.85495Z" fill="#14B111"/>
<path d="M7.39172 11.0077C5.86478 10.973 4.51136 10.5216 3.36615 9.47981C3.26204 9.37563 3.22733 9.30618 3.26204 9.13255C3.43555 8.54222 3.64377 7.9519 4.02551 7.46574C4.37254 6.97959 4.96249 6.80596 5.48304 7.04903C6.76706 7.63936 8.05109 7.63936 9.33511 7.04903C9.82095 6.80596 10.4109 6.9796 10.7579 7.43102C11.1744 7.98663 11.3826 8.61168 11.5561 9.27146C11.5908 9.37564 11.5214 9.41036 11.4867 9.44509C10.6191 10.2438 9.61273 10.7299 8.43282 10.9036C8.08579 10.973 7.73876 11.0077 7.39172 11.0077ZM7.35702 10.3479C7.46113 10.3479 7.56524 10.3479 7.66935 10.3479C7.77346 10.3479 7.87757 10.3132 7.98168 10.3132C8.95337 10.209 9.85565 9.86179 10.6538 9.27146C10.7579 9.20201 10.8274 9.09784 10.7579 8.92421C10.6538 8.54223 10.4803 8.19498 10.2721 7.88245C10.0639 7.60465 9.82095 7.53518 9.50863 7.67408C9.02278 7.88244 8.53694 8.05607 7.98168 8.09079C7.0447 8.19497 6.1077 8.05606 5.24012 7.67408C4.89309 7.50046 4.65017 7.56991 4.44195 7.91717C4.23373 8.22969 4.09492 8.57696 3.9561 8.92421C3.9214 9.06311 3.9561 9.13255 4.06021 9.23672C5.06661 10.0007 6.17711 10.3132 7.35702 10.3479Z" fill="#14B111"/>
<path d="M9.71701 4.65284C9.75171 5.90295 8.71061 7.01416 7.39188 7.01416C6.10786 7.01416 5.06677 6.04185 5.03207 4.68756C4.99736 3.40272 6.07316 2.32623 7.35718 2.2915C8.64121 2.32623 9.71701 3.33328 9.71701 4.65284ZM9.05764 4.68756C9.05764 3.71525 8.32888 2.98601 7.35718 2.98601C6.4549 2.98601 5.69143 3.68052 5.69143 4.68756C5.69143 5.62514 6.4896 6.38909 7.42659 6.35437C8.36358 6.35437 9.09235 5.59042 9.05764 4.68756Z" fill="#14B111"/>
<path d="M7.46124 14.7232C6.10781 14.7232 4.75438 14.7232 3.40095 14.7232C3.33155 14.7232 3.22744 14.7232 3.15803 14.7232C2.94981 14.7232 2.8457 14.5843 2.8457 14.4107C2.8457 14.2371 2.98452 14.0981 3.19274 14.0981C3.26214 14.0981 3.33155 14.0981 3.40095 14.0981C6.17721 14.0981 8.95348 14.0981 11.7297 14.0981C11.8338 14.0981 11.9033 14.0982 12.0074 14.1329C12.1462 14.2023 12.1809 14.3412 12.1809 14.4801C12.1462 14.619 12.0421 14.7232 11.9033 14.7232C11.7644 14.7232 11.6256 14.7232 11.4868 14.7232C10.064 14.7232 8.77996 14.7232 7.46124 14.7232Z" fill="#14B111"/>
<path d="M5.86489 13.126C4.9973 13.126 4.09502 13.126 3.22744 13.126C2.98451 13.126 2.8457 13.0219 2.8457 12.8135C2.8457 12.6052 2.98451 12.501 3.22744 12.501C4.9973 12.501 6.76717 12.501 8.50234 12.501C8.74526 12.501 8.88407 12.5704 8.88407 12.7788C8.91877 12.9871 8.77996 13.1608 8.53704 13.1608C7.63475 13.126 6.73247 13.126 5.86489 13.126Z" fill="#14B111"/>
<path d="M10.7928 13.126C10.4805 13.126 10.1682 13.126 9.85582 13.126C9.6476 13.126 9.50879 12.9871 9.50879 12.8135C9.50879 12.6399 9.6476 12.501 9.85582 12.501C10.4805 12.501 11.1051 12.501 11.7298 12.501C11.9727 12.501 12.1115 12.6399 12.1115 12.8482C12.1115 13.0566 11.9727 13.1608 11.7298 13.1608C11.4175 13.126 11.1051 13.126 10.7928 13.126Z" fill="#14B111"/>
</svg>
