<svg width="20" height="20" viewBox="0 0 20 20" fill="none" xmlns="http://www.w3.org/2000/svg">
<path d="M18.9827 16.1964C19.0174 15.9533 18.948 15.7102 18.9133 15.5019C18.8439 15.1199 18.7745 14.7726 18.6357 14.3907C18.4622 13.9045 18.2887 13.4183 18.011 12.9669C17.7681 12.5502 17.5252 12.1683 17.2129 11.7863C16.6576 11.0918 15.9982 10.5362 15.2348 10.05C15.1654 10.0153 15.1307 9.98055 15.2001 9.9111C15.5471 9.56384 15.8594 9.18186 16.137 8.73043C16.3453 8.34845 16.5188 7.96647 16.6576 7.5845C16.8311 7.06362 16.9005 6.54274 16.9352 6.02186C16.9699 5.5357 16.9005 5.01483 16.7964 4.52867C16.6923 3.97307 16.4494 3.41747 16.1718 2.93132C15.9982 2.65352 15.8247 2.3757 15.6165 2.13262C15.2695 1.71591 14.8877 1.33394 14.4366 1.02141C13.9507 0.708887 13.4302 0.431091 12.8749 0.257465C12.4238 0.118563 11.9727 0.0491086 11.5215 0.0143833C11.1398 -0.0203421 10.758 0.0143854 10.3763 0.0491107C9.92517 0.118561 9.47402 0.222737 9.05758 0.396364C8.50233 0.604716 7.98178 0.917245 7.49594 1.29922C7.0795 1.64648 6.69777 2.02844 6.38544 2.47987C6.10781 2.86185 5.89958 3.27857 5.72607 3.73C5.51785 4.25087 5.37904 4.77175 5.34434 5.32735C5.30964 5.74405 5.30963 6.16076 5.37903 6.61219C5.48314 7.13307 5.58726 7.65396 5.83018 8.14011C6.0384 8.55682 6.24662 8.97351 6.52425 9.32076C6.69776 9.56384 6.90598 9.80692 7.1489 10.0153C7.21831 10.05 7.18361 10.0847 7.1489 10.1194C7.04479 10.2236 6.90598 10.2931 6.80187 10.3973C6.73246 10.5014 6.73246 10.6056 6.80187 10.7098C6.90598 10.8139 7.01009 10.8834 7.1142 10.8487C7.28771 10.7792 7.46124 10.6403 7.60005 10.5014C7.63475 10.4667 7.66946 10.432 7.73886 10.4667C8.1206 10.7445 8.50233 10.9529 8.95348 11.1265C9.40462 11.3348 9.89047 11.439 10.3763 11.5085C10.9316 11.5779 11.4868 11.5779 12.0421 11.4737C12.5279 11.3696 12.9791 11.2654 13.4302 11.0918C13.7425 10.9529 14.0549 10.814 14.3325 10.6056C14.5407 10.4667 14.6448 10.432 14.853 10.5709C15.2695 10.8487 15.6859 11.1612 16.0329 11.4737C16.2759 11.7168 16.5188 11.9599 16.727 12.203C17.1087 12.6544 17.4211 13.1753 17.664 13.7309C17.8028 14.0087 17.9069 14.3212 18.011 14.599C18.1845 15.1546 18.2887 15.7449 18.3234 16.3353C18.3581 17.2381 18.3234 18.1063 18.3234 19.0091C18.3234 19.1133 18.2887 19.1133 18.2192 19.1133C17.8722 19.1133 17.5252 19.1133 17.1781 19.1133C12.8055 19.1133 8.43293 19.1133 4.06031 19.1133C3.9562 19.1133 3.95621 19.0786 3.95621 18.9744C3.95621 18.141 3.95621 17.3076 3.95621 16.4742C3.95621 16.2658 3.81739 16.0922 3.64387 16.0922C3.43565 16.0922 3.33154 16.2311 3.33154 16.4742C3.33154 17.4465 3.33154 18.3841 3.33154 19.3564C3.33154 19.5995 3.50506 19.7036 3.71328 19.7036C8.67585 19.7036 13.6037 19.7036 18.5663 19.7036C18.7745 19.7036 18.9133 19.6689 19.0174 19.4606C19.0174 18.3493 19.0174 17.2729 19.0174 16.1617C18.9827 16.2311 18.9827 16.2311 18.9827 16.1964ZM11.2439 10.9529C8.25941 10.9529 6.0384 8.55681 6.0731 5.74406C6.0731 2.89658 8.46763 0.431091 11.5215 0.604718C14.1937 0.743619 16.4147 2.96603 16.4147 5.74406C16.38 8.76516 13.9508 10.9529 11.2439 10.9529Z" fill="#AEB111"/>
<path d="M0.3123 11.7168H6.28126C6.42007 11.7168 6.55889 11.6126 6.55889 11.439C6.55889 11.2653 6.45477 11.1611 6.28126 11.1611H0.3123C0.173487 11.1611 0.034668 11.2653 0.034668 11.439C0.034668 11.6126 0.173487 11.7168 0.3123 11.7168Z" fill="#AEB111"/>
<path d="M0.3123 13.0014H5.37897C5.51778 13.0014 5.6566 12.8972 5.6566 12.7236C5.6566 12.55 5.55249 12.4458 5.37897 12.4458H0.3123C0.173487 12.4458 0.034668 12.55 0.034668 12.7236C0.034668 12.8972 0.173487 13.0014 0.3123 13.0014Z" fill="#AEB111"/>
<path d="M4.65025 14.0781C4.65025 13.9392 4.54613 13.8003 4.37261 13.8003H0.277633C0.138819 13.8003 0 13.9045 0 14.0781C0 14.2517 0.104116 14.3559 0.277633 14.3559H4.40732C4.54613 14.3212 4.65025 14.217 4.65025 14.0781Z" fill="#AEB111"/>
</svg>
