<svg width="20" height="20" viewBox="0 0 20 20" fill="none" xmlns="http://www.w3.org/2000/svg">
<path d="M18.9832 16.1964C19.0179 15.9533 18.9485 15.7102 18.9138 15.5019C18.8444 15.1199 18.775 14.7726 18.6362 14.3907C18.4627 13.9045 18.2891 13.4184 18.0115 12.9669C17.7686 12.5502 17.5257 12.1683 17.2133 11.7863C16.6581 11.0918 15.9987 10.5362 15.2353 10.05C15.1658 10.0153 15.1311 9.98055 15.2005 9.9111C15.5476 9.56384 15.8599 9.18187 16.1375 8.73044C16.3458 8.34846 16.5193 7.96649 16.6581 7.58451C16.8316 7.06363 16.901 6.54275 16.9357 6.02187C16.9704 5.53571 16.901 5.01483 16.7969 4.52867C16.6928 3.97307 16.4499 3.41747 16.1722 2.93132C15.9987 2.65352 15.8252 2.37571 15.617 2.13263C15.27 1.71593 14.8882 1.33395 14.4371 1.02143C13.9512 0.708898 13.4307 0.431091 12.8754 0.257465C12.4243 0.118563 11.9731 0.0491086 11.522 0.0143833C11.1403 -0.0203421 10.7585 0.0143854 10.3768 0.0491107C9.92565 0.118561 9.47451 0.222737 9.05807 0.396364C8.50282 0.604716 7.98227 0.917245 7.49642 1.29922C7.07998 1.64648 6.69825 2.02845 6.38592 2.47988C6.10829 2.86186 5.90007 3.27857 5.72655 3.73C5.51833 4.25087 5.37952 4.77176 5.34482 5.32736C5.31012 5.74407 5.31012 6.16076 5.37952 6.61219C5.48363 7.13307 5.58774 7.65396 5.83067 8.14011C6.03888 8.55682 6.2471 8.97352 6.52473 9.32077C6.69825 9.56385 6.90647 9.80693 7.14939 10.0153C7.2188 10.05 7.18409 10.0847 7.14939 10.1194C7.04528 10.2236 6.90647 10.2931 6.80236 10.3973C6.73295 10.5014 6.73295 10.6056 6.80236 10.7098C6.90647 10.814 7.01058 10.8834 7.11469 10.8487C7.2882 10.7792 7.46172 10.6403 7.60053 10.5014C7.63524 10.4667 7.66994 10.432 7.73935 10.4667C8.12108 10.7445 8.50282 10.9529 8.95396 11.1265C9.4051 11.3348 9.89095 11.439 10.3768 11.5085C10.932 11.5779 11.4873 11.5779 12.0425 11.4737C12.5284 11.3696 12.9795 11.2654 13.4307 11.0918C13.743 10.9529 14.0553 10.814 14.333 10.6056C14.5412 10.4667 14.6453 10.432 14.8535 10.5709C15.27 10.8487 15.6864 11.1612 16.0334 11.4737C16.2763 11.7168 16.5193 11.9599 16.7275 12.203C17.1092 12.6544 17.4216 13.1753 17.6645 13.7309C17.8033 14.0087 17.9074 14.3212 18.0115 14.599C18.185 15.1546 18.2891 15.7449 18.3238 16.3353C18.3585 17.2381 18.3238 18.1063 18.3238 19.0091C18.3238 19.1133 18.2891 19.1133 18.2197 19.1133C17.8727 19.1133 17.5257 19.1133 17.1786 19.1133C12.806 19.1133 8.43341 19.1133 4.0608 19.1133C3.95669 19.1133 3.95669 19.0786 3.95669 18.9744C3.95669 18.141 3.95669 17.3076 3.95669 16.4742C3.95669 16.2658 3.81787 16.0922 3.64436 16.0922C3.43614 16.0922 3.33203 16.2311 3.33203 16.4742C3.33203 17.4465 3.33203 18.3841 3.33203 19.3564C3.33203 19.5995 3.50554 19.7036 3.71376 19.7036C8.67633 19.7036 13.6042 19.7036 18.5668 19.7036C18.775 19.7036 18.9138 19.6689 19.0179 19.4606C19.0179 18.3493 19.0179 17.2729 19.0179 16.1617C19.0179 16.2311 18.9832 16.2311 18.9832 16.1964ZM11.2444 10.9529C8.2599 10.9529 6.03888 8.55681 6.07359 5.74406C6.07359 2.89658 8.46811 0.431091 11.522 0.604718C14.1942 0.743619 16.4152 2.96603 16.4152 5.74406C16.3805 8.76516 13.9859 10.9529 11.2444 10.9529Z" fill="#F68B0E"/>
<path d="M0.312781 11.7167H6.28174C6.42056 11.7167 6.55937 11.6126 6.55937 11.4389C6.55937 11.2653 6.45526 11.1611 6.28174 11.1611H0.312781C0.173968 11.1611 0.0351562 11.2653 0.0351562 11.4389C0.0351562 11.6126 0.173968 11.7167 0.312781 11.7167Z" fill="#F68B0E"/>
<path d="M0.312781 13.0361H5.37946C5.51827 13.0361 5.65708 12.9319 5.65708 12.7583C5.65708 12.5846 5.55297 12.4805 5.37946 12.4805H0.312781C0.173968 12.4805 0.0351562 12.5846 0.0351562 12.7583C0.0351562 12.9319 0.173968 13.0361 0.312781 13.0361Z" fill="#F68B0E"/>
<path d="M4.65024 14.0781C4.65024 13.9392 4.54613 13.8003 4.37261 13.8003H0.277627C0.138814 13.8003 0 13.9045 0 14.0781C0 14.2517 0.104111 14.3559 0.277627 14.3559H4.37261C4.54613 14.3212 4.65024 14.217 4.65024 14.0781Z" fill="#F68B0E"/>
</svg>
