<svg width="18" height="19" viewBox="0 0 18 19" fill="none" xmlns="http://www.w3.org/2000/svg">
<path d="M16.9381 1.78125C16.9381 1.5 16.8756 1.21875 16.7195 1C16.3135 0.312504 15.7513 0 14.9394 0C10.9731 0 7.00689 0 3.04066 0C2.6659 0 2.3536 0.0312519 2.0413 0.187502C1.60408 0.406252 1.29177 0.749996 1.07316 1.1875C0.94824 1.46875 0.948242 1.78125 0.948242 2.09375V2.15625C0.948242 7.125 0.948242 12.0938 0.948242 17.0938C0.948242 17.2188 0.948242 17.3438 0.948242 17.4688C0.948242 17.7188 0.948242 17.9688 0.948242 18.1875C0.948242 18.3125 1.0107 18.5 1.16685 18.6563C1.35423 18.875 1.6353 19 1.82268 19C3.79018 19 5.75768 19 7.72518 19H9.97376C10.0362 19 10.0675 19 10.1299 18.9688C10.2861 18.8438 10.3485 18.75 10.3173 18.625C10.2548 18.4375 10.1611 18.375 9.94253 18.375C7.69396 18.375 5.44538 18.375 3.19681 18.375H1.97883C1.6353 18.375 1.57285 18.3125 1.57285 17.9688V2.03125C1.57285 1.84375 1.57284 1.65625 1.66653 1.46875C1.91637 0.906254 2.3536 0.656252 2.9782 0.656252H13.5028L13.4715 0.749998C13.4715 0.781248 13.4403 0.812504 13.4403 0.843754C13.4403 0.875004 13.4091 0.937502 13.3778 0.968752C13.1592 1.28125 13.0655 1.625 13.0655 2.03125C13.0655 3.03125 13.0655 4.03125 13.0655 5V6.15625C13.0655 6.25001 13.0655 6.31251 13.0968 6.37501C13.1592 6.56251 13.2529 6.62499 13.4403 6.59374C13.6277 6.56249 13.6901 6.46874 13.6901 6.28124V5.90626C13.6901 5.68751 13.6901 5.4375 13.6901 5.21875C13.6901 5.15625 13.6901 5.125 13.6901 5.09375C13.6901 5 13.6902 4.96875 13.7214 4.90625C13.7838 4.84375 13.8463 4.84375 14.0337 4.84375H14.0649C14.4397 4.84375 14.8457 4.84375 15.2204 4.84375C15.564 4.84375 15.9387 4.84375 16.2823 4.84375C16.657 4.84375 16.9381 4.59374 16.9381 4.24999C16.9693 3.34374 16.9693 2.53125 16.9381 1.78125ZM16.2823 4.0625C16.2198 4.125 16.1573 4.125 16.0949 4.125H16.0636C15.8138 4.125 15.564 4.125 15.3141 4.125H14.6895C14.4397 4.125 14.1898 4.125 13.94 4.125C13.8775 4.125 13.7838 4.125 13.7526 4.0625C13.7214 4.03125 13.6901 3.96876 13.6901 3.87501C13.6901 3.62501 13.6901 3.375 13.6901 3.125C13.6901 2.6875 13.6901 2.25 13.6901 1.8125C13.7214 1.4375 13.8775 1.09375 14.1898 0.874996C14.5021 0.656246 14.8457 0.5625 15.2204 0.625C15.8763 0.71875 16.3447 1.28125 16.3447 2V2.59375C16.3447 3 16.3447 3.43751 16.3447 3.87501C16.3759 3.93751 16.3447 4.03125 16.2823 4.0625Z" fill="#AEB111"/>
<path d="M13.4409 9.75H13.4097C12.1917 9.75 11.005 10.25 10.1305 11.125C9.25608 12 8.78762 13.1563 8.81885 14.3438V14.4062C8.81885 16.8437 10.7864 18.9063 13.2535 18.9688C13.2848 18.9688 13.3472 18.9688 13.3785 18.9688C14.5964 18.9688 15.7207 18.5 16.5952 17.6875C17.5008 16.8125 18.0005 15.6562 18.0005 14.375C18.0318 11.8437 15.9706 9.75 13.4409 9.75ZM16.2204 17.1563C15.4709 17.9063 14.4715 18.3438 13.4097 18.3438H13.3785C12.3166 18.3438 11.3485 17.9375 10.599 17.1875C9.84945 16.4375 9.44345 15.4375 9.44345 14.375C9.44345 12.1562 11.1923 10.4062 13.4097 10.4062C15.627 10.4062 17.4071 12.1562 17.4071 14.375C17.4071 15.375 16.9699 16.4063 16.2204 17.1563Z" fill="#AEB111"/>
<path d="M6.44517 5.40654C6.44517 5.71904 6.47639 6.03154 6.41393 6.34404C6.35147 6.68779 5.82056 7.1253 5.47703 7.09405C5.35211 7.0628 5.25842 7.09405 5.19596 7.15655C5.1335 7.21905 5.10226 7.31279 5.10226 7.43779C5.10226 7.56279 5.07104 7.68779 5.00858 7.75029C4.94612 7.81279 4.88365 7.84404 4.82119 7.84404C4.75873 7.84404 4.66504 7.8128 4.60258 7.71905C4.54012 7.6253 4.50889 7.53154 4.50889 7.43779C4.50889 7.31279 4.50889 7.21905 4.44643 7.15655C4.38397 7.09405 4.29028 7.09405 4.19659 7.09405H4.1029C3.88429 7.09405 3.63445 6.96904 3.41584 6.75029C3.22845 6.56279 3.13477 6.31279 3.13477 6.12529C3.13477 6.06279 3.13477 5.96905 3.13477 5.90655C3.13477 5.8753 3.13477 5.84404 3.13477 5.78154C3.13477 5.56279 3.22845 5.4378 3.41584 5.4378H3.44707C3.60322 5.4378 3.75937 5.59404 3.7906 5.78154C3.7906 5.84404 3.7906 5.87529 3.7906 5.93779C3.7906 6.00029 3.7906 6.06279 3.7906 6.12529C3.82183 6.34404 3.94674 6.4378 4.13413 6.46905C4.54012 6.46905 4.97734 6.46905 5.41456 6.46905C5.63318 6.46905 5.78933 6.3128 5.78933 6.0628C5.78933 5.8753 5.78933 5.65654 5.78933 5.46904C5.7581 5.21904 5.60195 5.0628 5.32088 5.0628C5.19596 5.0628 5.03981 5.0628 4.88366 5.0628H4.69627C4.60258 5.0628 4.5089 5.0628 4.4152 5.0628C4.16536 5.0628 3.94675 5.06279 3.6969 4.93779C3.32214 4.71904 3.13477 4.43779 3.13477 4.06279C3.13477 3.93779 3.13477 3.8128 3.13477 3.71905C3.13477 3.59405 3.13477 3.46905 3.13477 3.34405C3.13477 2.8128 3.63445 2.37528 4.1029 2.37528C4.25905 2.37528 4.35274 2.34404 4.4152 2.28154C4.47766 2.21904 4.47766 2.09404 4.47766 2.00029C4.44643 1.84404 4.57135 1.71904 4.69627 1.65654C4.78996 1.59404 4.88366 1.62529 5.00858 1.71904C5.10227 1.78154 5.10226 1.90654 5.10226 2.03154V2.06279C5.10226 2.15654 5.10227 2.2503 5.16473 2.3128C5.19596 2.34405 5.25842 2.37528 5.35211 2.37528H5.38333C5.82055 2.37528 6.35147 2.75029 6.41393 3.28154C6.41393 3.43779 6.44516 3.62529 6.41393 3.75029C6.41393 3.84404 6.3827 3.90655 6.32024 3.96905C6.25778 4.0003 6.16409 4.03155 6.0704 4.03155C5.88302 4.03155 5.78933 3.90655 5.78933 3.71905C5.82056 3.40655 5.7581 3.25029 5.66441 3.12529C5.53949 3.00029 5.32087 3.00029 5.07103 3.00029C4.91488 3.00029 4.78996 3.00029 4.63381 3.00029H4.22782C3.91552 3.00029 3.75937 3.15654 3.75937 3.46904C3.75937 3.65654 3.75937 3.84405 3.75937 4.03155C3.75937 4.3128 3.88429 4.4378 4.16536 4.4378H4.29028C4.63381 4.4378 4.97734 4.4378 5.28965 4.4378C5.72687 4.4378 6.32024 4.81279 6.35147 5.40654H6.44517Z" fill="#AEB111"/>
<path d="M17.6249 7.59375C17.1252 8.09375 16.6256 8.62501 16.0946 9.12501C16.001 9.21876 15.9073 9.25 15.8136 9.25C15.7511 9.25 15.6574 9.21875 15.6262 9.15625C15.4388 8.96875 15.5637 8.78126 15.6574 8.65626C15.8448 8.46876 16.0322 8.28127 16.2508 8.09377L16.5319 7.81251L16.4694 7.65626H16.0946C15.6574 7.65626 15.2202 7.65626 14.783 7.65626C13.7524 7.65626 12.6593 7.65626 11.5975 7.65626H11.535C11.1915 7.65626 10.848 7.78126 10.6294 8.03126C10.4108 8.25001 10.2858 8.59376 10.2858 8.90626C10.2858 9.15626 10.2858 9.37501 10.2858 9.625V9.84376C10.2858 10 10.2234 10.125 10.0672 10.1875C9.9423 10.25 9.81738 10.2188 9.72369 10.0938C9.66123 10.0313 9.63 9.93752 9.63 9.81252C9.63 9.68752 9.63 9.56251 9.63 9.43751C9.63 9.09376 9.59877 8.75002 9.69246 8.40627C9.78615 7.93752 10.036 7.59377 10.4732 7.31252C10.7543 7.12502 11.0978 7.03126 11.535 7.03126H11.5663C12.8467 7.03126 14.1584 7.03126 15.4388 7.03126H16.282H16.3132C16.3757 7.03126 16.4382 7.03125 16.5006 6.96875L16.5319 6.93751L16.5006 6.90625C16.4069 6.8125 16.282 6.6875 16.1883 6.59375C16.0009 6.4375 15.8448 6.25002 15.6574 6.06252C15.4076 5.81252 15.5013 5.65625 15.595 5.5625C15.6574 5.53125 15.6887 5.5 15.7823 5.5C15.876 5.5 16.001 5.5625 16.0946 5.65625L16.1883 5.75002C16.6568 6.21877 17.1252 6.68752 17.5937 7.15627C17.7186 7.28127 17.7186 7.5 17.6249 7.59375Z" fill="#AEB111"/>
<path d="M8.6936 8.87501C8.6936 9.06251 8.53744 9.18751 8.35006 9.18751H5.85165H5.03967C4.4463 9.18751 3.85292 9.18751 3.25955 9.18751C3.04094 9.18751 2.91602 9.09376 2.91602 8.87501C2.91602 8.78126 2.94725 8.6875 3.00971 8.625C3.07217 8.5625 3.16586 8.53125 3.29078 8.53125C4.97721 8.53125 6.69487 8.53125 8.3813 8.53125C8.47499 8.53125 8.56868 8.56251 8.63114 8.65626C8.66237 8.71876 8.6936 8.78126 8.6936 8.87501Z" fill="#AEB111"/>
<path d="M8.66237 11.313C8.59991 11.4692 8.475 11.5317 8.31885 11.5317H5.82043H5.03968C4.44631 11.5317 3.85293 11.5317 3.25955 11.5317C3.1034 11.5317 2.97848 11.5005 2.94725 11.4067C2.88479 11.313 2.88479 11.188 2.91602 11.0942C2.97848 10.938 3.07217 10.9067 3.25955 10.9067C3.79047 10.9067 4.32138 10.9067 4.8523 10.9067H8.25638C8.3813 10.9067 8.47499 10.9067 8.56868 11.0005C8.6936 11.1255 8.72483 11.2192 8.66237 11.313Z" fill="#AEB111"/>
<path d="M7.94408 13.625C7.94408 13.8125 7.81915 13.9063 7.60054 13.9063H5.35197C5.16459 13.9063 5.00844 13.9063 4.82106 13.9063C4.32138 13.9063 3.79046 13.9063 3.25955 13.9063C3.1034 13.9063 2.91602 13.8125 2.91602 13.5938C2.91602 13.5 2.94725 13.4375 3.00971 13.375C3.07217 13.3125 3.16586 13.2812 3.25955 13.2812C4.00907 13.2812 4.7586 13.2812 5.50813 13.2812C6.19519 13.2812 6.91348 13.2812 7.60054 13.2812C7.72546 13.2812 7.78793 13.3125 7.85039 13.375C7.91285 13.4375 7.94408 13.5 7.94408 13.625Z" fill="#AEB111"/>
<path d="M7.94408 15.9375C7.94408 16.0625 7.91285 16.1563 7.88162 16.1875C7.81916 16.25 7.7567 16.25 7.60055 16.25C7.06963 16.25 6.56995 16.25 6.03904 16.25H5.41443C5.19582 16.25 4.97721 16.25 4.78983 16.25C4.29015 16.25 3.75924 16.25 3.22832 16.25C3.1034 16.25 3.00971 16.2188 2.94725 16.125C2.88479 16.0313 2.88479 15.9063 2.91602 15.8125C2.97848 15.6875 3.07217 15.6562 3.25955 15.6562H6.4138C6.78857 15.6562 7.16332 15.6562 7.56931 15.6562C7.78793 15.6562 7.94408 15.7813 7.94408 15.9375Z" fill="#AEB111"/>
<path d="M12.0976 3.6876C12.0976 3.78135 12.0664 3.84385 12.0351 3.90635C11.9727 3.96885 11.879 4.0001 11.7541 4.0001C11.2544 4.0001 10.7547 4.0001 10.2862 4.0001H9.7241H9.13072C8.66227 4.0001 8.19381 4.0001 7.72536 4.0001C7.53798 4.0001 7.38184 3.87511 7.38184 3.71886C7.38184 3.65636 7.41306 3.5626 7.47552 3.5001C7.53798 3.4376 7.63167 3.3751 7.72536 3.3751H9.7241C10.4112 3.3751 11.1295 3.3751 11.8165 3.3751C11.9414 3.34385 12.0664 3.5001 12.0976 3.6876Z" fill="#AEB111"/>
<path d="M12.0351 6.18798C11.9726 6.31298 11.8789 6.34423 11.7228 6.34423H7.72532C7.47548 6.34423 7.31934 6.21924 7.31934 6.06299C7.31934 6.00049 7.35056 5.93798 7.41302 5.87548C7.50671 5.78173 7.63163 5.75049 7.72532 5.75049C8.66223 5.75049 9.59914 5.75049 10.5048 5.75049H11.6916C11.8477 5.75049 11.9726 5.81299 12.0351 5.90674C12.0976 5.96924 12.0976 6.06298 12.0351 6.18798Z" fill="#AEB111"/>
<path d="M15.7835 14.3125C15.7835 14.375 15.7834 14.4688 15.721 14.5313C15.6585 14.5938 15.5961 14.625 15.5336 14.625C14.7841 14.625 14.0658 14.625 13.3787 14.625C13.1601 14.625 13.0977 14.4375 13.0977 14.25C13.0977 13.9063 13.0977 13.5625 13.0977 13.2188V12.8438V12.3438C13.0977 12 13.0977 11.625 13.0977 11.25C13.0977 11.0625 13.1913 10.9375 13.3475 10.9063C13.4724 10.875 13.5973 10.9063 13.7223 11.0313C13.7535 11.0625 13.7535 11.0938 13.7535 11.1563C13.7535 11.1875 13.7535 11.1875 13.7535 11.2188V11.4063C13.7535 12.1563 13.7535 12.9375 13.7535 13.7188C13.7535 13.8125 13.7535 13.875 13.8159 13.9375C13.8784 14 13.9721 14 14.0346 14C14.2532 14 14.4718 14 14.6904 14C14.9715 14 15.2213 14 15.5024 14C15.6898 14.0313 15.7522 14.1875 15.7835 14.3125Z" fill="#AEB111"/>
</svg>
