<svg width="17" height="19" viewBox="0 0 17 19" fill="none" xmlns="http://www.w3.org/2000/svg">
<path d="M16.137 15.2791C15.7206 15.0708 15.3735 14.7235 15.0612 14.2027C14.7142 13.6471 14.4713 12.9873 14.2977 12.1191C14.1242 11.3552 14.0548 10.5565 14.0895 9.72309C14.0895 9.06331 14.0895 8.36881 14.0895 7.67431C14.0548 5.86859 13.3261 4.37539 11.9032 3.19473C11.5215 2.8822 11.105 2.60441 10.6192 2.39605C10.4457 2.3266 10.411 2.15298 10.3763 2.0488C10.3069 1.21539 9.89043 0.590343 9.12696 0.208365C8.95344 0.138914 8.77992 0.0694633 8.5717 0.034738C8.537 0.034738 8.5023 0.0347253 8.4676 0H8.01646L7.91234 0.034738C7.84293 0.0694633 7.73883 0.0694464 7.63472 0.104172C6.76714 0.381974 6.17718 1.11121 6.07307 2.01406C6.07307 2.11824 6.03836 2.29187 5.83014 2.36132C4.54612 2.95165 3.57444 3.88923 2.94978 5.13934C2.56804 5.9033 2.35982 6.70199 2.35982 7.5354C2.35982 8.29935 2.35982 9.06331 2.35982 9.862C2.35982 10.3829 2.32512 10.9732 2.25571 11.5288C2.1516 12.2928 1.97809 12.8831 1.76987 13.4387C1.52695 13.9943 1.28402 14.4457 0.971687 14.793C0.728764 15.0708 0.416439 15.2444 0.173516 15.3833C0.0694065 15.4528 0 15.5917 0 15.7306C0.0347033 15.9042 0.173518 16.0431 0.381738 16.0431C1.42284 16.0431 2.42923 16.0431 3.47033 16.0431H5.27489C5.3443 16.0431 5.55253 16.0431 5.58723 16.2862C5.83015 17.4321 6.83654 18.3697 7.94705 18.4392C8.36349 18.4739 8.71052 18.4391 9.02285 18.3002C9.95984 17.953 10.5498 17.2932 10.7927 16.2862C10.8274 16.0778 10.9662 16.0084 11.1398 16.0084C12.2503 16.0084 13.3608 16.0084 14.4366 16.0084H16.0329C16.137 16.0084 16.2064 15.9736 16.2758 15.9042C16.3452 15.8695 16.3452 15.7653 16.4146 15.6958V15.6264C16.4493 15.4875 16.3452 15.3833 16.137 15.2791ZM6.90595 1.66681C7.07946 1.21538 7.39179 0.937579 7.87764 0.798678C8.537 0.590326 9.26577 0.937596 9.5781 1.59738C9.61281 1.6321 9.6128 1.70154 9.6128 1.73627C9.6475 1.87517 9.5781 1.94462 9.5434 1.97935L9.47399 2.0488L9.36988 2.01406C8.95344 1.90989 8.5717 1.90989 8.25937 1.90989C8.18997 1.90989 8.12056 1.90989 8.05115 1.90989C7.77353 1.90989 7.4959 1.94461 7.18357 2.01406C7.14887 2.01406 7.01006 2.04881 6.94065 1.94463C6.83654 1.80573 6.90595 1.70154 6.90595 1.66681ZM2.91507 12.0844C3.12329 11.1121 3.12329 10.1051 3.08859 9.13275V8.75078C3.08859 8.40353 3.08859 8.02156 3.08859 7.67431C3.12329 5.97277 3.85206 4.58374 5.20549 3.5767C5.79545 3.12527 6.48951 2.81275 7.25298 2.67385C7.84294 2.56968 8.46759 2.56968 9.09225 2.67385C10.0986 2.84748 11.0009 3.29892 11.7644 4.02815C12.5279 4.75738 13.0137 5.62551 13.2219 6.63255C13.3261 7.01452 13.3608 7.43122 13.3608 7.88265C13.3608 8.29935 13.3608 8.68133 13.3608 9.09803C13.3608 9.58419 13.3608 10.0703 13.3608 10.5565C13.3608 11.1121 13.4649 11.6677 13.5343 12.0844C13.569 12.2233 13.569 12.3275 13.4996 12.3969C13.4302 12.4664 13.3261 12.4664 13.2219 12.4664H3.19269C3.15799 12.4664 3.158 12.4664 3.12329 12.4664C3.05389 12.4664 2.98448 12.4664 2.91507 12.3969C2.88037 12.2928 2.91507 12.1539 2.91507 12.0844ZM10.0987 16.4251C9.85573 17.1196 9.16166 17.6752 8.39818 17.7446C8.32878 17.7446 8.29408 17.7446 8.22467 17.7446C7.32238 17.7446 6.62832 17.0849 6.3854 16.3904C6.3854 16.3556 6.31599 16.2167 6.3854 16.1473C6.45481 16.0431 6.55892 16.0431 6.62833 16.0431H9.82102C9.92513 16.0431 9.99454 16.0431 10.0639 16.1473C10.1681 16.2167 10.1334 16.3209 10.0987 16.4251ZM14.6795 15.3139C14.6101 15.3486 14.5754 15.3486 14.5407 15.3486H14.506H2.0822C2.04749 15.3486 2.04749 15.3486 2.01279 15.3486C1.90868 15.3486 1.83928 15.3139 1.76987 15.2444C1.73517 15.2097 1.70045 15.0708 1.80456 14.9666C2.11689 14.5152 2.39453 14.029 2.60275 13.404C2.63745 13.2651 2.74156 13.1956 2.91507 13.1956C6.48951 13.1956 10.0639 13.1956 13.6384 13.1956C13.7078 13.1956 13.8813 13.1956 13.916 13.3692C14.1242 14.029 14.4019 14.5499 14.7489 15.0013L14.7836 15.0361L14.8183 15.2444L14.6795 15.3139ZM7.21828 1.80572C7.21828 1.80572 7.18358 1.80572 7.14888 1.80572H7.21828Z" fill="#14B111"/>
<path d="M7.07959 1.771C7.07959 1.80572 7.07959 1.84044 7.149 1.80571H7.1837L7.07959 1.771ZM7.07959 1.771C7.07959 1.80572 7.07959 1.84044 7.149 1.80571H7.1837L7.07959 1.771ZM7.07959 1.771C7.07959 1.80572 7.07959 1.84044 7.149 1.80571H7.1837L7.07959 1.771Z" fill="white"/>
<path d="M8.60643 4.0627C8.60643 4.23633 8.46761 4.40996 8.25939 4.40996C7.01008 4.44468 6.07309 5.00029 5.44843 6.04205C5.1708 6.52821 5.03199 7.04908 5.03199 7.63941C5.03199 7.84776 4.89318 7.98667 4.68496 8.0214C4.58085 8.0214 4.37263 7.98666 4.30322 7.74358C4.30322 7.70885 4.30322 7.67414 4.30322 7.60469C4.30322 7.53524 4.30322 7.50051 4.30322 7.43106C4.33793 6.63238 4.61555 5.90315 5.10139 5.24337C5.72605 4.44469 6.55893 3.9238 7.56533 3.71545C7.77355 3.68073 7.98177 3.646 8.25939 3.646C8.43291 3.68072 8.60643 3.85435 8.60643 4.0627Z" fill="#14B111"/>
</svg>
