<svg width="26" height="29" viewBox="0 0 26 29" fill="none" xmlns="http://www.w3.org/2000/svg">
<path d="M0.0791282 13.9262C0.0791282 10.2073 0.0791282 6.52793 0.0791282 2.80899C0.0791282 2.13641 0.197818 2.01772 0.870392 2.01772C2.65073 2.01772 4.43108 2.01772 6.21142 2.01772C6.56749 2.01772 6.76531 1.89904 6.80487 1.54297C6.84443 1.22646 6.96312 0.949519 6.92356 0.633013C6.88399 0.197818 7.12137 0 7.47744 0C9.05997 0 10.6029 0 12.1855 0C12.5811 0 12.7789 0.197818 12.7393 0.633013C12.7393 0.830829 12.7393 0.98908 12.7393 1.1869C12.8185 1.81991 13.0163 2.01772 13.6493 2.01772C15.3505 2.01772 17.0517 2.01772 18.7529 2.01772C19.5047 2.01772 19.5838 2.09685 19.5838 2.84855C19.5838 7.51701 19.5838 12.225 19.5838 16.8935C19.5838 17.3287 19.7025 17.4869 20.1377 17.4474C22.551 17.3682 24.9248 19.2673 25.5578 21.5224C26.0721 23.2236 25.8348 24.7666 25.0039 26.1908C24.0544 27.7734 22.6301 28.7229 20.6915 28.9603C19.2673 29.1185 17.9617 28.802 16.8144 28.0503C16.1022 27.6151 15.5088 26.9821 15.0736 26.27C14.8758 25.9534 14.6779 25.8743 14.3614 25.8743C9.8908 25.8743 5.42016 25.8743 0.949517 25.8743C0.11869 25.8743 0 25.7556 0 24.9248C0.0791264 21.2454 0.0791282 17.6056 0.0791282 13.9262ZM3.04637 13.135C3.04637 16.2209 3.04637 19.3068 3.04637 22.4323C3.04637 22.7884 3.08593 22.9466 3.52112 22.9466C6.96312 22.9466 10.4051 22.9466 13.8471 22.9466C14.1241 22.9466 14.2427 22.9071 14.2823 22.551C14.4801 21.0872 15.1131 19.7816 16.3 18.8321C16.5374 18.6343 16.6561 18.4364 16.6561 18.0804C16.6561 13.3328 16.6561 8.62477 16.6561 3.87719C16.6561 3.48156 16.577 3.36287 16.1418 3.36287C14.7175 3.40243 13.2932 3.52113 11.869 3.60025C9.93036 3.71894 7.87307 3.79807 5.89491 3.40244C5.18278 3.24418 4.39151 3.40243 3.60025 3.36287C3.16505 3.32331 3.04637 3.442 3.04637 3.91676C3.08593 6.96312 3.04637 10.0491 3.04637 13.135ZM14.6779 25.2809C14.4406 24.8061 14.3219 24.3314 14.3219 23.8962C14.3219 23.4214 14.1241 23.4214 13.768 23.4214C10.2469 23.4214 6.72574 23.4214 3.20462 23.4214C2.65073 23.4214 2.49248 23.2631 2.49248 22.7093C2.49248 16.3396 2.49248 9.96992 2.49248 3.60025C2.49248 3.08593 2.72986 2.84855 3.24418 2.84855C4.15414 2.84855 5.06409 2.84855 5.97404 2.84855C6.13229 2.84855 6.40924 2.96724 6.40924 2.6903C6.40924 2.41336 6.13229 2.53205 5.97404 2.53205C4.35195 2.53205 2.72986 2.53205 1.10777 2.53205C0.712138 2.53205 0.593448 2.61117 0.593448 3.04637C0.633011 5.18278 0.63301 7.27963 0.63301 9.41604C0.63301 14.5197 0.63301 19.6629 0.63301 24.7666C0.63301 25.2017 0.712138 25.3204 1.14733 25.3204C5.49928 25.2809 9.85123 25.3204 14.2032 25.3204C14.3219 25.2809 14.4801 25.2809 14.6779 25.2809ZM20.019 28.4855C23.0258 28.6042 25.3996 26.0721 25.36 23.2236C25.3204 20.1377 22.9862 18.1199 20.4146 17.9617C17.1704 17.7639 14.7966 20.3355 14.7966 23.2236C14.7966 26.1117 17.1309 28.5646 20.019 28.4855ZM19.109 10.0886C19.1486 10.0886 19.1486 10.0886 19.109 10.0886C19.109 7.71482 19.109 5.34103 19.1486 3.0068C19.1486 2.65074 19.0695 2.57161 18.7134 2.57161C17.0517 2.57161 15.3901 2.57161 13.768 2.57161C13.6097 2.57161 13.3328 2.45292 13.3328 2.72986C13.3328 2.96724 13.6097 2.84855 13.768 2.88811C14.6384 2.88811 15.4692 2.88811 16.3396 2.88811C17.0913 2.88811 17.2495 3.04637 17.2495 3.83763C17.2495 8.18958 17.2495 12.502 17.2495 16.8539C17.2495 17.21 17.2495 17.5661 17.2495 17.8826C17.2495 18.1199 17.3287 18.1595 17.5265 18.0408C17.9221 17.843 18.3178 17.6847 18.7529 17.6452C19.109 17.6056 19.1486 17.4474 19.1486 17.1309C19.109 14.7571 19.109 12.4228 19.109 10.0886ZM9.85123 3.16505C10.6425 3.16505 11.4338 3.16505 12.225 3.16505C12.8185 3.16505 12.858 3.08593 12.6998 2.53205C12.5415 1.9386 12.225 1.38471 12.3041 0.712138C12.3437 0.514323 12.2646 0.435197 12.0668 0.435197C10.6425 0.435197 9.21822 0.435197 7.79395 0.435197C7.6357 0.435197 7.517 0.474763 7.517 0.672579C7.517 1.34515 7.2005 1.9386 7.04225 2.57161C6.92356 3.0068 7.08181 3.12549 7.43788 3.12549C8.22914 3.16506 9.02041 3.16505 9.85123 3.16505Z" fill="#303030"/>
<path d="M6.56746 9.89109C6.05314 9.89109 5.57839 9.89109 5.06406 9.89109C4.708 9.89109 4.54974 9.73284 4.54974 9.33721C4.54974 8.62507 4.51018 7.9525 5.10363 7.43818C5.22232 7.31949 5.14319 7.16124 5.14319 7.00298C5.06406 6.40954 5.26188 5.89521 5.7762 5.57871C6.36965 5.22264 6.9631 5.30177 7.47742 5.6974C7.95218 6.05347 8.07087 6.56778 7.99174 7.12167C7.95218 7.35905 7.99174 7.47774 8.11043 7.63599C8.58519 8.18988 8.62475 8.82289 8.58519 9.49546C8.54562 9.81197 8.34781 9.93066 8.0313 9.93066C7.55654 9.89109 7.08178 9.89109 6.56746 9.89109ZM6.5279 9.29764C6.92353 9.29764 7.31916 9.29764 7.7148 9.29764C7.87305 9.29764 8.0313 9.29764 8.0313 9.09983C8.0313 8.82289 8.07086 8.54595 7.95217 8.26901C7.79392 7.9525 7.67523 7.83381 7.35873 8.07119C6.88397 8.42726 6.29052 8.42726 5.81577 8.07119C5.38057 7.75468 5.26188 7.99206 5.18275 8.30856C5.14319 8.46682 5.10363 8.62508 5.06406 8.78333C5.0245 9.1394 5.06406 9.33721 5.49926 9.29764C5.85533 9.25808 6.17183 9.29764 6.5279 9.29764ZM7.51698 6.84473C7.51698 6.36997 7.04222 5.85565 6.56746 5.81609C6.09271 5.77653 5.57838 6.29085 5.57838 6.7656C5.57838 7.24036 6.05314 7.75469 6.5279 7.79425C6.9631 7.83381 7.51698 7.27992 7.51698 6.84473Z" fill="#303030"/>
<path d="M11.592 15.1528C10.6425 15.1528 9.69297 15.1528 8.70389 15.1528C8.46652 15.1528 8.18958 15.1132 8.18958 14.8363C8.18958 14.5989 8.46652 14.5593 8.70389 14.5593C10.6029 14.5593 12.5415 14.5593 14.4406 14.5593C14.6779 14.5593 14.9153 14.5593 14.8758 14.8758C14.8758 15.1923 14.5988 15.1528 14.401 15.1528C13.4515 15.1528 12.502 15.1528 11.592 15.1528Z" fill="#303030"/>
<path d="M11.5524 17.922C10.6029 17.922 9.65341 17.922 8.66433 17.922C8.42695 17.922 8.18958 17.922 8.18958 17.645C8.18958 17.4077 8.46652 17.4077 8.66433 17.4077C10.5634 17.4077 12.502 17.4077 14.401 17.4077C14.5988 17.4077 14.8758 17.289 14.8758 17.645C14.8758 17.9615 14.5592 17.8824 14.3614 17.8824C13.4515 17.922 12.502 17.922 11.5524 17.922Z" fill="#303030"/>
<path d="M11.5524 12.2648C10.6029 12.2648 9.65341 12.2648 8.66433 12.2648C8.46652 12.2648 8.18958 12.2252 8.18958 12.0274C8.18958 11.7901 8.42695 11.7505 8.66433 11.7505C10.5634 11.7505 12.502 11.7505 14.401 11.7505C14.5988 11.7505 14.8362 11.7109 14.8758 11.9879C14.8758 12.3044 14.5988 12.2648 14.401 12.2648C13.4515 12.2648 12.502 12.2648 11.5524 12.2648Z" fill="#303030"/>
<path d="M10.6425 20.2166C11.3151 20.2166 11.9877 20.2166 12.6603 20.2166C12.8581 20.2166 13.0559 20.2166 13.0559 20.4539C13.0955 20.7309 12.8581 20.7704 12.6603 20.7704C11.2755 20.7704 9.9304 20.7704 8.54569 20.7704C8.34787 20.7704 8.15005 20.6913 8.15005 20.4935C8.15005 20.2561 8.38744 20.2166 8.58525 20.2166C9.29739 20.2166 9.96996 20.2166 10.6425 20.2166Z" fill="#303030"/>
<path d="M12.3437 5.81583C11.6316 5.81583 10.8799 5.81583 10.1678 5.81583C10.0095 5.81583 9.73257 5.85539 9.73257 5.61801C9.73257 5.34107 9.96996 5.34106 10.1678 5.34106C11.6316 5.34106 13.0559 5.34106 14.5197 5.34106C14.7175 5.34106 14.8758 5.38063 14.8758 5.61801C14.8758 5.85539 14.678 5.85539 14.5197 5.85539C13.8076 5.81582 13.0954 5.81583 12.3437 5.81583Z" fill="#303030"/>
<path d="M12.3833 7.00269C13.0954 7.00269 13.768 7.00269 14.4801 7.00269C14.6779 7.00269 14.9153 7.00268 14.9153 7.27963C14.9153 7.59613 14.6384 7.47744 14.4801 7.47744C13.0558 7.47744 11.6316 7.47744 10.2073 7.47744C10.049 7.47744 9.77209 7.51701 9.77209 7.27963C9.77209 7.04225 10.0095 7.00269 10.2073 7.00269C10.9194 7.00269 11.6316 7.00269 12.3833 7.00269Z" fill="#303030"/>
<path d="M12.3041 9.17862C11.592 9.17862 10.8403 9.17862 10.1281 9.17862C9.96989 9.17862 9.77207 9.17862 9.73251 8.9808C9.69295 8.74343 9.93033 8.70386 10.1281 8.70386C11.6315 8.70386 13.0954 8.70386 14.5988 8.70386C14.7966 8.70386 14.9153 8.78298 14.9153 9.02036C14.9153 9.25774 14.7175 9.21818 14.5592 9.21818C13.8075 9.17862 13.0558 9.17862 12.3041 9.17862Z" fill="#303030"/>
<path d="M5.49931 16.7351C6.05319 16.7351 6.48839 17.1703 6.44882 17.6846C6.40926 18.1989 6.01363 18.5946 5.49931 18.5946C4.94542 18.5946 4.58935 18.1989 4.58935 17.6055C4.54979 17.0912 4.90586 16.7351 5.49931 16.7351ZM5.45974 17.2494C5.1828 17.289 5.06411 17.4868 5.06411 17.7242C5.06411 17.922 5.26193 18.0803 5.45974 18.0803C5.73669 18.0803 5.9345 17.9616 5.9345 17.6846C5.9345 17.4472 5.73669 17.289 5.45974 17.2494Z" fill="#303030"/>
<path d="M5.45968 13.8863C5.93444 13.8863 6.4092 14.4006 6.4092 14.8753C6.4092 15.3501 5.85531 15.8644 5.42012 15.8644C4.9058 15.8644 4.51016 15.3897 4.51016 14.8358C4.58929 14.2423 4.98492 13.8467 5.45968 13.8863ZM5.45968 14.4401C5.2223 14.4797 5.02448 14.5984 5.02448 14.8753C5.02448 15.1127 5.18274 15.271 5.45968 15.271C5.73662 15.271 5.93444 15.1523 5.93444 14.8753C5.93444 14.5984 5.73662 14.4797 5.45968 14.4401Z" fill="#303030"/>
<path d="M4.54977 11.948C4.54977 11.4337 4.94541 11.0776 5.45973 11.0776C6.01361 11.0776 6.44881 11.5128 6.40925 12.0667C6.36968 12.581 5.93449 12.9767 5.42017 12.9767C4.90584 12.9767 4.54977 12.581 4.54977 11.948ZM5.93449 12.0272C5.85536 11.7898 5.73667 11.6315 5.49929 11.592C5.18279 11.5524 5.10366 11.7898 5.0641 11.9876C5.02453 12.225 5.22235 12.3832 5.45973 12.4228C5.69711 12.4624 5.85536 12.3041 5.93449 12.0272Z" fill="#303030"/>
<path d="M4.54977 20.494C4.54977 19.9401 4.94541 19.5444 5.45973 19.5444C5.93449 19.5444 6.44881 20.0192 6.44881 20.5335C6.44881 21.0083 5.97405 21.5226 5.49929 21.5226C5.02453 21.5226 4.54977 21.0083 4.54977 20.494ZM5.97405 20.4544C5.89492 20.217 5.73667 20.0983 5.45973 20.0983C5.22235 20.0983 5.0641 20.2566 5.0641 20.494C5.0641 20.7709 5.22235 20.9292 5.49929 20.8896C5.77623 20.8896 5.89492 20.7313 5.97405 20.4544Z" fill="#303030"/>
<path d="M17.566 20.7709C17.566 20.4939 17.6056 20.217 17.9617 20.1379C18.3177 20.0588 18.6342 19.9401 18.8716 20.2961C18.9507 20.4148 18.9903 20.3753 19.109 20.3357C19.7816 20.0983 20.1772 20.3753 20.2168 21.0874C20.2168 21.2061 20.2563 21.2061 20.3354 21.2457C21.008 21.5622 21.0871 22.0765 20.6124 22.5512C20.5333 22.6304 20.4541 22.6699 20.5728 22.7095C20.7706 22.8282 20.6124 23.1843 20.9289 23.2634C21.0871 23.3029 21.1663 23.1843 21.2058 23.0656C21.4828 22.6304 21.7993 22.5512 22.1949 22.8677C22.274 22.9469 22.3136 22.9469 22.4323 22.9073C22.6301 22.8282 22.8675 22.8282 23.0653 23.026C23.3422 23.3425 23.5005 23.6986 23.7774 24.0151C23.817 24.0546 23.817 24.2129 23.817 24.292C23.817 24.6481 23.6588 24.9646 23.6588 25.3207C23.6588 25.558 22.6301 26.3097 22.3927 26.3097C22.1949 26.3097 21.9971 26.3889 21.8784 26.1515C21.8388 26.0328 21.7597 26.0328 21.641 26.0724C21.2454 26.2306 20.8498 26.0724 20.7706 25.6767C20.7311 25.5185 20.652 25.4393 20.5333 25.3207C20.2168 25.0437 20.1772 24.6876 20.375 24.3711C20.5333 24.1338 20.4146 24.0151 20.2959 23.8568C20.1772 24.1338 19.7816 23.5403 19.6629 24.0942C19.5837 24.569 18.832 24.7272 18.476 24.3316C18.3177 24.1733 18.3177 24.0942 18.0803 24.2525C17.6847 24.4898 17.0913 24.1338 17.0913 23.659C17.0913 23.5008 17.1704 23.3821 16.8935 23.3029C16.3396 23.1447 16.2209 22.4721 16.6165 22.0369C16.6956 21.9578 16.7748 21.9578 16.7352 21.76C16.3791 21.0874 16.7352 20.6522 17.566 20.7709ZM19.0694 23.8173C19.0694 23.5008 19.4651 23.1842 19.8211 23.3425C19.9398 23.3821 20.0189 23.4216 20.0981 23.3029C20.1772 23.1842 20.0585 23.1447 19.9794 23.1051C19.7024 22.7886 19.7816 22.393 20.1772 22.1556C20.2563 22.116 20.375 22.116 20.3354 21.9578C20.2959 21.8391 20.2168 21.8391 20.0981 21.8391C19.6629 21.7995 19.4651 21.5226 19.5442 21.127C19.5837 21.0478 19.6233 20.9291 19.5442 20.85C19.4255 20.7709 19.3859 20.8896 19.3068 20.9291C18.9507 21.127 18.6342 21.127 18.3969 20.7313C18.3573 20.6522 18.3177 20.5335 18.199 20.5731C18.1199 20.6126 18.1199 20.6918 18.1199 20.7709C18.0803 21.1665 17.7638 21.4039 17.3682 21.2852C17.2891 21.2457 17.21 21.1665 17.0913 21.2852C17.0121 21.4039 17.0913 21.483 17.1704 21.5622C17.4473 21.9182 17.3682 22.2347 16.9726 22.4325C16.8935 22.4721 16.8539 22.5117 16.8539 22.5908C16.8539 22.7095 16.933 22.7095 17.0121 22.7095C17.5265 22.749 17.6847 23.026 17.566 23.5007C17.5265 23.6194 17.5265 23.6986 17.6056 23.7777C17.7638 23.8568 17.8034 23.7381 17.8825 23.659C18.1595 23.3821 18.5551 23.4612 18.7925 23.8173C18.832 23.8964 18.8716 24.0546 19.0299 24.0151C19.2277 24.0151 19.0694 23.8964 19.0694 23.8173ZM21.285 25.7163C21.6806 25.3207 22.0367 25.4394 22.3532 25.9932C22.274 25.2811 22.6301 25.1624 23.1049 25.2811C22.7884 24.8855 22.7884 24.5294 23.3027 24.292C23.0653 24.2524 22.9071 24.292 22.7884 24.0942C22.6697 23.8964 22.7488 23.7381 22.7092 23.5403C22.3136 23.7777 21.9575 23.659 21.6806 23.3029C21.641 23.8964 21.3245 24.0151 20.7706 23.8964C21.4037 24.3316 21.0871 24.6085 20.8102 24.925C21.285 24.925 21.3641 25.0833 21.285 25.7163Z" fill="#303030"/>
<path d="M9.89079 1.93885C9.53472 1.93885 9.17865 1.93885 8.86215 1.93885C8.46652 1.93885 8.18958 1.70147 8.18958 1.3454C8.18958 1.0289 8.46652 0.751953 8.86215 0.751953C9.57429 0.751953 10.2864 0.751953 10.9986 0.751953C11.3546 0.751953 11.592 0.989332 11.6316 1.3454C11.6316 1.70147 11.3546 1.89929 11.0381 1.93885C10.6029 1.97841 10.2469 1.93885 9.89079 1.93885ZM8.74346 1.26628C8.74346 1.30584 8.74346 1.3454 8.74346 1.42453C9.49516 1.46409 10.2073 1.46409 10.959 1.42453C10.959 1.38496 10.959 1.30584 10.959 1.26628C10.2469 1.26628 9.49516 1.26628 8.74346 1.26628Z" fill="#303030"/>
<path d="M18.5947 21.5225C19.109 21.5225 19.4255 21.839 19.4255 22.3137C19.4255 22.7885 19.0299 23.1841 18.5552 23.1841C18.12 23.1841 17.7243 22.7094 17.7243 22.2742C17.7639 21.8785 18.1595 21.5225 18.5947 21.5225ZM18.5156 21.9972C18.3573 21.9972 18.2387 22.1555 18.2782 22.3533C18.2782 22.5511 18.476 22.6698 18.6739 22.6302C18.8717 22.5907 18.9904 22.5115 18.9508 22.3137C18.9508 22.0763 18.8321 21.9972 18.5156 21.9972Z" fill="#303030"/>
<path d="M21.3245 24.529C21.3641 24.0938 21.6015 23.896 22.0367 23.896C22.4323 23.9356 22.7092 24.2521 22.7092 24.6081C22.6697 24.9642 22.274 25.3203 21.918 25.2807C21.5619 25.2411 21.3245 24.9246 21.3245 24.529Z" fill="#303030"/>
</svg>
