<svg width="18" height="18" viewBox="0 0 18 18" fill="none" xmlns="http://www.w3.org/2000/svg">
<path d="M14.6448 3.05582C14.5754 3.12527 14.4713 3.16001 14.3324 3.19473C14.263 3.22946 14.1936 3.22946 14.1242 3.26419C14.0201 3.29891 13.8813 3.33363 13.7772 3.36836C13.6731 3.40308 13.6037 3.40309 13.4996 3.43781C13.2219 3.54199 12.9443 3.61142 12.6667 3.68087L12.3891 3.75033C12.3197 3.78505 12.2503 3.78506 12.1114 3.71561C11.9032 3.61144 11.7991 3.40307 11.8338 3.15999C11.8685 3.02109 11.9379 2.91692 12.042 2.8822C12.0767 2.8822 12.1114 2.84747 12.1461 2.81274C12.1808 2.77802 12.2155 2.77802 12.2503 2.77802C12.3197 2.77802 12.4238 2.70857 12.4932 2.6044C12.5279 2.50022 12.5279 2.3266 12.3544 2.25715C12.1461 2.11824 11.9032 2.01406 11.6256 1.94461C11.5909 1.94461 11.5909 1.90989 11.5562 1.90989C11.5215 1.87517 11.4521 1.87516 11.4174 1.84044L11.2439 1.77098C11.0356 1.70153 10.8621 1.63208 10.6539 1.59736C9.92514 1.389 9.12696 1.31957 8.36349 1.3543C7.91234 1.38902 7.35709 1.42374 6.80184 1.56264C6.3854 1.66681 6.03837 1.80572 5.69134 1.90989C5.3443 2.04879 4.99727 2.22242 4.65024 2.43077C4.51143 2.50022 4.37261 2.60439 4.2338 2.70857L4.12969 2.77802C3.81736 2.98638 3.57444 3.19473 3.36622 3.36836C3.26211 3.43781 3.1927 3.54199 3.12329 3.61144C3.05388 3.68089 3.01918 3.75034 2.94978 3.78507C2.70685 4.02814 2.49863 4.2712 2.29042 4.54901C2.1169 4.75736 1.97809 4.96572 1.87398 5.2088L1.83927 5.27825C1.73516 5.45188 1.66575 5.6255 1.56164 5.79913C1.42283 6.07693 1.28402 6.38947 1.17991 6.73672C1.0064 7.29232 0.902282 7.74374 0.867579 8.16045V8.2299C0.832876 8.57716 0.798176 8.95913 0.832879 9.30638C0.832879 9.48001 0.867579 9.61892 0.867579 9.79254V9.93143C0.867579 10.1398 0.902283 10.3482 0.97169 10.5565C0.97169 10.6607 1.0064 10.7301 1.0064 10.8343C1.0411 11.0774 1.11051 11.3204 1.17991 11.5635L1.21461 11.633C1.28402 11.8761 1.38813 12.0844 1.52694 12.3969C1.66576 12.6747 1.76987 12.9178 1.94338 13.1956C2.0822 13.4387 2.22101 13.647 2.42923 13.8901C2.63745 14.1679 2.88037 14.4457 3.2274 14.793C3.50503 15.0708 3.85206 15.3486 4.30321 15.6611C4.44202 15.7653 4.61554 15.8695 4.75435 15.9389C5.03198 16.1126 5.2749 16.2167 5.51782 16.3209L5.58723 16.3556C5.83015 16.4598 6.03837 16.564 6.316 16.6334C6.3854 16.6334 6.45481 16.6681 6.52421 16.7029C6.76714 16.7723 7.01006 16.8418 7.25298 16.8765C7.35709 16.8765 7.4612 16.9112 7.56531 16.9112C7.63472 16.9112 7.70412 16.9459 7.80823 16.9459C8.18997 17.0154 8.537 16.9807 8.88404 16.9807C9.19637 16.9807 9.50869 16.946 9.82102 16.9112C9.92513 16.9112 10.0292 16.946 10.1334 17.0154C10.1681 17.0501 10.2028 17.1196 10.2375 17.2237L10.2722 17.2932C10.2722 17.3279 10.2722 17.3627 10.2375 17.4668C10.1681 17.6405 10.0639 17.7446 9.71691 17.7794C9.30047 17.8141 8.91874 17.8488 8.537 17.8141C8.12056 17.8141 7.70413 17.7446 7.14887 17.6752C6.73243 17.6057 6.3507 17.5015 6.00366 17.3974C5.72604 17.3279 5.379 17.189 5.03197 17.0154L4.82375 16.9112C4.68494 16.8418 4.54613 16.7723 4.40732 16.7029C4.16439 16.564 3.92147 16.4251 3.67855 16.2514L3.60914 16.2167C3.33151 16.0084 3.01918 15.7653 2.70685 15.4875C2.39452 15.175 2.0822 14.8624 1.76987 14.4457C1.59635 14.2374 1.45754 14.029 1.35343 13.8554C1.17991 13.6123 1.0411 13.3692 0.93699 13.1262C0.798177 12.8484 0.659362 12.5706 0.555252 12.258C0.381735 11.8413 0.277626 11.4941 0.208219 11.1468L0.173516 10.9732C0.10411 10.5912 -5.30047e-07 10.2092 0.0347027 9.82726C0.0347027 9.68836 0.0347033 9.54947 0 9.34112V9.30638L0.0347027 8.68133C0.0347027 8.57715 0.0347027 8.5077 0.0347027 8.43825C0.0347027 8.3688 0.0347027 8.29935 0.0347027 8.2299C0.0347027 8.12573 0.0347027 8.02154 0.0347027 7.91737C0.138813 7.39649 0.20822 6.97978 0.31233 6.63253C0.381736 6.42417 0.451142 6.21584 0.555252 5.97276L0.589957 5.9033C0.659364 5.69495 0.763469 5.4866 0.867579 5.27825C0.971689 5.0699 1.0758 4.86154 1.21461 4.61846C1.31872 4.41011 1.45754 4.23648 1.59635 4.02813L1.66576 3.92396C1.73516 3.81978 1.83927 3.7156 1.94338 3.5767C1.97809 3.54198 2.01279 3.50726 2.04749 3.47253C2.0822 3.43781 2.1516 3.36836 2.1863 3.2989C2.29041 3.16 2.42923 3.02111 2.56804 2.91693C2.67215 2.81276 2.81097 2.70857 2.91508 2.6044L2.98448 2.53494C3.08859 2.43077 3.1927 2.36132 3.29681 2.25715C3.36621 2.18769 3.47033 2.11824 3.53974 2.08352C3.64384 2.01407 3.74795 1.94463 3.81736 1.87518C3.92147 1.771 4.06028 1.70153 4.2338 1.59736C4.51143 1.42373 4.75435 1.31956 4.96257 1.21539C5.13608 1.14594 5.3443 1.04176 5.55252 0.972304C5.89955 0.833403 6.31599 0.69451 6.76714 0.590335L6.94065 0.555597C7.21828 0.486146 7.4612 0.451433 7.73883 0.416708H7.91234C8.36349 0.381983 8.81463 0.347245 9.26577 0.38197L9.5087 0.416708C9.68221 0.416708 9.85573 0.451438 10.0292 0.486163C10.3416 0.520888 10.6539 0.59033 11.0356 0.694506C11.3133 0.763957 11.6256 0.868129 11.9032 0.972304C12.2155 1.11121 12.5626 1.2501 12.8749 1.42373C13.0137 1.49318 13.1525 1.49319 13.2567 1.38901C13.3608 1.28484 13.3955 1.11121 13.2914 0.972304C13.2566 0.937579 13.2566 0.868129 13.2219 0.798678C13.1872 0.729227 13.1872 0.659785 13.1525 0.590335C13.1178 0.555609 13.1525 0.416712 13.1872 0.312536C13.2566 0.20836 13.3261 0.10418 13.4302 0.0694549C13.4649 0.0694549 13.569 0.0694506 13.6384 0C13.6731 0.0347253 13.7425 0.0347296 13.8119 0.0694549C13.9507 0.10418 14.0548 0.208356 14.1242 0.416708C14.1589 0.520884 14.1936 0.625056 14.2283 0.694506C14.263 0.798682 14.2977 0.937583 14.3672 1.04176C14.4366 1.18066 14.4713 1.31957 14.5407 1.45847C14.6101 1.59737 14.6448 1.73627 14.7142 1.87518C14.7836 2.08353 14.853 2.25715 14.8877 2.39605C14.8877 2.74331 14.8183 2.8822 14.6448 3.05582Z" fill="#14B111"/>
<path d="M11.6947 11.8416C11.6253 12.05 11.3476 12.1889 11.1741 12.1194L10.7924 11.9458C10.4453 11.8069 10.133 11.6333 9.78599 11.4944L9.61247 11.4249C9.30014 11.286 9.02251 11.1471 8.71018 11.043C8.53667 10.9735 8.36315 10.904 8.18963 10.7999C8.05082 10.7304 7.91201 10.6957 7.7732 10.6262C7.63438 10.5568 7.56498 10.4526 7.53027 10.279C7.53027 10.0706 7.53027 9.86229 7.53027 9.65394V5.66053C7.53027 5.348 7.63438 5.24384 7.7732 5.17439C7.8426 5.13966 7.91201 5.13965 7.98141 5.13965H8.01612C8.22434 5.13965 8.39785 5.348 8.43256 5.55636C8.46726 5.97306 8.43256 6.38977 8.43256 6.73703C8.43256 6.9801 8.43256 7.22317 8.43256 7.46625V7.95241C8.43256 8.50802 8.43256 8.99417 8.43256 9.4456C8.43256 9.48032 8.43256 9.51504 8.43256 9.54977C8.43256 9.58449 8.43256 9.61921 8.43256 9.65394C8.43256 9.79284 8.46726 9.86229 8.53667 9.93174C8.57137 9.96646 8.64077 10.0359 8.77959 10.0359C8.81429 10.0359 8.81429 10.0706 8.84899 10.0706C9.02251 10.1748 9.23073 10.2443 9.43895 10.3137C9.57777 10.3832 9.71658 10.4526 9.85539 10.4874C10.0636 10.5915 10.3065 10.6957 10.5148 10.7652C10.6883 10.8346 10.8618 10.904 11.0006 10.9735L11.2088 11.0777C11.3129 11.1124 11.4517 11.1819 11.5558 11.2166C11.6947 11.4249 11.7294 11.668 11.6947 11.8416Z" fill="#14B111"/>
<path d="M17.4208 9.23732C17.4208 9.30677 17.4208 9.41095 17.4208 9.4804C17.4208 9.65403 17.4208 9.86239 17.3861 10.0707C17.3514 10.2096 17.3167 10.3485 17.2126 10.418C17.1085 10.4874 16.9697 10.5222 16.8309 10.4874C16.7268 10.4527 16.5533 10.2791 16.5186 10.1055C16.5186 10.0013 16.5186 9.93185 16.5186 9.86239V9.7582C16.5533 9.44567 16.5186 9.09844 16.5186 8.82064C16.5186 8.61228 16.588 8.43865 16.7615 8.33447C16.7615 8.33447 16.7962 8.33447 16.8656 8.33447C16.9003 8.33447 16.935 8.33447 16.9697 8.33447C17.0738 8.33447 17.1432 8.3692 17.2126 8.40393C17.3167 8.5081 17.3861 8.61228 17.3861 8.82064C17.3861 8.92481 17.3861 9.06371 17.3861 9.16789L17.4208 9.23732Z" fill="#14B111"/>
<path d="M14.0547 15.9044C14.0547 16.0433 14.02 16.1475 13.8465 16.2864C13.6382 16.46 13.3953 16.5989 13.1524 16.7378C13.1177 16.7726 13.0483 16.8073 13.0136 16.842C12.8401 16.9462 12.7013 17.0156 12.5624 17.0851C12.5277 17.0851 12.4583 17.1198 12.3195 17.0504C12.1113 16.9462 12.0072 16.7031 12.0766 16.5295C12.1113 16.3906 12.2154 16.2864 12.3542 16.2517C12.5277 16.1822 12.6318 16.1128 12.7707 16.0433C12.9095 15.9392 13.0483 15.8697 13.1871 15.7655C13.2565 15.6961 13.3606 15.6614 13.43 15.5919C13.5341 15.5225 13.6035 15.5225 13.6729 15.5225C13.7423 15.5225 13.8118 15.5572 13.9159 15.5919C13.9853 15.6266 14.0547 15.7655 14.0547 15.9044Z" fill="#14B111"/>
<path d="M16.623 6.25076C16.5536 6.32021 16.4494 6.38967 16.4147 6.38967H16.3453C16.1371 6.38967 15.9636 6.2855 15.8942 6.04242C15.8248 5.86879 15.7554 5.72988 15.6513 5.55626L15.6166 5.4868C15.5819 5.38262 15.5125 5.31318 15.4777 5.209C15.4083 5.10483 15.3389 5.00064 15.3042 4.89647C15.2348 4.75756 15.2695 4.6534 15.3042 4.58395C15.3736 4.44505 15.4777 4.34088 15.6166 4.30615C15.6513 4.30615 15.686 4.30615 15.7207 4.30615C15.8595 4.30615 15.9983 4.3756 16.0677 4.47978C16.2412 4.72286 16.38 5.00065 16.5536 5.27846C16.5883 5.34791 16.623 5.41735 16.6577 5.4868C16.6924 5.59098 16.7271 5.66043 16.7965 5.72988C16.7618 5.93823 16.7618 6.14659 16.623 6.25076Z" fill="#14B111"/>
<path d="M16.6229 12.7443C16.6229 12.8138 16.5882 12.8833 16.5535 12.9874L16.5188 13.0569C16.38 13.3347 16.2412 13.5778 16.1024 13.8556L16.033 13.9597C15.9636 14.0639 15.8942 14.1681 15.8248 14.2722C15.686 14.3764 15.4777 14.4112 15.3042 14.307C15.1654 14.2028 15.0266 14.0639 15.1654 13.7166C15.2001 13.6125 15.2695 13.5083 15.3389 13.4389C15.3736 13.3694 15.443 13.2999 15.4777 13.2305C15.5818 13.0569 15.6513 12.8832 15.7554 12.7096L15.7901 12.6402C15.8595 12.5013 15.9289 12.4318 15.9636 12.3971C16.033 12.3624 16.1024 12.3276 16.2065 12.3276C16.2412 12.3276 16.2759 12.3276 16.3106 12.3276C16.5882 12.3624 16.6229 12.6402 16.6229 12.7443Z" fill="#14B111"/>
</svg>
