<svg width="15" height="17" viewBox="0 0 15 17" fill="none" xmlns="http://www.w3.org/2000/svg">
<path d="M0.0770023 4.00174C0.0770023 3.00436 0.377682 2.21233 0.979041 1.62564C1.5804 1.02428 2.35043 0.723596 3.28914 0.723596C4.22785 0.723596 4.99788 1.02428 5.59924 1.62564C6.2006 2.21233 6.50128 3.00436 6.50128 4.00174C6.50128 5.01378 6.2006 5.82048 5.59924 6.42184C4.99788 7.00853 4.22785 7.30188 3.28914 7.30188C2.35043 7.30188 1.5804 7.00853 0.979041 6.42184C0.377682 5.82048 0.0770023 5.01378 0.0770023 4.00174ZM12.9256 0.965608L4.01517 16.3223H2.03509L10.9455 0.965608H12.9256ZM3.28914 1.95565C2.79045 1.95565 2.39444 2.13166 2.10109 2.48367C1.82241 2.82102 1.68307 3.32704 1.68307 4.00174C1.68307 4.67643 1.82241 5.18979 2.10109 5.5418C2.39444 5.89382 2.79045 6.06983 3.28914 6.06983C3.78783 6.06983 4.18385 5.89382 4.47719 5.5418C4.77054 5.17512 4.91721 4.66177 4.91721 4.00174C4.91721 3.32704 4.77054 2.82102 4.47719 2.48367C4.18385 2.13166 3.78783 1.95565 3.28914 1.95565ZM8.50336 13.2861C8.50336 12.2741 8.80404 11.4747 9.4054 10.888C10.0068 10.2867 10.7768 9.98599 11.7155 9.98599C12.6542 9.98599 13.4169 10.2867 14.0036 10.888C14.605 11.4747 14.9056 12.2741 14.9056 13.2861C14.9056 14.2835 14.605 15.0829 14.0036 15.6842C13.4169 16.2856 12.6542 16.5863 11.7155 16.5863C10.7768 16.5863 10.0068 16.2929 9.4054 15.7062C8.80404 15.1049 8.50336 14.2982 8.50336 13.2861ZM11.6935 11.24C11.1948 11.24 10.7988 11.4161 10.5054 11.7681C10.2121 12.1054 10.0654 12.6114 10.0654 13.2861C10.0654 13.9462 10.2121 14.4522 10.5054 14.8042C10.7988 15.1415 11.1948 15.3102 11.6935 15.3102C12.1922 15.3102 12.5882 15.1415 12.8816 14.8042C13.1749 14.4522 13.3216 13.9462 13.3216 13.2861C13.3216 12.6114 13.1749 12.1054 12.8816 11.7681C12.5882 11.4161 12.1922 11.24 11.6935 11.24Z" fill="white"/>
</svg>
