<svg width="22" height="26" viewBox="0 0 22 26" fill="none" xmlns="http://www.w3.org/2000/svg">
<path d="M0.0508682 13.0254C0.0508682 9.56556 0.0508682 6.10567 0.0508682 2.64579C0.0508682 1.22113 1.01761 0.305283 2.03523 0.0508799C2.23875 -7.77135e-07 2.49314 0 2.69667 0C8.14089 0 13.5851 0 18.9785 0C20.5049 0 21.5734 1.27201 21.5734 2.59491C21.5734 9.51468 21.5734 16.4853 21.5734 23.4051C21.5734 24.8806 20.454 26 18.9785 26C13.5342 26 8.14089 26 2.69667 26C1.22113 26 0 24.8297 0 23.3033C0.101761 19.8943 0.0508682 16.4344 0.0508682 13.0254ZM1.01761 13.0254C1.01761 16.4853 1.01761 19.9961 1.01761 23.456C1.01761 24.3209 1.62817 25.135 2.69667 25.135C8.14089 25.135 13.5342 25.135 18.9785 25.135C19.9961 25.135 20.7084 24.4227 20.7084 23.4051C20.7084 16.4853 20.7084 9.61644 20.7084 2.69667C20.7084 1.72994 20.047 1.01761 19.0802 1.01761C13.5851 1.01761 8.14089 1.01761 2.64578 1.01761C1.72993 1.01761 1.06848 1.67906 1.06848 2.59491C1.0176 6.05479 1.01761 9.51468 1.01761 13.0254Z" fill="#303030"/>
<path d="M10.8888 16.1291C8.65007 16.0783 6.66572 15.4168 4.98666 13.8904C4.83402 13.7378 4.78314 13.636 4.83402 13.3816C5.08843 12.5166 5.3937 11.7025 5.95339 10.9393C6.46219 10.227 7.32717 9.9726 8.09038 10.3288C9.97296 11.1937 11.8555 11.1937 13.7381 10.3288C14.4505 9.9726 15.3154 10.227 15.8242 10.8884C16.4348 11.7025 16.7401 12.6184 16.9945 13.5851C17.0454 13.7378 16.9436 13.7886 16.8927 13.8395C15.6207 15.0098 14.1452 15.7221 12.4152 15.9765C11.9064 16.0783 11.3976 16.1291 10.8888 16.1291ZM10.8888 15.1624C11.0415 15.1624 11.1941 15.1624 11.3467 15.1624C11.4994 15.1624 11.652 15.1115 11.8047 15.1115C13.2293 14.9589 14.5522 14.4501 15.7225 13.5851C15.8751 13.4834 15.9769 13.3307 15.8751 13.1272C15.7225 12.5675 15.4681 12.0587 15.1628 11.6008C14.8575 11.1937 14.5013 11.092 14.0434 11.2955C13.3311 11.6008 12.6188 11.8552 11.8555 11.9061C10.4818 12.0587 9.10799 11.8552 7.83598 11.2955C7.32717 11.0411 6.971 11.1429 6.66571 11.6517C6.36043 12.1096 6.15691 12.6184 5.95339 13.1272C5.90251 13.3307 5.9534 13.4325 6.10604 13.5851C7.47982 14.6536 9.10799 15.1115 10.8888 15.1624Z" fill="#303030"/>
<path d="M14.3482 6.86906C14.399 8.70077 12.8726 10.2781 10.9392 10.3289C9.05657 10.3289 7.53014 8.90429 7.47926 6.91994C7.42838 5.03736 8.95481 3.46006 10.8883 3.40918C12.7709 3.40918 14.2973 4.9356 14.3482 6.86906ZM13.3814 6.86906C13.3814 5.44441 12.3129 4.37591 10.8883 4.37591C9.61626 4.37591 8.44599 5.39353 8.44599 6.86906C8.44599 8.24284 9.61625 9.36222 10.99 9.31134C12.3129 9.31134 13.3814 8.24284 13.3814 6.86906Z" fill="#303030"/>
<path d="M10.9908 21.5736C9.00641 21.5736 7.02207 21.5736 5.03773 21.5736C4.93596 21.5736 4.78332 21.5736 4.68156 21.5736C4.37627 21.5736 4.22363 21.37 4.22363 21.1156C4.22363 20.8612 4.42716 20.6577 4.73244 20.6577C4.8342 20.6577 4.93596 20.6577 5.03773 20.6577C9.10818 20.6577 13.1786 20.6577 17.2491 20.6577C17.4017 20.6577 17.5035 20.6577 17.6561 20.7086C17.8597 20.8104 17.9105 21.0139 17.9105 21.2174C17.8597 21.4209 17.707 21.5736 17.5035 21.5736C17.2999 21.5736 17.0964 21.5736 16.8929 21.5736C14.8068 21.5736 12.9242 21.5736 10.9908 21.5736Z" fill="#303030"/>
<path d="M8.65025 19.2332C7.37824 19.2332 6.05534 19.2332 4.78332 19.2332C4.42716 19.2332 4.22363 19.0806 4.22363 18.7753C4.22363 18.47 4.42716 18.3174 4.78332 18.3174C7.37823 18.3174 9.92226 18.3174 12.5172 18.3174C12.8733 18.3174 13.0769 18.4191 13.0769 18.7244C13.1278 19.0297 12.9242 19.2841 12.5681 19.2841C11.2452 19.2332 9.97315 19.2332 8.65025 19.2332Z" fill="#303030"/>
<path d="M15.8753 19.2332C15.4173 19.2332 14.9594 19.2332 14.5015 19.2332C14.1962 19.2332 13.9927 19.0297 13.9927 18.7753C13.9927 18.5209 14.1962 18.3174 14.5015 18.3174C15.4173 18.3174 16.3332 18.3174 17.249 18.3174C17.6052 18.3174 17.8087 18.5209 17.8087 18.8262C17.8087 19.1315 17.6052 19.2841 17.249 19.2841C16.7911 19.2332 16.3332 19.2332 15.8753 19.2332Z" fill="#303030"/>
</svg>
