<svg width="17" height="16" viewBox="0 0 17 16" fill="none" xmlns="http://www.w3.org/2000/svg">
<path d="M3.60547 3.60587C3.60547 3.31804 3.8388 3.08472 4.12662 3.08472H7.25354C7.54136 3.08472 7.77469 3.31804 7.77469 3.60587V6.73278C7.77469 7.02061 7.54136 7.25394 7.25354 7.25394H4.12662C3.8388 7.25394 3.60547 7.02061 3.60547 6.73278V3.60587Z" stroke="#040404" stroke-width="0.653881"/>
<path d="M3.60547 9.33805C3.60547 9.05022 3.8388 8.81689 4.12662 8.81689H7.25354C7.54136 8.81689 7.77469 9.05022 7.77469 9.33805V12.465C7.77469 12.7528 7.54136 12.9861 7.25354 12.9861H4.12662C3.8388 12.9861 3.60547 12.7528 3.60547 12.465V9.33805Z" stroke="#040404" stroke-width="0.653881"/>
<path d="M9.33789 3.60587C9.33789 3.31804 9.57122 3.08472 9.85904 3.08472H12.986C13.2738 3.08472 13.5071 3.31804 13.5071 3.60587V6.73278C13.5071 7.02061 13.2738 7.25394 12.986 7.25394H9.85904C9.57122 7.25394 9.33789 7.02061 9.33789 6.73278V3.60587Z" stroke="#040404" stroke-width="0.653881"/>
<path d="M12.3351 1H14.0288C15.1801 1 16.1134 1.93331 16.1134 3.08461V4.64807M4.77836 1H3.08461C1.93331 1 1 1.93331 1 3.08461V4.64807M1 11.9442V13.5077C1 14.659 1.93331 15.5923 3.08461 15.5923H4.77836M12.3351 15.5923H14.0288C15.1801 15.5923 16.1134 14.659 16.1134 13.5077V11.9442" stroke="#040404" stroke-width="0.653881"/>
<path d="M9.33789 9.33805C9.33789 9.05022 9.57122 8.81689 9.85904 8.81689H12.986C13.2738 8.81689 13.5071 9.05022 13.5071 9.33805V12.465C13.5071 12.7528 13.2738 12.9861 12.986 12.9861H9.85904C9.57122 12.9861 9.33789 12.7528 9.33789 12.465V9.33805Z" stroke="#040404" stroke-width="0.653881"/>
</svg>
