<svg width="15" height="17" viewBox="0 0 15 17" fill="none" xmlns="http://www.w3.org/2000/svg">
<path d="M14.2502 8.38781C14.1105 8.38781 14.0267 8.47169 13.9988 8.61149C13.9708 8.86312 13.9429 9.11476 13.887 9.36639C13.7752 9.8417 13.5237 10.2611 13.1046 10.6246C12.6855 11.016 12.1825 11.2397 11.6517 11.2956C11.009 11.3515 10.4502 11.2397 9.94722 10.9321C9.50015 10.6805 9.19279 10.317 8.94132 9.8417C8.80161 9.56211 8.68985 9.22659 8.6619 8.89108C8.63396 8.52761 8.66191 8.1921 8.74573 7.88455C8.91338 7.35332 9.1928 6.93393 9.61192 6.57045C9.89134 6.34678 10.2266 6.15106 10.6458 6.03923C10.9531 5.95535 11.2605 5.95535 11.5119 5.95535C11.8193 5.95535 12.1267 6.03923 12.4061 6.17902C12.5179 6.23494 12.6296 6.23494 12.6855 6.17902C12.7693 6.12311 12.8252 6.03923 12.8252 5.92739C12.8252 4.50146 12.8252 3.07553 12.8252 1.67756V0.307555C12.8252 0.111839 12.7134 0 12.5178 0H9.6678C7.37659 0 5.11332 0 2.82211 0C2.73828 0 2.65446 0.0279602 2.59857 0.083879C2.54269 0.139798 2.51475 0.223677 2.51475 0.307555C2.51475 0.419392 2.51475 0.559188 2.51475 0.671025C2.51475 0.810822 2.51475 0.95062 2.51475 1.06246C2.51475 1.11838 2.51475 1.17429 2.48681 1.20225C2.45887 1.23021 2.40298 1.23021 2.3471 1.23021C2.09562 1.23021 1.87209 1.23021 1.62062 1.23021H1.50885C1.36914 1.23021 1.25737 1.31409 1.25737 1.48185V1.62164C1.25737 1.84532 1.25737 2.09695 1.25737 2.32063C1.25737 2.34859 1.25738 2.40451 1.22943 2.46043C1.20149 2.48839 1.14561 2.48838 1.08973 2.48838C0.950018 2.48838 0.810307 2.48838 0.698541 2.48838C0.614716 2.48838 0.530891 2.48838 0.419124 2.48838H0.251477C0.223536 2.48838 0.195593 2.48838 0.167651 2.51634C0.055885 2.57226 0 2.65614 0 2.85186V15.8809C0 15.9928 0.139711 16.1326 0.251477 16.1326C2.79417 16.1326 5.33685 16.1326 7.87954 16.1326H10.0869C10.2266 16.1326 10.3105 16.0207 10.3105 15.8809V15.6852C10.3105 15.4615 10.3105 15.2379 10.3105 15.0421C10.3105 15.0142 10.3105 14.9583 10.3384 14.9023C10.3663 14.8744 10.4222 14.8744 10.4781 14.8744C10.7016 14.8744 10.9252 14.8744 11.1487 14.8744H11.2884C11.4561 14.8744 11.5678 14.7626 11.5678 14.5948V14.3991C11.5678 14.2034 11.5678 14.0076 11.5678 13.784C11.5678 13.756 11.5678 13.7001 11.5958 13.6442C11.6237 13.6162 11.6796 13.6162 11.7355 13.6162C11.959 13.6162 12.1825 13.6162 12.3781 13.6162H12.5458C12.7134 13.6162 12.7973 13.5323 12.7973 13.3646V12.9452C12.7973 12.4699 12.7973 11.9946 12.7973 11.5193C12.7973 11.4074 12.8252 11.3235 12.937 11.2676C13.2443 11.0999 13.4679 10.8482 13.6635 10.6805C13.859 10.4568 14.0267 10.2052 14.1943 9.89762C14.4179 9.42231 14.5017 8.97496 14.4738 8.55557C14.4738 8.49965 14.362 8.38781 14.2502 8.38781ZM3.0177 0.698984C3.0177 0.671025 3.0177 0.615108 3.04564 0.587149C3.07358 0.559189 3.12946 0.559188 3.1574 0.559188H3.21329H3.24123H8.29866C9.58398 0.559188 10.8414 0.559188 12.1267 0.559188C12.1826 0.559188 12.2384 0.559189 12.2664 0.615108C12.2943 0.643067 12.3223 0.698986 12.3223 0.754904C12.3223 2.23675 12.3223 3.80248 12.3223 5.39616C12.3223 5.45208 12.3223 5.508 12.2664 5.56392C12.2384 5.59188 12.2105 5.59188 12.1826 5.59188C12.1546 5.59188 12.1267 5.59188 12.0987 5.59188C11.959 5.56392 11.8193 5.53596 11.6796 5.508C11.5958 5.508 11.5399 5.45208 11.5399 5.3682C11.5399 5.20045 11.5399 5.03269 11.5399 4.86493V3.18737V1.70552C11.5399 1.48185 11.4561 1.39797 11.2325 1.39797H3.52065H3.43682C3.353 1.39797 3.26917 1.39797 3.18535 1.39797C3.12946 1.39797 3.10152 1.39797 3.07358 1.37001C3.04564 1.34205 3.04564 1.31409 3.0177 1.25817V0.698984ZM1.81621 1.87328C1.84415 1.84532 1.92797 1.81736 1.95591 1.81736C2.62651 1.81736 3.26917 1.81736 3.93977 1.81736H6.37069H6.42657H10.8414C10.9531 1.81736 10.9811 1.81736 11.0369 1.84532C11.0649 1.87328 11.0649 1.9292 11.0649 2.04104V5.28432C11.0649 5.39616 11.0369 5.45208 10.8972 5.45208C10.7575 5.48004 10.6178 5.508 10.4781 5.53596C10.4502 5.53596 10.4222 5.56392 10.3943 5.56392C10.3663 5.56392 10.3663 5.56392 10.3384 5.53596C10.2825 5.508 10.2825 5.45208 10.3105 5.42412V2.8239C10.3105 2.65614 10.2266 2.57226 10.059 2.57226H2.0118C1.90003 2.57226 1.84415 2.57226 1.81621 2.54431C1.78826 2.51635 1.78827 2.46043 1.78827 2.43247V2.23675C1.78827 2.18083 1.78827 2.09695 1.78827 2.04104C1.76033 1.98512 1.76032 1.9292 1.81621 1.87328ZM9.80751 14.427V15.2938C9.80751 15.3777 9.80751 15.4336 9.80751 15.5175C9.80751 15.5454 9.80751 15.6013 9.77957 15.6573C9.75163 15.6852 9.69575 15.6852 9.6678 15.6852C9.61192 15.6852 9.58398 15.6852 9.5281 15.6852H8.1869C5.70009 15.6852 3.21329 15.6852 0.726484 15.6852C0.670601 15.6852 0.614717 15.6852 0.586776 15.6293C0.558834 15.6013 0.530893 15.5454 0.530893 15.4895C0.530893 13.784 0.530893 12.1064 0.530893 10.4009V8.30394C0.530893 6.59841 0.530893 4.92085 0.530893 3.21533C0.530893 3.18737 0.530893 3.13145 0.586776 3.07553C0.614717 3.04757 0.670601 3.04757 0.726484 3.04757H6.23098C7.34865 3.04757 8.49426 3.04757 9.61192 3.04757C9.69575 3.04757 9.72369 3.04757 9.77957 3.10349C9.80751 3.13145 9.83545 3.21533 9.83545 3.27125C9.83545 4.13799 9.83545 4.97677 9.83545 5.70371C9.83545 5.78759 9.80751 5.87147 9.72369 5.89943C9.30456 6.15106 8.94132 6.48658 8.68985 6.90597C8.49426 7.24148 8.35455 7.54903 8.27072 7.88455C8.15896 8.35985 8.15896 8.83516 8.27072 9.28251C8.38249 9.81374 8.60602 10.2611 8.94132 10.6525C9.16485 10.9321 9.41633 11.1278 9.69574 11.2956C9.83545 11.3795 9.83545 11.4633 9.83545 11.5752C9.80751 12.5538 9.80751 13.5044 9.80751 14.427ZM11.0649 14.3152C11.0649 14.3432 11.0649 14.3991 11.0369 14.427C11.009 14.455 10.9531 14.455 10.9252 14.455C10.7575 14.455 10.6178 14.455 10.4502 14.455C10.4222 14.455 10.3663 14.455 10.3663 14.427C10.3384 14.3991 10.3384 14.3432 10.3384 14.3152V12.7495C10.3384 12.4419 10.3384 12.1623 10.3384 11.8548C10.3384 11.7989 10.3384 11.7429 10.3943 11.715C10.4222 11.687 10.4781 11.687 10.534 11.715C10.6737 11.7429 10.8134 11.7709 10.9811 11.7989C11.0928 11.8268 11.0928 11.8827 11.0928 11.9387C11.0649 12.7215 11.0649 13.5044 11.0649 14.3152ZM12.2664 13.1689C12.2384 13.1968 12.1825 13.1968 12.1546 13.1968C12.1267 13.1968 12.1267 13.1968 12.0987 13.1968C12.0149 13.1968 11.9311 13.1968 11.8193 13.1968C11.7914 13.1968 11.7634 13.1968 11.7075 13.1968C11.6796 13.1968 11.6237 13.1968 11.5678 13.1689C11.5399 13.1409 11.512 13.085 11.5399 13.0291C11.5399 12.6656 11.5399 12.2742 11.5399 11.9387C11.5399 11.8268 11.5678 11.7989 11.6796 11.7709C11.7914 11.7429 11.9031 11.7429 12.0428 11.687C12.0987 11.687 12.1546 11.6591 12.2105 11.6591L12.2943 11.6311V12.358C12.2943 12.5538 12.2943 12.7495 12.2943 12.9732C12.3223 13.057 12.3223 13.1409 12.2664 13.1689Z" fill="#1151B1"/>
<path d="M14.585 6.76653C14.5292 6.85041 14.4453 6.90633 14.3615 6.9902C14.3336 7.01816 14.2777 7.04612 14.2497 7.10204C13.9983 7.35368 13.7188 7.60531 13.4674 7.85695L13.2438 8.08062C13.0483 8.24838 12.8806 8.41613 12.685 8.58389L12.1541 9.08716C11.9585 9.25491 11.7629 9.45063 11.5953 9.61838L11.5673 9.64634C11.5115 9.70226 11.4556 9.75818 11.3438 9.75818C11.26 9.75818 11.2041 9.73022 11.1482 9.64634C10.7291 9.08716 10.3379 8.52797 9.91879 7.96878C9.83496 7.85694 9.83496 7.80103 9.83496 7.68919C9.8629 7.60531 9.91879 7.54939 10.0026 7.52143C10.0864 7.49347 10.1703 7.49347 10.2541 7.57735C10.31 7.63327 10.3379 7.68919 10.3938 7.74511C10.4217 7.77307 10.4217 7.80103 10.4497 7.82898C10.6453 8.08062 10.8129 8.33225 11.0085 8.58389C11.1203 8.72369 11.2041 8.86348 11.2879 8.97532C11.3159 9.00328 11.3438 9.0592 11.3997 9.0592C11.4556 9.0592 11.4835 9.03124 11.5394 8.97532C11.6512 8.86348 11.7629 8.75164 11.8747 8.66777C11.9306 8.61185 11.9585 8.58389 12.0144 8.52797L12.9365 7.66123C13.2438 7.38163 13.5512 7.07408 13.8865 6.79449C13.9144 6.76653 13.9703 6.71061 13.9983 6.68265C14.0821 6.59877 14.1939 6.51489 14.2777 6.43102C14.3894 6.34714 14.5012 6.3751 14.613 6.45898C14.6409 6.54285 14.6689 6.68265 14.585 6.76653Z" fill="#1151B1"/>
<path d="M7.8796 5.87203C7.82371 5.95591 7.73989 5.98387 7.60018 5.98387H5.5325H4.10748H2.26333C2.12363 5.98387 2.0398 5.95591 1.95597 5.87203C1.90009 5.78815 1.90009 5.70427 1.95597 5.59243C2.01186 5.50856 2.09569 5.45264 2.20745 5.45264H7.62813C7.76783 5.45264 7.85166 5.4806 7.90754 5.59243C7.93548 5.70427 7.93548 5.78815 7.8796 5.87203Z" fill="#1151B1"/>
<path d="M7.90764 13.5325C7.90764 13.6164 7.8797 13.6723 7.82381 13.7003C7.73999 13.7282 7.6841 13.7562 7.60028 13.7562C7.06939 13.7562 6.56644 13.7562 6.03555 13.7562H2.17961C2.06784 13.7562 1.98402 13.7003 1.92813 13.6444C1.87225 13.5605 1.87225 13.4766 1.90019 13.3927C1.95607 13.2809 2.0399 13.2529 2.20755 13.2529H2.54285C2.98991 13.2529 3.43698 13.2529 3.8561 13.2529H5.39289H7.48851C7.60028 13.2529 7.71205 13.2529 7.79587 13.3088C7.90764 13.3648 7.93558 13.4486 7.90764 13.5325Z" fill="#1151B1"/>
<path d="M7.9074 11.6872C7.85152 11.7711 7.7677 11.827 7.65593 11.827H2.20731C2.03966 11.827 1.9279 11.7152 1.9279 11.6033C1.89996 11.4076 2.0676 11.3517 2.17937 11.3237C2.23525 11.3237 2.26319 11.3237 2.31908 11.3237H7.54416C7.68387 11.3237 7.79564 11.3517 7.85152 11.4356C7.93535 11.4915 7.93534 11.6033 7.9074 11.6872Z" fill="#1151B1"/>
<path d="M7.40409 9.70221C7.34821 9.81405 7.26438 9.84201 7.15262 9.84201H3.63197C3.15696 9.84201 2.68196 9.84201 2.20695 9.84201C2.09518 9.84201 2.01136 9.81405 1.95547 9.73017C1.89959 9.67425 1.89959 9.59037 1.92753 9.5065C1.95548 9.39466 2.0393 9.3667 2.17901 9.3667H7.15262C7.26438 9.3667 7.34821 9.42262 7.37615 9.47854C7.45998 9.56242 7.45997 9.64629 7.40409 9.70221Z" fill="#1151B1"/>
<path d="M7.37605 7.82857C7.32017 7.88449 7.26429 7.91245 7.15252 7.91245H5.25249H3.99512C3.40834 7.91245 2.79363 7.91245 2.20685 7.91245C2.12303 7.91245 2.0392 7.88449 1.98332 7.80061C1.92744 7.71673 1.92744 7.63285 1.98332 7.54898C2.01126 7.43714 2.12303 7.40918 2.23479 7.40918H7.18046C7.29222 7.40918 7.37605 7.4651 7.43194 7.54898C7.45988 7.66081 7.43194 7.74469 7.37605 7.82857Z" fill="#1151B1"/>
</svg>
