<svg width="23" height="19" viewBox="0 0 23 19" fill="none" xmlns="http://www.w3.org/2000/svg">
<path d="M11.2786 18.577C7.91234 18.577 4.58083 18.577 1.21461 18.577C0.728769 18.577 0.381736 18.2991 0.173516 17.8824C0.0347033 17.6394 0 17.3268 0 17.049C0 14.2363 0 11.4235 0 8.61078C0 8.29825 0.0347027 8.02045 0.208219 7.74265C0.451142 7.36067 0.798174 7.11758 1.28402 7.08286C2.04749 7.04813 2.77626 7.08286 3.53973 7.08286C4.47672 7.08286 5.37901 7.08286 6.31599 7.08286C6.3854 7.08286 6.45481 7.04814 6.48951 6.97869C7.04476 6.42308 7.56531 5.9022 8.12056 5.34659C8.67581 4.79099 9.26577 4.27011 9.78632 3.67978C10.2028 3.26308 10.6192 2.84637 11.0009 2.42967C11.5215 1.90879 12.042 1.35318 12.5973 0.832303C12.7708 0.658676 12.9443 0.450333 13.1525 0.276706C13.6037 -0.139998 14.2977 -0.0705511 14.7142 0.380878C14.9571 0.623955 15.2 0.867034 15.443 1.11011C15.8941 1.56154 15.9635 2.22132 15.4082 2.74219C14.6101 3.54088 13.8119 4.33957 13.0137 5.13825C12.4238 5.72858 11.8338 6.31891 11.2786 6.87452C11.2439 6.90924 11.2092 6.90924 11.2092 6.97869C11.2439 7.04814 11.2786 7.0134 11.3133 7.0134C14.5754 7.0134 17.8375 7.0134 21.0996 7.0134C21.5507 7.0134 21.9672 7.15231 22.2795 7.49957C22.5224 7.77737 22.5918 8.0899 22.5918 8.43715C22.5918 10.5554 22.5918 12.6389 22.5918 14.7572C22.5918 15.5211 22.5918 16.2851 22.5918 17.049C22.5918 17.6394 22.3489 18.0908 21.8284 18.3686C21.6895 18.438 21.516 18.4728 21.3425 18.4728C17.9763 18.5769 14.6448 18.577 11.2786 18.577ZM5.62193 7.88154C5.55252 7.81209 5.48312 7.84682 5.41371 7.84682C4.09499 7.84682 2.74156 7.84682 1.42283 7.84682C0.971691 7.84682 0.694065 8.12461 0.694065 8.57604C0.694065 11.4235 0.694065 14.271 0.694065 17.1532C0.694065 17.6741 1.0064 17.9519 1.49224 17.9519C8.01646 17.9519 14.5407 17.9519 21.0649 17.9519C21.516 17.9519 21.8631 17.7088 21.8631 17.1532C21.8631 14.3057 21.8631 11.4583 21.8631 8.61078C21.8631 8.0899 21.516 7.84682 21.0996 7.84682C17.5946 7.84682 14.0548 7.84682 10.5498 7.84682C10.4457 7.84682 10.3763 7.88154 10.3069 7.95099C9.68221 8.57605 9.09225 9.16638 8.4676 9.75671C7.56531 10.6596 6.69773 11.5624 5.79544 12.4653C5.69133 12.5695 5.58723 12.6736 5.41371 12.7084C4.99727 12.8125 4.58083 12.882 4.1991 12.9862C3.81736 13.0903 3.47032 13.1598 3.08859 13.264C2.70685 13.3334 2.53334 13.0903 2.63745 12.7778C2.81096 12.0486 3.01918 11.2846 3.1927 10.5554C3.2274 10.4512 3.22741 10.3471 3.33152 10.2429C3.53974 9.9998 3.78266 9.79144 3.99088 9.58309C4.40731 9.16638 4.82376 8.71495 5.2402 8.29824C5.37901 8.15934 5.48312 8.02044 5.62193 7.88154ZM6.07307 11.111C6.10777 11.111 6.14248 11.0763 6.17718 11.0763C6.45481 10.7637 6.76713 10.4512 7.07946 10.1387C7.73883 9.51363 8.36349 8.88857 8.98814 8.22879C9.68221 7.53428 10.3763 6.83978 11.0703 6.14527C11.7991 5.41604 12.5279 4.6521 13.2914 3.92286C13.3608 3.85341 13.3955 3.78395 13.2914 3.7145C12.9096 3.33252 12.4932 2.91583 12.1114 2.53385C12.0767 2.4644 12.0073 2.4644 11.9726 2.53385C11.8685 2.63803 11.7644 2.77693 11.6256 2.8811C11.105 3.40198 10.5498 3.92286 10.0292 4.47846C9.36988 5.13824 8.74522 5.79803 8.08586 6.42309C7.49591 7.01342 6.94065 7.56903 6.3507 8.15936C5.83015 8.68024 5.3096 9.20112 4.78905 9.722C4.75435 9.75672 4.71964 9.79144 4.75435 9.82617C5.17079 10.2429 5.55252 10.6248 5.96896 11.0416C6.03837 11.0763 6.03837 11.111 6.07307 11.111ZM13.8813 0.797586C13.7772 0.797586 13.7078 0.832307 13.6384 0.901758C13.3261 1.21429 13.0484 1.52682 12.7361 1.80462C12.5973 1.90879 12.632 2.01297 12.7361 2.11714C12.9096 2.29077 13.0831 2.4644 13.2566 2.63802C13.4649 2.84637 13.6731 3.05472 13.8813 3.26307C13.916 3.2978 13.9507 3.33253 14.0201 3.26307C14.3324 2.91582 14.6795 2.6033 14.9918 2.29077C15.1653 2.08242 15.1653 1.94352 14.9918 1.76989C14.7142 1.49209 14.4713 1.21429 14.1936 0.971212C14.0548 0.832311 13.9854 0.797586 13.8813 0.797586ZM3.57444 12.3958C3.67855 12.3264 3.81736 12.3264 3.95617 12.2917C4.2338 12.2222 4.51142 12.118 4.82375 12.0833C5.10138 12.0486 5.3096 11.9444 5.48312 11.7361C5.55252 11.6666 5.55252 11.6319 5.48312 11.5624C5.10138 11.1805 4.68494 10.7637 4.3032 10.3818C4.2685 10.347 4.2338 10.3123 4.1991 10.3818C4.06028 10.5554 3.88677 10.6596 3.85206 10.9026C3.85206 11.0415 3.78266 11.2152 3.74795 11.3541C3.64384 11.6666 3.57444 12.0139 3.50503 12.3611C3.47033 12.3611 3.50503 12.3958 3.57444 12.3958Z" fill="#6E6E6E"/>
<path d="M6.03816 14.6875C7.04456 14.6875 8.01625 14.6875 9.02264 14.6875C9.33497 14.6875 9.43908 14.7917 9.43908 15.1042C9.43908 15.5209 9.43908 15.9723 9.43908 16.389C9.43908 16.6321 9.26557 16.771 9.05735 16.771C8.84913 16.771 8.67561 16.771 8.46739 16.771C6.66282 16.771 4.89295 16.771 3.08838 16.771C2.70665 16.771 2.60254 16.6668 2.60254 16.2849C2.60254 15.9029 2.60254 15.4862 2.60254 15.1042C2.60254 14.757 2.70665 14.6875 3.05368 14.6875C4.02537 14.6875 5.03177 14.6875 6.03816 14.6875ZM6.03816 15.4167C5.20528 15.4167 4.3377 15.4167 3.50483 15.4167C3.36601 15.4167 3.29661 15.4514 3.33131 15.5903C3.33131 15.6945 3.33131 15.7987 3.33131 15.9029C3.33131 16.0418 3.36601 16.0765 3.50483 16.0765C5.20529 16.0765 6.90574 16.0765 8.5715 16.0765C8.67561 16.0765 8.74502 16.0418 8.74502 15.9029C8.74502 15.7987 8.74502 15.6598 8.74502 15.5556C8.77972 15.4167 8.71031 15.382 8.5715 15.382C7.70392 15.4167 6.87104 15.4167 6.03816 15.4167Z" fill="#6E6E6E"/>
<path d="M14.0547 13.2292C12.1113 13.2292 10.1679 13.2292 8.22451 13.2292C7.98158 13.2292 7.84277 13.0903 7.84277 12.882C7.84277 12.6736 8.01629 12.5347 8.22451 12.5C8.25921 12.5 8.25921 12.5 8.29391 12.5C12.146 12.5 15.998 12.5 19.8848 12.5C20.0236 12.5 20.1624 12.5 20.2665 12.6736C20.4054 12.9514 20.2665 13.2292 19.9542 13.2292C17.9414 13.2292 15.998 13.2292 14.0547 13.2292Z" fill="#6E6E6E"/>
<path d="M14.0547 11.6662C12.1113 11.6662 10.1679 11.6662 8.22451 11.6662C7.98158 11.6662 7.84277 11.5273 7.84277 11.3189C7.84277 11.1106 8.01629 10.9717 8.25921 10.9717C12.1113 10.9717 15.998 10.9717 19.8501 10.9717C19.9542 10.9717 20.093 10.9717 20.1624 11.0759C20.2665 11.18 20.3359 11.3189 20.2665 11.4926C20.1971 11.6662 20.0583 11.7356 19.8848 11.7356C19.2254 11.7356 18.5661 11.7356 17.9067 11.7356C16.588 11.6662 15.3387 11.6662 14.0547 11.6662Z" fill="#6E6E6E"/>
<path d="M17.282 10.1037C16.3797 10.1037 15.5121 10.1037 14.6098 10.1037C14.3669 10.1037 14.1934 9.96478 14.1934 9.75643C14.1934 9.54808 14.3669 9.40918 14.6098 9.40918C16.3797 9.40918 18.1148 9.40918 19.8847 9.40918C20.0582 9.40918 20.1623 9.4439 20.2317 9.61752C20.3011 9.75642 20.2664 9.86061 20.197 9.99951C20.1276 10.069 20.0929 10.1037 19.9888 10.1037C19.0865 10.1037 18.1842 10.1037 17.282 10.1037Z" fill="#6E6E6E"/>
<path d="M18.4971 15.9375C18.9829 15.9375 19.4341 15.9375 19.9199 15.9375C20.0934 15.9375 20.1629 16.007 20.2323 16.1459C20.3017 16.2848 20.267 16.4237 20.1629 16.5278C20.0935 16.632 19.9546 16.632 19.8505 16.632C18.9482 16.632 18.0113 16.632 17.109 16.632C16.9702 16.632 16.7966 16.5973 16.7272 16.4237C16.6578 16.2848 16.6578 16.1111 16.7966 16.007C16.866 15.9375 16.9355 15.9375 17.0049 15.9375C17.5601 15.9375 18.046 15.9375 18.4971 15.9375Z" fill="#6E6E6E"/>
</svg>
