<svg width="15" height="16" viewBox="0 0 15 16" fill="none" xmlns="http://www.w3.org/2000/svg">
<path d="M14.6169 15.5005C14.5565 15.6665 14.4055 15.6941 14.2243 15.6941C9.90577 15.6941 5.61748 15.6941 1.29899 15.6941C1.11779 15.6941 0.966797 15.5835 0.966797 15.4175C0.966797 14.6431 0.966797 13.8963 0.966797 13.1218C0.966797 12.9282 1.05739 12.8176 1.23859 12.8176C1.38958 12.8176 1.51038 12.9282 1.51038 13.1218C1.51038 13.7857 1.51038 14.4495 1.51038 15.1133C1.51038 15.1963 1.51039 15.2239 1.60098 15.2239C5.40609 15.2239 9.21119 15.2239 13.0163 15.2239C13.3183 15.2239 13.6203 15.2239 13.9223 15.2239C14.0129 15.2239 14.0129 15.1963 14.0129 15.141C14.0129 14.4218 14.0129 13.7303 14.0129 13.0112C14.0129 12.541 13.8921 12.0708 13.7411 11.6283C13.6505 11.3793 13.5599 11.1581 13.4391 10.9368C13.1975 10.4942 12.9559 10.0794 12.6237 9.71978C12.4425 9.52617 12.2311 9.3049 12.0197 9.13894C11.6875 8.86235 11.3553 8.61342 10.9929 8.41981C10.8117 8.30917 10.691 8.33683 10.54 8.44747C10.2984 8.61342 10.0266 8.72406 9.75478 8.8347C9.36219 8.97299 8.9696 9.08363 8.54681 9.13894C8.06362 9.22192 7.58043 9.22192 7.09724 9.1666C6.67445 9.11129 6.25166 9.00065 5.85907 8.86235C5.49668 8.72406 5.13429 8.5581 4.8021 8.33683C4.7417 8.30917 4.7115 8.33683 4.6813 8.36449C4.5605 8.47513 4.40951 8.5581 4.25851 8.64108C4.16792 8.66874 4.04712 8.64108 3.98672 8.53045C3.92632 8.44747 3.92632 8.33683 3.98672 8.28152C4.07732 8.19854 4.19812 8.14322 4.28871 8.06024C4.31891 8.03258 4.34911 8.00492 4.28871 7.97727C4.07732 7.81131 3.89612 7.6177 3.74512 7.42408C3.50353 7.11983 3.29213 6.81559 3.14114 6.48368C2.95994 6.09645 2.83915 5.68156 2.74855 5.26668C2.68815 4.93477 2.68815 4.60286 2.71835 4.24329C2.74855 3.80075 2.86935 3.38586 3.05054 2.97097C3.20154 2.61141 3.38273 2.2795 3.62433 1.97525C3.89612 1.61568 4.22832 1.31143 4.59071 1.03484C5.0135 0.730591 5.43629 0.48166 5.94967 0.315706C6.31206 0.177411 6.70465 0.0944336 7.09724 0.0391155C7.42943 0.0114564 7.76163 -0.0162022 8.09382 0.0114568C8.48641 0.0391159 8.879 0.0944332 9.27159 0.205069C9.75478 0.343365 10.2078 0.564638 10.6306 0.81357C11.0231 1.0625 11.3553 1.36675 11.6573 1.69866C11.8385 1.89227 11.9895 2.11355 12.1405 2.33482C12.3821 2.7497 12.5633 3.16459 12.6841 3.60713C12.7747 3.99436 12.8351 4.38159 12.8049 4.79647C12.7747 5.21136 12.7143 5.6539 12.5633 6.04113C12.4425 6.37304 12.2915 6.67729 12.1103 6.95388C11.8989 7.31345 11.5969 7.6177 11.2949 7.89429C11.2345 7.94961 11.2345 7.97727 11.3251 8.00492C11.9895 8.36449 12.5633 8.8347 13.0465 9.38788C13.3183 9.69213 13.5297 9.99638 13.7411 10.3283C13.9525 10.6879 14.1337 11.0751 14.2847 11.4623C14.3753 11.7389 14.4659 12.0431 14.5263 12.3474C14.5565 12.541 14.5867 12.707 14.5867 12.9006C14.5867 12.9559 14.5867 12.9559 14.6169 12.9282C14.6169 13.758 14.6169 14.6431 14.6169 15.5005ZM12.3217 4.5752C12.3217 2.36248 10.389 0.592296 8.06362 0.48166C5.40609 0.371024 3.32234 2.30716 3.32234 4.5752C3.32234 6.78793 5.25509 8.6964 7.82202 8.72406C10.2078 8.6964 12.3217 6.95388 12.3217 4.5752Z" fill="#1151B1"/>
<path d="M2.38635 8.28125C3.68492 8.28125 4.7721 9.27697 4.7721 10.4387C4.7721 11.6833 3.68492 12.6514 2.41655 12.6514C1.05759 12.6514 -0.029585 11.6833 0.00061425 10.411C0.00061425 9.27698 1.08779 8.28125 2.38635 8.28125ZM2.38635 8.77911C1.38978 8.75145 0.514007 9.49825 0.544206 10.4663C0.544206 11.4067 1.35958 12.1259 2.32596 12.1535C3.41313 12.1812 4.19831 11.4067 4.25871 10.577C4.31911 9.55357 3.35273 8.75145 2.38635 8.77911Z" fill="#1151B1"/>
<path d="M2.65818 9.83035C2.65818 9.94099 2.65818 10.024 2.65818 10.1346C2.65818 10.1899 2.68838 10.2176 2.74878 10.2176C2.96017 10.2176 3.20177 10.2176 3.41316 10.2176C3.56416 10.2176 3.68496 10.3282 3.68496 10.4665C3.68496 10.6048 3.56416 10.6878 3.41316 10.6878C3.17157 10.6878 2.96017 10.6878 2.71858 10.6878C2.65818 10.6878 2.62798 10.7154 2.62798 10.7708C2.62798 10.992 2.62798 11.1856 2.62798 11.4069C2.62798 11.5729 2.50718 11.6558 2.38638 11.6835C2.26559 11.7112 2.14479 11.6005 2.11459 11.4622C2.08439 11.2686 2.11459 11.0473 2.11459 10.8537C2.11459 10.7431 2.08439 10.7154 1.96359 10.7154C1.7522 10.7154 1.5408 10.7154 1.32941 10.7154C1.17841 10.7154 1.05762 10.6048 1.05762 10.4665C1.05762 10.3282 1.17841 10.2452 1.32941 10.2176C1.5408 10.2176 1.7824 10.2176 1.9938 10.2176C2.08439 10.2176 2.08439 10.1899 2.08439 10.1346C2.08439 9.96865 2.08439 9.80269 2.08439 9.60908C2.08439 9.55376 2.08439 9.49844 2.11459 9.44312C2.14479 9.30483 2.26559 9.24951 2.41658 9.24951C2.53738 9.24951 2.62798 9.36015 2.62798 9.49844C2.62798 9.55376 2.62798 9.60908 2.62798 9.6644C2.62798 9.71972 2.62798 9.77503 2.65818 9.83035C2.62798 9.83035 2.62798 9.83035 2.65818 9.83035Z" fill="#1151B1"/>
</svg>
