<svg width="21" height="21" viewBox="0 0 21 21" fill="none" xmlns="http://www.w3.org/2000/svg">
<path d="M12.3692 2.94171H11.9317V2.96353L11.9338 2.98525L12.3692 2.94171ZM12.3692 2.9417H12.8067V2.91988L12.8045 2.89817L12.3692 2.9417ZM12.6272 4.21644L12.2794 4.48178V4.48178L12.6272 4.21644ZM13.4396 4.55295L13.498 4.98654L13.4396 4.55295ZM14.5232 3.83432L14.8002 4.17293L14.5232 3.83432ZM15.1246 3.4214L14.9915 3.00465V3.00465L15.1246 3.4214ZM15.7388 3.45203L15.5649 3.85346L15.5649 3.85346L15.7388 3.45203ZM17.0783 4.7048L17.3876 4.39545V4.39545L17.0783 4.7048ZM17.5487 5.26176L17.9501 5.0877V5.0877L17.5487 5.26176ZM17.5794 5.87643L17.1626 5.74316V5.74316L17.5794 5.87643ZM17.1667 6.47743L17.499 6.76222L17.5053 6.75447L17.1667 6.47743ZM17.1667 6.47744L16.8344 6.19264L16.8281 6.20039L17.1667 6.47744ZM16.4485 7.56016L16.882 7.61868L16.882 7.61868L16.4485 7.56016ZM16.7852 8.37312L17.0504 8.02516L16.7852 8.37312ZM18.0589 8.63089L18.0153 9.06621L18.0589 8.63089ZM18.7759 8.76413L18.5755 9.153L18.5755 9.153L18.7759 8.76413ZM19.1888 9.22029L19.5956 9.0595V9.0595L19.1888 9.22029ZM19.1887 11.7799L19.5955 11.9409L19.5955 11.9409L19.1887 11.7799ZM18.7762 12.2357L18.9768 12.6246L18.7762 12.2357ZM18.0586 12.3691L18.0151 11.9338L18.0009 11.9352L17.9867 11.9376L18.0586 12.3691ZM18.0586 12.3691L18.1022 12.8045L18.1164 12.803L18.1305 12.8007L18.0586 12.3691ZM16.7838 12.6273L17.0492 12.9751L17.0492 12.9751L16.7838 12.6273ZM16.4474 13.4394L16.881 13.3812V13.3812L16.4474 13.4394ZM17.1664 14.5234L16.8278 14.8005L17.1664 14.5234ZM17.5795 15.1253L17.1627 15.2584L17.5795 15.1253ZM17.5489 15.7392L17.9504 15.913V15.913L17.5489 15.7392ZM15.7388 17.5493L15.9128 17.9508L15.9128 17.9507L15.7388 17.5493ZM15.1247 17.5799L14.9916 17.9967L15.1247 17.5799ZM14.5231 17.1669L14.8001 16.8283V16.8283L14.5231 17.1669ZM13.4396 16.4483L13.3812 16.8818L13.4396 16.4483ZM12.627 16.7848L12.2792 16.5195L12.2792 16.5195L12.627 16.7848ZM12.3691 18.0589L11.9338 18.0153L12.3691 18.0589ZM12.2358 18.776L11.847 18.5755L12.2358 18.776ZM11.7798 19.1887L11.6189 18.7819L11.7798 19.1887ZM9.22033 19.1888L9.05956 19.5957L9.05956 19.5957L9.22033 19.1888ZM8.76412 18.7759L8.37524 18.9764H8.37524L8.76412 18.7759ZM8.6309 18.059L9.06623 18.0155L8.6309 18.059ZM8.37307 16.7853L8.721 16.52L8.721 16.52L8.37307 16.7853ZM7.56027 16.4486L7.61874 16.8822H7.61874L7.56027 16.4486ZM6.47701 17.1672L6.73951 17.5172L6.7469 17.5117L6.75405 17.5058L6.47701 17.1672ZM6.47699 17.1672L6.21449 16.8172L6.2071 16.8228L6.19995 16.8286L6.47699 17.1672ZM5.87523 17.5803L5.74212 17.1636L5.74212 17.1636L5.87523 17.5803ZM5.26116 17.5497L5.08723 17.9512V17.9512L5.26116 17.5497ZM4.70363 17.0789L4.39427 17.3883L4.70363 17.0789ZM3.92213 16.2974L3.57213 16.5599L3.59079 16.5848L3.61277 16.6068L3.92213 16.2974ZM3.92213 16.2974L4.27213 16.0349L4.25347 16.01L4.23149 15.988L3.92213 16.2974ZM3.45101 15.7395L3.04952 15.9133L3.45101 15.7395ZM3.42041 15.1258L3.8372 15.2588L3.42041 15.1258ZM3.83373 14.5237L3.49762 14.2436L3.49512 14.2466L3.83373 14.5237ZM3.83374 14.5237L4.16985 14.8038L4.17234 14.8007L3.83374 14.5237ZM4.55284 13.4393L4.11923 13.3811L4.55284 13.4393ZM4.21653 12.6274L4.48199 12.2796H4.48198L4.21653 12.6274ZM2.94147 12.3691L2.98501 11.9338L2.96329 11.9316H2.94147V12.3691ZM2.94146 12.3691L2.89793 12.8045L2.91964 12.8066H2.94146V12.3691ZM2.22376 12.2357L2.42438 11.8469L2.42438 11.8469L2.22376 12.2357ZM1.81135 11.78L1.40453 11.941L1.40453 11.941L1.81135 11.78ZM1.81126 9.22022L2.21813 9.38104L1.81126 9.22022ZM2.22399 8.76417L2.02348 8.37532L2.02348 8.37532L2.22399 8.76417ZM2.94119 8.63088L2.89766 8.19555L2.94119 8.63088ZM4.2152 8.37298L3.94993 8.02507L3.94993 8.02507L4.2152 8.37298ZM4.55182 7.56031L4.9854 7.50188L4.55182 7.56031ZM3.83338 6.47716L3.49478 6.7542H3.49478L3.83338 6.47716ZM3.42058 5.87591L3.00385 6.00911H3.00385L3.42058 5.87591ZM3.45122 5.26148L3.85263 5.43549L3.85263 5.43549L3.45122 5.26148ZM5.26115 3.45163L5.0872 3.05019H5.0872L5.26115 3.45163ZM5.87533 3.42099L5.74218 3.83774L5.74218 3.83774L5.87533 3.42099ZM6.47683 3.83394L6.19978 4.17255L6.47683 3.83394ZM7.56043 4.55261L7.5021 4.98621L7.56043 4.55261ZM8.37278 4.21613L8.72063 4.48148V4.48148L8.37278 4.21613ZM8.63085 2.94151L9.06618 2.98504L9.06835 2.96333V2.94151H8.63085ZM8.63085 2.9415L8.19552 2.89797L8.19335 2.91968V2.9415H8.63085ZM8.76426 2.2238L8.37546 2.0232L8.37546 2.02321L8.76426 2.2238ZM9.22003 1.81134L9.38095 2.21817V2.21817L9.22003 1.81134ZM11.7801 1.81137L11.6191 2.21818V2.21818L11.7801 1.81137ZM12.2357 2.22372L12.6245 2.02308V2.02308L12.2357 2.22372ZM12.8067 2.94171V2.9417H11.9317V2.94171H12.8067ZM12.9751 3.95111C12.9652 3.93814 12.9331 3.88466 12.8994 3.69715C12.8664 3.51383 12.8412 3.26475 12.8045 2.89818L11.9338 2.98525C11.969 3.33714 11.9977 3.62691 12.0382 3.85209C12.078 4.07306 12.139 4.29771 12.2794 4.48178L12.9751 3.95111ZM13.3813 4.11936C13.2255 4.14033 13.0704 4.0761 12.9751 3.95111L12.2794 4.48178C12.5654 4.85675 13.0306 5.04944 13.498 4.98654L13.3813 4.11936ZM14.2461 3.49572C13.9611 3.72892 13.7672 3.88713 13.6143 3.99338C13.458 4.10206 13.3975 4.11718 13.3813 4.11936L13.498 4.98654C13.7274 4.95567 13.9294 4.84001 14.1137 4.7119C14.3015 4.58136 14.5266 4.39678 14.8002 4.17293L14.2461 3.49572ZM14.9915 3.00465C14.8515 3.04937 14.733 3.12035 14.6212 3.20002C14.5129 3.27717 14.3892 3.37866 14.2461 3.49572L14.8002 4.17293C14.9523 4.04852 15.0499 3.96892 15.1289 3.91265C15.2043 3.85891 15.2389 3.84416 15.2578 3.83814L14.9915 3.00465ZM15.9128 3.0506C15.6214 2.92431 15.294 2.90799 14.9915 3.00465L15.2578 3.83814C15.3586 3.80592 15.4677 3.81136 15.5649 3.85346L15.9128 3.0506ZM16.6056 3.6134C16.4749 3.48269 16.3619 3.36939 16.2618 3.28185C16.1585 3.19144 16.0476 3.10902 15.9128 3.0506L15.5649 3.85346C15.583 3.86132 15.616 3.87944 15.6857 3.94042C15.7587 4.00427 15.8479 4.09319 15.9869 4.23211L16.6056 3.6134ZM17.3876 4.39544L16.6056 3.6134L15.9869 4.23211L16.7689 5.01416L17.3876 4.39544ZM17.3876 4.39545L17.3876 4.39544L16.7689 5.01416L16.7689 5.01416L17.3876 4.39545ZM17.9501 5.0877C17.8917 4.95301 17.8093 4.84221 17.7189 4.73895C17.6315 4.63896 17.5182 4.52606 17.3876 4.39545L16.7689 5.01416C16.9077 5.15299 16.9966 5.24216 17.0604 5.31509C17.1213 5.38474 17.1395 5.41771 17.1473 5.43583L17.9501 5.0877ZM17.9961 6.00969C18.0929 5.70693 18.0765 5.37932 17.9501 5.0877L17.1473 5.43583C17.1895 5.53304 17.1949 5.64224 17.1626 5.74316L17.9961 6.00969ZM17.5053 6.75447C17.6223 6.61151 17.7237 6.4879 17.8008 6.37971C17.8804 6.26796 17.9513 6.14952 17.9961 6.00969L17.1626 5.74316C17.1566 5.76197 17.1419 5.79658 17.0882 5.87195C17.0319 5.95087 16.9524 6.04844 16.8281 6.20038L17.5053 6.75447ZM17.4989 6.76216L17.4989 6.76215L16.8345 6.1927L16.8345 6.19271L17.4989 6.76216ZM16.882 7.61868C16.8842 7.60251 16.8994 7.54207 17.008 7.38581C17.1142 7.23303 17.2723 7.03929 17.5053 6.75448L16.8281 6.20039C16.6044 6.4738 16.4199 6.69872 16.2895 6.88641C16.1615 7.0706 16.0458 7.27241 16.0149 7.50164L16.882 7.61868ZM17.0504 8.02516C16.9253 7.92979 16.861 7.77459 16.882 7.61868L16.0149 7.50164C15.9518 7.96937 16.1446 8.43498 16.52 8.72107L17.0504 8.02516ZM18.1024 8.19556C17.7361 8.15893 17.4873 8.13373 17.3042 8.10078C17.1168 8.06708 17.0634 8.03504 17.0504 8.02516L16.52 8.72107C16.704 8.86129 16.9285 8.92224 17.1493 8.96196C17.3742 9.00243 17.6638 9.03106 18.0153 9.06621L18.1024 8.19556ZM18.9764 8.37527C18.8459 8.30797 18.7119 8.27437 18.5765 8.25164C18.4455 8.22964 18.2863 8.21395 18.1024 8.19556L18.0153 9.06621C18.2108 9.08576 18.3361 9.09852 18.4317 9.11457C18.523 9.1299 18.5579 9.14395 18.5755 9.153L18.9764 8.37527ZM19.5956 9.0595C19.4789 8.76399 19.2589 8.52087 18.9764 8.37527L18.5755 9.153C18.6696 9.20153 18.743 9.28257 18.7819 9.38108L19.5956 9.0595ZM19.6875 9.947C19.6875 9.76222 19.6877 9.60228 19.6789 9.46968C19.6697 9.33272 19.6496 9.19609 19.5956 9.0595L18.7819 9.38108C18.7891 9.39945 18.7997 9.43559 18.8058 9.52796C18.8123 9.62468 18.8125 9.75061 18.8125 9.947H19.6875ZM19.6875 11.0527V9.947H18.8125V11.0527H19.6875ZM19.5955 11.9409C19.6496 11.8042 19.6697 11.6674 19.6789 11.5304C19.6877 11.3977 19.6875 11.2376 19.6875 11.0527H18.8125C18.8125 11.2492 18.8123 11.3753 18.8058 11.4721C18.7996 11.5645 18.7891 11.6007 18.7818 11.619L19.5955 11.9409ZM18.9768 12.6246C19.2589 12.479 19.4787 12.2361 19.5955 11.9409L18.7818 11.619C18.7429 11.7175 18.6696 11.7984 18.5756 11.8469L18.9768 12.6246ZM18.1022 12.8045C18.2862 12.7861 18.4455 12.7704 18.5766 12.7483C18.7121 12.7256 18.8461 12.6919 18.9768 12.6246L18.5756 11.8469C18.558 11.856 18.5231 11.8701 18.4317 11.8854C18.3361 11.9015 18.2107 11.9143 18.0151 11.9338L18.1022 12.8045ZM18.1305 12.8007L18.1306 12.8007L17.9867 11.9376L17.9867 11.9376L18.1305 12.8007ZM17.0492 12.9751C17.0622 12.9652 17.1157 12.9331 17.3032 12.8993C17.4865 12.8664 17.7356 12.8411 18.1022 12.8045L18.0151 11.9338C17.6632 11.969 17.3734 11.9977 17.1482 12.0382C16.9272 12.078 16.7025 12.139 16.5184 12.2795L17.0492 12.9751ZM16.881 13.3812C16.8601 13.2254 16.9243 13.0704 17.0492 12.9751L16.5184 12.2795C16.1437 12.5655 15.9511 13.0305 16.0138 13.4977L16.881 13.3812ZM17.505 14.2464C17.2717 13.9612 17.1134 13.7673 17.0071 13.6143C16.8983 13.4579 16.8832 13.3973 16.881 13.3812L16.0138 13.4977C16.0447 13.7272 16.1604 13.9292 16.2885 14.1137C16.4191 14.3016 16.6038 14.5268 16.8278 14.8005L17.505 14.2464ZM17.9963 14.9922C17.9516 14.8522 17.8806 14.7336 17.8009 14.6217C17.7237 14.5133 17.6221 14.3896 17.505 14.2464L16.8278 14.8005C16.9523 14.9526 17.0319 15.0504 17.0882 15.1294C17.142 15.2049 17.1567 15.2395 17.1627 15.2584L17.9963 14.9922ZM17.9504 15.913C18.0765 15.6218 18.0928 15.2946 17.9963 14.9922L17.1627 15.2584C17.1949 15.3592 17.1895 15.4682 17.1474 15.5653L17.9504 15.913ZM17.3873 16.6062C17.5181 16.4755 17.6315 16.3624 17.719 16.2623C17.8095 16.1589 17.8919 16.0479 17.9504 15.913L17.1474 15.5653C17.1396 15.5834 17.1215 15.6165 17.0604 15.6862C16.9966 15.7592 16.9076 15.8485 16.7686 15.9875L17.3873 16.6062ZM16.6057 17.3879L17.3873 16.6062L16.7686 15.9875L15.987 16.7692L16.6057 17.3879ZM15.9128 17.9507C16.0476 17.8923 16.1585 17.8099 16.2619 17.7195C16.3619 17.6319 16.4749 17.5186 16.6057 17.3879L15.987 16.7692C15.848 16.9081 15.7588 16.997 15.6858 17.0609C15.616 17.1219 15.583 17.14 15.5649 17.1479L15.9128 17.9507ZM14.9916 17.9967C15.2941 18.0933 15.6214 18.077 15.9128 17.9508L15.5649 17.1479C15.4678 17.19 15.3587 17.1954 15.2578 17.1632L14.9916 17.9967ZM14.246 17.5055C14.3891 17.6226 14.5129 17.7241 14.6212 17.8013C14.733 17.881 14.8516 17.952 14.9916 17.9967L15.2578 17.1632C15.239 17.1572 15.2044 17.1424 15.1289 17.0887C15.0499 17.0324 14.9522 16.9527 14.8001 16.8283L14.246 17.5055ZM13.3812 16.8818C13.3974 16.884 13.4579 16.8991 13.6143 17.0078C13.7671 17.1141 13.961 17.2723 14.246 17.5055L14.8001 16.8283C14.5265 16.6044 14.3014 16.4199 14.1136 16.2893C13.9293 16.1612 13.7274 16.0456 13.498 16.0147L13.3812 16.8818ZM12.9749 17.0501C13.0703 16.9251 13.2254 16.8608 13.3812 16.8818L13.498 16.0147C13.0305 15.9517 12.5652 16.1444 12.2792 16.5195L12.9749 17.0501ZM12.8044 18.1024C12.8411 17.7361 12.8663 17.4871 12.8993 17.3039C12.933 17.1166 12.965 17.0631 12.9749 17.0501L12.2792 16.5195C12.1388 16.7036 12.0778 16.9281 12.0381 17.149C11.9976 17.3741 11.969 17.6637 11.9338 18.0153L12.8044 18.1024ZM12.6247 18.9765C12.692 18.8459 12.7256 18.712 12.7484 18.5766C12.7704 18.4455 12.7861 18.2863 12.8044 18.1024L11.9338 18.0153C11.9142 18.2108 11.9015 18.3361 11.8854 18.4317C11.8701 18.523 11.856 18.5579 11.847 18.5755L12.6247 18.9765ZM11.9406 19.5956C12.236 19.4788 12.4791 19.2589 12.6247 18.9765L11.847 18.5755C11.7985 18.6696 11.7174 18.7429 11.6189 18.7819L11.9406 19.5956ZM11.0529 19.6875C11.2377 19.6875 11.3977 19.6877 11.5303 19.6789C11.6673 19.6697 11.804 19.6496 11.9406 19.5956L11.6189 18.7819C11.6006 18.7891 11.5644 18.7996 11.472 18.8058C11.3753 18.8123 11.2494 18.8125 11.0529 18.8125V19.6875ZM9.94695 19.6875H11.0529V18.8125H9.94695V19.6875ZM9.05956 19.5957C9.19613 19.6496 9.33275 19.6697 9.46969 19.6789C9.60227 19.6877 9.7622 19.6875 9.94695 19.6875V18.8125C9.75058 18.8125 9.62467 18.8123 9.52796 18.8058C9.4356 18.7997 9.39947 18.7891 9.38109 18.7819L9.05956 19.5957ZM8.37524 18.9764C8.52085 19.2588 8.764 19.4789 9.05956 19.5957L9.3811 18.7819C9.28258 18.743 9.20153 18.6696 9.15299 18.5755L8.37524 18.9764ZM8.19557 18.1025C8.21395 18.2864 8.22964 18.4455 8.25164 18.5766C8.27436 18.7119 8.30796 18.8458 8.37524 18.9764L9.15299 18.5755C9.14394 18.5579 9.12989 18.523 9.11457 18.4317C9.09852 18.3361 9.08577 18.2108 9.06623 18.0155L8.19557 18.1025ZM8.02514 17.0505C8.03503 17.0635 8.06709 17.117 8.10079 17.3043C8.13374 17.4874 8.15895 17.7363 8.19557 18.1025L9.06623 18.0155C9.03107 17.6639 9.00244 17.3744 8.96196 17.1493C8.92223 16.9285 8.86126 16.704 8.721 16.52L8.02514 17.0505ZM7.61874 16.8822C7.77462 16.8612 7.92978 16.9254 8.02514 17.0505L8.721 16.52C8.43492 16.1448 7.96943 15.952 7.5018 16.015L7.61874 16.8822ZM6.75405 17.5058C7.03902 17.2726 7.23289 17.1144 7.38575 17.0082C7.54212 16.8995 7.60259 16.8844 7.61874 16.8822L7.5018 16.015C7.2725 16.046 7.07061 16.1616 6.88635 16.2897C6.69857 16.4202 6.47353 16.6048 6.19996 16.8286L6.75405 17.5058ZM6.73949 17.5172L6.73951 17.5172L6.21451 16.8172L6.21449 16.8172L6.73949 17.5172ZM6.00835 17.9971C6.14835 17.9524 6.26693 17.8814 6.3788 17.8017C6.48712 17.7245 6.61089 17.6229 6.75404 17.5058L6.19995 16.8286C6.04781 16.9531 5.9501 17.0327 5.87107 17.089C5.79559 17.1428 5.76094 17.1576 5.74212 17.1636L6.00835 17.9971ZM5.08723 17.9512C5.3786 18.0774 5.70586 18.0937 6.00835 17.9971L5.74212 17.1636C5.64129 17.1958 5.5322 17.1904 5.43508 17.1483L5.08723 17.9512ZM4.39427 17.3883C4.52501 17.519 4.63802 17.6323 4.73811 17.7199C4.84148 17.8103 4.95239 17.8927 5.08723 17.9512L5.43508 17.1483C5.41694 17.1404 5.38394 17.1223 5.31422 17.0613C5.24121 16.9974 5.15195 16.9085 5.01299 16.7695L4.39427 17.3883ZM3.61277 16.6068L4.39427 17.3883L5.01299 16.7695L4.23149 15.988L3.61277 16.6068ZM3.57213 16.5599L3.57213 16.5599L4.27213 16.0349L4.27213 16.0349L3.57213 16.5599ZM3.04952 15.9133C3.10795 16.0482 3.19043 16.1592 3.28092 16.2627C3.36853 16.3628 3.48194 16.4759 3.61277 16.6067L4.23149 15.988C4.09243 15.849 4.00343 15.7597 3.93952 15.6866C3.8785 15.6168 3.86036 15.5838 3.8525 15.5656L3.04952 15.9133ZM3.00362 14.9928C2.90715 15.2951 2.92346 15.6221 3.04952 15.9133L3.8525 15.5656C3.81048 15.4686 3.80505 15.3596 3.8372 15.2588L3.00362 14.9928ZM3.49512 14.2466C3.37794 14.3899 3.27633 14.5137 3.19911 14.6221C3.11936 14.734 3.04832 14.8527 3.00362 14.9928L3.8372 15.2588C3.84321 15.24 3.85797 15.2053 3.91177 15.1298C3.9681 15.0507 4.04779 14.953 4.17234 14.8007L3.49512 14.2466ZM3.49764 14.2436L3.49763 14.2436L4.16983 14.8038L4.16983 14.8038L3.49764 14.2436ZM4.11923 13.3811C4.11706 13.3973 4.10194 13.4578 3.99318 13.6144C3.88685 13.7674 3.72851 13.9614 3.49513 14.2466L4.17234 14.8007C4.39637 14.5269 4.58109 14.3016 4.71172 14.1137C4.83991 13.9292 4.95564 13.7271 4.98645 13.4975L4.11923 13.3811ZM3.95107 12.9752C4.07595 13.0705 4.14013 13.2254 4.11923 13.3811L4.98645 13.4975C5.04915 13.0304 4.8566 12.5656 4.48199 12.2796L3.95107 12.9752ZM2.89794 12.8045C3.2646 12.8411 3.51372 12.8664 3.69707 12.8994C3.8846 12.9331 3.93809 12.9652 3.95108 12.9752L4.48198 12.2796C4.29787 12.1391 4.07314 12.078 3.85208 12.0382C3.62683 11.9977 3.33698 11.969 2.98501 11.9338L2.89794 12.8045ZM2.94146 12.8066H2.94147V11.9316H2.94146V12.8066ZM2.02314 12.6245C2.15378 12.6919 2.28786 12.7256 2.42336 12.7483C2.55455 12.7704 2.71389 12.7861 2.89793 12.8045L2.985 11.9338C2.78938 11.9143 2.66397 11.9015 2.56828 11.8854C2.47689 11.8701 2.44195 11.856 2.42438 11.8469L2.02314 12.6245ZM1.40453 11.941C1.5213 12.2361 1.74106 12.479 2.02314 12.6245L2.42438 11.8469C2.33036 11.7984 2.2571 11.7175 2.21818 11.6191L1.40453 11.941ZM1.3125 11.0526C1.3125 11.2376 1.31227 11.3977 1.32114 11.5304C1.3303 11.6675 1.35045 11.8043 1.40453 11.941L2.21818 11.6191C2.2109 11.6007 2.20037 11.5645 2.1942 11.4721C2.18773 11.3752 2.1875 11.2492 2.1875 11.0526H1.3125ZM1.3125 9.94709V11.0526H2.1875V9.94709H1.3125ZM1.40439 9.0594C1.35039 9.19601 1.33028 9.33268 1.32113 9.46966C1.31227 9.60229 1.3125 9.76227 1.3125 9.94709H2.1875C2.1875 9.75065 2.18773 9.62469 2.19419 9.52795C2.20035 9.43556 2.21087 9.39942 2.21813 9.38104L1.40439 9.0594ZM2.02348 8.37532C1.74113 8.52091 1.52116 8.76397 1.40439 9.0594L2.21813 9.38104C2.25705 9.28256 2.33038 9.20155 2.42449 9.15301L2.02348 8.37532ZM2.89766 8.19555C2.71375 8.21394 2.55453 8.22964 2.42343 8.25165C2.28803 8.27438 2.15404 8.30799 2.02348 8.37532L2.42449 9.15301C2.44205 9.14396 2.47697 9.1299 2.5683 9.11457C2.66393 9.09852 2.78925 9.08576 2.98473 9.06621L2.89766 8.19555ZM3.94993 8.02507C3.93696 8.03496 3.8835 8.06703 3.69611 8.10074C3.51291 8.1337 3.26401 8.15892 2.89766 8.19555L2.98473 9.06621C3.33639 9.03104 3.626 9.00241 3.85105 8.96191C4.07192 8.92218 4.29646 8.86119 4.48048 8.72088L3.94993 8.02507ZM4.11824 7.61874C4.13924 7.77459 4.07498 7.92972 3.94993 8.02507L4.48047 8.72088C4.85563 8.43482 5.0484 7.96943 4.9854 7.50188L4.11824 7.61874ZM3.49478 6.7542C3.7279 7.03913 3.88606 7.23294 3.99228 7.38578C4.10093 7.5421 4.11606 7.60257 4.11824 7.61874L4.9854 7.50188C4.9545 7.27256 4.83886 7.07067 4.71078 6.8864C4.58029 6.69864 4.39577 6.47363 4.17199 6.20012L3.49478 6.7542ZM3.00385 6.00911C3.04856 6.14901 3.11953 6.2675 3.19918 6.37929C3.2763 6.48753 3.37776 6.61118 3.49478 6.7542L4.17199 6.20012C4.04762 6.04811 3.96805 5.9505 3.91179 5.87155C3.85807 5.79615 3.84332 5.76152 3.83731 5.7427L3.00385 6.00911ZM3.04981 5.08747C2.92344 5.379 2.90711 5.70646 3.00385 6.00911L3.83731 5.74271C3.80506 5.64182 3.8105 5.53267 3.85263 5.43549L3.04981 5.08747ZM3.61245 4.39493C3.48178 4.5256 3.36852 4.63854 3.28101 4.73857C3.19063 4.84188 3.10823 4.95272 3.04981 5.08748L3.85263 5.43549C3.86049 5.41737 3.87861 5.38438 3.93957 5.3147C4.0034 5.24174 4.09229 5.15253 4.23117 5.01365L3.61245 4.39493ZM4.39436 3.61302L3.61245 4.39493L4.23117 5.01365L5.01308 4.23174L4.39436 3.61302ZM5.0872 3.05019C4.95238 3.10861 4.84149 3.19104 4.73814 3.28145C4.63807 3.36899 4.52508 3.4823 4.39436 3.61302L5.01308 4.23174C5.15201 4.0928 5.24126 4.00388 5.31425 3.94002C5.38396 3.87904 5.41696 3.86092 5.43509 3.85306L5.0872 3.05019ZM6.00847 3.00425C5.70593 2.90759 5.37861 2.92392 5.0872 3.05019L5.43509 3.85306C5.53223 3.81097 5.64134 3.80553 5.74218 3.83774L6.00847 3.00425ZM6.75387 3.49534C6.61079 3.37828 6.48709 3.27677 6.3788 3.19962C6.26697 3.11994 6.14843 3.04896 6.00847 3.00425L5.74218 3.83774C5.76101 3.84376 5.79565 3.85851 5.87108 3.91225C5.95006 3.96852 6.04772 4.04813 6.19978 4.17255L6.75387 3.49534ZM7.61876 4.11902C7.60258 4.11684 7.54208 4.10172 7.3857 3.99304C7.2328 3.88678 7.03891 3.72855 6.75387 3.49534L6.19978 4.17255C6.4734 4.39642 6.69851 4.58101 6.88634 4.71155C7.07069 4.83967 7.27267 4.95534 7.5021 4.98621L7.61876 4.11902ZM8.02494 3.95078C7.9296 4.07575 7.77455 4.13998 7.61876 4.11902L7.5021 4.98621C7.96945 5.04908 8.43462 4.85641 8.72063 4.48148L8.02494 3.95078ZM8.19552 2.89798C8.15887 3.26451 8.13364 3.51355 8.10066 3.69684C8.06692 3.88433 8.03483 3.9378 8.02494 3.95078L8.72063 4.48148C8.86104 4.29741 8.92207 4.07277 8.96183 3.8518C9.00234 3.62664 9.03099 3.33689 9.06618 2.98504L8.19552 2.89798ZM8.19335 2.94151V2.94151H9.06835V2.94151H8.19335ZM8.19335 2.9415V2.94151H9.06835V2.9415H8.19335ZM8.37546 2.02321C8.30806 2.15384 8.27441 2.28791 8.25166 2.4234C8.22963 2.55459 8.21393 2.71392 8.19552 2.89797L9.06618 2.98504C9.08574 2.78942 9.09851 2.664 9.11458 2.5683C9.12993 2.47691 9.144 2.44197 9.15306 2.4244L8.37546 2.02321ZM9.05912 1.4045C8.76391 1.52127 8.52102 1.74108 8.37546 2.0232L9.15306 2.4244C9.20158 2.33036 9.28255 2.25709 9.38095 2.21817L9.05912 1.4045ZM9.94734 1.3125C9.76241 1.3125 9.60233 1.31227 9.46961 1.32114C9.33255 1.3303 9.1958 1.35044 9.05912 1.4045L9.38095 2.21817C9.39934 2.2109 9.4355 2.20037 9.52794 2.19419C9.62475 2.18773 9.75078 2.1875 9.94734 2.1875V1.3125ZM11.0525 1.3125H9.94734V2.1875H11.0525V1.3125ZM11.941 1.40455C11.8043 1.35046 11.6675 1.33031 11.5304 1.32114C11.3977 1.31227 11.2375 1.3125 11.0525 1.3125V2.1875C11.2492 2.1875 11.3752 2.18773 11.4721 2.1942C11.5645 2.20038 11.6007 2.21091 11.6191 2.21818L11.941 1.40455ZM12.6245 2.02308C12.4789 1.74105 12.2361 1.52132 11.941 1.40455L11.6191 2.21818C11.7175 2.25711 11.7984 2.33035 11.8469 2.42436L12.6245 2.02308ZM12.8045 2.89817C12.7861 2.71404 12.7704 2.55464 12.7483 2.42341C12.7256 2.28787 12.6919 2.15375 12.6245 2.02308L11.8469 2.42436C11.856 2.44193 11.8701 2.47688 11.8854 2.56832C11.9015 2.66406 11.9143 2.78954 11.9338 2.98524L12.8045 2.89817ZM13.5625 10.5C13.5625 12.1914 12.1914 13.5625 10.5 13.5625V14.4375C12.6746 14.4375 14.4375 12.6746 14.4375 10.5H13.5625ZM10.5 7.4375C12.1914 7.4375 13.5625 8.80863 13.5625 10.5H14.4375C14.4375 8.32538 12.6746 6.5625 10.5 6.5625V7.4375ZM7.4375 10.5C7.4375 8.80863 8.80863 7.4375 10.5 7.4375V6.5625C8.32538 6.5625 6.5625 8.32538 6.5625 10.5H7.4375ZM10.5 13.5625C8.80863 13.5625 7.4375 12.1914 7.4375 10.5H6.5625C6.5625 12.6746 8.32538 14.4375 10.5 14.4375V13.5625Z" fill="#222222"/>
</svg>
