<svg width="20" height="18" viewBox="0 0 20 18" fill="none" xmlns="http://www.w3.org/2000/svg">
<path d="M6.80213 0.00113585C10.5154 -0.0683148 13.5693 3.05697 13.5693 6.73785C13.5693 10.4882 10.5154 13.544 6.76742 13.544C3.08888 13.544 -0.0344168 10.4882 0.000286449 6.6684C0.069693 3.05697 3.12358 -0.0683148 6.80213 0.00113585ZM0.833168 6.77257C0.729058 10.002 3.57473 13.0579 7.32268 12.7801C10.0642 12.5717 13.0487 10.2104 12.8058 6.32115C12.6323 3.61257 10.3072 0.556742 6.31629 0.799819C3.50532 0.973446 0.763762 3.43894 0.833168 6.77257Z" fill="#B11811"/>
<path d="M19.018 15.9746C19.0527 15.3842 18.6709 15.1064 18.2545 14.7939C17.5604 14.273 16.8663 13.7521 16.1723 13.2313C15.5476 12.7798 14.8883 12.2937 14.2636 11.8423C14.0207 11.6686 13.7777 11.4603 13.5001 11.2866C13.396 11.2172 13.396 11.1825 13.4654 11.0436C13.8125 10.5227 13.7778 10.5227 14.2983 10.8699C15.3394 11.6339 16.3805 12.3979 17.4216 13.1618C17.9769 13.5785 18.5668 13.9605 19.0874 14.4119C19.6773 14.8981 19.9202 15.5579 19.7814 16.3218C19.6426 17.0163 19.2609 17.5025 18.6362 17.7803C17.8033 18.1275 17.0399 17.9539 16.4152 17.3289C15.3394 16.2871 14.2636 15.2106 13.1878 14.1688C12.8061 13.7869 12.3896 13.4049 12.0079 13.0229C11.9732 12.9882 11.9385 12.9535 11.9385 12.9535C11.9385 12.7104 12.1814 12.6062 12.2855 12.4673C12.3896 12.3631 12.459 12.4326 12.5631 12.502C13.396 13.3007 14.1942 14.0994 15.0271 14.8981C15.6864 15.5579 16.3458 16.2176 17.0399 16.8427C17.3175 17.1205 17.9421 17.2247 18.2545 17.0858C18.7403 16.9469 19.0874 16.426 19.018 15.9746Z" fill="#B11811"/>
<path d="M7.01044 2.88326C7.84332 2.88326 8.43327 3.09161 8.84971 3.75139C8.98853 3.95974 8.98853 4.20282 8.98853 4.41118C9.02323 5.34876 8.60679 6.21689 7.6698 6.56414C7.11455 6.7725 6.94103 7.1892 7.04514 7.7448C7.07985 7.98788 6.97574 8.16151 6.73282 8.19623C6.5246 8.23096 6.35108 8.12678 6.28167 7.95316C6.07345 7.39755 6.38578 6.4947 6.87163 6.14744C7.04514 6.00854 7.25336 5.90436 7.42688 5.83491C8.15565 5.48766 8.32916 4.79315 8.15565 4.13337C8.08624 3.82085 7.77391 3.68194 7.49629 3.64722C7.18396 3.61249 6.83692 3.57777 6.52459 3.68194C6.14286 3.82084 5.96934 4.06392 5.93464 4.4459C5.93464 4.51535 5.93464 4.61952 5.93464 4.68897C5.89994 4.89733 5.76112 5.0015 5.58761 5.03623C5.41409 5.07095 5.27528 4.96678 5.24057 4.75843C5.06706 3.99447 5.44879 3.26524 6.21227 2.98744C6.48989 2.91799 6.80222 2.84853 7.01044 2.88326Z" fill="#B11811"/>
<path d="M7.01056 1.66766C7.04526 1.84128 7.01055 1.98019 6.69822 2.01491C5.03247 2.15381 3.67904 2.88304 2.84616 4.34151C2.42972 5.07074 2.1868 5.86942 2.1868 6.70283C2.1868 6.91118 2.11739 6.98063 1.90917 6.9459C1.87447 6.9459 1.80506 6.9459 1.77036 6.9459C1.42333 6.9459 1.42333 6.91118 1.45803 6.56393C1.49273 5.90415 1.63154 5.27909 1.90917 4.68876C2.42972 3.54282 3.19319 2.63997 4.26899 1.98019C4.96306 1.56348 5.72653 1.35513 6.52471 1.21623C6.55941 1.21623 6.62882 1.21623 6.66352 1.21623C7.01055 1.1815 7.01056 1.1815 7.01056 1.66766Z" fill="#B11811"/>
<path d="M6.80208 10.2451C6.45505 10.2451 6.00391 9.82843 6.00391 9.48118C6.00391 9.06448 6.35094 8.75195 6.80208 8.75195C7.21852 8.75195 7.53085 9.06448 7.53085 9.48118C7.53085 9.93261 7.11441 10.2451 6.80208 10.2451Z" fill="#B11811"/>
</svg>
