<svg width="23" height="16" viewBox="0 0 23 16" fill="none" xmlns="http://www.w3.org/2000/svg">
<path d="M22.5918 5.38242C22.5918 5.03517 22.4877 4.68791 22.2795 4.44484C21.9672 4.09758 21.5854 3.95869 21.0996 3.95869C17.8375 3.95869 14.5754 3.95869 11.3133 3.95869H10.1681C10.0639 1.771 8.25938 0 6.03837 0C3.81736 0 2.01279 1.771 1.90868 3.95869C1.70046 3.95869 1.38813 3.95869 1.28402 3.95869C0.832879 3.95869 0.451143 4.20176 0.20822 4.61846C0.0347034 4.89626 0 5.17407 0 5.48659C0 8.29935 0 11.1121 0 13.9248C0 14.2026 0.0347033 14.5152 0.173516 14.7583C0.416439 15.175 0.763472 15.4528 1.21461 15.4528C4.58083 15.4528 7.91234 15.4528 11.2786 15.4528C14.6448 15.4528 17.9763 15.4528 21.3425 15.4528C21.516 15.4528 21.6895 15.418 21.8284 15.3486C22.3489 15.0708 22.5918 14.6194 22.5918 14.029V11.7372C22.5918 9.58418 22.5918 7.46594 22.5918 5.38242ZM6.03837 0.694506C7.94705 0.694506 9.47399 2.25715 9.47399 4.13232C9.47399 6.04221 7.91235 7.57011 6.03837 7.57011C4.12969 7.57011 2.60275 6.00749 2.60275 4.13232C2.56804 2.25715 4.12969 0.694506 6.03837 0.694506ZM21.8631 13.9596C21.8631 14.5152 21.516 14.7583 21.0649 14.7583C14.5407 14.7583 8.01645 14.7583 1.49224 14.7583C1.0411 14.7583 0.694065 14.4805 0.694065 13.9596C0.694065 11.1121 0.694065 8.26462 0.694065 5.38242C0.694065 4.93099 0.971692 4.6532 1.42283 4.6532H1.90868C2.18631 6.70199 3.92147 8.26462 6.00366 8.26462C8.12056 8.26462 9.85573 6.70199 10.0987 4.6532H11.6256C14.7836 4.6532 17.9416 4.6532 21.0649 4.6532C21.4813 4.6532 21.8284 4.89626 21.8284 5.41714C21.8631 8.26462 21.8631 11.1121 21.8631 13.9596Z" fill="#6E6E6E"/>
<path d="M9.43908 11.9455C9.43908 11.5983 9.33497 11.5288 9.02264 11.5288H3.05368C2.70665 11.5288 2.60254 11.633 2.60254 11.9455C2.60254 12.3275 2.60254 12.7442 2.60254 13.1262C2.60254 13.5081 2.70665 13.6123 3.08839 13.6123H8.46739C8.67561 13.6123 8.84913 13.6123 9.05735 13.6123C9.26557 13.6123 9.47379 13.4734 9.43908 13.2303C9.43908 12.8136 9.43908 12.3969 9.43908 11.9455ZM8.74502 12.3969C8.74502 12.5011 8.74502 12.64 8.74502 12.7442C8.74502 12.8831 8.71031 12.9178 8.5715 12.9178C6.87104 12.9178 5.17058 12.9178 3.50482 12.9178C3.36601 12.9178 3.33131 12.8831 3.33131 12.7442C3.33131 12.64 3.33131 12.5358 3.33131 12.4317C3.33131 12.2928 3.36601 12.258 3.50482 12.258C4.3377 12.258 5.20528 12.258 6.03816 12.258C6.87104 12.258 7.70392 12.258 8.5715 12.258C8.67561 12.2233 8.74502 12.258 8.74502 12.3969Z" fill="#6E6E6E"/>
<path d="M8.22451 10.0705H19.9195C20.2318 10.0705 20.4054 9.79274 20.2318 9.51494C20.1624 9.34131 20.0236 9.34131 19.8501 9.34131H8.22451C7.98159 9.34131 7.84277 9.51493 7.84277 9.72328C7.84277 9.89691 7.98159 10.0705 8.22451 10.0705Z" fill="#6E6E6E"/>
<path d="M8.22451 8.50768H14.0547H19.8848C20.0583 8.50768 20.1971 8.43824 20.2665 8.29933C20.3359 8.12571 20.2665 8.02153 20.1624 7.88263C20.0583 7.77845 19.9542 7.81317 19.8501 7.81317C16.1022 7.81317 12.3889 7.81317 8.67565 7.81317H8.25921C8.05099 7.81317 7.84277 7.9868 7.84277 8.16042C7.84277 8.22988 7.84277 8.29933 7.91218 8.33405C7.94688 8.43823 8.0857 8.50768 8.22451 8.50768Z" fill="#6E6E6E"/>
<path d="M14.645 6.94499C15.5472 6.94499 16.4148 6.94499 17.3171 6.94499C18.2194 6.94499 19.1217 6.94499 20.024 6.94499C20.1281 6.94499 20.1975 6.91027 20.2322 6.84082C20.3016 6.73665 20.3363 6.59773 20.2669 6.45883C20.1975 6.31993 20.0587 6.25049 19.9199 6.25049C18.1847 6.25049 16.4148 6.25049 14.645 6.25049C14.402 6.25049 14.2285 6.38939 14.2285 6.59774C14.2285 6.80609 14.402 6.94499 14.645 6.94499Z" fill="#6E6E6E"/>
<path d="M19.9546 12.7788C19.4687 12.7788 19.0176 12.7788 18.5317 12.7788H17.0742C17.0048 12.7788 16.9354 12.7788 16.866 12.8483C16.7272 12.9872 16.7272 13.1261 16.7966 13.265C16.866 13.4039 17.0048 13.4733 17.1436 13.4733C18.0459 13.4733 18.9482 13.4733 19.8852 13.4733C19.9893 13.4733 20.1281 13.4386 20.1975 13.3691C20.3016 13.265 20.3363 13.1261 20.2669 12.9872C20.1975 12.8483 20.1281 12.7788 19.9546 12.7788Z" fill="#6E6E6E"/>
<path d="M4.99757 5.7296L6.03866 4.72256L7.04506 5.7296L7.5309 5.24344L6.52451 4.23642L7.5309 3.19466L7.04506 2.7085L6.03866 3.75026L4.99757 2.7085L4.51172 3.19466L5.51811 4.23642L4.51172 5.24344L4.99757 5.7296Z" fill="#6E6E6E"/>
</svg>
