<svg width="25" height="25" viewBox="0 0 25 25" fill="none" xmlns="http://www.w3.org/2000/svg">
<path d="M18.2291 19.7977V5.20358C18.2291 4.538 17.4873 4.14101 16.9335 4.51021L15.6111 5.39181C15.3091 5.59311 14.9116 5.57586 14.6283 5.34916L13.0205 4.06295C12.7161 3.81947 12.2837 3.81947 11.9793 4.06295L10.3716 5.34916C10.0882 5.57586 9.69069 5.59311 9.38874 5.39181L8.06634 4.51021C7.51254 4.14101 6.77075 4.53801 6.77075 5.20359V19.7977C6.77075 20.4633 7.51254 20.8603 8.06634 20.4911L9.38874 19.6095C9.69069 19.4082 10.0882 19.4254 10.3716 19.6521L11.9793 20.9384C12.2837 21.1818 12.7161 21.1818 13.0205 20.9384L14.6283 19.6521C14.9116 19.4254 15.3091 19.4082 15.6111 19.6095L16.9335 20.4911C17.4873 20.8603 18.2291 20.4633 18.2291 19.7977Z" stroke="#222222" stroke-width="1.04167"/>
<path d="M9.89575 9.89648H15.1041" stroke="#222222" stroke-width="1.04167" stroke-linecap="round"/>
<path d="M9.89575 12.5H15.1041" stroke="#222222" stroke-width="1.04167" stroke-linecap="round"/>
<path d="M9.89575 15.1035H15.1041" stroke="#222222" stroke-width="1.04167" stroke-linecap="round"/>
</svg>
