<svg width="31" height="23" viewBox="0 0 31 23" fill="none" xmlns="http://www.w3.org/2000/svg">
<g id="_x37_Vklvw_00000163785603353148332300000017502331591513776001_">
<g id="Group">
<path id="Vector" d="M16.3824 4.3386C13.3193 4.3386 10.2164 4.3386 7.15332 4.3386C6.83508 4.3386 6.71573 4.41821 6.75551 4.73665C6.79529 5.37355 6.75551 5.97064 6.75551 6.60754C6.75551 7.0056 6.5964 7.20462 6.27815 7.20462C5.95991 7.20462 5.80078 7.0056 5.80078 6.60754C5.80078 5.21433 5.80078 3.82112 5.80078 2.38811C5.80078 2.10947 5.80078 1.83082 5.84056 1.55218C5.99969 0.676454 6.7953 -0.000244141 7.67048 -0.000244141C13.4784 -0.000244141 19.2466 -0.000244141 25.0546 -0.000244141C26.1685 -0.000244141 27.0039 0.875483 27.0039 1.95024C27.0039 5.29394 27.0039 8.63764 27.0039 11.9813C27.0039 13.1357 26.1685 13.9716 25.0148 13.9716C19.5251 13.9716 14.0354 13.9716 8.54564 13.9716C8.14784 13.9716 7.78981 14.0114 7.39201 13.9318C6.43727 13.7328 5.80078 13.0163 5.80078 12.0211C5.80078 11.4638 5.80078 10.8668 5.80078 10.3095C5.80078 9.91142 5.95991 9.71239 6.27815 9.71239C6.5964 9.71239 6.75551 9.91142 6.75551 10.3095C6.75551 10.8668 6.75551 11.424 6.75551 11.9813C6.75551 12.5784 7.15332 12.9765 7.75003 12.9765C13.5182 12.9765 19.2864 12.9765 25.0148 12.9765C25.5718 12.9765 25.9696 12.5784 25.9696 12.0609C25.9696 9.55317 25.9696 7.0454 25.9696 4.57743C25.9696 4.29879 25.8104 4.3386 25.6115 4.3386C22.5882 4.3386 19.4853 4.3386 16.3824 4.3386ZM16.3824 3.38326C18.093 3.38326 19.8036 3.38326 21.5539 3.38326C22.9462 3.38326 24.3386 3.38326 25.7309 3.38326C25.9298 3.38326 26.0491 3.38325 26.0491 3.10461C26.0093 2.74636 26.0491 2.3483 26.0491 1.99005C26.0491 1.35316 25.6911 0.955095 25.0546 0.955095C19.3262 0.955095 13.558 0.955095 7.8296 0.955095C7.23289 0.955095 6.83508 1.35315 6.83508 1.95024C6.83508 2.3085 6.83508 2.66675 6.83508 3.02501C6.83508 3.26384 6.87486 3.34345 7.15332 3.34345C10.1766 3.38325 13.2795 3.38326 16.3824 3.38326Z" fill="black"/>
<path id="Vector_2" d="M20.2396 21.9726C17.4152 21.9726 14.551 21.9726 11.7265 21.9726C10.4536 21.9726 9.61816 21.1765 9.61816 19.9027C9.61816 18.3901 9.61816 16.9172 9.61816 15.4046C9.61816 15.0464 9.77729 14.8473 10.0558 14.8473C10.3342 14.8473 10.5729 15.0464 10.5729 15.4046C10.5729 15.4444 10.5729 15.524 10.5729 15.5639C10.5729 17.0765 10.5729 18.5493 10.5729 20.0619C10.5729 20.5396 10.8514 20.858 11.289 20.9774C11.4083 21.0172 11.4879 21.0173 11.6072 21.0173C17.3356 21.0173 23.064 21.0173 28.7924 21.0173C29.4289 21.0173 29.8267 20.6192 29.8267 19.9823C29.8267 16.6784 29.8267 13.3347 29.8267 10.0308C29.8267 9.39393 29.4289 8.99588 28.7924 8.99588C28.5537 8.99588 28.3548 8.99588 28.1559 8.99588C27.8775 8.95607 27.7183 8.79685 27.7183 8.5182C27.7183 8.23956 27.8775 8.08034 28.1162 8.04053C28.5537 8.00072 29.0311 8.00073 29.4289 8.12015C30.2245 8.39879 30.7815 9.1153 30.7815 9.99103C30.7815 13.3347 30.7815 16.6784 30.7815 20.0221C30.7815 21.2163 29.9461 22.0124 28.7526 22.0522C25.968 21.9726 23.1038 21.9726 20.2396 21.9726Z" fill="black"/>
<path id="Vector_3" d="M12.7619 7.88149C12.4834 7.60285 12.1652 7.28441 11.8867 7.00577C11.8072 6.92616 11.7276 6.84654 11.6481 6.72713C11.5287 6.5281 11.5685 6.28926 11.7674 6.13004C11.9663 5.97081 12.205 5.97081 12.3641 6.13004C13.0404 6.76693 13.7166 7.44363 14.3531 8.12033C14.552 8.31936 14.5123 8.5582 14.3134 8.75723C13.6769 9.39412 13.0404 10.031 12.4039 10.6679C12.205 10.8669 11.9265 10.8271 11.7276 10.6679C11.5287 10.4689 11.5287 10.1902 11.7276 9.99121C12.0061 9.71257 12.2845 9.43393 12.5232 9.1951C12.6028 9.11548 12.6823 9.07568 12.7221 8.95626C12.6426 8.87665 12.563 8.91645 12.4835 8.91645C9.46013 8.91645 6.43679 8.91645 3.37368 8.91645C2.02114 8.91645 0.986843 9.99121 0.986843 11.3048C0.986843 11.7029 0.986843 12.0611 0.986843 12.4592C0.986843 12.7378 0.867511 12.9369 0.549266 12.9767C0.270802 13.0165 0.0321105 12.8572 0.0321105 12.5786C-0.0474507 11.3446 -0.0474483 10.1106 0.867506 9.07567C1.54378 8.31936 2.41895 7.9213 3.41346 7.9213C6.47657 7.9213 9.53968 7.9213 12.6028 7.9213C12.6426 7.96111 12.6824 8.00091 12.7619 7.88149Z" fill="black"/>
<path id="Vector_4" d="M21.9112 11.583C21.3542 11.583 20.7973 11.583 20.2802 11.583C19.6835 11.583 19.2856 11.185 19.2856 10.5879C19.2856 10.0306 19.2856 9.47331 19.2856 8.91603C19.2856 8.35875 19.7232 7.96069 20.2802 7.96069C21.394 7.96069 22.5079 7.96069 23.582 7.96069C24.1389 7.96069 24.5367 8.35875 24.5765 8.91603C24.5765 9.51312 24.6163 10.1102 24.5765 10.7073C24.5765 11.2248 24.1787 11.583 23.6615 11.6228C23.0648 11.583 22.5079 11.583 21.9112 11.583ZM21.9112 8.95584C21.4338 8.95584 20.9564 8.95584 20.4791 8.95584C20.2802 8.95584 20.2404 8.99565 20.2404 9.19468C20.2404 9.59274 20.2404 9.9908 20.2404 10.3889C20.2404 10.5879 20.3199 10.6675 20.5188 10.6675C21.4736 10.6675 22.4283 10.6675 23.3831 10.6675C23.582 10.6675 23.6615 10.5879 23.6615 10.3889C23.6615 10.0306 23.6217 9.67235 23.6615 9.3539C23.7013 9.07526 23.6217 8.95584 23.3035 8.99565C22.8261 8.95584 22.3885 8.95584 21.9112 8.95584Z" fill="black"/>
<path id="Vector_5" d="M15.6662 19.5443C15.507 19.5443 15.3479 19.5443 15.1888 19.5443C14.9103 19.5443 14.7512 19.3851 14.7512 19.1065C14.7114 18.8278 14.8705 18.6686 15.1092 18.6288C15.507 18.5492 15.9048 18.5492 16.3027 18.6288C16.5811 18.6686 16.6607 18.8676 16.6209 19.1463C16.5811 19.3851 16.422 19.5443 16.1833 19.5443C15.9844 19.5443 15.8253 19.5443 15.6662 19.5443Z" fill="black"/>
<path id="Vector_6" d="M13.0004 19.5442C12.8413 19.5442 12.6821 19.5442 12.523 19.5442C12.2446 19.5043 12.0854 19.3849 12.0854 19.1063C12.0854 18.8276 12.2048 18.6286 12.4833 18.6286C12.8413 18.5888 13.1993 18.5888 13.5175 18.6286C13.8358 18.6286 13.9949 18.8674 13.9949 19.1063C13.9949 19.3849 13.796 19.5442 13.5175 19.5442C13.3186 19.5442 13.1595 19.5442 13.0004 19.5442Z" fill="black"/>
<path id="Vector_7" d="M18.2926 19.5442C18.1335 19.5442 17.9744 19.5442 17.8153 19.5442C17.5368 19.5442 17.3777 19.3451 17.3379 19.0665C17.3379 18.8277 17.497 18.6286 17.7357 18.5888C18.1335 18.549 18.4915 18.549 18.8893 18.5888C19.1678 18.6286 19.2871 18.8277 19.2871 19.0665C19.2474 19.3053 19.128 19.5044 18.8496 19.5044C18.6507 19.5442 18.4915 19.5442 18.2926 19.5442Z" fill="black"/>
</g>
</g>
</svg>
