<svg width="22" height="22" viewBox="0 0 22 22" fill="none" xmlns="http://www.w3.org/2000/svg">
<path d="M11.0007 3.6665L4.58398 6.4165L11.0007 9.1665L17.4173 6.4165L11.0007 3.6665Z" stroke="#1151B1" stroke-width="0.916667" stroke-linejoin="round"/>
<path fill-rule="evenodd" clip-rule="evenodd" d="M7.02175 9.45605L4.40279 10.5785C4.23427 10.6507 4.125 10.8164 4.125 10.9997C4.125 11.1831 4.23427 11.3488 4.40279 11.421L10.8195 14.171C10.9347 14.2204 11.0653 14.2204 11.1805 14.171L17.5972 11.421C17.7657 11.3488 17.875 11.1831 17.875 10.9997C17.875 10.8164 17.7657 10.6507 17.5972 10.5785L14.9782 9.45605L13.8147 9.95471L16.2531 10.9997L11 13.2511L5.74685 10.9997L8.18527 9.95471L7.02175 9.45605Z" fill="#1151B1"/>
<path fill-rule="evenodd" clip-rule="evenodd" d="M7.02175 14.0396L4.40279 15.162C4.23427 15.2342 4.125 15.3999 4.125 15.5832C4.125 15.7666 4.23427 15.9323 4.40279 16.0045L10.8195 18.7545C10.9347 18.8039 11.0653 18.8039 11.1805 18.7545L17.5972 16.0045C17.7657 15.9323 17.875 15.7666 17.875 15.5832C17.875 15.3999 17.7657 15.2342 17.5972 15.162L14.9782 14.0396L13.8147 14.5382L16.2531 15.5832L11 17.8346L5.74685 15.5832L8.18528 14.5382L7.02175 14.0396Z" fill="#1151B1"/>
</svg>
