<svg width="197" height="197" viewBox="0 0 197 197" fill="none" xmlns="http://www.w3.org/2000/svg">
<circle cx="98.5" cy="98.5" r="98.5" fill="#FCBA11" fill-opacity="0.13"/>
<circle cx="98.4999" cy="98.5009" r="69.9032" fill="#FFF7E1"/>
<path d="M94.818 64.7C96.2806 62.1667 99.9372 62.1667 101.4 64.7L135.954 124.55C137.417 127.083 135.589 130.25 132.663 130.25H63.5545C60.6292 130.25 58.801 127.083 60.2636 124.55L94.818 64.7Z" fill="#FCBA11"/>
<path d="M100.007 83.7008C100.007 84.7501 99.1564 85.6008 98.107 85.6008C97.0577 85.6008 96.207 84.7501 96.207 83.7008C96.207 82.6514 97.0577 81.8008 98.107 81.8008C99.1564 81.8008 100.007 82.6514 100.007 83.7008Z" fill="white" stroke="white" stroke-width="3.8"/>
<path d="M98.1089 119.805V93.2051" stroke="white" stroke-width="7.6"/>
</svg>
