<svg width="21" height="21" viewBox="0 0 21 21" fill="none" xmlns="http://www.w3.org/2000/svg">
<path d="M7.54587 11.6204C5.63719 11.6204 3.69381 11.6204 1.78513 11.6204C1.36869 11.6204 1.33398 11.5857 1.33398 11.169C1.33398 10.9259 1.33398 10.6481 1.33398 10.405C1.33398 10.1967 1.4381 10.1272 1.64632 10.1272C1.68102 10.1272 1.71572 10.1272 1.75043 10.1272C2.5139 10.1272 2.5139 10.1272 2.5139 9.36327C2.5139 7.9048 2.5139 6.48107 2.5139 5.0226C2.5139 4.7448 2.44449 4.60591 2.13216 4.60591C1.26458 4.64063 1.36869 4.6059 1.36869 3.84194C1.36869 3.52942 1.4728 3.35579 1.75043 3.18217C3.5897 2.17513 5.46368 1.13337 7.30295 0.0916144C7.51117 -0.0125616 7.68469 -0.0472869 7.89291 0.0916144C9.73218 1.13337 11.5715 2.17513 13.4454 3.18217C13.7231 3.32107 13.8272 3.49469 13.8272 3.80722C13.7925 4.6059 13.9313 4.6059 13.029 4.57118C12.7514 4.57118 12.682 4.64063 12.682 4.91843C12.682 6.55052 12.682 8.14788 12.682 9.77997C12.682 9.98833 12.7514 10.0578 12.9596 10.0578C13.9313 10.0578 13.8272 9.98832 13.8272 10.9259C13.8272 11.551 13.8272 11.551 13.1678 11.551C11.2591 11.6204 9.41985 11.6204 7.54587 11.6204ZM7.54587 4.11974C9.35044 4.11974 11.155 4.11974 12.9943 4.11974C13.0984 4.11974 13.2372 4.1892 13.2719 4.01557C13.2719 3.87667 13.3066 3.73776 13.1331 3.59886C11.3632 2.62655 9.55866 1.61953 7.78879 0.612494C7.61528 0.508318 7.51117 0.543043 7.33765 0.612494C5.56778 1.5848 3.83262 2.59184 2.06276 3.56415C1.88924 3.66832 1.81983 3.77249 1.85453 3.98084C1.88924 4.22392 2.09746 4.11974 2.20157 4.11974C3.97143 4.11974 5.77601 4.11974 7.54587 4.11974ZM5.29016 7.38393C5.29016 6.72415 5.29016 6.06436 5.29016 5.40458C5.29016 4.57118 5.29016 4.60591 4.45728 4.60591C4.21436 4.60591 4.14495 4.67535 4.14495 4.91843C4.14495 6.37689 4.14495 7.83536 4.14495 9.25909C4.14495 10.1272 4.14495 10.1272 5.01253 10.0925C5.22075 10.0925 5.29016 10.0231 5.29016 9.8147C5.29016 9.01602 5.29016 8.21734 5.29016 7.38393ZM9.80159 7.3492C9.80159 8.00898 9.80159 8.66876 9.80159 9.32854C9.80159 10.1272 9.80159 10.0925 10.5998 10.1272C10.8774 10.1272 10.9468 10.0578 10.9468 9.77997C10.9468 8.35624 10.9468 6.89778 10.9468 5.47404C10.9468 4.60591 10.9468 4.60591 10.0445 4.60591C9.83629 4.60591 9.80159 4.71008 9.80159 4.8837C9.83629 5.71711 9.80159 6.51579 9.80159 7.3492ZM6.99062 7.3492C6.99062 8.00898 6.99062 8.63404 6.99062 9.29382C6.99062 9.5369 6.8518 9.88415 7.06002 10.0578C7.23354 10.1967 7.58058 10.0925 7.8235 10.0925C8.06642 10.1272 8.10112 10.0231 8.10112 9.8147C8.10112 8.35624 8.10112 6.89777 8.10112 5.43931C8.10112 4.6059 8.10112 4.60591 7.23354 4.60591C7.02532 4.60591 6.95592 4.67535 6.95592 4.8837C7.02532 5.71711 6.99062 6.55052 6.99062 7.3492ZM7.54587 11.1343C9.35044 11.1343 11.155 11.1343 12.9596 11.1343C13.1678 11.1343 13.2719 11.1343 13.2719 10.8565C13.2719 10.5787 13.1331 10.6134 12.9596 10.6134C11.4326 10.6134 9.9057 10.6481 8.34405 10.6481C6.29656 10.6481 4.24906 10.6481 2.20157 10.6481C2.02805 10.6481 1.81983 10.5787 1.81983 10.9259C1.81983 11.2384 1.99335 11.169 2.16687 11.169C3.97144 11.1343 5.77601 11.1343 7.54587 11.1343ZM5.81071 7.3492C5.81071 8.18261 5.81071 9.01602 5.81071 9.8147C5.81071 10.0578 5.91482 10.1272 6.12304 10.0925C6.29655 10.0578 6.53948 10.162 6.50477 9.8147C6.50477 8.14789 6.50477 6.48106 6.50477 4.81425C6.50477 4.43227 6.22715 4.6059 6.08834 4.57118C5.91482 4.53645 5.81071 4.57117 5.81071 4.81425C5.81071 5.68238 5.81071 6.51579 5.81071 7.3492ZM9.31574 7.38393C9.31574 6.55052 9.31574 5.71711 9.31574 4.91843C9.31574 4.64063 9.17692 4.64062 8.9687 4.64062C8.79519 4.64062 8.58697 4.57118 8.58697 4.8837C8.58697 6.55052 8.58697 8.21733 8.58697 9.88415C8.58697 10.2661 8.82989 10.0925 9.00341 10.1272C9.21163 10.162 9.31574 10.1272 9.31574 9.84942C9.31574 9.01601 9.31574 8.18261 9.31574 7.38393ZM12.1267 7.38393C12.1267 6.55052 12.1267 5.71711 12.1267 4.8837C12.1267 4.6059 11.9879 4.60591 11.8144 4.60591C11.6409 4.60591 11.4326 4.53645 11.4326 4.84898C11.4326 6.51579 11.4326 8.1826 11.4326 9.84942C11.4326 10.1967 11.6756 10.0925 11.8491 10.0925C12.0573 10.1272 12.1614 10.0578 12.1614 9.8147C12.1267 9.01602 12.1267 8.21734 12.1267 7.38393ZM2.99974 7.38393C2.99974 8.18261 2.99974 8.98129 2.99974 9.8147C2.99974 9.91888 2.96504 10.0578 3.03445 10.0925C3.20796 10.162 3.41618 10.162 3.5897 10.0925C3.72851 10.0578 3.65911 9.88415 3.65911 9.77997C3.65911 8.14788 3.65911 6.55052 3.65911 4.91843C3.65911 4.67535 3.5897 4.6059 3.34678 4.64062C3.13856 4.64062 2.93034 4.60591 2.93034 4.95316C2.99974 5.75184 2.99974 6.58525 2.99974 7.38393Z" fill="#9010F4"/>
<path d="M12.1966 20.6143C10.6696 20.6143 9.14267 20.5795 7.61573 20.6143C6.78285 20.649 6.2623 20.2323 5.91527 19.5725C5.60294 19.0169 5.49883 18.7738 6.36641 18.8086C6.64403 18.8433 6.71344 18.7391 6.71344 18.4613C6.71344 16.8292 6.71344 15.1971 6.71344 13.565C6.71344 12.9052 6.99107 12.6274 7.65043 12.6274C10.6696 12.6274 13.7235 12.6274 16.7427 12.6274C17.4715 12.6274 17.7144 12.8705 17.7144 13.5998C17.7144 15.2318 17.7144 16.8292 17.7144 18.4613C17.7144 18.7391 17.7838 18.878 18.0614 18.8086H18.0961C18.9637 18.7391 18.7902 19.0516 18.5473 19.5378C18.1655 20.2323 17.645 20.6143 16.7774 20.6143C15.2504 20.5795 13.7235 20.6143 12.1966 20.6143ZM12.1966 18.8086C13.7929 18.8086 15.3893 18.8086 16.9509 18.8086C17.1244 18.8086 17.2285 18.8085 17.2285 18.5655C17.2285 16.8987 17.2285 15.2318 17.2285 13.565C17.2285 13.1483 17.1938 13.1136 16.7774 13.1136C13.7235 13.1136 10.6696 13.1136 7.61573 13.1136C7.3381 13.1136 7.19929 13.2178 7.19929 13.5303C7.19929 15.1971 7.19929 16.8639 7.19929 18.5307C7.19929 18.7738 7.26869 18.8086 7.51162 18.8086C9.07326 18.8086 10.6349 18.8086 12.1966 18.8086ZM6.40111 19.3294C6.53993 19.8156 6.92166 20.0934 7.44221 20.0934C10.6349 20.0934 13.8276 20.0934 17.0203 20.0934C17.4021 20.0934 17.6797 19.9198 17.8879 19.6072C17.9573 19.5378 18.0614 19.4336 18.0267 19.3294C17.992 19.2253 17.8532 19.2947 17.7491 19.2947C14.0358 19.2947 10.3226 19.2947 6.64404 19.2947C6.53993 19.3294 6.47052 19.3294 6.40111 19.3294Z" fill="#9010F4"/>
<path d="M19.1371 9.67582C18.443 9.57165 18.443 9.57165 18.443 8.87715C18.443 8.32154 18.443 7.76594 18.443 7.17561C18.443 6.72418 18.3389 6.58527 17.8531 6.58527C17.0202 6.58527 16.1526 6.58527 15.3197 6.58527C15.2156 6.58527 15.1115 6.58527 15.0421 6.58527C14.9033 6.55055 14.7992 6.4811 14.8339 6.30748C14.8339 6.16857 14.938 6.09912 15.0768 6.09912C15.2156 6.09912 15.3891 6.09912 15.5279 6.09912C16.3261 6.09912 17.1243 6.09912 17.9225 6.09912C18.6512 6.09912 18.9983 6.44638 18.9983 7.17561C18.9983 7.73121 18.9983 8.28682 18.9983 8.87715C18.9983 9.0855 19.033 9.15495 19.2412 9.12023C19.4147 9.12023 19.5882 9.12023 19.7617 9.12023C20.0047 9.15495 20.1088 9.32857 19.9353 9.53692C19.38 10.1967 18.8247 10.8565 18.2695 11.5163C18.1307 11.6552 17.9919 11.6552 17.8531 11.5163C17.2978 10.8565 16.7426 10.2314 16.222 9.57165C16.0485 9.3633 16.1526 9.18967 16.3955 9.15494H16.4302C16.6731 9.12022 17.0202 9.25913 17.0896 9.0855C17.1937 8.8077 17.1243 8.42571 17.1243 8.11318C17.1243 7.93956 16.9855 8.00901 16.8814 8.00901C16.3261 8.00901 15.7709 8.00901 15.2156 8.00901C15.0421 8.00901 14.8339 8.00901 14.8339 7.76593C14.8339 7.52285 15.0074 7.48813 15.2156 7.48813C15.875 7.48813 16.5343 7.48813 17.2284 7.48813C17.506 7.48813 17.6101 7.62704 17.6101 7.90484C17.6101 8.32155 17.6101 8.73824 17.6101 9.15494C17.6101 9.60637 17.5754 9.6411 17.1243 9.67582C17.0896 9.67582 17.0202 9.67582 16.9161 9.67582C17.2978 10.1273 17.6101 10.5092 17.9572 10.8912C18.0613 11.0301 18.1307 10.9259 18.2001 10.8565C18.5124 10.4745 18.8247 10.0925 19.1371 9.67582Z" fill="#9010F4"/>
<path d="M0.813597 15.058C0.95241 15.058 1.02182 15.058 1.09122 15.058C1.47296 15.058 1.54237 15.0928 1.54237 15.5095C1.54237 16.204 1.54237 16.8638 1.54237 17.5583C1.54237 17.9402 1.68118 18.0791 2.06292 18.0791C2.9652 18.0791 3.83278 18.0791 4.73507 18.0791C4.80447 18.0791 4.87388 18.0791 4.90858 18.0791C5.0821 18.0791 5.15151 18.1833 5.15151 18.3569C5.15151 18.5306 5.0474 18.6 4.90858 18.6C3.86749 18.6 2.86109 18.6 1.81999 18.6C1.36885 18.6 1.02182 18.1486 1.02182 17.6972C1.02182 17.1068 1.02182 16.5165 1.02182 15.9262C1.02182 15.6831 0.952414 15.6136 0.709491 15.6484C0.570678 15.6484 0.431861 15.6484 0.293047 15.6484C0.0154213 15.6136 -0.0886853 15.4053 0.084831 15.1969C0.640083 14.5372 1.19533 13.9121 1.71588 13.2523C1.8547 13.0787 2.02821 13.1134 2.13232 13.2523C2.65287 13.8774 3.20813 14.5024 3.72867 15.1275C3.79808 15.2317 3.86749 15.3358 3.79808 15.44C3.72867 15.5442 3.62456 15.5789 3.52045 15.5789C3.31223 15.5789 3.03461 15.4747 2.89579 15.6484C2.75698 15.822 2.86109 16.0998 2.86109 16.3429C2.82639 16.6554 2.9305 16.7596 3.24283 16.7596C3.76337 16.7249 4.24922 16.7596 4.76977 16.7596C4.94329 16.7596 5.11681 16.7596 5.11681 17.0027C5.11681 17.211 4.94329 17.2457 4.76977 17.2457C4.07571 17.2457 3.38164 17.2457 2.68758 17.2457C2.44465 17.2457 2.34054 17.1416 2.34054 16.8638C2.34054 16.4123 2.34054 15.9956 2.34054 15.5442C2.34054 15.0928 2.37524 15.0928 2.82639 15.0928C2.86109 15.0928 2.9305 15.0928 3.03461 15.0928C2.65287 14.6413 2.30584 14.2246 1.95881 13.8426C1.8894 13.7385 1.81999 13.8079 1.78529 13.8774C1.54237 14.2246 1.19533 14.6066 0.813597 15.058Z" fill="#9010F4"/>
<path d="M12.1271 16.2044C11.9189 16.2044 11.7106 16.2391 11.5371 16.1696C11.1207 16.0307 10.8778 15.6487 10.9125 15.1973C10.9472 14.8153 11.2595 14.4681 11.7106 14.3986C11.8842 14.3639 11.9883 14.3986 11.9883 14.1556C11.9883 14.0514 12.0924 13.9819 12.2312 13.9819C12.37 13.9819 12.4394 14.0514 12.4394 14.1556C12.4394 14.3292 12.5435 14.3639 12.717 14.3639C13.2029 14.4334 13.5152 14.7459 13.5152 15.1626C13.5152 15.3362 13.5152 15.4751 13.307 15.5098C13.1335 15.5446 13.0641 15.4057 13.0294 15.2668C12.9947 14.9542 12.7864 14.8501 12.4741 14.8848C12.2659 14.8848 12.023 14.8848 11.8147 14.8848C11.5371 14.8848 11.3983 14.989 11.3983 15.2668C11.3983 15.5446 11.5718 15.6487 11.8147 15.6487C12.0577 15.6487 12.3353 15.6487 12.5782 15.6487C13.1335 15.6487 13.5152 15.996 13.5152 16.5169C13.5499 17.0378 13.2029 17.385 12.6129 17.4197C12.4741 17.4197 12.4394 17.4892 12.4394 17.5934C12.4394 17.7323 12.3353 17.8364 12.1965 17.8364C12.0924 17.8364 11.9536 17.7323 11.9883 17.6281C11.9883 17.4197 11.8841 17.4545 11.7453 17.4197C11.2942 17.385 10.9125 17.003 10.9125 16.621C10.9125 16.4474 10.9472 16.3432 11.1207 16.3085C11.2942 16.2738 11.3983 16.4127 11.3983 16.5516C11.433 16.8641 11.6065 16.9336 11.8842 16.9336C12.1271 16.9336 12.4047 16.9336 12.6476 16.9336C12.8905 16.9336 13.0294 16.7947 13.0294 16.5863C13.0294 16.3433 12.8905 16.2043 12.6823 16.1696C12.4741 16.2043 12.3006 16.2044 12.1271 16.2044Z" fill="#9010F4"/>
</svg>
