<svg width="22" height="22" viewBox="0 0 22 22" fill="none" xmlns="http://www.w3.org/2000/svg">
<circle cx="11" cy="11" r="10.5" stroke="white"/>
<circle cx="11" cy="11" r="10.5" stroke="white"/>
<circle cx="11" cy="11" r="10.5" stroke="white"/>
<path d="M19.0467 4.5C17.0387 6.65345 14.1766 8 10.9999 8C7.82327 8 4.96112 6.65345 2.95312 4.5" stroke="white"/>
<path d="M19.0467 4.5C17.0387 6.65345 14.1766 8 10.9999 8C7.82327 8 4.96112 6.65345 2.95312 4.5" stroke="white"/>
<path d="M19.0467 4.5C17.0387 6.65345 14.1766 8 10.9999 8C7.82327 8 4.96112 6.65345 2.95312 4.5" stroke="white"/>
<path d="M3.00016 17.5C5.00815 15.3465 7.8703 14 11.047 14C14.2236 14 17.0858 15.3466 19.0938 17.5" stroke="white"/>
<path d="M3.00016 17.5C5.00815 15.3465 7.8703 14 11.047 14C14.2236 14 17.0858 15.3466 19.0938 17.5" stroke="white"/>
<path d="M3.00016 17.5C5.00815 15.3465 7.8703 14 11.047 14C14.2236 14 17.0858 15.3466 19.0938 17.5" stroke="white"/>
<path d="M15 11.0664C15 14.0555 14.5034 16.7211 13.7198 18.6207C13.3275 19.5717 12.8731 20.3067 12.3942 20.7963C11.917 21.2841 11.4461 21.5 11 21.5C10.5539 21.5 10.083 21.2841 9.60584 20.7963C9.12695 20.3067 8.67254 19.5717 8.28023 18.6207C7.49657 16.7211 7 14.0555 7 11.0664C7 8.07736 7.49657 5.39455 8.28079 3.47755C8.67341 2.51782 9.12828 1.77423 9.6078 1.27845C10.0859 0.784145 10.5562 0.566406 11 0.566406C11.4438 0.566406 11.9141 0.784145 12.3922 1.27845C12.8717 1.77423 13.3266 2.51782 13.7192 3.47755C14.5034 5.39455 15 8.07736 15 11.0664Z" stroke="white"/>
<path d="M15 11.0664C15 14.0555 14.5034 16.7211 13.7198 18.6207C13.3275 19.5717 12.8731 20.3067 12.3942 20.7963C11.917 21.2841 11.4461 21.5 11 21.5C10.5539 21.5 10.083 21.2841 9.60584 20.7963C9.12695 20.3067 8.67254 19.5717 8.28023 18.6207C7.49657 16.7211 7 14.0555 7 11.0664C7 8.07736 7.49657 5.39455 8.28079 3.47755C8.67341 2.51782 9.12828 1.77423 9.6078 1.27845C10.0859 0.784145 10.5562 0.566406 11 0.566406C11.4438 0.566406 11.9141 0.784145 12.3922 1.27845C12.8717 1.77423 13.3266 2.51782 13.7192 3.47755C14.5034 5.39455 15 8.07736 15 11.0664Z" stroke="white"/>
<path d="M15 11.0664C15 14.0555 14.5034 16.7211 13.7198 18.6207C13.3275 19.5717 12.8731 20.3067 12.3942 20.7963C11.917 21.2841 11.4461 21.5 11 21.5C10.5539 21.5 10.083 21.2841 9.60584 20.7963C9.12695 20.3067 8.67254 19.5717 8.28023 18.6207C7.49657 16.7211 7 14.0555 7 11.0664C7 8.07736 7.49657 5.39455 8.28079 3.47755C8.67341 2.51782 9.12828 1.77423 9.6078 1.27845C10.0859 0.784145 10.5562 0.566406 11 0.566406C11.4438 0.566406 11.9141 0.784145 12.3922 1.27845C12.8717 1.77423 13.3266 2.51782 13.7192 3.47755C14.5034 5.39455 15 8.07736 15 11.0664Z" stroke="white"/>
</svg>
